<svg version="1.1" xmlns="http://www.w3.org/2000/svg" xmlns:xlink="http://www.w3.org/1999/xlink" width="463.317" height="464" viewBox="0 0 463.317 464">
  <g fill="none" stroke="none" stroke-width="1" stroke-linecap="butt" stroke-linejoin="miter" stroke-dasharray="" stroke-dashoffset="0">
    <rect x="0" y="0" width="463.317" height="464" fill="none" fill-rule="nonzero"/>
    <circle cx="231.658" cy="192" r="96" fill="#ffca28" fill-rule="nonzero"/>
    <g fill="#3c4043" fill-rule="evenodd">
      <path d="M254.99167,210.66667v-14l18.66667,18.66667l-18.66667,18.66667v-14h-28v-9.33333zM250.325,164h-32.66667c-5.15667,0.014 -9.33333,4.22333 -9.33333,9.33333v37.33333c0,-0.014 -18.65733,0 -18.66667,0v9.33333h18.66667c5.15667,0 9.33333,-4.20933 9.33333,-9.33333v-37.33333c0,0.03267 37.324,0.014 37.33333,0v14l18.66667,-18.66667l-18.66667,-18.66667v14z"/>
    </g>
    <g fill="#5f6368" fill-rule="nonzero">
      <path d="M99.92333,352h-3.92333v-30.55h10.41c2.58889,0 4.82889,0.86111 6.72,2.58333c1.89111,1.72 2.83667,3.88889 2.83667,6.50667v0c0,2.13333 -0.69667,4.01778 -2.09,5.65333c-1.39333,1.63556 -3.12889,2.66667 -5.20667,3.09333v0l-0.08333,0.12667l8.57333,12.41667v0.17h-4.65l-8.23333,-12.37333h-4.35333zM99.92333,325.20667v10.75h6.31667c1.56444,0 2.90778,-0.51222 4.03,-1.53667c1.12444,-1.02222 1.68667,-2.31556 1.68667,-3.88v0c0,-1.33778 -0.49778,-2.56111 -1.49333,-3.67c-0.99556,-1.10889 -2.31889,-1.66333 -3.97,-1.66333v0z"/>
      <path d="M128.81,352.68333v0c-3.15778,0 -5.72556,-1.05222 -7.70333,-3.15667c-1.97556,-2.10667 -2.96333,-4.76667 -2.96333,-7.98v0c0,-3.04444 0.96,-5.66111 2.88,-7.85c1.92,-2.19111 4.37333,-3.28667 7.36,-3.28667v0c3.1,0 5.58111,1.01 7.44333,3.03c1.86444,2.02 2.79667,4.72222 2.79667,8.10667v0l-0.04333,0.72667h-16.51333c0.11556,2.10444 0.82,3.76778 2.11333,4.99c1.29333,1.22444 2.80778,1.83667 4.54333,1.83667v0c2.81556,0 4.72111,-1.19556 5.71667,-3.58667v0l3.5,1.45333c-0.68222,1.62 -1.80556,2.97778 -3.37,4.07333c-1.56444,1.09556 -3.48444,1.64333 -5.76,1.64333zM122.32333,339.03h12.11667c-0.08444,-1.19556 -0.63111,-2.33333 -1.64,-3.41333c-1.01111,-1.08222 -2.51222,-1.62333 -4.50333,-1.62333v0c-1.45111,0 -2.71,0.45556 -3.77667,1.36667c-1.06667,0.91111 -1.79889,2.13444 -2.19667,3.67z"/>
      <path d="M145.70667,352h-3.92667v-20.90667h3.75333v2.9h0.17333c0.59556,-0.99556 1.51222,-1.84111 2.75,-2.53667c1.23778,-0.69778 2.46778,-1.04667 3.69,-1.04667v0c3.24444,0 5.44889,1.33667 6.61333,4.01v0c1.70667,-2.67333 4.13889,-4.01 7.29667,-4.01v0c2.47556,0 4.33889,0.79 5.59,2.37c1.25111,1.57778 1.87667,3.71778 1.87667,6.42v0v12.8h-3.92333v-12.20333c0,-2.10444 -0.38444,-3.59778 -1.15333,-4.48c-0.76889,-0.88222 -1.93556,-1.32333 -3.5,-1.32333v0c-1.53556,0 -2.80778,0.65444 -3.81667,1.96333c-1.01111,1.30889 -1.51667,2.80222 -1.51667,4.48v0v11.56333h-3.92333v-12.20333c0,-2.10444 -0.38444,-3.59778 -1.15333,-4.48c-0.76667,-0.88222 -1.93222,-1.32333 -3.49667,-1.32333v0c-1.53778,0 -2.81111,0.65444 -3.82,1.96333c-1.00889,1.30889 -1.51333,2.80222 -1.51333,4.48v0z"/>
      <path d="M179.54,333.59c2.02,-2.12 4.59444,-3.18 7.72333,-3.18c3.12889,0 5.70333,1.06 7.72333,3.18c2.01778,2.11778 3.02667,4.77 3.02667,7.95667c0,3.18667 -1.00889,5.83889 -3.02667,7.95667c-2.02,2.12 -4.59444,3.18 -7.72333,3.18c-3.12889,0 -5.70333,-1.06 -7.72333,-3.18c-2.02,-2.11778 -3.03,-4.77 -3.03,-7.95667c0,-3.18667 1.01,-5.83889 3.03,-7.95667zM182.46333,347.03c1.35111,1.38 2.95111,2.07 4.8,2.07c1.84889,0 3.44889,-0.69 4.8,-2.07c1.35111,-1.38 2.02667,-3.20778 2.02667,-5.48333c0,-2.27556 -0.67556,-4.10333 -2.02667,-5.48333c-1.35111,-1.38 -2.95111,-2.07 -4.8,-2.07c-1.84889,0 -3.44889,0.69 -4.8,2.07c-1.35111,1.38 -2.02667,3.20778 -2.02667,5.48333c0,2.27556 0.67556,4.10333 2.02667,5.48333z"/>
      <path d="M209.79,352.34v0c-2.18889,0 -3.86,-0.58222 -5.01333,-1.74667c-1.15111,-1.16667 -1.72667,-2.81667 -1.72667,-4.95v0v-10.96667h-3.67v-3.58333h3.67v-6.4h3.92333v6.4h5.12v3.58333h-5.12v10.66667c0,2.27556 0.93889,3.41333 2.81667,3.41333v0c0.71111,0 1.30889,-0.11333 1.79333,-0.34v0l1.36333,3.37c-0.85333,0.36889 -1.90556,0.55333 -3.15667,0.55333z"/>
      <path d="M224.68,352.68333v0c-3.15556,0 -5.72222,-1.05222 -7.7,-3.15667c-1.97778,-2.10667 -2.96667,-4.76667 -2.96667,-7.98v0c0,-3.04444 0.96,-5.66111 2.88,-7.85c1.92,-2.19111 4.37333,-3.28667 7.36,-3.28667v0c3.10222,0 5.58444,1.01 7.44667,3.03c1.86222,2.02 2.79333,4.72222 2.79333,8.10667v0l-0.04,0.72667h-16.51333c0.11333,2.10444 0.81778,3.76778 2.11333,4.99c1.29333,1.22444 2.80778,1.83667 4.54333,1.83667v0c2.81556,0 4.72111,-1.19556 5.71667,-3.58667v0l3.5,1.45333c-0.68444,1.62 -1.80889,2.97778 -3.37333,4.07333c-1.56444,1.09556 -3.48444,1.64333 -5.76,1.64333zM218.19667,339.03h12.11667c-0.08444,-1.19556 -0.63222,-2.33333 -1.64333,-3.41333c-1.00889,-1.08222 -2.50889,-1.62333 -4.5,-1.62333v0c-1.45111,0 -2.71,0.45556 -3.77667,1.36667c-1.06667,0.91111 -1.79889,2.13444 -2.19667,3.67z"/>
      <path d=""/>
      <path d="M261.67333,352.68333v0c-4.49333,0 -8.26222,-1.52222 -11.30667,-4.56667c-3.04444,-3.04222 -4.56667,-6.83889 -4.56667,-11.39c0,-4.55111 1.52222,-8.34889 4.56667,-11.39333c3.04444,-3.04444 6.81333,-4.56667 11.30667,-4.56667v0c4.60889,0 8.34889,1.66444 11.22,4.99333v0l-2.73,2.64667c-2.07556,-2.58889 -4.90556,-3.88333 -8.49,-3.88333v0c-3.32889,0 -6.13778,1.12333 -8.42667,3.37c-2.28889,2.24667 -3.43333,5.19111 -3.43333,8.83333c0,3.64 1.14444,6.58333 3.43333,8.83c2.28889,2.24667 5.09778,3.37 8.42667,3.37v0c3.66889,0 6.79778,-1.47889 9.38667,-4.43667v0l2.73,2.73c-1.39333,1.68 -3.14222,3.01 -5.24667,3.99c-2.10444,0.98222 -4.39444,1.47333 -6.87,1.47333z"/>
      <path d="M278.48333,333.59c2.02,-2.12 4.59444,-3.18 7.72333,-3.18c3.12889,0 5.70333,1.06 7.72333,3.18c2.02,2.11778 3.03,4.77 3.03,7.95667c0,3.18667 -1.01,5.83889 -3.03,7.95667c-2.02,2.12 -4.59444,3.18 -7.72333,3.18c-3.12889,0 -5.70333,-1.06 -7.72333,-3.18c-2.02,-2.11778 -3.03,-4.77 -3.03,-7.95667c0,-3.18667 1.01,-5.83889 3.03,-7.95667zM281.40667,347.03c1.35111,1.38 2.95111,2.07 4.8,2.07c1.84889,0 3.44889,-0.69 4.8,-2.07c1.35111,-1.38 2.02667,-3.20778 2.02667,-5.48333c0,-2.27556 -0.67556,-4.10333 -2.02667,-5.48333c-1.35111,-1.38 -2.95111,-2.07 -4.8,-2.07c-1.84889,0 -3.44889,0.69 -4.8,2.07c-1.35111,1.38 -2.02667,3.20778 -2.02667,5.48333c0,2.27556 0.67556,4.10333 2.02667,5.48333z"/>
      <path d="M300.11667,331.09333h3.75333v2.9h0.17c0.56889,-0.99556 1.46556,-1.84111 2.69,-2.53667c1.22222,-0.69778 2.53,-1.04667 3.92333,-1.04667v0c2.58889,0 4.56667,0.79667 5.93333,2.39c1.36444,1.59333 2.04667,3.72667 2.04667,6.4v0v12.8h-3.92667v-12.20333c0,-3.86889 -1.72,-5.80333 -5.16,-5.80333v0c-1.62222,0 -2.94556,0.64778 -3.97,1.94333c-1.02444,1.29333 -1.53667,2.79333 -1.53667,4.5v0v11.56333h-3.92333z"/>
      <path d="M332.8,321.28v0c1.25111,0 2.30333,0.18444 3.15667,0.55333v0l-1.36667,3.37333c-0.45556,-0.22889 -1.05222,-0.34333 -1.79,-0.34333v0c-1.02444,0 -1.86444,0.30556 -2.52,0.91667c-0.65333,0.61333 -0.98,1.50222 -0.98,2.66667v0v2.64667h13.31333v20.90667h-3.92667v-17.32333h-9.38667v17.32333h-3.92667v-17.32333h-3.92333v-3.58333h3.92333v-2.77333c0,-2.13333 0.68333,-3.84 2.05,-5.12c1.36444,-1.28 3.15667,-1.92 5.37667,-1.92zM342.61333,325.84667c-0.54222,0.54 -1.19667,0.81 -1.96333,0.81c-0.76889,0 -1.42333,-0.27 -1.96333,-0.81c-0.54,-0.54222 -0.81,-1.19667 -0.81,-1.96333c0,-0.76889 0.27,-1.42333 0.81,-1.96333c0.54,-0.54 1.19444,-0.81 1.96333,-0.81c0.76667,0 1.42111,0.27 1.96333,0.81c0.54,0.54 0.81,1.19444 0.81,1.96333c0,0.76667 -0.27,1.42111 -0.81,1.96333z"/>
      <path d="M356.60667,361.9v0c-2.47556,0 -4.49556,-0.61889 -6.06,-1.85667c-1.56444,-1.23778 -2.68778,-2.65333 -3.37,-4.24667v0l3.58333,-1.49333c0.4,1.13778 1.13333,2.09111 2.2,2.86c1.06667,0.76667 2.28222,1.15 3.64667,1.15v0c2.16222,0 3.86222,-0.64667 5.1,-1.94c1.23556,-1.29333 1.85333,-3.05 1.85333,-5.27v0v-2.00333h-0.17c-0.68222,1.02222 -1.64889,1.87556 -2.9,2.56c-1.25111,0.68222 -2.65889,1.02333 -4.22333,1.02333v0c-2.70222,0 -5.03556,-1.06667 -7,-3.2c-1.96222,-2.13333 -2.94333,-4.77889 -2.94333,-7.93667c0,-3.15778 0.98111,-5.80333 2.94333,-7.93667c1.96444,-2.13333 4.29778,-3.2 7,-3.2v0c1.56444,0 2.97222,0.34111 4.22333,1.02333c1.25111,0.68444 2.21778,1.53778 2.9,2.56v0h0.17v-2.9h3.75667v19.84c0,3.58444 -1.03889,6.30778 -3.11667,8.17c-2.07556,1.86444 -4.60667,2.79667 -7.59333,2.79667zM356.90667,349.1v0c1.84889,0 3.42,-0.68333 4.71333,-2.05c1.29333,-1.36444 1.94,-3.19889 1.94,-5.50333c0,-2.30444 -0.64667,-4.13889 -1.94,-5.50333c-1.29333,-1.36667 -2.86444,-2.05 -4.71333,-2.05v0c-1.82222,0 -3.38667,0.69 -4.69333,2.07c-1.30889,1.38 -1.96333,3.20778 -1.96333,5.48333c0,2.27556 0.65444,4.10333 1.96333,5.48333c1.30667,1.38 2.87111,2.07 4.69333,2.07z"/>
    </g>
  </g>
</svg>
