<svg version="1.1" xmlns="http://www.w3.org/2000/svg" xmlns:xlink="http://www.w3.org/1999/xlink" width="1277.95" height="448" viewBox="0 0 1277.95 448">
  <g fill="none" stroke="none" stroke-width="1" stroke-linecap="butt" stroke-linejoin="miter" stroke-dasharray="" stroke-dashoffset="0">
    <rect x="0" y="0" width="1277.95" height="448" fill="none" fill-rule="nonzero"/>
    <circle cx="192" cy="224" r="96" fill="#ffca28" fill-rule="nonzero"/>
    <g fill="#3c4043" fill-rule="evenodd">
      <path d="M215.33333,242.66667v-14l18.66667,18.66667l-18.66667,18.66667v-14h-28v-9.33333zM210.66667,196h-32.66667c-5.15667,0.014 -9.33333,4.22333 -9.33333,9.33333v37.33333c0,-0.014 -18.65733,0 -18.66667,0v9.33333h18.66667c5.15667,0 9.33333,-4.20933 9.33333,-9.33333v-37.33333c0,0.03267 37.324,0.014 37.33333,0v14l18.66667,-18.66667l-18.66667,-18.66667v14z"/>
    </g>
    <g fill="#5f6368" fill-rule="nonzero">
      <path d="M347.77,272h-11.77v-91.65h31.23c7.76667,0 14.48667,2.58333 20.16,7.75c5.67333,5.16 8.51,11.66667 8.51,19.52v0c0,6.4 -2.09,12.05333 -6.27,16.96c-4.18,4.90667 -9.38667,8 -15.62,9.28v0l-0.25,0.38l25.72,37.25v0.51h-13.95l-24.7,-37.12h-13.06zM347.77,191.62v32.25h18.95c4.69333,0 8.72333,-1.53667 12.09,-4.61c3.37333,-3.06667 5.06,-6.94667 5.06,-11.64v0c0,-4.01333 -1.49333,-7.68333 -4.48,-11.01c-2.98667,-3.32667 -6.95667,-4.99 -11.91,-4.99v0z"/>
      <path d="M434.43,274.05v0c-9.47333,0 -17.17667,-3.15667 -23.11,-9.47c-5.92667,-6.32 -8.89,-14.3 -8.89,-23.94v0c0,-9.13333 2.88,-16.98333 8.64,-23.55c5.76,-6.57333 13.12,-9.86 22.08,-9.86v0c9.3,0 16.74333,3.03 22.33,9.09c5.59333,6.06 8.39,14.16667 8.39,24.32v0l-0.13,2.18h-49.54c0.34667,6.31333 2.46,11.30333 6.34,14.97c3.88,3.67333 8.42333,5.51 13.63,5.51v0c8.44667,0 14.16333,-3.58667 17.15,-10.76v0l10.5,4.36c-2.04667,4.86 -5.41667,8.93333 -10.11,12.22c-4.69333,3.28667 -10.45333,4.93 -17.28,4.93zM414.97,233.09h36.35c-0.25333,-3.58667 -1.89333,-7 -4.92,-10.24c-3.03333,-3.24667 -7.53667,-4.87 -13.51,-4.87v0c-4.35333,0 -8.13,1.36667 -11.33,4.1c-3.2,2.73333 -5.39667,6.40333 -6.59,11.01z"/>
      <path d="M485.12,272h-11.78v-62.72h11.26v8.7h0.52c1.78667,-2.98667 4.53667,-5.52333 8.25,-7.61c3.71333,-2.09333 7.40333,-3.14 11.07,-3.14v0c9.73333,0 16.34667,4.01 19.84,12.03v0c5.12,-8.02 12.41667,-12.03 21.89,-12.03v0c7.42667,0 13.01667,2.37 16.77,7.11c3.75333,4.73333 5.63,11.15333 5.63,19.26v0v38.4h-11.77v-36.61c0,-6.31333 -1.15333,-10.79333 -3.46,-13.44c-2.30667,-2.64667 -5.80667,-3.97 -10.5,-3.97v0c-4.60667,0 -8.42333,1.96333 -11.45,5.89c-3.03333,3.92667 -4.55,8.40667 -4.55,13.44v0v34.69h-11.77v-36.61c0,-6.31333 -1.15333,-10.79333 -3.46,-13.44c-2.3,-2.64667 -5.79667,-3.97 -10.49,-3.97v0c-4.61333,0 -8.43333,1.96333 -11.46,5.89c-3.02667,3.92667 -4.54,8.40667 -4.54,13.44v0z"/>
      <path d="M586.62,216.77c6.06,-6.36 13.78333,-9.54 23.17,-9.54c9.38667,0 17.11,3.18 23.17,9.54c6.05333,6.35333 9.08,14.31 9.08,23.87c0,9.56 -3.02667,17.51667 -9.08,23.87c-6.06,6.36 -13.78333,9.54 -23.17,9.54c-9.38667,0 -17.11,-3.18 -23.17,-9.54c-6.06,-6.35333 -9.09,-14.31 -9.09,-23.87c0,-9.56 3.03,-17.51667 9.09,-23.87zM595.39,257.09c4.05333,4.14 8.85333,6.21 14.4,6.21c5.54667,0 10.34667,-2.07 14.4,-6.21c4.05333,-4.14 6.08,-9.62333 6.08,-16.45c0,-6.82667 -2.02667,-12.31 -6.08,-16.45c-4.05333,-4.14 -8.85333,-6.21 -14.4,-6.21c-5.54667,0 -10.34667,2.07 -14.4,6.21c-4.05333,4.14 -6.08,9.62333 -6.08,16.45c0,6.82667 2.02667,12.31 6.08,16.45z"/>
      <path d="M677.37,273.02v0c-6.56667,0 -11.58,-1.74667 -15.04,-5.24c-3.45333,-3.5 -5.18,-8.45 -5.18,-14.85v0v-32.9h-11.01v-10.75h11.01v-19.2h11.77v19.2h15.36v10.75h-15.36v32c0,6.82667 2.81667,10.24 8.45,10.24v0c2.13333,0 3.92667,-0.34 5.38,-1.02v0l4.09,10.11c-2.56,1.10667 -5.71667,1.66 -9.47,1.66z"/>
      <path d="M722.04,274.05v0c-9.46667,0 -17.16667,-3.15667 -23.1,-9.47c-5.93333,-6.32 -8.9,-14.3 -8.9,-23.94v0c0,-9.13333 2.88,-16.98333 8.64,-23.55c5.76,-6.57333 13.12,-9.86 22.08,-9.86v0c9.30667,0 16.75333,3.03 22.34,9.09c5.58667,6.06 8.38,14.16667 8.38,24.32v0l-0.12,2.18h-49.54c0.34,6.31333 2.45333,11.30333 6.34,14.97c3.88,3.67333 8.42333,5.51 13.63,5.51v0c8.44667,0 14.16333,-3.58667 17.15,-10.76v0l10.5,4.36c-2.05333,4.86 -5.42667,8.93333 -10.12,12.22c-4.69333,3.28667 -10.45333,4.93 -17.28,4.93zM702.59,233.09h36.35c-0.25333,-3.58667 -1.89667,-7 -4.93,-10.24c-3.02667,-3.24667 -7.52667,-4.87 -13.5,-4.87v0c-4.35333,0 -8.13,1.36667 -11.33,4.1c-3.2,2.73333 -5.39667,6.40333 -6.59,11.01z"/>
      <path d=""/>
      <path d="M833.02,274.05v0c-13.48,0 -24.78667,-4.56667 -33.92,-13.7c-9.13333,-9.12667 -13.7,-20.51667 -13.7,-34.17c0,-13.65333 4.56667,-25.04667 13.7,-34.18c9.13333,-9.13333 20.44,-13.7 33.92,-13.7v0c13.82667,0 25.04667,4.99333 33.66,14.98v0l-8.19,7.94c-6.22667,-7.76667 -14.71667,-11.65 -25.47,-11.65v0c-9.98667,0 -18.41333,3.37 -25.28,10.11c-6.86667,6.74 -10.3,15.57333 -10.3,26.5c0,10.92 3.43333,19.75 10.3,26.49c6.86667,6.74 15.29333,10.11 25.28,10.11v0c11.00667,0 20.39333,-4.43667 28.16,-13.31v0l8.19,8.19c-4.18,5.04 -9.42667,9.03 -15.74,11.97c-6.31333,2.94667 -13.18333,4.42 -20.61,4.42z"/>
      <path d="M883.45,216.77c6.06,-6.36 13.78333,-9.54 23.17,-9.54c9.38667,0 17.11,3.18 23.17,9.54c6.06,6.35333 9.09,14.31 9.09,23.87c0,9.56 -3.03,17.51667 -9.09,23.87c-6.06,6.36 -13.78333,9.54 -23.17,9.54c-9.38667,0 -17.11,-3.18 -23.17,-9.54c-6.06,-6.35333 -9.09,-14.31 -9.09,-23.87c0,-9.56 3.03,-17.51667 9.09,-23.87zM892.22,257.09c4.05333,4.14 8.85333,6.21 14.4,6.21c5.54667,0 10.34667,-2.07 14.4,-6.21c4.05333,-4.14 6.08,-9.62333 6.08,-16.45c0,-6.82667 -2.02667,-12.31 -6.08,-16.45c-4.05333,-4.14 -8.85333,-6.21 -14.4,-6.21c-5.54667,0 -10.34667,2.07 -14.4,6.21c-4.05333,4.14 -6.08,9.62333 -6.08,16.45c0,6.82667 2.02667,12.31 6.08,16.45z"/>
      <path d="M948.35,209.28h11.26v8.7h0.51c1.70667,-2.98667 4.39667,-5.52333 8.07,-7.61c3.66667,-2.09333 7.59,-3.14 11.77,-3.14v0c7.76667,0 13.7,2.39 17.8,7.17c4.09333,4.78 6.14,11.18 6.14,19.2v0v38.4h-11.78v-36.61c0,-11.60667 -5.16,-17.41 -15.48,-17.41v0c-4.86667,0 -8.83667,1.94333 -11.91,5.83c-3.07333,3.88 -4.61,8.38 -4.61,13.5v0v34.69h-11.77z"/>
      <path d="M1046.4,179.84v0c3.75333,0 6.91,0.55333 9.47,1.66v0l-4.1,10.12c-1.36667,-0.68667 -3.15667,-1.03 -5.37,-1.03v0c-3.07333,0 -5.59333,0.91667 -7.56,2.75c-1.96,1.84 -2.94,4.50667 -2.94,8v0v7.94h39.94v62.72h-11.78v-51.97h-28.16v51.97h-11.78v-51.97h-11.77v-10.75h11.77v-8.32c0,-6.4 2.05,-11.52 6.15,-15.36c4.09333,-3.84 9.47,-5.76 16.13,-5.76zM1075.84,193.54c-1.62667,1.62 -3.59,2.43 -5.89,2.43c-2.30667,0 -4.27,-0.81 -5.89,-2.43c-1.62,-1.62667 -2.43,-3.59 -2.43,-5.89c0,-2.30667 0.81,-4.27 2.43,-5.89c1.62,-1.62 3.58333,-2.43 5.89,-2.43c2.3,0 4.26333,0.81 5.89,2.43c1.62,1.62 2.43,3.58333 2.43,5.89c0,2.3 -0.81,4.26333 -2.43,5.89z"/>
      <path d="M1117.82,301.7v0c-7.42667,0 -13.48667,-1.85667 -18.18,-5.57c-4.69333,-3.71333 -8.06333,-7.96 -10.11,-12.74v0l10.75,-4.48c1.2,3.41333 3.4,6.27333 6.6,8.58c3.2,2.3 6.84667,3.45 10.94,3.45v0c6.48667,0 11.58667,-1.94 15.3,-5.82c3.70667,-3.88 5.56,-9.15 5.56,-15.81v0v-6.01h-0.51c-2.04667,3.06667 -4.94667,5.62667 -8.7,7.68c-3.75333,2.04667 -7.97667,3.07 -12.67,3.07v0c-8.10667,0 -15.10667,-3.2 -21,-9.6c-5.88667,-6.4 -8.83,-14.33667 -8.83,-23.81c0,-9.47333 2.94333,-17.41 8.83,-23.81c5.89333,-6.4 12.89333,-9.6 21,-9.6v0c4.69333,0 8.91667,1.02333 12.67,3.07c3.75333,2.05333 6.65333,4.61333 8.7,7.68v0h0.51v-8.7h11.27v59.52c0,10.75333 -3.11667,18.92333 -9.35,24.51c-6.22667,5.59333 -13.82,8.39 -22.78,8.39zM1118.72,263.3v0c5.54667,0 10.26,-2.05 14.14,-6.15c3.88,-4.09333 5.82,-9.59667 5.82,-16.51c0,-6.91333 -1.94,-12.41667 -5.82,-16.51c-3.88,-4.1 -8.59333,-6.15 -14.14,-6.15v0c-5.46667,0 -10.16,2.07 -14.08,6.21c-3.92667,4.14 -5.89,9.62333 -5.89,16.45c0,6.82667 1.96333,12.31 5.89,16.45c3.92,4.14 8.61333,6.21 14.08,6.21z"/>
    </g>
  </g>
</svg>
