<svg version="1.1" xmlns="http://www.w3.org/2000/svg" xmlns:xlink="http://www.w3.org/1999/xlink" width="486.4" height="464" viewBox="0 0 486.4 464">
  <g fill="none" stroke="none" stroke-width="1" stroke-linecap="butt" stroke-linejoin="miter" stroke-dasharray="" stroke-dashoffset="0">
    <rect x="0" y="0" width="486.4" height="464" fill="none" fill-rule="nonzero"/>
    <circle cx="243.2" cy="192" r="96" fill="#ffca28" fill-rule="nonzero"/>
    <g fill="#3c4043" fill-rule="evenodd">
      <path d="M212.86667,224.66667c-3.86599,0 -7,-3.13401 -7,-7c0,-3.86599 3.13401,-7 7,-7h4.66667c3.86599,0 7,-3.13401 7,-7c0,-3.86599 -3.13401,-7 -7,-7h-9.33333c-3.86599,0 -7,-3.13401 -7,-7c0,-3.86599 3.13401,-7 7,-7h16.33333c2.57733,0 4.66667,-2.08934 4.66667,-4.66667c0,-2.57733 -2.08934,-4.66667 -4.66667,-4.66667c-3.86599,0 -7,-3.13401 -7,-7c0,-3.86599 3.13401,-7 7,-7h69.86c2.926,0 5.14267,2.744 4.63867,5.74467l-9.33333,55.53333c-0.34662,2.30417 -2.30885,4.01964 -4.63867,4.05533zM233.14333,215.33333h48.006l7.82133,-46.66667h-48.104zM275.22267,208.33333h-33.824l5.404,-32.66667h33.89867zM194.2,224.66667c-3.86599,0 -7,-3.13401 -7,-7c0,-3.86599 3.13401,-7 7,-7c3.86599,0 7,3.13401 7,7c0,3.86599 -3.13401,7 -7,7z"/>
    </g>
    <g fill="#5f6368" fill-rule="nonzero">
      <path d="M100.35,352h-4.35l11.52,-30.55h4.43667l11.52,30.55h-4.35333l-2.94333,-8.27667h-12.84333zM109.65333,326.27333l-4.99333,13.78h10.15333l-4.99,-13.78z"/>
      <path d="M136.61667,352.68333v0c-1.59333,0 -3.02222,-0.34111 -4.28667,-1.02333c-1.26667,-0.68444 -2.21222,-1.53778 -2.83667,-2.56v0h-0.17333l0.17333,2.9v9.21667h-3.92667v-30.12333h3.75333v2.9h0.17333c0.62444,-1.02222 1.57,-1.87556 2.83667,-2.56c1.26444,-0.68222 2.69333,-1.02333 4.28667,-1.02333v0c2.70222,0 5.03444,1.06667 6.99667,3.2c1.96444,2.13333 2.94667,4.77889 2.94667,7.93667c0,3.15778 -0.98222,5.80333 -2.94667,7.93667c-1.96222,2.13333 -4.29444,3.2 -6.99667,3.2zM135.97667,349.1v0c1.82,0 3.38444,-0.69 4.69333,-2.07c1.30889,-1.38 1.96333,-3.20778 1.96333,-5.48333c0,-2.27556 -0.65444,-4.10333 -1.96333,-5.48333c-1.30889,-1.38 -2.87333,-2.07 -4.69333,-2.07v0c-1.84889,0 -3.42,0.68333 -4.71333,2.05c-1.29556,1.36444 -1.94333,3.19889 -1.94333,5.50333c0,2.30444 0.64778,4.13889 1.94333,5.50333c1.29333,1.36667 2.86444,2.05 4.71333,2.05z"/>
      <path d="M159.95667,352.68333v0c-1.59333,0 -3.02333,-0.34111 -4.29,-1.02333c-1.26444,-0.68444 -2.21,-1.53778 -2.83667,-2.56v0h-0.17l0.17,2.9v9.21667h-3.92333v-30.12333h3.75333v2.9h0.17c0.62667,-1.02222 1.57222,-1.87556 2.83667,-2.56c1.26667,-0.68222 2.69667,-1.02333 4.29,-1.02333v0c2.70222,0 5.03444,1.06667 6.99667,3.2c1.96222,2.13333 2.94333,4.77889 2.94333,7.93667c0,3.15778 -0.98111,5.80333 -2.94333,7.93667c-1.96222,2.13333 -4.29444,3.2 -6.99667,3.2zM159.31667,349.1v0c1.82,0 3.38444,-0.69 4.69333,-2.07c1.30889,-1.38 1.96333,-3.20778 1.96333,-5.48333c0,-2.27556 -0.65444,-4.10333 -1.96333,-5.48333c-1.30889,-1.38 -2.87333,-2.07 -4.69333,-2.07v0c-1.84889,0 -3.42111,0.68333 -4.71667,2.05c-1.29333,1.36444 -1.94,3.19889 -1.94,5.50333c0,2.30444 0.64667,4.13889 1.94,5.50333c1.29556,1.36667 2.86778,2.05 4.71667,2.05z"/>
      <path d=""/>
      <path d="M192.89333,352h-9.34333v-30.55h9.34333c4.69333,0 8.44889,1.41556 11.26667,4.24667c2.81556,2.82889 4.22333,6.50556 4.22333,11.03c0,4.52222 -1.40778,8.19778 -4.22333,11.02667c-2.81778,2.83111 -6.57333,4.24667 -11.26667,4.24667zM187.47667,325.20667v23.04h5.41667c3.52889,0 6.32444,-1.01 8.38667,-3.03c2.06222,-2.02 3.09333,-4.85 3.09333,-8.49v0c0,-3.61333 -1.03111,-6.43667 -3.09333,-8.47c-2.06222,-2.03333 -4.85778,-3.05 -8.38667,-3.05v0z"/>
      <path d="M216.19,325.84667c-0.54,0.54 -1.19444,0.81 -1.96333,0.81c-0.76667,0 -1.42,-0.27 -1.96,-0.81c-0.54222,-0.54222 -0.81333,-1.19667 -0.81333,-1.96333c0,-0.76889 0.27111,-1.42333 0.81333,-1.96333c0.54,-0.54 1.19333,-0.81 1.96,-0.81c0.76889,0 1.42333,0.27 1.96333,0.81c0.54,0.54 0.81,1.19444 0.81,1.96333c0,0.76667 -0.27,1.42111 -0.81,1.96333zM216.19,331.09333v20.90667h-3.92333v-20.90667z"/>
      <path d="M228.43667,352.68333v0c-2.33333,0 -4.26111,-0.56889 -5.78333,-1.70667c-1.52,-1.13778 -2.63556,-2.56 -3.34667,-4.26667v0l3.49667,-1.45c1.10889,2.61556 3.00111,3.92333 5.67667,3.92333v0c1.22222,0 2.22444,-0.27 3.00667,-0.81c0.78222,-0.54 1.17333,-1.25111 1.17333,-2.13333v0c0,-1.36444 -0.95333,-2.28889 -2.86,-2.77333v0l-4.22333,-1.02333c-1.33556,-0.34222 -2.60111,-0.99 -3.79667,-1.94333c-1.19556,-0.95111 -1.79333,-2.23778 -1.79333,-3.86v0c0,-1.84889 0.81778,-3.34889 2.45333,-4.5c1.63556,-1.15333 3.57778,-1.73 5.82667,-1.73v0c1.84889,0 3.49778,0.42 4.94667,1.26c1.45111,0.83778 2.49,2.03889 3.11667,3.60333v0l-3.41333,1.41c-0.76889,-1.84889 -2.36222,-2.77333 -4.78,-2.77333v0c-1.16667,0 -2.14778,0.24111 -2.94333,0.72333c-0.79556,0.48444 -1.19333,1.13889 -1.19333,1.96333v0c0,1.19556 0.92444,2.00667 2.77333,2.43333v0l4.13667,0.98c1.96222,0.45556 3.41333,1.23778 4.35333,2.34667c0.93778,1.10889 1.40667,2.36111 1.40667,3.75667v0c0,1.87556 -0.76778,3.44 -2.30333,4.69333c-1.53556,1.25111 -3.51222,1.87667 -5.93,1.87667z"/>
      <path d="M248.49,352.34v0c-2.19111,0 -3.86222,-0.58222 -5.01333,-1.74667c-1.15333,-1.16667 -1.73,-2.81667 -1.73,-4.95v0v-10.96667h-3.66667v-3.58333h3.66667v-6.4h3.92667v6.4h5.12v3.58333h-5.12v10.66667c0,2.27556 0.93889,3.41333 2.81667,3.41333v0c0.71111,0 1.30778,-0.11333 1.79,-0.34v0l1.36667,3.37c-0.85333,0.36889 -1.90556,0.55333 -3.15667,0.55333z"/>
      <path d="M258.04667,340.56667v11.43333h-3.92667v-20.90667h3.75667v3.41333h0.17c0.39778,-1.13778 1.21556,-2.07667 2.45333,-2.81667c1.23778,-0.74 2.44,-1.11 3.60667,-1.11c1.16444,0 2.14556,0.17111 2.94333,0.51333v0l-1.49333,3.67c-0.51333,-0.2 -1.21,-0.3 -2.09,-0.3v0c-1.42222,0 -2.68111,0.56222 -3.77667,1.68667c-1.09556,1.12222 -1.64333,2.59444 -1.64333,4.41667z"/>
      <path d="M273.45,325.84667c-0.54,0.54 -1.19444,0.81 -1.96333,0.81c-0.76889,0 -1.42333,-0.27 -1.96333,-0.81c-0.54,-0.54222 -0.81,-1.19667 -0.81,-1.96333c0,-0.76889 0.27,-1.42333 0.81,-1.96333c0.54,-0.54 1.19444,-0.81 1.96333,-0.81c0.76889,0 1.42333,0.27 1.96333,0.81c0.54,0.54 0.81,1.19444 0.81,1.96333c0,0.76667 -0.27,1.42111 -0.81,1.96333zM273.45,331.09333v20.90667h-3.92667v-20.90667z"/>
      <path d="M288.76667,352.68333v0c-1.59333,0 -3.02222,-0.34111 -4.28667,-1.02333c-1.26667,-0.68444 -2.21333,-1.53778 -2.84,-2.56v0h-0.17v2.9h-3.75333v-30.55h3.92333v9.64333l-0.17,2.9h0.17c0.62667,-1.02222 1.57333,-1.87556 2.84,-2.56c1.26444,-0.68222 2.69333,-1.02333 4.28667,-1.02333v0c2.70222,0 5.03444,1.06667 6.99667,3.2c1.96222,2.13333 2.94333,4.77889 2.94333,7.93667c0,3.15778 -0.98111,5.80333 -2.94333,7.93667c-1.96222,2.13333 -4.29444,3.2 -6.99667,3.2zM288.12667,349.1v0c1.82,0 3.38444,-0.69 4.69333,-2.07c1.30889,-1.38 1.96333,-3.20778 1.96333,-5.48333c0,-2.27556 -0.65444,-4.10333 -1.96333,-5.48333c-1.30889,-1.38 -2.87333,-2.07 -4.69333,-2.07v0c-1.84889,0 -3.42,0.68333 -4.71333,2.05c-1.29556,1.36444 -1.94333,3.19889 -1.94333,5.50333c0,2.30444 0.64778,4.13889 1.94333,5.50333c1.29333,1.36667 2.86444,2.05 4.71333,2.05z"/>
      <path d="M320.42667,331.09333v20.90667h-3.75667v-2.9h-0.17c-0.59778,0.99556 -1.50778,1.84111 -2.73,2.53667c-1.22444,0.69778 -2.51889,1.04667 -3.88333,1.04667v0c-2.61778,0 -4.60222,-0.79667 -5.95333,-2.39c-1.35111,-1.59333 -2.02667,-3.72667 -2.02667,-6.4v0v-12.8h3.92667v12.16c0,3.89778 1.72111,5.84667 5.16333,5.84667v0c1.62,0 2.94222,-0.65444 3.96667,-1.96333c1.02444,-1.30889 1.53667,-2.81667 1.53667,-4.52333v0v-11.52z"/>
      <path d="M334.03667,352.34v0c-2.19111,0 -3.86222,-0.58222 -5.01333,-1.74667c-1.15333,-1.16667 -1.73,-2.81667 -1.73,-4.95v0v-10.96667h-3.66667v-3.58333h3.66667v-6.4h3.92667v6.4h5.12v3.58333h-5.12v10.66667c0,2.27556 0.93889,3.41333 2.81667,3.41333v0c0.71111,0 1.30778,-0.11333 1.79,-0.34v0l1.36667,3.37c-0.85333,0.36889 -1.90556,0.55333 -3.15667,0.55333z"/>
      <path d="M343.93333,325.84667c-0.54,0.54 -1.19333,0.81 -1.96,0.81c-0.76889,0 -1.42333,-0.27 -1.96333,-0.81c-0.54,-0.54222 -0.81,-1.19667 -0.81,-1.96333c0,-0.76889 0.27,-1.42333 0.81,-1.96333c0.54,-0.54 1.19444,-0.81 1.96333,-0.81c0.76667,0 1.42,0.27 1.96,0.81c0.54222,0.54 0.81333,1.19444 0.81333,1.96333c0,0.76667 -0.27111,1.42111 -0.81333,1.96333zM343.93333,331.09333v20.90667h-3.92333v-20.90667z"/>
      <path d="M350.25,333.59c2.02,-2.12 4.59444,-3.18 7.72333,-3.18c3.12889,0 5.70222,1.06 7.72,3.18c2.02,2.11778 3.03,4.77 3.03,7.95667c0,3.18667 -1.01,5.83889 -3.03,7.95667c-2.01778,2.12 -4.59111,3.18 -7.72,3.18c-3.12889,0 -5.70333,-1.06 -7.72333,-3.18c-2.02,-2.11778 -3.03,-4.77 -3.03,-7.95667c0,-3.18667 1.01,-5.83889 3.03,-7.95667zM353.17333,347.03c1.35111,1.38 2.95111,2.07 4.8,2.07c1.84889,0 3.44889,-0.69 4.8,-2.07c1.35111,-1.38 2.02667,-3.20778 2.02667,-5.48333c0,-2.27556 -0.67556,-4.10333 -2.02667,-5.48333c-1.35111,-1.38 -2.95111,-2.07 -4.8,-2.07c-1.84889,0 -3.44889,0.69 -4.8,2.07c-1.35111,1.38 -2.02667,3.20778 -2.02667,5.48333c0,2.27556 0.67556,4.10333 2.02667,5.48333z"/>
      <path d="M371.88,331.09333h3.75667v2.9h0.17c0.56889,-0.99556 1.46444,-1.84111 2.68667,-2.53667c1.22444,-0.69778 2.53333,-1.04667 3.92667,-1.04667v0c2.58889,0 4.56556,0.79667 5.93,2.39c1.36667,1.59333 2.05,3.72667 2.05,6.4v0v12.8h-3.92667v-12.20333c0,-3.86889 -1.72111,-5.80333 -5.16333,-5.80333v0c-1.62,0 -2.94222,0.64778 -3.96667,1.94333c-1.02444,1.29333 -1.53667,2.79333 -1.53667,4.5v0v11.56333h-3.92667z"/>
    </g>
  </g>
</svg>
