<svg version="1.1" xmlns="http://www.w3.org/2000/svg" xmlns:xlink="http://www.w3.org/1999/xlink" width="1347.2" height="448" viewBox="0 0 1347.2 448">
  <g fill="none" stroke="none" stroke-width="1" stroke-linecap="butt" stroke-linejoin="miter" stroke-dasharray="" stroke-dashoffset="0">
    <rect x="0" y="0" width="1347.2" height="448" fill="none" fill-rule="nonzero"/>
    <circle cx="192" cy="224" r="96" fill="#ffca28" fill-rule="nonzero"/>
    <g fill="#3c4043" fill-rule="evenodd">
      <path d="M161.66667,256.66667c-3.86599,0 -7,-3.13401 -7,-7c0,-3.86599 3.13401,-7 7,-7h4.66667c3.86599,0 7,-3.13401 7,-7c0,-3.86599 -3.13401,-7 -7,-7h-9.33333c-3.86599,0 -7,-3.13401 -7,-7c0,-3.86599 3.13401,-7 7,-7h16.33333c2.57733,0 4.66667,-2.08934 4.66667,-4.66667c0,-2.57733 -2.08934,-4.66667 -4.66667,-4.66667c-3.86599,0 -7,-3.13401 -7,-7c0,-3.86599 3.13401,-7 7,-7h69.86c2.926,0 5.14267,2.744 4.63867,5.74467l-9.33333,55.53333c-0.34662,2.30417 -2.30885,4.01964 -4.63867,4.05533zM181.94333,247.33333h48.006l7.82133,-46.66667h-48.104zM224.02267,240.33333h-33.824l5.404,-32.66667h33.89867zM143,256.66667c-3.86599,0 -7,-3.13401 -7,-7c0,-3.86599 3.13401,-7 7,-7c3.86599,0 7,3.13401 7,7c0,3.86599 -3.13401,7 -7,7z"/>
    </g>
    <g fill="#5f6368" fill-rule="nonzero">
      <path d="M349.05,272h-13.05l34.56,-91.65h13.31l34.56,91.65h-13.06l-8.83,-24.83h-38.53zM376.96,194.82l-14.98,41.34h30.46l-14.97,-41.34z"/>
      <path d="M457.85,274.05v0c-4.78,0 -9.06667,-1.02333 -12.86,-3.07c-3.8,-2.05333 -6.63667,-4.61333 -8.51,-7.68v0h-0.52l0.52,8.7v27.65h-11.78v-90.37h11.26v8.7h0.52c1.87333,-3.06667 4.71,-5.62667 8.51,-7.68c3.79333,-2.04667 8.08,-3.07 12.86,-3.07v0c8.10667,0 15.10333,3.2 20.99,9.6c5.89333,6.4 8.84,14.33667 8.84,23.81c0,9.47333 -2.94667,17.41 -8.84,23.81c-5.88667,6.4 -12.88333,9.6 -20.99,9.6zM455.93,263.3v0c5.46,0 10.15333,-2.07 14.08,-6.21c3.92667,-4.14 5.89,-9.62333 5.89,-16.45c0,-6.82667 -1.96333,-12.31 -5.89,-16.45c-3.92667,-4.14 -8.62,-6.21 -14.08,-6.21v0c-5.54667,0 -10.26,2.05 -14.14,6.15c-3.88667,4.09333 -5.83,9.59667 -5.83,16.51c0,6.91333 1.94333,12.41667 5.83,16.51c3.88,4.1 8.59333,6.15 14.14,6.15z"/>
      <path d="M527.87,274.05v0c-4.78,0 -9.07,-1.02333 -12.87,-3.07c-3.79333,-2.05333 -6.63,-4.61333 -8.51,-7.68v0h-0.51l0.51,8.7v27.65h-11.77v-90.37h11.26v8.7h0.51c1.88,-3.06667 4.71667,-5.62667 8.51,-7.68c3.8,-2.04667 8.09,-3.07 12.87,-3.07v0c8.10667,0 15.10333,3.2 20.99,9.6c5.88667,6.4 8.83,14.33667 8.83,23.81c0,9.47333 -2.94333,17.41 -8.83,23.81c-5.88667,6.4 -12.88333,9.6 -20.99,9.6zM525.95,263.3v0c5.46,0 10.15333,-2.07 14.08,-6.21c3.92667,-4.14 5.89,-9.62333 5.89,-16.45c0,-6.82667 -1.96333,-12.31 -5.89,-16.45c-3.92667,-4.14 -8.62,-6.21 -14.08,-6.21v0c-5.54667,0 -10.26333,2.05 -14.15,6.15c-3.88,4.09333 -5.82,9.59667 -5.82,16.51c0,6.91333 1.94,12.41667 5.82,16.51c3.88667,4.1 8.60333,6.15 14.15,6.15z"/>
      <path d=""/>
      <path d="M626.68,272h-28.03v-91.65h28.03c14.08,0 25.34667,4.24667 33.8,12.74c8.44667,8.48667 12.67,19.51667 12.67,33.09c0,13.56667 -4.22333,24.59333 -12.67,33.08c-8.45333,8.49333 -19.72,12.74 -33.8,12.74zM610.43,191.62v69.12h16.25c10.58667,0 18.97333,-3.03 25.16,-9.09c6.18667,-6.06 9.28,-14.55 9.28,-25.47v0c0,-10.84 -3.09333,-19.31 -9.28,-25.41c-6.18667,-6.1 -14.57333,-9.15 -25.16,-9.15v0z"/>
      <path d="M696.57,193.54c-1.62,1.62 -3.58333,2.43 -5.89,2.43c-2.3,0 -4.26,-0.81 -5.88,-2.43c-1.62667,-1.62667 -2.44,-3.59 -2.44,-5.89c0,-2.30667 0.81333,-4.27 2.44,-5.89c1.62,-1.62 3.58,-2.43 5.88,-2.43c2.30667,0 4.27,0.81 5.89,2.43c1.62,1.62 2.43,3.58333 2.43,5.89c0,2.3 -0.81,4.26333 -2.43,5.89zM696.57,209.28v62.72h-11.77v-62.72z"/>
      <path d="M733.31,274.05v0c-7,0 -12.78333,-1.70667 -17.35,-5.12c-4.56,-3.41333 -7.90667,-7.68 -10.04,-12.8v0l10.49,-4.35c3.32667,7.84667 9.00333,11.77 17.03,11.77v0c3.66667,0 6.67333,-0.81 9.02,-2.43c2.34667,-1.62 3.52,-3.75333 3.52,-6.4v0c0,-4.09333 -2.86,-6.86667 -8.58,-8.32v0l-12.67,-3.07c-4.00667,-1.02667 -7.80333,-2.97 -11.39,-5.83c-3.58667,-2.85333 -5.38,-6.71333 -5.38,-11.58v0c0,-5.54667 2.45333,-10.04667 7.36,-13.5c4.90667,-3.46 10.73333,-5.19 17.48,-5.19v0c5.54667,0 10.49333,1.26 14.84,3.78c4.35333,2.51333 7.47,6.11667 9.35,10.81v0l-10.24,4.23c-2.30667,-5.54667 -7.08667,-8.32 -14.34,-8.32v0c-3.5,0 -6.44333,0.72333 -8.83,2.17c-2.38667,1.45333 -3.58,3.41667 -3.58,5.89v0c0,3.58667 2.77333,6.02 8.32,7.3v0l12.41,2.94c5.88667,1.36667 10.24,3.71333 13.06,7.04c2.81333,3.32667 4.22,7.08333 4.22,11.27v0c0,5.62667 -2.30333,10.32 -6.91,14.08c-4.60667,3.75333 -10.53667,5.63 -17.79,5.63z"/>
      <path d="M793.47,273.02v0c-6.57333,0 -11.58667,-1.74667 -15.04,-5.24c-3.46,-3.5 -5.19,-8.45 -5.19,-14.85v0v-32.9h-11v-10.75h11v-19.2h11.78v19.2h15.36v10.75h-15.36v32c0,6.82667 2.81667,10.24 8.45,10.24v0c2.13333,0 3.92333,-0.34 5.37,-1.02v0l4.1,10.11c-2.56,1.10667 -5.71667,1.66 -9.47,1.66z"/>
      <path d="M822.14,237.7v34.3h-11.78v-62.72h11.27v10.24h0.51c1.19333,-3.41333 3.64667,-6.23 7.36,-8.45c3.71333,-2.22 7.32,-3.33 10.82,-3.33c3.49333,0 6.43667,0.51333 8.83,1.54v0l-4.48,11.01c-1.54,-0.6 -3.63,-0.9 -6.27,-0.9v0c-4.26667,0 -8.04333,1.68667 -11.33,5.06c-3.28667,3.36667 -4.93,7.78333 -4.93,13.25z"/>
      <path d="M868.35,193.54c-1.62,1.62 -3.58333,2.43 -5.89,2.43c-2.30667,0 -4.27,-0.81 -5.89,-2.43c-1.62,-1.62667 -2.43,-3.59 -2.43,-5.89c0,-2.30667 0.81,-4.27 2.43,-5.89c1.62,-1.62 3.58333,-2.43 5.89,-2.43c2.30667,0 4.27,0.81 5.89,2.43c1.62,1.62 2.43,3.58333 2.43,5.89c0,2.3 -0.81,4.26333 -2.43,5.89zM868.35,209.28v62.72h-11.78v-62.72z"/>
      <path d="M914.3,274.05v0c-4.78,0 -9.06667,-1.02333 -12.86,-3.07c-3.8,-2.05333 -6.64,-4.61333 -8.52,-7.68v0h-0.51v8.7h-11.26v-91.65h11.77v28.93l-0.51,8.7h0.51c1.88,-3.06667 4.72,-5.62667 8.52,-7.68c3.79333,-2.04667 8.08,-3.07 12.86,-3.07v0c8.10667,0 15.10333,3.2 20.99,9.6c5.88667,6.4 8.83,14.33667 8.83,23.81c0,9.47333 -2.94333,17.41 -8.83,23.81c-5.88667,6.4 -12.88333,9.6 -20.99,9.6zM912.38,263.3v0c5.46,0 10.15333,-2.07 14.08,-6.21c3.92667,-4.14 5.89,-9.62333 5.89,-16.45c0,-6.82667 -1.96333,-12.31 -5.89,-16.45c-3.92667,-4.14 -8.62,-6.21 -14.08,-6.21v0c-5.54667,0 -10.26,2.05 -14.14,6.15c-3.88667,4.09333 -5.83,9.59667 -5.83,16.51c0,6.91333 1.94333,12.41667 5.83,16.51c3.88,4.1 8.59333,6.15 14.14,6.15z"/>
      <path d="M1009.28,209.28v62.72h-11.27v-8.7h-0.51c-1.79333,2.98667 -4.52333,5.52333 -8.19,7.61c-3.67333,2.09333 -7.55667,3.14 -11.65,3.14v0c-7.85333,0 -13.80667,-2.39 -17.86,-7.17c-4.05333,-4.78 -6.08,-11.18 -6.08,-19.2v0v-38.4h11.78v36.48c0,11.69333 5.16333,17.54 15.49,17.54v0c4.86,0 8.82667,-1.96333 11.9,-5.89c3.07333,-3.92667 4.61,-8.45 4.61,-13.57v0v-34.56z"/>
      <path d="M1050.11,273.02v0c-6.57333,0 -11.58667,-1.74667 -15.04,-5.24c-3.46,-3.5 -5.19,-8.45 -5.19,-14.85v0v-32.9h-11v-10.75h11v-19.2h11.78v19.2h15.36v10.75h-15.36v32c0,6.82667 2.81667,10.24 8.45,10.24v0c2.13333,0 3.92333,-0.34 5.37,-1.02v0l4.1,10.11c-2.56,1.10667 -5.71667,1.66 -9.47,1.66z"/>
      <path d="M1079.8,193.54c-1.62,1.62 -3.58,2.43 -5.88,2.43c-2.30667,0 -4.27,-0.81 -5.89,-2.43c-1.62,-1.62667 -2.43,-3.59 -2.43,-5.89c0,-2.30667 0.81,-4.27 2.43,-5.89c1.62,-1.62 3.58333,-2.43 5.89,-2.43c2.3,0 4.26,0.81 5.88,2.43c1.62667,1.62 2.44,3.58333 2.44,5.89c0,2.3 -0.81333,4.26333 -2.44,5.89zM1079.8,209.28v62.72h-11.77v-62.72z"/>
      <path d="M1098.75,216.77c6.06,-6.36 13.78333,-9.54 23.17,-9.54c9.38667,0 17.10667,3.18 23.16,9.54c6.06,6.35333 9.09,14.31 9.09,23.87c0,9.56 -3.03,17.51667 -9.09,23.87c-6.05333,6.36 -13.77333,9.54 -23.16,9.54c-9.38667,0 -17.11,-3.18 -23.17,-9.54c-6.06,-6.35333 -9.09,-14.31 -9.09,-23.87c0,-9.56 3.03,-17.51667 9.09,-23.87zM1107.52,257.09c4.05333,4.14 8.85333,6.21 14.4,6.21c5.54667,0 10.34667,-2.07 14.4,-6.21c4.05333,-4.14 6.08,-9.62333 6.08,-16.45c0,-6.82667 -2.02667,-12.31 -6.08,-16.45c-4.05333,-4.14 -8.85333,-6.21 -14.4,-6.21c-5.54667,0 -10.34667,2.07 -14.4,6.21c-4.05333,4.14 -6.08,9.62333 -6.08,16.45c0,6.82667 2.02667,12.31 6.08,16.45z"/>
      <path d="M1163.64,209.28h11.27v8.7h0.51c1.70667,-2.98667 4.39333,-5.52333 8.06,-7.61c3.67333,-2.09333 7.6,-3.14 11.78,-3.14v0c7.76667,0 13.69667,2.39 17.79,7.17c4.1,4.78 6.15,11.18 6.15,19.2v0v38.4h-11.78v-36.61c0,-11.60667 -5.16333,-17.41 -15.49,-17.41v0c-4.86,0 -8.82667,1.94333 -11.9,5.83c-3.07333,3.88 -4.61,8.38 -4.61,13.5v0v34.69h-11.78z"/>
    </g>
  </g>
</svg>
