<svg version="1.1" xmlns="http://www.w3.org/2000/svg" xmlns:xlink="http://www.w3.org/1999/xlink" width="392.233" height="464" viewBox="0 0 392.233 464">
  <g fill="none" fill-rule="nonzero" stroke="none" stroke-width="1" stroke-linecap="butt" stroke-linejoin="miter" stroke-dasharray="" stroke-dashoffset="0">
    <rect x="0" y="0" width="392.233" height="464" fill="none"/>
    <circle cx="196.117" cy="192" r="96" fill="#ffca28"/>
    <g fill="#3c4043">
      <path d="M210.11667,174.53733c-7.69153,-5.13767 -17.83892,-4.63788 -24.98835,1.23077c-7.14943,5.86864 -9.61721,15.72406 -6.07701,24.26937c3.5402,8.54531 12.25466,13.76808 21.45972,12.86129c9.20506,-0.90679 16.73291,-7.72959 18.53765,-16.80143l15.69867,15.70333c2.73267,2.7335 2.73267,7.1645 0,9.898l-6.59867,6.59867c-2.7335,2.73267 -7.1645,2.73267 -9.898,0l-8.134,-8.12933v11.49867c0,3.86599 -3.13401,7 -7,7h-9.33333c-3.86599,0 -7,-3.13401 -7,-7v-11.49867l-8.134,8.12933c-2.7335,2.73267 -7.1645,2.73267 -9.898,0l-6.59867,-6.59867c-2.73267,-2.7335 -2.73267,-7.1645 0,-9.898l8.12933,-8.134h-11.49867c-3.86599,0 -7,-3.13401 -7,-7v-9.33333c0,-3.86599 3.13401,-7 7,-7h11.49867l-8.12933,-8.134c-2.73267,-2.7335 -2.73267,-7.1645 0,-9.898l6.59867,-6.59867c2.7335,-2.73267 7.1645,-2.73267 9.898,0l8.134,8.12933v-11.49867c0,-3.86599 3.13401,-7 7,-7h9.33333c3.86599,0 7,3.13401 7,7zM198.45,201.33333c-5.15466,0 -9.33333,-4.17868 -9.33333,-9.33333c0,-5.15466 4.17868,-9.33333 9.33333,-9.33333c5.15466,0 9.33333,4.17868 9.33333,9.33333c0,5.15466 -4.17868,9.33333 -9.33333,9.33333z"/>
    </g>
    <g fill="#5f6368">
      <path d="M111.87,352.68333v0c-4.49333,0 -8.26222,-1.52222 -11.30667,-4.56667c-3.04222,-3.04222 -4.56333,-6.83889 -4.56333,-11.39c0,-4.55111 1.52111,-8.34889 4.56333,-11.39333c3.04444,-3.04444 6.81333,-4.56667 11.30667,-4.56667v0c4.60889,0 8.35,1.66444 11.22333,4.99333v0l-2.73333,2.64667c-2.07556,-2.58889 -4.90556,-3.88333 -8.49,-3.88333v0c-3.32667,0 -6.13556,1.12333 -8.42667,3.37c-2.28889,2.24667 -3.43333,5.19111 -3.43333,8.83333c0,3.64 1.14444,6.58333 3.43333,8.83c2.29111,2.24667 5.1,3.37 8.42667,3.37v0c3.66889,0 6.79778,-1.47889 9.38667,-4.43667v0l2.73,2.73c-1.39333,1.68 -3.14222,3.01 -5.24667,3.99c-2.10444,0.98222 -4.39444,1.47333 -6.87,1.47333z"/>
      <path d="M130.98667,340.56667v11.43333h-3.92667v-20.90667h3.75333v3.41333h0.17333c0.39778,-1.13778 1.21556,-2.07667 2.45333,-2.81667c1.23556,-0.74 2.43667,-1.11 3.60333,-1.11c1.16667,0 2.14778,0.17111 2.94333,0.51333v0l-1.49333,3.67c-0.51111,-0.2 -1.20778,-0.3 -2.09,-0.3v0c-1.42222,0 -2.68111,0.56222 -3.77667,1.68667c-1.09333,1.12222 -1.64,2.59444 -1.64,4.41667z"/>
      <path d="M148.30667,352.68333v0c-2.21778,0 -4.07333,-0.64 -5.56667,-1.92c-1.49333,-1.28 -2.24,-2.97222 -2.24,-5.07667v0c0,-2.27556 0.88222,-4.06111 2.64667,-5.35667c1.76222,-1.29333 3.93778,-1.94 6.52667,-1.94v0c2.30444,0 4.19556,0.42667 5.67333,1.28v0v-0.59667c0,-1.53778 -0.52556,-2.76889 -1.57667,-3.69333c-1.05333,-0.92444 -2.34778,-1.38667 -3.88333,-1.38667v0c-1.13778,0 -2.16889,0.27111 -3.09333,0.81333c-0.92444,0.54 -1.55778,1.27889 -1.9,2.21667v0l-3.58333,-1.53667c0.48444,-1.25111 1.43778,-2.41 2.86,-3.47667c1.42222,-1.06667 3.29889,-1.6 5.63,-1.6v0c2.67556,0 4.89444,0.78222 6.65667,2.34667c1.76444,1.56444 2.64667,3.76889 2.64667,6.61333v0v12.63h-3.75667v-2.9h-0.17c-1.56444,2.38889 -3.85444,3.58333 -6.87,3.58333zM148.94667,349.1v0c1.62222,0 3.09444,-0.60444 4.41667,-1.81333c1.32222,-1.20889 1.98333,-2.63889 1.98333,-4.29v0c-1.10889,-0.90889 -2.77222,-1.36333 -4.99,-1.36333v0c-1.90667,0 -3.34333,0.41222 -4.31,1.23667c-0.96667,0.82444 -1.45,1.79111 -1.45,2.9v0c0,1.02444 0.44111,1.83556 1.32333,2.43333c0.88,0.59778 1.88889,0.89667 3.02667,0.89667z"/>
      <path d="M170.66667,352.68333v0c-2.33333,0 -4.26111,-0.56889 -5.78333,-1.70667c-1.52222,-1.13778 -2.63889,-2.56 -3.35,-4.26667v0l3.5,-1.45c1.10889,2.61556 3,3.92333 5.67333,3.92333v0c1.22444,0 2.22778,-0.27 3.01,-0.81c0.78222,-0.54 1.17333,-1.25111 1.17333,-2.13333v0c0,-1.36444 -0.95333,-2.28889 -2.86,-2.77333v0l-4.22333,-1.02333c-1.33778,-0.34222 -2.60333,-0.99 -3.79667,-1.94333c-1.19556,-0.95111 -1.79333,-2.23778 -1.79333,-3.86v0c0,-1.84889 0.81778,-3.34889 2.45333,-4.5c1.63556,-1.15333 3.57667,-1.73 5.82333,-1.73v0c1.84889,0 3.49889,0.42 4.95,1.26c1.45111,0.83778 2.49,2.03889 3.11667,3.60333v0l-3.41333,1.41c-0.76889,-1.84889 -2.36222,-2.77333 -4.78,-2.77333v0c-1.16667,0 -2.14778,0.24111 -2.94333,0.72333c-0.79778,0.48444 -1.19667,1.13889 -1.19667,1.96333v0c0,1.19556 0.92444,2.00667 2.77333,2.43333v0l4.14,0.98c1.96222,0.45556 3.41333,1.23778 4.35333,2.34667c0.93778,1.10889 1.40667,2.36111 1.40667,3.75667v0c0,1.87556 -0.76778,3.44 -2.30333,4.69333c-1.53556,1.25111 -3.51222,1.87667 -5.93,1.87667z"/>
      <path d="M182.1,321.45h3.92667v9.64333l-0.17333,2.9h0.17333c0.56889,-0.99556 1.46444,-1.84111 2.68667,-2.53667c1.22222,-0.69778 2.53111,-1.04667 3.92667,-1.04667v0c2.58667,0 4.56333,0.79667 5.93,2.39c1.36444,1.59333 2.04667,3.72667 2.04667,6.4v0v12.8h-3.92333v-12.20333c0,-3.86889 -1.72111,-5.80333 -5.16333,-5.80333v0c-1.62222,0 -2.94556,0.64778 -3.97,1.94333c-1.02222,1.29333 -1.53333,2.79333 -1.53333,4.5v0v11.56333h-3.92667z"/>
      <path d="M208.72333,321.45v30.55h-3.92333v-30.55z"/>
      <path d="M232.19,331.09333l-13.09667,30.12333h-4.05333l4.86333,-10.54l-8.62,-19.58333h4.26667l6.23,15.02h0.08667l6.05667,-15.02z"/>
      <path d="M243.79667,352.34v0c-2.19111,0 -3.86222,-0.58222 -5.01333,-1.74667c-1.15333,-1.16667 -1.73,-2.81667 -1.73,-4.95v0v-10.96667h-3.66667v-3.58333h3.66667v-6.4h3.92667v6.4h5.12v3.58333h-5.12v10.66667c0,2.27556 0.93889,3.41333 2.81667,3.41333v0c0.71111,0 1.30778,-0.11333 1.79,-0.34v0l1.36667,3.37c-0.85333,0.36889 -1.90556,0.55333 -3.15667,0.55333z"/>
      <path d="M253.69333,325.84667c-0.54,0.54 -1.19333,0.81 -1.96,0.81c-0.76889,0 -1.42333,-0.27 -1.96333,-0.81c-0.54,-0.54222 -0.81,-1.19667 -0.81,-1.96333c0,-0.76889 0.27,-1.42333 0.81,-1.96333c0.54,-0.54 1.19444,-0.81 1.96333,-0.81c0.76667,0 1.42,0.27 1.96,0.81c0.54222,0.54 0.81333,1.19444 0.81333,1.96333c0,0.76667 -0.27111,1.42111 -0.81333,1.96333zM253.69333,331.09333v20.90667h-3.92333v-20.90667z"/>
      <path d="M267.73333,352.68333v0c-3.12889,0 -5.70333,-1.06 -7.72333,-3.18c-2.02,-2.11778 -3.03,-4.77 -3.03,-7.95667c0,-3.18667 1.01,-5.83889 3.03,-7.95667c2.02,-2.12 4.59444,-3.18 7.72333,-3.18v0c2.33111,0 4.26444,0.56889 5.8,1.70667c1.53778,1.13778 2.66222,2.57444 3.37333,4.31v0l-3.58667,1.49333c-1.08,-2.61778 -3.02778,-3.92667 -5.84333,-3.92667v0c-1.73556,0 -3.26444,0.71111 -4.58667,2.13333c-1.32222,1.42222 -1.98333,3.22889 -1.98333,5.42c0,2.19111 0.66111,3.99778 1.98333,5.42c1.32222,1.42222 2.85111,2.13333 4.58667,2.13333v0c2.92889,0 4.94778,-1.30889 6.05667,-3.92667v0l3.5,1.49333c-0.71111,1.70667 -1.85556,3.13556 -3.43333,4.28667c-1.58,1.15333 -3.53556,1.73 -5.86667,1.73z"/>
      <path d="M288,352.68333v0c-2.33333,0 -4.26111,-0.56889 -5.78333,-1.70667c-1.52222,-1.13778 -2.63889,-2.56 -3.35,-4.26667v0l3.5,-1.45c1.10889,2.61556 3,3.92333 5.67333,3.92333v0c1.22444,0 2.22778,-0.27 3.01,-0.81c0.78222,-0.54 1.17333,-1.25111 1.17333,-2.13333v0c0,-1.36444 -0.95333,-2.28889 -2.86,-2.77333v0l-4.22333,-1.02333c-1.33778,-0.34222 -2.60333,-0.99 -3.79667,-1.94333c-1.19556,-0.95111 -1.79333,-2.23778 -1.79333,-3.86v0c0,-1.84889 0.81778,-3.34889 2.45333,-4.5c1.63556,-1.15333 3.57667,-1.73 5.82333,-1.73v0c1.84889,0 3.49889,0.42 4.95,1.26c1.45111,0.83778 2.49,2.03889 3.11667,3.60333v0l-3.41333,1.41c-0.76889,-1.84889 -2.36222,-2.77333 -4.78,-2.77333v0c-1.16667,0 -2.14778,0.24111 -2.94333,0.72333c-0.79778,0.48444 -1.19667,1.13889 -1.19667,1.96333v0c0,1.19556 0.92444,2.00667 2.77333,2.43333v0l4.14,0.98c1.96222,0.45556 3.41333,1.23778 4.35333,2.34667c0.93778,1.10889 1.40667,2.36111 1.40667,3.75667v0c0,1.87556 -0.76778,3.44 -2.30333,4.69333c-1.53556,1.25111 -3.51222,1.87667 -5.93,1.87667z"/>
    </g>
  </g>
</svg>
