<svg version="1.1" xmlns="http://www.w3.org/2000/svg" xmlns:xlink="http://www.w3.org/1999/xlink" width="1064.7" height="448" viewBox="0 0 1064.7 448">
  <g fill="none" fill-rule="nonzero" stroke="none" stroke-width="1" stroke-linecap="butt" stroke-linejoin="miter" stroke-dasharray="" stroke-dashoffset="0">
    <rect x="0" y="0" width="1064.7" height="448" fill="none"/>
    <circle cx="192" cy="224" r="96" fill="#ffca28"/>
    <g fill="#3c4043">
      <path d="M206,206.53733c-7.69153,-5.13767 -17.83892,-4.63788 -24.98835,1.23077c-7.14943,5.86864 -9.61721,15.72406 -6.07701,24.26937c3.5402,8.54531 12.25466,13.76808 21.45972,12.86129c9.20506,-0.90679 16.73291,-7.72959 18.53765,-16.80143l15.69867,15.70333c2.73267,2.7335 2.73267,7.1645 0,9.898l-6.59867,6.59867c-2.7335,2.73267 -7.1645,2.73267 -9.898,0l-8.134,-8.12933v11.49867c0,3.86599 -3.13401,7 -7,7h-9.33333c-3.86599,0 -7,-3.13401 -7,-7v-11.49867l-8.134,8.12933c-2.7335,2.73267 -7.1645,2.73267 -9.898,0l-6.59867,-6.59867c-2.73267,-2.7335 -2.73267,-7.1645 0,-9.898l8.12933,-8.134h-11.49867c-3.86599,0 -7,-3.13401 -7,-7v-9.33333c0,-3.86599 3.13401,-7 7,-7h11.49867l-8.12933,-8.134c-2.73267,-2.7335 -2.73267,-7.1645 0,-9.898l6.59867,-6.59867c2.7335,-2.73267 7.1645,-2.73267 9.898,0l8.134,8.12933v-11.49867c0,-3.86599 3.13401,-7 7,-7h9.33333c3.86599,0 7,3.13401 7,7zM194.33333,233.33333c-5.15466,0 -9.33333,-4.17868 -9.33333,-9.33333c0,-5.15466 4.17868,-9.33333 9.33333,-9.33333c5.15466,0 9.33333,4.17868 9.33333,9.33333c0,5.15466 -4.17868,9.33333 -9.33333,9.33333z"/>
    </g>
    <g fill="#5f6368">
      <path d="M383.61,274.05v0c-13.48,0 -24.78667,-4.56667 -33.92,-13.7c-9.12667,-9.12667 -13.69,-20.51667 -13.69,-34.17c0,-13.65333 4.56333,-25.04667 13.69,-34.18c9.13333,-9.13333 20.44,-13.7 33.92,-13.7v0c13.82667,0 25.05,4.99333 33.67,14.98v0l-8.2,7.94c-6.22667,-7.76667 -14.71667,-11.65 -25.47,-11.65v0c-9.98,0 -18.40667,3.37 -25.28,10.11c-6.86667,6.74 -10.3,15.57333 -10.3,26.5c0,10.92 3.43333,19.75 10.3,26.49c6.87333,6.74 15.3,10.11 25.28,10.11v0c11.00667,0 20.39333,-4.43667 28.16,-13.31v0l8.19,8.19c-4.18,5.04 -9.42667,9.03 -15.74,11.97c-6.31333,2.94667 -13.18333,4.42 -20.61,4.42z"/>
      <path d="M440.96,237.7v34.3h-11.78v-62.72h11.26v10.24h0.52c1.19333,-3.41333 3.64667,-6.23 7.36,-8.45c3.70667,-2.22 7.31,-3.33 10.81,-3.33c3.5,0 6.44333,0.51333 8.83,1.54v0l-4.48,11.01c-1.53333,-0.6 -3.62333,-0.9 -6.27,-0.9v0c-4.26667,0 -8.04333,1.68667 -11.33,5.06c-3.28,3.36667 -4.92,7.78333 -4.92,13.25z"/>
      <path d="M492.92,274.05v0c-6.65333,0 -12.22,-1.92 -16.7,-5.76c-4.48,-3.84 -6.72,-8.91667 -6.72,-15.23v0c0,-6.82667 2.64667,-12.18333 7.94,-16.07c5.28667,-3.88 11.81333,-5.82 19.58,-5.82v0c6.91333,0 12.58667,1.28 17.02,3.84v0v-1.79c0,-4.61333 -1.57667,-8.30667 -4.73,-11.08c-3.16,-2.77333 -7.04333,-4.16 -11.65,-4.16v0c-3.41333,0 -6.50667,0.81333 -9.28,2.44c-2.77333,1.62 -4.67333,3.83667 -5.7,6.65v0l-10.75,-4.61c1.45333,-3.75333 4.31333,-7.23 8.58,-10.43c4.26667,-3.2 9.89667,-4.8 16.89,-4.8v0c8.02667,0 14.68333,2.34667 19.97,7.04c5.29333,4.69333 7.94,11.30667 7.94,19.84v0v37.89h-11.27v-8.7h-0.51c-4.69333,7.16667 -11.56333,10.75 -20.61,10.75zM494.84,263.3v0c4.86667,0 9.28333,-1.81333 13.25,-5.44c3.96667,-3.62667 5.95,-7.91667 5.95,-12.87v0c-3.32667,-2.72667 -8.31667,-4.09 -14.97,-4.09v0c-5.72,0 -10.03,1.23667 -12.93,3.71c-2.9,2.47333 -4.35,5.37333 -4.35,8.7v0c0,3.07333 1.32333,5.50667 3.97,7.3c2.64,1.79333 5.66667,2.69 9.08,2.69z"/>
      <path d="M560,274.05v0c-7,0 -12.78333,-1.70667 -17.35,-5.12c-4.56667,-3.41333 -7.91667,-7.68 -10.05,-12.8v0l10.5,-4.35c3.32667,7.84667 9,11.77 17.02,11.77v0c3.67333,0 6.68333,-0.81 9.03,-2.43c2.34667,-1.62 3.52,-3.75333 3.52,-6.4v0c0,-4.09333 -2.86,-6.86667 -8.58,-8.32v0l-12.67,-3.07c-4.01333,-1.02667 -7.81,-2.97 -11.39,-5.83c-3.58667,-2.85333 -5.38,-6.71333 -5.38,-11.58v0c0,-5.54667 2.45333,-10.04667 7.36,-13.5c4.90667,-3.46 10.73,-5.19 17.47,-5.19v0c5.54667,0 10.49667,1.26 14.85,3.78c4.35333,2.51333 7.47,6.11667 9.35,10.81v0l-10.24,4.23c-2.30667,-5.54667 -7.08667,-8.32 -14.34,-8.32v0c-3.5,0 -6.44333,0.72333 -8.83,2.17c-2.39333,1.45333 -3.59,3.41667 -3.59,5.89v0c0,3.58667 2.77333,6.02 8.32,7.3v0l12.42,2.94c5.88667,1.36667 10.24,3.71333 13.06,7.04c2.81333,3.32667 4.22,7.08333 4.22,11.27v0c0,5.62667 -2.30333,10.32 -6.91,14.08c-4.60667,3.75333 -10.53667,5.63 -17.79,5.63z"/>
      <path d="M594.3,180.35h11.78v28.93l-0.52,8.7h0.52c1.70667,-2.98667 4.39333,-5.52333 8.06,-7.61c3.66667,-2.09333 7.59333,-3.14 11.78,-3.14v0c7.76,0 13.69,2.39 17.79,7.17c4.09333,4.78 6.14,11.18 6.14,19.2v0v38.4h-11.77v-36.61c0,-11.60667 -5.16333,-17.41 -15.49,-17.41v0c-4.86667,0 -8.83667,1.94333 -11.91,5.83c-3.06667,3.88 -4.6,8.38 -4.6,13.5v0v34.69h-11.78z"/>
      <path d="M674.17,180.35v91.65h-11.77v-91.65z"/>
      <path d="M744.57,209.28l-39.29,90.37h-12.16l14.59,-31.62l-25.86,-58.75h12.8l18.69,45.06h0.26l18.17,-45.06z"/>
      <path d="M779.39,273.02v0c-6.57333,0 -11.58667,-1.74667 -15.04,-5.24c-3.46,-3.5 -5.19,-8.45 -5.19,-14.85v0v-32.9h-11v-10.75h11v-19.2h11.78v19.2h15.36v10.75h-15.36v32c0,6.82667 2.81667,10.24 8.45,10.24v0c2.13333,0 3.92333,-0.34 5.37,-1.02v0l4.1,10.11c-2.56,1.10667 -5.71667,1.66 -9.47,1.66z"/>
      <path d="M809.08,193.54c-1.62,1.62 -3.58,2.43 -5.88,2.43c-2.30667,0 -4.27,-0.81 -5.89,-2.43c-1.62,-1.62667 -2.43,-3.59 -2.43,-5.89c0,-2.30667 0.81,-4.27 2.43,-5.89c1.62,-1.62 3.58333,-2.43 5.89,-2.43c2.3,0 4.26,0.81 5.88,2.43c1.62667,1.62 2.44,3.58333 2.44,5.89c0,2.3 -0.81333,4.26333 -2.44,5.89zM809.08,209.28v62.72h-11.77v-62.72z"/>
      <path d="M851.2,274.05v0c-9.38667,0 -17.11,-3.18 -23.17,-9.54c-6.06,-6.35333 -9.09,-14.31 -9.09,-23.87c0,-9.56 3.03,-17.51667 9.09,-23.87c6.06,-6.36 13.78333,-9.54 23.17,-9.54v0c6.99333,0 12.79333,1.70667 17.4,5.12c4.61333,3.41333 7.98667,7.72333 10.12,12.93v0l-10.76,4.48c-3.24,-7.85333 -9.08333,-11.78 -17.53,-11.78v0c-5.20667,0 -9.79333,2.13333 -13.76,6.4c-3.96667,4.26667 -5.95,9.68667 -5.95,16.26c0,6.57333 1.98333,11.99333 5.95,16.26c3.96667,4.26667 8.55333,6.4 13.76,6.4v0c8.78667,0 14.84333,-3.92667 18.17,-11.78v0l10.5,4.48c-2.13333,5.12 -5.56667,9.40667 -10.3,12.86c-4.74,3.46 -10.60667,5.19 -17.6,5.19z"/>
      <path d="M912,274.05v0c-7,0 -12.78333,-1.70667 -17.35,-5.12c-4.56667,-3.41333 -7.91667,-7.68 -10.05,-12.8v0l10.5,-4.35c3.32667,7.84667 9,11.77 17.02,11.77v0c3.67333,0 6.68333,-0.81 9.03,-2.43c2.34667,-1.62 3.52,-3.75333 3.52,-6.4v0c0,-4.09333 -2.86,-6.86667 -8.58,-8.32v0l-12.67,-3.07c-4.01333,-1.02667 -7.81,-2.97 -11.39,-5.83c-3.58667,-2.85333 -5.38,-6.71333 -5.38,-11.58v0c0,-5.54667 2.45333,-10.04667 7.36,-13.5c4.90667,-3.46 10.73,-5.19 17.47,-5.19v0c5.54667,0 10.49667,1.26 14.85,3.78c4.35333,2.51333 7.47,6.11667 9.35,10.81v0l-10.24,4.23c-2.30667,-5.54667 -7.08667,-8.32 -14.34,-8.32v0c-3.5,0 -6.44333,0.72333 -8.83,2.17c-2.39333,1.45333 -3.59,3.41667 -3.59,5.89v0c0,3.58667 2.77333,6.02 8.32,7.3v0l12.42,2.94c5.88667,1.36667 10.24,3.71333 13.06,7.04c2.81333,3.32667 4.22,7.08333 4.22,11.27v0c0,5.62667 -2.30333,10.32 -6.91,14.08c-4.60667,3.75333 -10.53667,5.63 -17.79,5.63z"/>
    </g>
  </g>
</svg>
