<svg version="1.1" xmlns="http://www.w3.org/2000/svg" xmlns:xlink="http://www.w3.org/1999/xlink" width="1242.11" height="448" viewBox="0 0 1242.11 448">
  <g fill="none" stroke="none" stroke-width="1" stroke-linecap="butt" stroke-linejoin="miter" stroke-dasharray="" stroke-dashoffset="0">
    <rect x="0" y="0" width="1242.11" height="448" fill="none" fill-rule="nonzero"/>
    <circle cx="192" cy="224" r="96" fill="#ffca28" fill-rule="nonzero"/>
    <g fill="#3c4043" fill-rule="evenodd">
      <path d="M165.26933,250.73067c-5.64682,-5.65062 -5.64682,-14.80805 0,-20.45867l13.20667,-13.20667l-6.27667,-6.26267l-13.19267,13.19733c-4.37661,4.37443 -6.83555,10.30874 -6.83555,16.49667c0,6.18792 2.45894,12.12223 6.83555,16.49667c4.37443,4.37661 10.30874,6.83555 16.49667,6.83555c6.18792,0 12.12223,-2.45894 16.49667,-6.83555l13.19733,-13.19267l-6.26733,-6.272l-13.20667,13.19733c-5.64902,5.64628 -14.80498,5.64628 -20.454,0zM182.102,240.50133l26.39467,-26.39933l-6.60333,-6.608l-26.39467,26.39933zM192,191.00667l-13.19733,13.188l6.26733,6.272l13.20667,-13.19733c5.67507,-5.49492 14.70875,-5.42157 20.29384,0.16479c5.58509,5.58636 5.65638,14.62006 0.16016,20.29387l-13.20667,13.20667l6.27667,6.26267l13.19267,-13.19733c4.37661,-4.37443 6.83555,-10.30874 6.83555,-16.49667c0,-6.18792 -2.45894,-12.12223 -6.83555,-16.49667c-4.37443,-4.37661 -10.30874,-6.83555 -16.49667,-6.83555c-6.18792,0 -12.12223,2.45894 -16.49667,6.83555z"/>
    </g>
    <g fill="#5f6368" fill-rule="nonzero">
      <path d="M364.03,272h-28.03v-91.65h28.03c14.08,0 25.34333,4.24667 33.79,12.74c8.44667,8.48667 12.67,19.51667 12.67,33.09c0,13.56667 -4.22333,24.59333 -12.67,33.08c-8.44667,8.49333 -19.71,12.74 -33.79,12.74zM347.77,191.62v69.12h16.26c10.58,0 18.96333,-3.03 25.15,-9.09c6.18667,-6.06 9.28,-14.55 9.28,-25.47v0c0,-10.84 -3.09333,-19.31 -9.28,-25.41c-6.18667,-6.1 -14.57,-9.15 -25.15,-9.15v0z"/>
      <path d="M477.82,209.28l-39.3,90.37h-12.16l14.6,-31.62l-25.86,-58.75h12.8l18.69,45.06h0.25l18.18,-45.06z"/>
      <path d="M485.5,209.28h11.26v8.7h0.52c1.70667,-2.98667 4.39333,-5.52333 8.06,-7.61c3.66667,-2.09333 7.59333,-3.14 11.78,-3.14v0c7.76,0 13.69,2.39 17.79,7.17c4.09333,4.78 6.14,11.18 6.14,19.2v0v38.4h-11.77v-36.61c0,-11.60667 -5.16333,-17.41 -15.49,-17.41v0c-4.86667,0 -8.83667,1.94333 -11.91,5.83c-3.06667,3.88 -4.6,8.38 -4.6,13.5v0v34.69h-11.78z"/>
      <path d="M574.08,274.05v0c-6.66,0 -12.23,-1.92 -16.71,-5.76c-4.48,-3.84 -6.72,-8.91667 -6.72,-15.23v0c0,-6.82667 2.64667,-12.18333 7.94,-16.07c5.28667,-3.88 11.81333,-5.82 19.58,-5.82v0c6.91333,0 12.59,1.28 17.03,3.84v0v-1.79c0,-4.61333 -1.58,-8.30667 -4.74,-11.08c-3.16,-2.77333 -7.04333,-4.16 -11.65,-4.16v0c-3.41333,0 -6.50667,0.81333 -9.28,2.44c-2.77333,1.62 -4.67,3.83667 -5.69,6.65v0l-10.76,-4.61c1.45333,-3.75333 4.31333,-7.23 8.58,-10.43c4.26667,-3.2 9.9,-4.8 16.9,-4.8v0c8.02,0 14.67333,2.34667 19.96,7.04c5.29333,4.69333 7.94,11.30667 7.94,19.84v0v37.89h-11.26v-8.7h-0.52c-4.69333,7.16667 -11.56,10.75 -20.6,10.75zM576,263.3v0c4.86,0 9.27333,-1.81333 13.24,-5.44c3.97333,-3.62667 5.96,-7.91667 5.96,-12.87v0c-3.33333,-2.72667 -8.32667,-4.09 -14.98,-4.09v0c-5.72,0 -10.03,1.23667 -12.93,3.71c-2.9,2.47333 -4.35,5.37333 -4.35,8.7v0c0,3.07333 1.32333,5.50667 3.97,7.3c2.64667,1.79333 5.67667,2.69 9.09,2.69z"/>
      <path d="M630.27,272h-11.78v-62.72h11.27v8.7h0.51c1.79333,-2.98667 4.54333,-5.52333 8.25,-7.61c3.71333,-2.09333 7.40667,-3.14 11.08,-3.14v0c9.72667,0 16.34,4.01 19.84,12.03v0c5.12,-8.02 12.41333,-12.03 21.88,-12.03v0c7.42667,0 13.01667,2.37 16.77,7.11c3.75333,4.73333 5.63,11.15333 5.63,19.26v0v38.4h-11.77v-36.61c0,-6.31333 -1.15333,-10.79333 -3.46,-13.44c-2.3,-2.64667 -5.79667,-3.97 -10.49,-3.97v0c-4.61333,0 -8.43333,1.96333 -11.46,5.89c-3.02667,3.92667 -4.54,8.40667 -4.54,13.44v0v34.69h-11.78v-36.61c0,-6.31333 -1.15333,-10.79333 -3.46,-13.44c-2.3,-2.64667 -5.79667,-3.97 -10.49,-3.97v0c-4.60667,0 -8.42667,1.96333 -11.46,5.89c-3.02667,3.92667 -4.54,8.40667 -4.54,13.44v0z"/>
      <path d="M739.07,193.54c-1.62,1.62 -3.58333,2.43 -5.89,2.43c-2.30667,0 -4.27,-0.81 -5.89,-2.43c-1.62,-1.62667 -2.43,-3.59 -2.43,-5.89c0,-2.30667 0.81,-4.27 2.43,-5.89c1.62,-1.62 3.58333,-2.43 5.89,-2.43c2.30667,0 4.27,0.81 5.89,2.43c1.62,1.62 2.43,3.58333 2.43,5.89c0,2.3 -0.81,4.26333 -2.43,5.89zM739.07,209.28v62.72h-11.78v-62.72z"/>
      <path d="M781.18,274.05v0c-9.38667,0 -17.11,-3.18 -23.17,-9.54c-6.06,-6.35333 -9.09,-14.31 -9.09,-23.87c0,-9.56 3.03,-17.51667 9.09,-23.87c6.06,-6.36 13.78333,-9.54 23.17,-9.54v0c7,0 12.80333,1.70667 17.41,5.12c4.60667,3.41333 7.97667,7.72333 10.11,12.93v0l-10.75,4.48c-3.24667,-7.85333 -9.09333,-11.78 -17.54,-11.78v0c-5.20667,0 -9.79333,2.13333 -13.76,6.4c-3.96667,4.26667 -5.95,9.68667 -5.95,16.26c0,6.57333 1.98333,11.99333 5.95,16.26c3.96667,4.26667 8.55333,6.4 13.76,6.4v0c8.79333,0 14.85333,-3.92667 18.18,-11.78v0l10.49,4.48c-2.13333,5.12 -5.56667,9.40667 -10.3,12.86c-4.73333,3.46 -10.6,5.19 -17.6,5.19z"/>
      <path d=""/>
      <path d="M900.99,272h-51.46v-91.65h11.78v80.39h39.68z"/>
      <path d="M924.03,193.54c-1.62,1.62 -3.58333,2.43 -5.89,2.43c-2.30667,0 -4.27,-0.81 -5.89,-2.43c-1.62,-1.62667 -2.43,-3.59 -2.43,-5.89c0,-2.30667 0.81,-4.27 2.43,-5.89c1.62,-1.62 3.58333,-2.43 5.89,-2.43c2.30667,0 4.27,0.81 5.89,2.43c1.62,1.62 2.43,3.58333 2.43,5.89c0,2.3 -0.81,4.26333 -2.43,5.89zM924.03,209.28v62.72h-11.78v-62.72z"/>
      <path d="M938.11,209.28h11.26v8.7h0.51c1.70667,-2.98667 4.39667,-5.52333 8.07,-7.61c3.66667,-2.09333 7.59,-3.14 11.77,-3.14v0c7.76667,0 13.7,2.39 17.8,7.17c4.09333,4.78 6.14,11.18 6.14,19.2v0v38.4h-11.78v-36.61c0,-11.60667 -5.16,-17.41 -15.48,-17.41v0c-4.86667,0 -8.83667,1.94333 -11.91,5.83c-3.07333,3.88 -4.61,8.38 -4.61,13.5v0v34.69h-11.77z"/>
      <path d="M1006.2,180.35h11.78v56.45l27.14,-27.52h15.1v0.51l-24.45,24.45l25.6,37.25v0.51h-14.21l-19.71,-29.57l-9.47,9.47v20.1h-11.78z"/>
      <path d="M1089.4,274.05v0c-6.99333,0 -12.77333,-1.70667 -17.34,-5.12c-4.56667,-3.41333 -7.91667,-7.68 -10.05,-12.8v0l10.5,-4.35c3.32667,7.84667 9,11.77 17.02,11.77v0c3.67333,0 6.68333,-0.81 9.03,-2.43c2.34667,-1.62 3.52,-3.75333 3.52,-6.4v0c0,-4.09333 -2.86,-6.86667 -8.58,-8.32v0l-12.67,-3.07c-4.01333,-1.02667 -7.81,-2.97 -11.39,-5.83c-3.58667,-2.85333 -5.38,-6.71333 -5.38,-11.58v0c0,-5.54667 2.45333,-10.04667 7.36,-13.5c4.90667,-3.46 10.73,-5.19 17.47,-5.19v0c5.54667,0 10.49667,1.26 14.85,3.78c4.35333,2.51333 7.46667,6.11667 9.34,10.81v0l-10.24,4.23c-2.3,-5.54667 -7.07667,-8.32 -14.33,-8.32v0c-3.5,0 -6.44333,0.72333 -8.83,2.17c-2.39333,1.45333 -3.59,3.41667 -3.59,5.89v0c0,3.58667 2.77333,6.02 8.32,7.3v0l12.42,2.94c5.88667,1.36667 10.23667,3.71333 13.05,7.04c2.82,3.32667 4.23,7.08333 4.23,11.27v0c0,5.62667 -2.30333,10.32 -6.91,14.08c-4.61333,3.75333 -10.54667,5.63 -17.8,5.63z"/>
    </g>
  </g>
</svg>
