<svg version="1.1" xmlns="http://www.w3.org/2000/svg" xmlns:xlink="http://www.w3.org/1999/xlink" width="451.37" height="464" viewBox="0 0 451.37 464">
  <g fill="none" stroke="none" stroke-width="1" stroke-linecap="butt" stroke-linejoin="miter" stroke-dasharray="" stroke-dashoffset="0">
    <rect x="0" y="0" width="451.37" height="464" fill="none" fill-rule="nonzero"/>
    <circle cx="225.685" cy="192" r="96" fill="#ffca28" fill-rule="nonzero"/>
    <g fill="#3c4043" fill-rule="evenodd">
      <path d="M198.95433,218.73067c-5.64682,-5.65062 -5.64682,-14.80805 0,-20.45867l13.20667,-13.20667l-6.27667,-6.26267l-13.19267,13.19733c-4.37661,4.37443 -6.83555,10.30874 -6.83555,16.49667c0,6.18792 2.45894,12.12223 6.83555,16.49667c4.37443,4.37661 10.30874,6.83555 16.49667,6.83555c6.18792,0 12.12223,-2.45894 16.49667,-6.83555l13.19733,-13.19267l-6.26733,-6.272l-13.20667,13.19733c-5.64902,5.64628 -14.80498,5.64628 -20.454,0zM215.787,208.50133l26.39467,-26.39933l-6.60333,-6.608l-26.39467,26.39933zM225.685,159.00667l-13.19733,13.188l6.26733,6.272l13.20667,-13.19733c5.67507,-5.49492 14.70875,-5.42157 20.29384,0.16479c5.58509,5.58636 5.65638,14.62006 0.16016,20.29387l-13.20667,13.20667l6.27667,6.26267l13.19267,-13.19733c4.37661,-4.37443 6.83555,-10.30874 6.83555,-16.49667c0,-6.18792 -2.45894,-12.12223 -6.83555,-16.49667c-4.37443,-4.37661 -10.30874,-6.83555 -16.49667,-6.83555c-6.18792,0 -12.12223,2.45894 -16.49667,6.83555z"/>
    </g>
    <g fill="#5f6368" fill-rule="nonzero">
      <path d="M105.34333,352h-9.34333v-30.55h9.34333c4.69333,0 8.44778,1.41556 11.26333,4.24667c2.81556,2.82889 4.22333,6.50556 4.22333,11.03c0,4.52222 -1.40778,8.19778 -4.22333,11.02667c-2.81556,2.83111 -6.57,4.24667 -11.26333,4.24667zM99.92333,325.20667v23.04h5.42c3.52667,0 6.32111,-1.01 8.38333,-3.03c2.06222,-2.02 3.09333,-4.85 3.09333,-8.49v0c0,-3.61333 -1.03111,-6.43667 -3.09333,-8.47c-2.06222,-2.03333 -4.85667,-3.05 -8.38333,-3.05v0z"/>
      <path d="M143.27333,331.09333l-13.1,30.12333h-4.05333l4.86667,-10.54l-8.62,-19.58333h4.26667l6.23,15.02h0.08333l6.06,-15.02z"/>
      <path d="M145.83333,331.09333h3.75333v2.9h0.17333c0.56889,-0.99556 1.46444,-1.84111 2.68667,-2.53667c1.22222,-0.69778 2.53111,-1.04667 3.92667,-1.04667v0c2.58667,0 4.56333,0.79667 5.93,2.39c1.36444,1.59333 2.04667,3.72667 2.04667,6.4v0v12.8h-3.92333v-12.20333c0,-3.86889 -1.72111,-5.80333 -5.16333,-5.80333v0c-1.62222,0 -2.94556,0.64778 -3.97,1.94333c-1.02222,1.29333 -1.53333,2.79333 -1.53333,4.5v0v11.56333h-3.92667z"/>
      <path d="M175.36,352.68333v0c-2.22,0 -4.07667,-0.64 -5.57,-1.92c-1.49333,-1.28 -2.24,-2.97222 -2.24,-5.07667v0c0,-2.27556 0.88222,-4.06111 2.64667,-5.35667c1.76222,-1.29333 3.93778,-1.94 6.52667,-1.94v0c2.30444,0 4.19667,0.42667 5.67667,1.28v0v-0.59667c0,-1.53778 -0.52667,-2.76889 -1.58,-3.69333c-1.05333,-0.92444 -2.34778,-1.38667 -3.88333,-1.38667v0c-1.13778,0 -2.16889,0.27111 -3.09333,0.81333c-0.92444,0.54 -1.55667,1.27889 -1.89667,2.21667v0l-3.58667,-1.53667c0.48444,-1.25111 1.43778,-2.41 2.86,-3.47667c1.42222,-1.06667 3.3,-1.6 5.63333,-1.6v0c2.67333,0 4.89111,0.78222 6.65333,2.34667c1.76444,1.56444 2.64667,3.76889 2.64667,6.61333v0v12.63h-3.75333v-2.9h-0.17333c-1.56444,2.38889 -3.85333,3.58333 -6.86667,3.58333zM176,349.1v0c1.62,0 3.09111,-0.60444 4.41333,-1.81333c1.32444,-1.20889 1.98667,-2.63889 1.98667,-4.29v0c-1.11111,-0.90889 -2.77556,-1.36333 -4.99333,-1.36333v0c-1.90667,0 -3.34333,0.41222 -4.31,1.23667c-0.96667,0.82444 -1.45,1.79111 -1.45,2.9v0c0,1.02444 0.44111,1.83556 1.32333,2.43333c0.88222,0.59778 1.89222,0.89667 3.03,0.89667z"/>
      <path d="M194.09,352h-3.92667v-20.90667h3.75667v2.9h0.17c0.59778,-0.99556 1.51444,-1.84111 2.75,-2.53667c1.23778,-0.69778 2.46889,-1.04667 3.69333,-1.04667v0c3.24222,0 5.44667,1.33667 6.61333,4.01v0c1.70667,-2.67333 4.13778,-4.01 7.29333,-4.01v0c2.47556,0 4.33889,0.79 5.59,2.37c1.25111,1.57778 1.87667,3.71778 1.87667,6.42v0v12.8h-3.92333v-12.20333c0,-2.10444 -0.38444,-3.59778 -1.15333,-4.48c-0.76667,-0.88222 -1.93222,-1.32333 -3.49667,-1.32333v0c-1.53778,0 -2.81111,0.65444 -3.82,1.96333c-1.00889,1.30889 -1.51333,2.80222 -1.51333,4.48v0v11.56333h-3.92667v-12.20333c0,-2.10444 -0.38444,-3.59778 -1.15333,-4.48c-0.76667,-0.88222 -1.93222,-1.32333 -3.49667,-1.32333v0c-1.53556,0 -2.80889,0.65444 -3.82,1.96333c-1.00889,1.30889 -1.51333,2.80222 -1.51333,4.48v0z"/>
      <path d="M230.35667,325.84667c-0.54,0.54 -1.19444,0.81 -1.96333,0.81c-0.76889,0 -1.42333,-0.27 -1.96333,-0.81c-0.54,-0.54222 -0.81,-1.19667 -0.81,-1.96333c0,-0.76889 0.27,-1.42333 0.81,-1.96333c0.54,-0.54 1.19444,-0.81 1.96333,-0.81c0.76889,0 1.42333,0.27 1.96333,0.81c0.54,0.54 0.81,1.19444 0.81,1.96333c0,0.76667 -0.27,1.42111 -0.81,1.96333zM230.35667,331.09333v20.90667h-3.92667v-20.90667z"/>
      <path d="M244.39333,352.68333v0c-3.12889,0 -5.70333,-1.06 -7.72333,-3.18c-2.02,-2.11778 -3.03,-4.77 -3.03,-7.95667c0,-3.18667 1.01,-5.83889 3.03,-7.95667c2.02,-2.12 4.59444,-3.18 7.72333,-3.18v0c2.33333,0 4.26778,0.56889 5.80333,1.70667c1.53556,1.13778 2.65889,2.57444 3.37,4.31v0l-3.58333,1.49333c-1.08222,-2.61778 -3.03111,-3.92667 -5.84667,-3.92667v0c-1.73556,0 -3.26444,0.71111 -4.58667,2.13333c-1.32222,1.42222 -1.98333,3.22889 -1.98333,5.42c0,2.19111 0.66111,3.99778 1.98333,5.42c1.32222,1.42222 2.85111,2.13333 4.58667,2.13333v0c2.93111,0 4.95111,-1.30889 6.06,-3.92667v0l3.49667,1.49333c-0.71111,1.70667 -1.85556,3.13556 -3.43333,4.28667c-1.57778,1.15333 -3.53333,1.73 -5.86667,1.73z"/>
      <path d=""/>
      <path d="M284.33,352h-17.15333v-30.55h3.92667v26.79667h13.22667z"/>
      <path d="M292.01,325.84667c-0.54,0.54 -1.19444,0.81 -1.96333,0.81c-0.76889,0 -1.42333,-0.27 -1.96333,-0.81c-0.54,-0.54222 -0.81,-1.19667 -0.81,-1.96333c0,-0.76889 0.27,-1.42333 0.81,-1.96333c0.54,-0.54 1.19444,-0.81 1.96333,-0.81c0.76889,0 1.42333,0.27 1.96333,0.81c0.54,0.54 0.81,1.19444 0.81,1.96333c0,0.76667 -0.27,1.42111 -0.81,1.96333zM292.01,331.09333v20.90667h-3.92667v-20.90667z"/>
      <path d="M296.70333,331.09333h3.75333v2.9h0.17c0.56889,-0.99556 1.46556,-1.84111 2.69,-2.53667c1.22222,-0.69778 2.53,-1.04667 3.92333,-1.04667v0c2.58889,0 4.56667,0.79667 5.93333,2.39c1.36444,1.59333 2.04667,3.72667 2.04667,6.4v0v12.8h-3.92667v-12.20333c0,-3.86889 -1.72,-5.80333 -5.16,-5.80333v0c-1.62222,0 -2.94556,0.64778 -3.97,1.94333c-1.02444,1.29333 -1.53667,2.79333 -1.53667,4.5v0v11.56333h-3.92333z"/>
      <path d="M319.4,321.45h3.92667v18.81667l9.04667,-9.17333h5.03333v0.17l-8.15,8.15l8.53333,12.41667v0.17h-4.73667l-6.57,-9.85667l-3.15667,3.15667v6.7h-3.92667z"/>
      <path d="M347.13333,352.68333v0c-2.33111,0 -4.25778,-0.56889 -5.78,-1.70667c-1.52222,-1.13778 -2.63889,-2.56 -3.35,-4.26667v0l3.5,-1.45c1.10889,2.61556 3,3.92333 5.67333,3.92333v0c1.22444,0 2.22778,-0.27 3.01,-0.81c0.78222,-0.54 1.17333,-1.25111 1.17333,-2.13333v0c0,-1.36444 -0.95333,-2.28889 -2.86,-2.77333v0l-4.22333,-1.02333c-1.33778,-0.34222 -2.60333,-0.99 -3.79667,-1.94333c-1.19556,-0.95111 -1.79333,-2.23778 -1.79333,-3.86v0c0,-1.84889 0.81778,-3.34889 2.45333,-4.5c1.63556,-1.15333 3.57667,-1.73 5.82333,-1.73v0c1.84889,0 3.49889,0.42 4.95,1.26c1.45111,0.83778 2.48889,2.03889 3.11333,3.60333v0l-3.41333,1.41c-0.76667,-1.84889 -2.35889,-2.77333 -4.77667,-2.77333v0c-1.16667,0 -2.14778,0.24111 -2.94333,0.72333c-0.79778,0.48444 -1.19667,1.13889 -1.19667,1.96333v0c0,1.19556 0.92444,2.00667 2.77333,2.43333v0l4.14,0.98c1.96222,0.45556 3.41222,1.23778 4.35,2.34667c0.94,1.10889 1.41,2.36111 1.41,3.75667v0c0,1.87556 -0.76778,3.44 -2.30333,4.69333c-1.53778,1.25111 -3.51556,1.87667 -5.93333,1.87667z"/>
    </g>
  </g>
</svg>
