<svg version="1.1" xmlns="http://www.w3.org/2000/svg" xmlns:xlink="http://www.w3.org/1999/xlink" width="192" height="192" viewBox="0 0 192 192">
  <g fill="none" stroke="none" stroke-width="1" stroke-linecap="butt" stroke-linejoin="miter" stroke-dasharray="" stroke-dashoffset="0">
    <rect x="0" y="0" width="192" height="192" fill="none" fill-rule="nonzero"/>
    <circle cx="96" cy="96" r="96" fill="#ffca28" fill-rule="nonzero"/>
    <g fill="#3c4043" fill-rule="evenodd">
      <path d="M69.26933,122.73067c-5.64682,-5.65062 -5.64682,-14.80805 0,-20.45867l13.20667,-13.20667l-6.27667,-6.26267l-13.19267,13.19733c-4.37661,4.37443 -6.83555,10.30874 -6.83555,16.49667c0,6.18792 2.45894,12.12223 6.83555,16.49667c4.37443,4.37661 10.30874,6.83555 16.49667,6.83555c6.18792,0 12.12223,-2.45894 16.49667,-6.83555l13.19733,-13.19267l-6.26733,-6.272l-13.20667,13.19733c-5.64902,5.64628 -14.80498,5.64628 -20.454,0zM86.102,112.50133l26.39467,-26.39933l-6.60333,-6.608l-26.39467,26.39933zM96,63.00667l-13.19733,13.188l6.26733,6.272l13.20667,-13.19733c5.67507,-5.49492 14.70875,-5.42157 20.29384,0.16479c5.58509,5.58636 5.65638,14.62006 0.16016,20.29387l-13.20667,13.20667l6.27667,6.26267l13.19267,-13.19733c4.37661,-4.37443 6.83555,-10.30874 6.83555,-16.49667c0,-6.18792 -2.45894,-12.12223 -6.83555,-16.49667c-4.37443,-4.37661 -10.30874,-6.83555 -16.49667,-6.83555c-6.18792,0 -12.12223,2.45894 -16.49667,6.83555z"/>
    </g>
  </g>
</svg>
