<svg version="1.1" xmlns="http://www.w3.org/2000/svg" xmlns:xlink="http://www.w3.org/1999/xlink" width="192" height="192" viewBox="0 0 192 192">
  <g fill="none" stroke="none" stroke-width="1" stroke-linecap="butt" stroke-linejoin="miter" stroke-dasharray="" stroke-dashoffset="0">
    <rect x="0" y="0" width="192" height="192" fill="none" fill-rule="nonzero"/>
    <circle cx="96" cy="96" r="96" fill="#ffca28" fill-rule="nonzero"/>
    <g fill="#3c4043" fill-rule="evenodd">
      <path d="M96,49.33333c-25.76,0 -46.66667,20.90667 -46.66667,46.66667c0,25.76 20.90667,46.66667 46.66667,46.66667c25.76,0 46.66667,-20.90667 46.66667,-46.66667c0,-25.76 -20.90667,-46.66667 -46.66667,-46.66667zM91.33333,133.00667c-18.43333,-2.28667 -32.66667,-17.96667 -32.66667,-37.00667c0,-2.89333 0.37333,-5.64667 0.98,-8.35333l22.35333,22.35333v4.66667c0,5.13333 4.2,9.33333 9.33333,9.33333zM123.53333,121.15333c-1.21333,-3.78 -4.66667,-6.48667 -8.86667,-6.48667h-4.66667v-14c0,-2.56667 -2.1,-4.66667 -4.66667,-4.66667h-28v-9.33333h9.33333c2.56667,0 4.66667,-2.1 4.66667,-4.66667v-9.33333h9.33333c5.13333,0 9.33333,-4.2 9.33333,-9.33333v-1.91333c13.67333,5.55333 23.33333,18.94667 23.33333,34.58c0,9.70667 -3.73333,18.52667 -9.8,25.15333z"/>
    </g>
  </g>
</svg>
