<svg version="1.1" xmlns="http://www.w3.org/2000/svg" xmlns:xlink="http://www.w3.org/1999/xlink" width="874.24" height="448" viewBox="0 0 874.24 448">
  <g fill="none" stroke="none" stroke-width="1" stroke-linecap="butt" stroke-linejoin="miter" stroke-dasharray="" stroke-dashoffset="0">
    <rect x="0" y="0" width="874.24" height="448" fill="none" fill-rule="nonzero"/>
    <circle cx="192" cy="224" r="96" fill="#ffca28" fill-rule="nonzero"/>
    <g fill="#3c4043" fill-rule="evenodd">
      <path d="M192,177.33333c-25.76,0 -46.66667,20.90667 -46.66667,46.66667c0,25.76 20.90667,46.66667 46.66667,46.66667c25.76,0 46.66667,-20.90667 46.66667,-46.66667c0,-25.76 -20.90667,-46.66667 -46.66667,-46.66667zM187.33333,261.00667c-18.43333,-2.28667 -32.66667,-17.96667 -32.66667,-37.00667c0,-2.89333 0.37333,-5.64667 0.98,-8.35333l22.35333,22.35333v4.66667c0,5.13333 4.2,9.33333 9.33333,9.33333zM219.53333,249.15333c-1.21333,-3.78 -4.66667,-6.48667 -8.86667,-6.48667h-4.66667v-14c0,-2.56667 -2.1,-4.66667 -4.66667,-4.66667h-28v-9.33333h9.33333c2.56667,0 4.66667,-2.1 4.66667,-4.66667v-9.33333h9.33333c5.13333,0 9.33333,-4.2 9.33333,-9.33333v-1.91333c13.67333,5.55333 23.33333,18.94667 23.33333,34.58c0,9.70667 -3.73333,18.52667 -9.8,25.15333z"/>
    </g>
    <g fill="#5f6368" fill-rule="nonzero">
      <path d="M347.77,272h-11.77v-91.65h11.77v39.3h45.83v-39.3h11.77v91.65h-11.77v-41.34h-45.83z"/>
      <path d="M427.26,216.77c6.06,-6.36 13.78333,-9.54 23.17,-9.54c9.38667,0 17.11,3.18 23.17,9.54c6.05333,6.35333 9.08,14.31 9.08,23.87c0,9.56 -3.02667,17.51667 -9.08,23.87c-6.06,6.36 -13.78333,9.54 -23.17,9.54c-9.38667,0 -17.11,-3.18 -23.17,-9.54c-6.06,-6.35333 -9.09,-14.31 -9.09,-23.87c0,-9.56 3.03,-17.51667 9.09,-23.87zM436.03,257.09c4.05333,4.14 8.85333,6.21 14.4,6.21c5.54667,0 10.34667,-2.07 14.4,-6.21c4.05333,-4.14 6.08,-9.62333 6.08,-16.45c0,-6.82667 -2.02667,-12.31 -6.08,-16.45c-4.05333,-4.14 -8.85333,-6.21 -14.4,-6.21c-5.54667,0 -10.34667,2.07 -14.4,6.21c-4.05333,4.14 -6.08,9.62333 -6.08,16.45c0,6.82667 2.02667,12.31 6.08,16.45z"/>
      <path d="M514.81,274.05v0c-6.99333,0 -12.77333,-1.70667 -17.34,-5.12c-4.56667,-3.41333 -7.91667,-7.68 -10.05,-12.8v0l10.5,-4.35c3.32667,7.84667 9,11.77 17.02,11.77v0c3.66667,0 6.67333,-0.81 9.02,-2.43c2.34667,-1.62 3.52,-3.75333 3.52,-6.4v0c0,-4.09333 -2.85667,-6.86667 -8.57,-8.32v0l-12.67,-3.07c-4.01333,-1.02667 -7.81333,-2.97 -11.4,-5.83c-3.58,-2.85333 -5.37,-6.71333 -5.37,-11.58v0c0,-5.54667 2.45333,-10.04667 7.36,-13.5c4.90667,-3.46 10.73,-5.19 17.47,-5.19v0c5.54667,0 10.49667,1.26 14.85,3.78c4.35333,2.51333 7.46667,6.11667 9.34,10.81v0l-10.24,4.23c-2.3,-5.54667 -7.07667,-8.32 -14.33,-8.32v0c-3.5,0 -6.44667,0.72333 -8.84,2.17c-2.38667,1.45333 -3.58,3.41667 -3.58,5.89v0c0,3.58667 2.77333,6.02 8.32,7.3v0l12.42,2.94c5.88667,1.36667 10.23667,3.71333 13.05,7.04c2.82,3.32667 4.23,7.08333 4.23,11.27v0c0,5.62667 -2.30667,10.32 -6.92,14.08c-4.60667,3.75333 -10.53667,5.63 -17.79,5.63z"/>
      <path d="M574.97,273.02v0c-6.56667,0 -11.58,-1.74667 -15.04,-5.24c-3.45333,-3.5 -5.18,-8.45 -5.18,-14.85v0v-32.9h-11.01v-10.75h11.01v-19.2h11.77v19.2h15.36v10.75h-15.36v32c0,6.82667 2.81667,10.24 8.45,10.24v0c2.13333,0 3.92667,-0.34 5.38,-1.02v0l4.09,10.11c-2.56,1.10667 -5.71667,1.66 -9.47,1.66z"/>
      <path d="M604.67,193.54c-1.62,1.62 -3.58333,2.43 -5.89,2.43c-2.30667,0 -4.27,-0.81 -5.89,-2.43c-1.62,-1.62667 -2.43,-3.59 -2.43,-5.89c0,-2.30667 0.81,-4.27 2.43,-5.89c1.62,-1.62 3.58333,-2.43 5.89,-2.43c2.30667,0 4.27,0.81 5.89,2.43c1.62,1.62 2.43,3.58333 2.43,5.89c0,2.3 -0.81,4.26333 -2.43,5.89zM604.67,209.28v62.72h-11.78v-62.72z"/>
      <path d="M618.75,209.28h11.26v8.7h0.51c1.70667,-2.98667 4.39667,-5.52333 8.07,-7.61c3.66667,-2.09333 7.59,-3.14 11.77,-3.14v0c7.76667,0 13.7,2.39 17.8,7.17c4.09333,4.78 6.14,11.18 6.14,19.2v0v38.4h-11.78v-36.61c0,-11.60667 -5.16,-17.41 -15.48,-17.41v0c-4.86667,0 -8.83667,1.94333 -11.91,5.83c-3.07333,3.88 -4.61,8.38 -4.61,13.5v0v34.69h-11.77z"/>
      <path d="M714.11,301.7v0c-7.42667,0 -13.48667,-1.85667 -18.18,-5.57c-4.69333,-3.71333 -8.06333,-7.96 -10.11,-12.74v0l10.75,-4.48c1.19333,3.41333 3.39,6.27333 6.59,8.58c3.2,2.3 6.85,3.45 10.95,3.45v0c6.48667,0 11.58333,-1.94 15.29,-5.82c3.71333,-3.88 5.57,-9.15 5.57,-15.81v0v-6.01h-0.51c-2.04667,3.06667 -4.94667,5.62667 -8.7,7.68c-3.76,2.04667 -7.98667,3.07 -12.68,3.07v0c-8.10667,0 -15.10333,-3.2 -20.99,-9.6c-5.88667,-6.4 -8.83,-14.33667 -8.83,-23.81c0,-9.47333 2.94333,-17.41 8.83,-23.81c5.88667,-6.4 12.88333,-9.6 20.99,-9.6v0c4.69333,0 8.92,1.02333 12.68,3.07c3.75333,2.05333 6.65333,4.61333 8.7,7.68v0h0.51v-8.7h11.27v59.52c0,10.75333 -3.11667,18.92333 -9.35,24.51c-6.22667,5.59333 -13.82,8.39 -22.78,8.39zM715,263.3v0c5.54667,0 10.26333,-2.05 14.15,-6.15c3.88,-4.09333 5.82,-9.59667 5.82,-16.51c0,-6.91333 -1.94,-12.41667 -5.82,-16.51c-3.88667,-4.1 -8.60333,-6.15 -14.15,-6.15v0c-5.46,0 -10.15333,2.07 -14.08,6.21c-3.92,4.14 -5.88,9.62333 -5.88,16.45c0,6.82667 1.96,12.31 5.88,16.45c3.92667,4.14 8.62,6.21 14.08,6.21z"/>
    </g>
  </g>
</svg>
