<svg version="1.1" xmlns="http://www.w3.org/2000/svg" xmlns:xlink="http://www.w3.org/1999/xlink" width="328.747" height="464" viewBox="0 0 328.747 464">
  <g fill="none" stroke="none" stroke-width="1" stroke-linecap="butt" stroke-linejoin="miter" stroke-dasharray="" stroke-dashoffset="0">
    <rect x="0" y="0" width="328.747" height="464" fill="none" fill-rule="nonzero"/>
    <circle cx="164.373" cy="192" r="96" fill="#ffca28" fill-rule="nonzero"/>
    <g fill="#3c4043" fill-rule="evenodd">
      <path d="M164.37333,145.33333c-25.76,0 -46.66667,20.90667 -46.66667,46.66667c0,25.76 20.90667,46.66667 46.66667,46.66667c25.76,0 46.66667,-20.90667 46.66667,-46.66667c0,-25.76 -20.90667,-46.66667 -46.66667,-46.66667zM159.70667,229.00667c-18.43333,-2.28667 -32.66667,-17.96667 -32.66667,-37.00667c0,-2.89333 0.37333,-5.64667 0.98,-8.35333l22.35333,22.35333v4.66667c0,5.13333 4.2,9.33333 9.33333,9.33333zM191.90667,217.15333c-1.21333,-3.78 -4.66667,-6.48667 -8.86667,-6.48667h-4.66667v-14c0,-2.56667 -2.1,-4.66667 -4.66667,-4.66667h-28v-9.33333h9.33333c2.56667,0 4.66667,-2.1 4.66667,-4.66667v-9.33333h9.33333c5.13333,0 9.33333,-4.2 9.33333,-9.33333v-1.91333c13.67333,5.55333 23.33333,18.94667 23.33333,34.58c0,9.70667 -3.73333,18.52667 -9.8,25.15333z"/>
    </g>
    <g fill="#5f6368" fill-rule="nonzero">
      <path d="M99.92333,352h-3.92333v-30.55h3.92333v13.1h15.27667v-13.1h3.92333v30.55h-3.92333v-13.78h-15.27667z"/>
      <path d="M126.42,333.59c2.02,-2.12 4.59444,-3.18 7.72333,-3.18c3.12889,0 5.70333,1.06 7.72333,3.18c2.01778,2.11778 3.02667,4.77 3.02667,7.95667c0,3.18667 -1.00889,5.83889 -3.02667,7.95667c-2.02,2.12 -4.59444,3.18 -7.72333,3.18c-3.12889,0 -5.70333,-1.06 -7.72333,-3.18c-2.02,-2.11778 -3.03,-4.77 -3.03,-7.95667c0,-3.18667 1.01,-5.83889 3.03,-7.95667zM129.34333,347.03c1.35111,1.38 2.95111,2.07 4.8,2.07c1.84889,0 3.44889,-0.69 4.8,-2.07c1.35111,-1.38 2.02667,-3.20778 2.02667,-5.48333c0,-2.27556 -0.67556,-4.10333 -2.02667,-5.48333c-1.35111,-1.38 -2.95111,-2.07 -4.8,-2.07c-1.84889,0 -3.44889,0.69 -4.8,2.07c-1.35111,1.38 -2.02667,3.20778 -2.02667,5.48333c0,2.27556 0.67556,4.10333 2.02667,5.48333z"/>
      <path d="M155.60333,352.68333v0c-2.33111,0 -4.25778,-0.56889 -5.78,-1.70667c-1.52222,-1.13778 -2.63889,-2.56 -3.35,-4.26667v0l3.5,-1.45c1.10889,2.61556 3,3.92333 5.67333,3.92333v0c1.22222,0 2.22444,-0.27 3.00667,-0.81c0.78222,-0.54 1.17333,-1.25111 1.17333,-2.13333v0c0,-1.36444 -0.95222,-2.28889 -2.85667,-2.77333v0l-4.22333,-1.02333c-1.33778,-0.34222 -2.60444,-0.99 -3.8,-1.94333c-1.19333,-0.95111 -1.79,-2.23778 -1.79,-3.86v0c0,-1.84889 0.81778,-3.34889 2.45333,-4.5c1.63556,-1.15333 3.57667,-1.73 5.82333,-1.73v0c1.84889,0 3.49889,0.42 4.95,1.26c1.45111,0.83778 2.48889,2.03889 3.11333,3.60333v0l-3.41333,1.41c-0.76667,-1.84889 -2.35889,-2.77333 -4.77667,-2.77333v0c-1.16667,0 -2.14889,0.24111 -2.94667,0.72333c-0.79556,0.48444 -1.19333,1.13889 -1.19333,1.96333v0c0,1.19556 0.92444,2.00667 2.77333,2.43333v0l4.14,0.98c1.96222,0.45556 3.41222,1.23778 4.35,2.34667c0.94,1.10889 1.41,2.36111 1.41,3.75667v0c0,1.87556 -0.76889,3.44 -2.30667,4.69333c-1.53556,1.25111 -3.51222,1.87667 -5.93,1.87667z"/>
      <path d="M175.65667,352.34v0c-2.18889,0 -3.86,-0.58222 -5.01333,-1.74667c-1.15111,-1.16667 -1.72667,-2.81667 -1.72667,-4.95v0v-10.96667h-3.67v-3.58333h3.67v-6.4h3.92333v6.4h5.12v3.58333h-5.12v10.66667c0,2.27556 0.93889,3.41333 2.81667,3.41333v0c0.71111,0 1.30889,-0.11333 1.79333,-0.34v0l1.36333,3.37c-0.85333,0.36889 -1.90556,0.55333 -3.15667,0.55333z"/>
      <path d="M185.55667,325.84667c-0.54,0.54 -1.19444,0.81 -1.96333,0.81c-0.76889,0 -1.42333,-0.27 -1.96333,-0.81c-0.54,-0.54222 -0.81,-1.19667 -0.81,-1.96333c0,-0.76889 0.27,-1.42333 0.81,-1.96333c0.54,-0.54 1.19444,-0.81 1.96333,-0.81c0.76889,0 1.42333,0.27 1.96333,0.81c0.54,0.54 0.81,1.19444 0.81,1.96333c0,0.76667 -0.27,1.42111 -0.81,1.96333zM185.55667,331.09333v20.90667h-3.92667v-20.90667z"/>
      <path d="M190.25,331.09333h3.75333v2.9h0.17c0.56889,-0.99556 1.46556,-1.84111 2.69,-2.53667c1.22222,-0.69778 2.53,-1.04667 3.92333,-1.04667v0c2.58889,0 4.56667,0.79667 5.93333,2.39c1.36444,1.59333 2.04667,3.72667 2.04667,6.4v0v12.8h-3.92667v-12.20333c0,-3.86889 -1.72,-5.80333 -5.16,-5.80333v0c-1.62222,0 -2.94556,0.64778 -3.97,1.94333c-1.02444,1.29333 -1.53667,2.79333 -1.53667,4.5v0v11.56333h-3.92333z"/>
      <path d="M222.03667,361.9v0c-2.47556,0 -4.49556,-0.61889 -6.06,-1.85667c-1.56444,-1.23778 -2.68778,-2.65333 -3.37,-4.24667v0l3.58333,-1.49333c0.39778,1.13778 1.13,2.09111 2.19667,2.86c1.06667,0.76667 2.28333,1.15 3.65,1.15v0c2.16222,0 3.86111,-0.64667 5.09667,-1.94c1.23778,-1.29333 1.85667,-3.05 1.85667,-5.27v0v-2.00333h-0.17c-0.68222,1.02222 -1.64889,1.87556 -2.9,2.56c-1.25333,0.68222 -2.66222,1.02333 -4.22667,1.02333v0c-2.70222,0 -5.03444,-1.06667 -6.99667,-3.2c-1.96222,-2.13333 -2.94333,-4.77889 -2.94333,-7.93667c0,-3.15778 0.98111,-5.80333 2.94333,-7.93667c1.96222,-2.13333 4.29444,-3.2 6.99667,-3.2v0c1.56444,0 2.97333,0.34111 4.22667,1.02333c1.25111,0.68444 2.21778,1.53778 2.9,2.56v0h0.17v-2.9h3.75667v19.84c0,3.58444 -1.03889,6.30778 -3.11667,8.17c-2.07556,1.86444 -4.60667,2.79667 -7.59333,2.79667zM222.33333,349.1v0c1.84889,0 3.42111,-0.68333 4.71667,-2.05c1.29333,-1.36444 1.94,-3.19889 1.94,-5.50333c0,-2.30444 -0.64667,-4.13889 -1.94,-5.50333c-1.29556,-1.36667 -2.86778,-2.05 -4.71667,-2.05v0c-1.82,0 -3.38444,0.69 -4.69333,2.07c-1.30667,1.38 -1.96,3.20778 -1.96,5.48333c0,2.27556 0.65333,4.10333 1.96,5.48333c1.30889,1.38 2.87333,2.07 4.69333,2.07z"/>
    </g>
  </g>
</svg>
