<svg version="1.1" xmlns="http://www.w3.org/2000/svg" xmlns:xlink="http://www.w3.org/1999/xlink" width="1271.04" height="448" viewBox="0 0 1271.04 448">
  <g fill="none" fill-rule="nonzero" stroke="none" stroke-width="1" stroke-linecap="butt" stroke-linejoin="miter" stroke-dasharray="" stroke-dashoffset="0">
    <rect x="0" y="0" width="1271.04" height="448" fill="none"/>
    <circle cx="192" cy="224" r="96" fill="#ffca28"/>
    <g fill="#3c4043">
      <path d="M225.00407,183.89583l5.10393,-11.22917l5.1044,11.22917l11.22893,5.10417l-11.22893,5.10417l-5.1044,11.22917l-5.10393,-11.22917l-11.2294,-5.10417zM160.11113,222.0554l-3.11113,-8.9446l-3.11113,8.9446l-8.55554,2.72207l8.55554,3.11127l3.11113,8.5554l3.11113,-8.5554l8.55554,-3.11127zM154.66667,261.33333v-9.33333c0,-12.41333 24.87338,-18.66667 37.33333,-18.66667c12.46,0 37.33333,6.25333 37.33333,18.66667v9.33333zM192,224c10.30913,0 18.66667,-8.35753 18.66667,-18.66667c0,-10.30932 -8.35753,-18.66667 -18.66667,-18.66667c-10.30932,0 -18.66667,8.35735 -18.66667,18.66667c0,10.30913 8.35735,18.66667 18.66667,18.66667z"/>
    </g>
    <g fill="#5f6368">
      <path d="M347.77,234.88v37.12h-11.77v-91.65h31.23c7.76667,0 14.48667,2.58333 20.16,7.75c5.67333,5.16 8.51,11.66667 8.51,19.52c0,7.84667 -2.83667,14.35333 -8.51,19.52c-5.67333,5.16 -12.39333,7.74 -20.16,7.74v0zM347.77,191.62v32h19.71c4.95333,0 8.92333,-1.66667 11.91,-5c2.98667,-3.32667 4.48,-6.99333 4.48,-11c0,-4.01333 -1.49333,-7.68333 -4.48,-11.01c-2.98667,-3.32667 -6.95667,-4.99 -11.91,-4.99v0z"/>
      <path d="M430.08,274.05v0c-9.47333,0 -17.17667,-3.15667 -23.11,-9.47c-5.92667,-6.32 -8.89,-14.3 -8.89,-23.94v0c0,-9.13333 2.88,-16.98333 8.64,-23.55c5.76,-6.57333 13.12,-9.86 22.08,-9.86v0c9.3,0 16.74333,3.03 22.33,9.09c5.59333,6.06 8.39,14.16667 8.39,24.32v0l-0.13,2.18h-49.54c0.34,6.31333 2.45333,11.30333 6.34,14.97c3.88,3.67333 8.42333,5.51 13.63,5.51v0c8.44667,0 14.16333,-3.58667 17.15,-10.76v0l10.5,4.36c-2.04667,4.86 -5.41667,8.93333 -10.11,12.22c-4.69333,3.28667 -10.45333,4.93 -17.28,4.93zM410.62,233.09h36.35c-0.25333,-3.58667 -1.89667,-7 -4.93,-10.24c-3.02667,-3.24667 -7.52667,-4.87 -13.5,-4.87v0c-4.35333,0 -8.13,1.36667 -11.33,4.1c-3.2,2.73333 -5.39667,6.40333 -6.59,11.01z"/>
      <path d="M480.76,237.7v34.3h-11.77v-62.72h11.26v10.24h0.51c1.2,-3.41333 3.65333,-6.23 7.36,-8.45c3.71333,-2.22 7.32,-3.33 10.82,-3.33c3.5,0 6.44333,0.51333 8.83,1.54v0l-4.48,11.01c-1.53333,-0.6 -3.62333,-0.9 -6.27,-0.9v0c-4.26667,0 -8.04333,1.68667 -11.33,5.06c-3.28667,3.36667 -4.93,7.78333 -4.93,13.25z"/>
      <path d="M536.19,274.05v0c-7,0 -12.78333,-1.70667 -17.35,-5.12c-4.56,-3.41333 -7.90667,-7.68 -10.04,-12.8v0l10.49,-4.35c3.32667,7.84667 9.00333,11.77 17.03,11.77v0c3.66667,0 6.67333,-0.81 9.02,-2.43c2.34667,-1.62 3.52,-3.75333 3.52,-6.4v0c0,-4.09333 -2.86,-6.86667 -8.58,-8.32v0l-12.67,-3.07c-4.00667,-1.02667 -7.80333,-2.97 -11.39,-5.83c-3.58667,-2.85333 -5.38,-6.71333 -5.38,-11.58v0c0,-5.54667 2.45333,-10.04667 7.36,-13.5c4.90667,-3.46 10.73333,-5.19 17.48,-5.19v0c5.54667,0 10.49333,1.26 14.84,3.78c4.35333,2.51333 7.47,6.11667 9.35,10.81v0l-10.24,4.23c-2.30667,-5.54667 -7.08667,-8.32 -14.34,-8.32v0c-3.5,0 -6.44333,0.72333 -8.83,2.17c-2.38667,1.45333 -3.58,3.41667 -3.58,5.89v0c0,3.58667 2.77333,6.02 8.32,7.3v0l12.41,2.94c5.88667,1.36667 10.24,3.71333 13.06,7.04c2.81333,3.32667 4.22,7.08333 4.22,11.27v0c0,5.62667 -2.30333,10.32 -6.91,14.08c-4.60667,3.75333 -10.53667,5.63 -17.79,5.63z"/>
      <path d="M577.28,216.77c6.05333,-6.36 13.77333,-9.54 23.16,-9.54c9.38667,0 17.11,3.18 23.17,9.54c6.06,6.35333 9.09,14.31 9.09,23.87c0,9.56 -3.03,17.51667 -9.09,23.87c-6.06,6.36 -13.78333,9.54 -23.17,9.54c-9.38667,0 -17.10667,-3.18 -23.16,-9.54c-6.06,-6.35333 -9.09,-14.31 -9.09,-23.87c0,-9.56 3.03,-17.51667 9.09,-23.87zM586.04,257.09c4.05333,4.14 8.85333,6.21 14.4,6.21c5.54667,0 10.34667,-2.07 14.4,-6.21c4.05333,-4.14 6.08,-9.62333 6.08,-16.45c0,-6.82667 -2.02667,-12.31 -6.08,-16.45c-4.05333,-4.14 -8.85333,-6.21 -14.4,-6.21c-5.54667,0 -10.34667,2.07 -14.4,6.21c-4.05333,4.14 -6.08,9.62333 -6.08,16.45c0,6.82667 2.02667,12.31 6.08,16.45z"/>
      <path d="M642.17,209.28h11.27v8.7h0.51c1.70667,-2.98667 4.39333,-5.52333 8.06,-7.61c3.67333,-2.09333 7.6,-3.14 11.78,-3.14v0c7.76667,0 13.69667,2.39 17.79,7.17c4.09333,4.78 6.14,11.18 6.14,19.2v0v38.4h-11.77v-36.61c0,-11.60667 -5.16333,-17.41 -15.49,-17.41v0c-4.86667,0 -8.83333,1.94333 -11.9,5.83c-3.07333,3.88 -4.61,8.38 -4.61,13.5v0v34.69h-11.78z"/>
      <path d="M730.75,274.05v0c-6.66,0 -12.23,-1.92 -16.71,-5.76c-4.48,-3.84 -6.72,-8.91667 -6.72,-15.23v0c0,-6.82667 2.64667,-12.18333 7.94,-16.07c5.29333,-3.88 11.82,-5.82 19.58,-5.82v0c6.91333,0 12.59,1.28 17.03,3.84v0v-1.79c0,-4.61333 -1.58,-8.30667 -4.74,-11.08c-3.15333,-2.77333 -7.03667,-4.16 -11.65,-4.16v0c-3.41333,0 -6.50667,0.81333 -9.28,2.44c-2.77333,1.62 -4.67,3.83667 -5.69,6.65v0l-10.75,-4.61c1.44667,-3.75333 4.30333,-7.23 8.57,-10.43c4.26667,-3.2 9.9,-4.8 16.9,-4.8v0c8.02,0 14.67667,2.34667 19.97,7.04c5.28667,4.69333 7.93,11.30667 7.93,19.84v0v37.89h-11.26v-8.7h-0.51c-4.69333,7.16667 -11.56333,10.75 -20.61,10.75zM732.67,263.3v0c4.86,0 9.27667,-1.81333 13.25,-5.44c3.96667,-3.62667 5.95,-7.91667 5.95,-12.87v0c-3.32667,-2.72667 -8.32,-4.09 -14.98,-4.09v0c-5.71333,0 -10.02333,1.23667 -12.93,3.71c-2.9,2.47333 -4.35,5.37333 -4.35,8.7v0c0,3.07333 1.32333,5.50667 3.97,7.3c2.64667,1.79333 5.67667,2.69 9.09,2.69z"/>
      <path d="M787.58,180.35v91.65h-11.78v-91.65z"/>
      <path d="M813.44,193.54c-1.62667,1.62 -3.59,2.43 -5.89,2.43c-2.30667,0 -4.27,-0.81 -5.89,-2.43c-1.62,-1.62667 -2.43,-3.59 -2.43,-5.89c0,-2.30667 0.81,-4.27 2.43,-5.89c1.62,-1.62 3.58333,-2.43 5.89,-2.43c2.3,0 4.26333,0.81 5.89,2.43c1.62,1.62 2.43,3.58333 2.43,5.89c0,2.3 -0.81,4.26333 -2.43,5.89zM813.44,209.28v62.72h-11.78v-62.72z"/>
      <path d="M874.49,272h-50.69v-10.24l35.72,-41.73h-34.69v-10.75h49.15v10.24l-35.71,41.73h36.22z"/>
      <path d="M904.32,274.05v0c-6.66,0 -12.23,-1.92 -16.71,-5.76c-4.48,-3.84 -6.72,-8.91667 -6.72,-15.23v0c0,-6.82667 2.64667,-12.18333 7.94,-16.07c5.28667,-3.88 11.81333,-5.82 19.58,-5.82v0c6.91333,0 12.59,1.28 17.03,3.84v0v-1.79c0,-4.61333 -1.58,-8.30667 -4.74,-11.08c-3.16,-2.77333 -7.04333,-4.16 -11.65,-4.16v0c-3.41333,0 -6.50667,0.81333 -9.28,2.44c-2.77333,1.62 -4.67,3.83667 -5.69,6.65v0l-10.76,-4.61c1.45333,-3.75333 4.31333,-7.23 8.58,-10.43c4.26667,-3.2 9.9,-4.8 16.9,-4.8v0c8.02,0 14.67333,2.34667 19.96,7.04c5.29333,4.69333 7.94,11.30667 7.94,19.84v0v37.89h-11.26v-8.7h-0.52c-4.69333,7.16667 -11.56,10.75 -20.6,10.75zM906.24,263.3v0c4.86,0 9.27333,-1.81333 13.24,-5.44c3.97333,-3.62667 5.96,-7.91667 5.96,-12.87v0c-3.33333,-2.72667 -8.32667,-4.09 -14.98,-4.09v0c-5.72,0 -10.03,1.23667 -12.93,3.71c-2.9,2.47333 -4.35,5.37333 -4.35,8.7v0c0,3.07333 1.32333,5.50667 3.97,7.3c2.64667,1.79333 5.67667,2.69 9.09,2.69z"/>
      <path d="M973.95,273.02v0c-6.57333,0 -11.58667,-1.74667 -15.04,-5.24c-3.46,-3.5 -5.19,-8.45 -5.19,-14.85v0v-32.9h-11v-10.75h11v-19.2h11.78v19.2h15.36v10.75h-15.36v32c0,6.82667 2.81667,10.24 8.45,10.24v0c2.13333,0 3.92333,-0.34 5.37,-1.02v0l4.1,10.11c-2.56,1.10667 -5.71667,1.66 -9.47,1.66z"/>
      <path d="M1003.64,193.54c-1.62,1.62 -3.58,2.43 -5.88,2.43c-2.30667,0 -4.27,-0.81 -5.89,-2.43c-1.62,-1.62667 -2.43,-3.59 -2.43,-5.89c0,-2.30667 0.81,-4.27 2.43,-5.89c1.62,-1.62 3.58333,-2.43 5.89,-2.43c2.3,0 4.26,0.81 5.88,2.43c1.62667,1.62 2.44,3.58333 2.44,5.89c0,2.3 -0.81333,4.26333 -2.44,5.89zM1003.64,209.28v62.72h-11.77v-62.72z"/>
      <path d="M1022.59,216.77c6.06,-6.36 13.78333,-9.54 23.17,-9.54c9.38667,0 17.10667,3.18 23.16,9.54c6.06,6.35333 9.09,14.31 9.09,23.87c0,9.56 -3.03,17.51667 -9.09,23.87c-6.05333,6.36 -13.77333,9.54 -23.16,9.54c-9.38667,0 -17.11,-3.18 -23.17,-9.54c-6.06,-6.35333 -9.09,-14.31 -9.09,-23.87c0,-9.56 3.03,-17.51667 9.09,-23.87zM1031.36,257.09c4.05333,4.14 8.85333,6.21 14.4,6.21c5.54667,0 10.34667,-2.07 14.4,-6.21c4.05333,-4.14 6.08,-9.62333 6.08,-16.45c0,-6.82667 -2.02667,-12.31 -6.08,-16.45c-4.05333,-4.14 -8.85333,-6.21 -14.4,-6.21c-5.54667,0 -10.34667,2.07 -14.4,6.21c-4.05333,4.14 -6.08,9.62333 -6.08,16.45c0,6.82667 2.02667,12.31 6.08,16.45z"/>
      <path d="M1087.48,209.28h11.27v8.7h0.51c1.70667,-2.98667 4.39333,-5.52333 8.06,-7.61c3.67333,-2.09333 7.6,-3.14 11.78,-3.14v0c7.76667,0 13.69667,2.39 17.79,7.17c4.1,4.78 6.15,11.18 6.15,19.2v0v38.4h-11.78v-36.61c0,-11.60667 -5.16333,-17.41 -15.49,-17.41v0c-4.86,0 -8.82667,1.94333 -11.9,5.83c-3.07333,3.88 -4.61,8.38 -4.61,13.5v0v34.69h-11.78z"/>
    </g>
    <g fill="#5f6368">
      <path d="M686.62,308.8v0c1.76,0 3.24,0.26 4.44,0.78v0l-1.92,4.74c-0.64,-0.32 -1.48,-0.48 -2.52,-0.48v0c-1.44,0 -2.62,0.43 -3.54,1.29c-0.92,0.86 -1.38,2.11 -1.38,3.75v0v3.72h7.68v5.04h-7.68v24.36h-5.52v-24.36h-5.52v-5.04h5.52v-3.9c0,-3 0.96,-5.4 2.88,-7.2c1.92,-1.8 4.44,-2.7 7.56,-2.7z"/>
      <path d="M695.14,326.11c2.84,-2.98 6.46,-4.47 10.86,-4.47c4.4,0 8.02,1.49 10.86,4.47c2.84,2.98 4.26,6.71 4.26,11.19c0,4.48 -1.42,8.21 -4.26,11.19c-2.84,2.98 -6.46,4.47 -10.86,4.47c-4.4,0 -8.02,-1.49 -10.86,-4.47c-2.84,-2.98 -4.26,-6.71 -4.26,-11.19c0,-4.48 1.42,-8.21 4.26,-11.19zM699.25,345.01c1.9,1.94 4.15,2.91 6.75,2.91c2.6,0 4.85,-0.97 6.75,-2.91c1.9,-1.94 2.85,-4.51 2.85,-7.71c0,-3.2 -0.95,-5.77 -2.85,-7.71c-1.9,-1.94 -4.15,-2.91 -6.75,-2.91c-2.6,0 -4.85,0.97 -6.75,2.91c-1.9,1.94 -2.85,4.51 -2.85,7.71c0,3.2 0.95,5.77 2.85,7.71z"/>
      <path d="M731.08,335.92v16.08h-5.52v-29.4h5.28v4.8h0.24c0.56,-1.6 1.71,-2.92 3.45,-3.96c1.74,-1.04 3.43,-1.56 5.07,-1.56c1.64,0 3.02,0.24 4.14,0.72v0l-2.1,5.16c-0.72,-0.28 -1.7,-0.42 -2.94,-0.42v0c-2,0 -3.77,0.79 -5.31,2.37c-1.54,1.58 -2.31,3.65 -2.31,6.21z"/>
      <path d=""/>
      <path d="M767.02,352h-5.52v-42.96h14.64c3.64,0 6.79,1.21 9.45,3.63c2.66,2.42 3.99,5.47 3.99,9.15v0c0,3 -0.98,5.65 -2.94,7.95c-1.96,2.3 -4.4,3.75 -7.32,4.35v0l-0.12,0.18l12.06,17.46v0.24h-6.54l-11.58,-17.4h-6.12zM767.02,314.32v15.12h8.88c2.2,0 4.09,-0.72 5.67,-2.16c1.58,-1.44 2.37,-3.26 2.37,-5.46v0c0,-1.88 -0.7,-3.6 -2.1,-5.16c-1.4,-1.56 -3.26,-2.34 -5.58,-2.34v0z"/>
      <path d="M807.64,352.96v0c-4.44,0 -8.05,-1.48 -10.83,-4.44c-2.78,-2.96 -4.17,-6.7 -4.17,-11.22v0c0,-4.28 1.35,-7.96 4.05,-11.04c2.7,-3.08 6.15,-4.62 10.35,-4.62v0c4.36,0 7.85,1.42 10.47,4.26c2.62,2.84 3.93,6.64 3.93,11.4v0l-0.06,1.02h-23.22c0.16,2.96 1.15,5.3 2.97,7.02c1.82,1.72 3.95,2.58 6.39,2.58v0c3.96,0 6.64,-1.68 8.04,-5.04v0l4.92,2.04c-0.96,2.28 -2.54,4.19 -4.74,5.73c-2.2,1.54 -4.9,2.31 -8.1,2.31zM798.52,333.76h17.04c-0.12,-1.68 -0.89,-3.28 -2.31,-4.8c-1.42,-1.52 -3.53,-2.28 -6.33,-2.28v0c-2.04,0 -3.81,0.64 -5.31,1.92c-1.5,1.28 -2.53,3 -3.09,5.16z"/>
      <path d="M831.4,352h-5.52v-29.4h5.28v4.08h0.24c0.84,-1.4 2.13,-2.59 3.87,-3.57c1.74,-0.98 3.47,-1.47 5.19,-1.47v0c4.56,0 7.66,1.88 9.3,5.64v0c2.4,-3.76 5.82,-5.64 10.26,-5.64v0c3.48,0 6.1,1.11 7.86,3.33c1.76,2.22 2.64,5.23 2.64,9.03v0v18h-5.52v-17.16c0,-2.96 -0.54,-5.06 -1.62,-6.3c-1.08,-1.24 -2.72,-1.86 -4.92,-1.86v0c-2.16,0 -3.95,0.92 -5.37,2.76c-1.42,1.84 -2.13,3.94 -2.13,6.3v0v16.26h-5.52v-17.16c0,-2.96 -0.54,-5.06 -1.62,-6.3c-1.08,-1.24 -2.72,-1.86 -4.92,-1.86v0c-2.16,0 -3.95,0.92 -5.37,2.76c-1.42,1.84 -2.13,3.94 -2.13,6.3v0z"/>
      <path d="M878.98,326.11c2.84,-2.98 6.46,-4.47 10.86,-4.47c4.4,0 8.02,1.49 10.86,4.47c2.84,2.98 4.26,6.71 4.26,11.19c0,4.48 -1.42,8.21 -4.26,11.19c-2.84,2.98 -6.46,4.47 -10.86,4.47c-4.4,0 -8.02,-1.49 -10.86,-4.47c-2.84,-2.98 -4.26,-6.71 -4.26,-11.19c0,-4.48 1.42,-8.21 4.26,-11.19zM883.09,345.01c1.9,1.94 4.15,2.91 6.75,2.91c2.6,0 4.85,-0.97 6.75,-2.91c1.9,-1.94 2.85,-4.51 2.85,-7.71c0,-3.2 -0.95,-5.77 -2.85,-7.71c-1.9,-1.94 -4.15,-2.91 -6.75,-2.91c-2.6,0 -4.85,0.97 -6.75,2.91c-1.9,1.94 -2.85,4.51 -2.85,7.71c0,3.2 0.95,5.77 2.85,7.71z"/>
      <path d="M921.52,352.48v0c-3.08,0 -5.43,-0.82 -7.05,-2.46c-1.62,-1.64 -2.43,-3.96 -2.43,-6.96v0v-15.42h-5.16v-5.04h5.16v-9h5.52v9h7.2v5.04h-7.2v15c0,3.2 1.32,4.8 3.96,4.8v0c1,0 1.84,-0.16 2.52,-0.48v0l1.92,4.74c-1.2,0.52 -2.68,0.78 -4.44,0.78z"/>
      <path d="M942.46,352.96v0c-4.44,0 -8.05,-1.48 -10.83,-4.44c-2.78,-2.96 -4.17,-6.7 -4.17,-11.22v0c0,-4.28 1.35,-7.96 4.05,-11.04c2.7,-3.08 6.15,-4.62 10.35,-4.62v0c4.36,0 7.85,1.42 10.47,4.26c2.62,2.84 3.93,6.64 3.93,11.4v0l-0.06,1.02h-23.22c0.16,2.96 1.15,5.3 2.97,7.02c1.82,1.72 3.95,2.58 6.39,2.58v0c3.96,0 6.64,-1.68 8.04,-5.04v0l4.92,2.04c-0.96,2.28 -2.54,4.19 -4.74,5.73c-2.2,1.54 -4.9,2.31 -8.1,2.31zM933.34,333.76h17.04c-0.12,-1.68 -0.89,-3.28 -2.31,-4.8c-1.42,-1.52 -3.53,-2.28 -6.33,-2.28v0c-2.04,0 -3.81,0.64 -5.31,1.92c-1.5,1.28 -2.53,3 -3.09,5.16z"/>
      <path d=""/>
      <path d="M994.48,352.96v0c-6.32,0 -11.62,-2.14 -15.9,-6.42c-4.28,-4.28 -6.42,-9.62 -6.42,-16.02c0,-6.4 2.14,-11.74 6.42,-16.02c4.28,-4.28 9.58,-6.42 15.9,-6.42v0c6.48,0 11.74,2.34 15.78,7.02v0l-3.84,3.72c-2.92,-3.64 -6.9,-5.46 -11.94,-5.46v0c-4.68,0 -8.63,1.58 -11.85,4.74c-3.22,3.16 -4.83,7.3 -4.83,12.42c0,5.12 1.61,9.26 4.83,12.42c3.22,3.16 7.17,4.74 11.85,4.74v0c5.16,0 9.56,-2.08 13.2,-6.24v0l3.84,3.84c-1.96,2.36 -4.42,4.23 -7.38,5.61c-2.96,1.38 -6.18,2.07 -9.66,2.07z"/>
      <path d="M1018.12,326.11c2.84,-2.98 6.46,-4.47 10.86,-4.47c4.4,0 8.02,1.49 10.86,4.47c2.84,2.98 4.26,6.71 4.26,11.19c0,4.48 -1.42,8.21 -4.26,11.19c-2.84,2.98 -6.46,4.47 -10.86,4.47c-4.4,0 -8.02,-1.49 -10.86,-4.47c-2.84,-2.98 -4.26,-6.71 -4.26,-11.19c0,-4.48 1.42,-8.21 4.26,-11.19zM1022.23,345.01c1.9,1.94 4.15,2.91 6.75,2.91c2.6,0 4.85,-0.97 6.75,-2.91c1.9,-1.94 2.85,-4.51 2.85,-7.71c0,-3.2 -0.95,-5.77 -2.85,-7.71c-1.9,-1.94 -4.15,-2.91 -6.75,-2.91c-2.6,0 -4.85,0.97 -6.75,2.91c-1.9,1.94 -2.85,4.51 -2.85,7.71c0,3.2 0.95,5.77 2.85,7.71z"/>
      <path d="M1048.54,322.6h5.28v4.08h0.24c0.8,-1.4 2.06,-2.59 3.78,-3.57c1.72,-0.98 3.56,-1.47 5.52,-1.47v0c3.64,0 6.42,1.12 8.34,3.36c1.92,2.24 2.88,5.24 2.88,9v0v18h-5.52v-17.16c0,-5.44 -2.42,-8.16 -7.26,-8.16v0c-2.28,0 -4.14,0.91 -5.58,2.73c-1.44,1.82 -2.16,3.93 -2.16,6.33v0v16.26h-5.52z"/>
      <path d="M1094.5,308.8v0c1.76,0 3.24,0.26 4.44,0.78v0l-1.92,4.74c-0.64,-0.32 -1.48,-0.48 -2.52,-0.48v0c-1.44,0 -2.62,0.43 -3.54,1.29c-0.92,0.86 -1.38,2.11 -1.38,3.75v0v3.72h18.72v29.4h-5.52v-24.36h-13.2v24.36h-5.52v-24.36h-5.52v-5.04h5.52v-3.9c0,-3 0.96,-5.4 2.88,-7.2c1.92,-1.8 4.44,-2.7 7.56,-2.7zM1108.3,315.22c-0.76,0.76 -1.68,1.14 -2.76,1.14c-1.08,0 -2,-0.38 -2.76,-1.14c-0.76,-0.76 -1.14,-1.68 -1.14,-2.76c0,-1.08 0.38,-2 1.14,-2.76c0.76,-0.76 1.68,-1.14 2.76,-1.14c1.08,0 2,0.38 2.76,1.14c0.76,0.76 1.14,1.68 1.14,2.76c0,1.08 -0.38,2 -1.14,2.76z"/>
      <path d="M1127.98,365.92v0c-3.48,0 -6.32,-0.87 -8.52,-2.61c-2.2,-1.74 -3.78,-3.73 -4.74,-5.97v0l5.04,-2.1c0.56,1.6 1.59,2.94 3.09,4.02c1.5,1.08 3.21,1.62 5.13,1.62v0c3.04,0 5.43,-0.91 7.17,-2.73c1.74,-1.82 2.61,-4.29 2.61,-7.41v0v-2.82h-0.24c-0.96,1.44 -2.32,2.64 -4.08,3.6c-1.76,0.96 -3.74,1.44 -5.94,1.44v0c-3.8,0 -7.08,-1.5 -9.84,-4.5c-2.76,-3 -4.14,-6.72 -4.14,-11.16c0,-4.44 1.38,-8.16 4.14,-11.16c2.76,-3 6.04,-4.5 9.84,-4.5v0c2.2,0 4.18,0.48 5.94,1.44c1.76,0.96 3.12,2.16 4.08,3.6v0h0.24v-4.08h5.28v27.9c0,5.04 -1.46,8.87 -4.38,11.49c-2.92,2.62 -6.48,3.93 -10.68,3.93zM1128.4,347.92v0c2.6,0 4.81,-0.96 6.63,-2.88c1.82,-1.92 2.73,-4.5 2.73,-7.74c0,-3.24 -0.91,-5.82 -2.73,-7.74c-1.82,-1.92 -4.03,-2.88 -6.63,-2.88v0c-2.56,0 -4.76,0.97 -6.6,2.91c-1.84,1.94 -2.76,4.51 -2.76,7.71c0,3.2 0.92,5.77 2.76,7.71c1.84,1.94 4.04,2.91 6.6,2.91z"/>
    </g>
  </g>
</svg>
