<svg version="1.1" xmlns="http://www.w3.org/2000/svg" xmlns:xlink="http://www.w3.org/1999/xlink" width="192" height="192" viewBox="0 0 192 192">
  <g fill="none" fill-rule="nonzero" stroke="none" stroke-width="1" stroke-linecap="butt" stroke-linejoin="miter" stroke-dasharray="" stroke-dashoffset="0">
    <rect x="0" y="0" width="192" height="192" fill="none"/>
    <circle cx="96" cy="96" r="96" fill="#ffca28"/>
    <g fill="#3c4043">
      <path d="M129.00407,55.89583l5.10393,-11.22917l5.1044,11.22917l11.22893,5.10417l-11.22893,5.10417l-5.1044,11.22917l-5.10393,-11.22917l-11.2294,-5.10417zM64.11113,94.0554l-3.11113,-8.9446l-3.11113,8.9446l-8.55554,2.72207l8.55554,3.11127l3.11113,8.5554l3.11113,-8.5554l8.55554,-3.11127zM58.66667,133.33333v-9.33333c0,-12.41333 24.87338,-18.66667 37.33333,-18.66667c12.46,0 37.33333,6.25333 37.33333,18.66667v9.33333zM96,96c10.30913,0 18.66667,-8.35753 18.66667,-18.66667c0,-10.30932 -8.35753,-18.66667 -18.66667,-18.66667c-10.30932,0 -18.66667,8.35735 -18.66667,18.66667c0,10.30913 8.35735,18.66667 18.66667,18.66667z"/>
    </g>
  </g>
</svg>
