<svg version="1.1" xmlns="http://www.w3.org/2000/svg" xmlns:xlink="http://www.w3.org/1999/xlink" width="461.013" height="464" viewBox="0 0 461.013 464">
  <g fill="none" fill-rule="nonzero" stroke="none" stroke-width="1" stroke-linecap="butt" stroke-linejoin="miter" stroke-dasharray="" stroke-dashoffset="0">
    <rect x="0" y="0" width="461.013" height="464" fill="none"/>
    <circle cx="230.507" cy="192" r="96" fill="#ffca28"/>
    <g fill="#3c4043">
      <path d="M263.51073,151.89583l5.10393,-11.22917l5.1044,11.22917l11.22893,5.10417l-11.22893,5.10417l-5.1044,11.22917l-5.10393,-11.22917l-11.2294,-5.10417zM198.61779,190.0554l-3.11113,-8.9446l-3.11113,8.9446l-8.55554,2.72207l8.55554,3.11127l3.11113,8.5554l3.11113,-8.5554l8.55554,-3.11127zM193.17333,229.33333v-9.33333c0,-12.41333 24.87338,-18.66667 37.33333,-18.66667c12.46,0 37.33333,6.25333 37.33333,18.66667v9.33333zM230.50667,192c10.30913,0 18.66667,-8.35753 18.66667,-18.66667c0,-10.30932 -8.35753,-18.66667 -18.66667,-18.66667c-10.30932,0 -18.66667,8.35735 -18.66667,18.66667c0,10.30913 8.35735,18.66667 18.66667,18.66667z"/>
    </g>
    <g fill="#5f6368">
      <path d="M99.92333,339.62667v12.37333h-3.92333v-30.55h10.41c2.58889,0 4.82889,0.86111 6.72,2.58333c1.89111,1.72 2.83667,3.88889 2.83667,6.50667c0,2.61556 -0.94556,4.78444 -2.83667,6.50667c-1.89111,1.72 -4.13111,2.58 -6.72,2.58v0zM99.92333,325.20667v10.66667h6.57c1.65111,0 2.97444,-0.55556 3.97,-1.66667c0.99556,-1.10889 1.49333,-2.33111 1.49333,-3.66667c0,-1.33778 -0.49778,-2.56111 -1.49333,-3.67c-0.99556,-1.10889 -2.31889,-1.66333 -3.97,-1.66333v0z"/>
      <path d="M127.36,352.68333v0c-3.15778,0 -5.72556,-1.05222 -7.70333,-3.15667c-1.97556,-2.10667 -2.96333,-4.76667 -2.96333,-7.98v0c0,-3.04444 0.96,-5.66111 2.88,-7.85c1.92,-2.19111 4.37333,-3.28667 7.36,-3.28667v0c3.1,0 5.58111,1.01 7.44333,3.03c1.86444,2.02 2.79667,4.72222 2.79667,8.10667v0l-0.04333,0.72667h-16.51333c0.11333,2.10444 0.81778,3.76778 2.11333,4.99c1.29333,1.22444 2.80778,1.83667 4.54333,1.83667v0c2.81556,0 4.72111,-1.19556 5.71667,-3.58667v0l3.5,1.45333c-0.68222,1.62 -1.80556,2.97778 -3.37,4.07333c-1.56444,1.09556 -3.48444,1.64333 -5.76,1.64333zM120.87333,339.03h12.11667c-0.08444,-1.19556 -0.63222,-2.33333 -1.64333,-3.41333c-1.00889,-1.08222 -2.50889,-1.62333 -4.5,-1.62333v0c-1.45111,0 -2.71,0.45556 -3.77667,1.36667c-1.06667,0.91111 -1.79889,2.13444 -2.19667,3.67z"/>
      <path d="M144.25333,340.56667v11.43333h-3.92333v-20.90667h3.75333v3.41333h0.17c0.4,-1.13778 1.21778,-2.07667 2.45333,-2.81667c1.23778,-0.74 2.44,-1.11 3.60667,-1.11c1.16667,0 2.14778,0.17111 2.94333,0.51333v0l-1.49333,3.67c-0.51111,-0.2 -1.20778,-0.3 -2.09,-0.3v0c-1.42222,0 -2.68111,0.56222 -3.77667,1.68667c-1.09556,1.12222 -1.64333,2.59444 -1.64333,4.41667z"/>
      <path d="M162.73,352.68333v0c-2.33333,0 -4.26111,-0.56889 -5.78333,-1.70667c-1.52,-1.13778 -2.63556,-2.56 -3.34667,-4.26667v0l3.49667,-1.45c1.10889,2.61556 3.00111,3.92333 5.67667,3.92333v0c1.22222,0 2.22444,-0.27 3.00667,-0.81c0.78222,-0.54 1.17333,-1.25111 1.17333,-2.13333v0c0,-1.36444 -0.95333,-2.28889 -2.86,-2.77333v0l-4.22333,-1.02333c-1.33556,-0.34222 -2.60111,-0.99 -3.79667,-1.94333c-1.19556,-0.95111 -1.79333,-2.23778 -1.79333,-3.86v0c0,-1.84889 0.81778,-3.34889 2.45333,-4.5c1.63556,-1.15333 3.57778,-1.73 5.82667,-1.73v0c1.84889,0 3.49778,0.42 4.94667,1.26c1.45111,0.83778 2.49,2.03889 3.11667,3.60333v0l-3.41333,1.41c-0.76889,-1.84889 -2.36222,-2.77333 -4.78,-2.77333v0c-1.16667,0 -2.14778,0.24111 -2.94333,0.72333c-0.79556,0.48444 -1.19333,1.13889 -1.19333,1.96333v0c0,1.19556 0.92444,2.00667 2.77333,2.43333v0l4.13667,0.98c1.96222,0.45556 3.41333,1.23778 4.35333,2.34667c0.93778,1.10889 1.40667,2.36111 1.40667,3.75667v0c0,1.87556 -0.76778,3.44 -2.30333,4.69333c-1.53556,1.25111 -3.51222,1.87667 -5.93,1.87667z"/>
      <path d="M176.42667,333.59c2.01778,-2.12 4.59111,-3.18 7.72,-3.18c3.12889,0 5.70333,1.06 7.72333,3.18c2.02,2.11778 3.03,4.77 3.03,7.95667c0,3.18667 -1.01,5.83889 -3.03,7.95667c-2.02,2.12 -4.59444,3.18 -7.72333,3.18c-3.12889,0 -5.70222,-1.06 -7.72,-3.18c-2.02,-2.11778 -3.03,-4.77 -3.03,-7.95667c0,-3.18667 1.01,-5.83889 3.03,-7.95667zM179.34667,347.03c1.35111,1.38 2.95111,2.07 4.8,2.07c1.84889,0 3.44889,-0.69 4.8,-2.07c1.35111,-1.38 2.02667,-3.20778 2.02667,-5.48333c0,-2.27556 -0.67556,-4.10333 -2.02667,-5.48333c-1.35111,-1.38 -2.95111,-2.07 -4.8,-2.07c-1.84889,0 -3.44889,0.69 -4.8,2.07c-1.35111,1.38 -2.02667,3.20778 -2.02667,5.48333c0,2.27556 0.67556,4.10333 2.02667,5.48333z"/>
      <path d="M198.05667,331.09333h3.75667v2.9h0.17c0.56889,-0.99556 1.46444,-1.84111 2.68667,-2.53667c1.22444,-0.69778 2.53333,-1.04667 3.92667,-1.04667v0c2.58889,0 4.56556,0.79667 5.93,2.39c1.36444,1.59333 2.04667,3.72667 2.04667,6.4v0v12.8h-3.92333v-12.20333c0,-3.86889 -1.72111,-5.80333 -5.16333,-5.80333v0c-1.62222,0 -2.94444,0.64778 -3.96667,1.94333c-1.02444,1.29333 -1.53667,2.79333 -1.53667,4.5v0v11.56333h-3.92667z"/>
      <path d="M227.58333,352.68333v0c-2.22,0 -4.07667,-0.64 -5.57,-1.92c-1.49333,-1.28 -2.24,-2.97222 -2.24,-5.07667v0c0,-2.27556 0.88222,-4.06111 2.64667,-5.35667c1.76444,-1.29333 3.94,-1.94 6.52667,-1.94v0c2.30444,0 4.19667,0.42667 5.67667,1.28v0v-0.59667c0,-1.53778 -0.52667,-2.76889 -1.58,-3.69333c-1.05111,-0.92444 -2.34556,-1.38667 -3.88333,-1.38667v0c-1.13778,0 -2.16889,0.27111 -3.09333,0.81333c-0.92444,0.54 -1.55667,1.27889 -1.89667,2.21667v0l-3.58333,-1.53667c0.48222,-1.25111 1.43444,-2.41 2.85667,-3.47667c1.42222,-1.06667 3.3,-1.6 5.63333,-1.6v0c2.67333,0 4.89222,0.78222 6.65667,2.34667c1.76222,1.56444 2.64333,3.76889 2.64333,6.61333v0v12.63h-3.75333v-2.9h-0.17c-1.56444,2.38889 -3.85444,3.58333 -6.87,3.58333zM228.22333,349.1v0c1.62,0 3.09222,-0.60444 4.41667,-1.81333c1.32222,-1.20889 1.98333,-2.63889 1.98333,-4.29v0c-1.10889,-0.90889 -2.77333,-1.36333 -4.99333,-1.36333v0c-1.90444,0 -3.34111,0.41222 -4.31,1.23667c-0.96667,0.82444 -1.45,1.79111 -1.45,2.9v0c0,1.02444 0.44111,1.83556 1.32333,2.43333c0.88222,0.59778 1.89222,0.89667 3.03,0.89667z"/>
      <path d="M246.52667,321.45v30.55h-3.92667v-30.55z"/>
      <path d="M255.14667,325.84667c-0.54222,0.54 -1.19667,0.81 -1.96333,0.81c-0.76889,0 -1.42333,-0.27 -1.96333,-0.81c-0.54,-0.54222 -0.81,-1.19667 -0.81,-1.96333c0,-0.76889 0.27,-1.42333 0.81,-1.96333c0.54,-0.54 1.19444,-0.81 1.96333,-0.81c0.76667,0 1.42111,0.27 1.96333,0.81c0.54,0.54 0.81,1.19444 0.81,1.96333c0,0.76667 -0.27,1.42111 -0.81,1.96333zM255.14667,331.09333v20.90667h-3.92667v-20.90667z"/>
      <path d="M275.49667,352h-16.89667v-3.41333l11.90667,-13.91h-11.56333v-3.58333h16.38333v3.41333l-11.90333,13.91h12.07333z"/>
      <path d="M285.44,352.68333v0c-2.22,0 -4.07667,-0.64 -5.57,-1.92c-1.49333,-1.28 -2.24,-2.97222 -2.24,-5.07667v0c0,-2.27556 0.88222,-4.06111 2.64667,-5.35667c1.76222,-1.29333 3.93778,-1.94 6.52667,-1.94v0c2.30444,0 4.19667,0.42667 5.67667,1.28v0v-0.59667c0,-1.53778 -0.52667,-2.76889 -1.58,-3.69333c-1.05333,-0.92444 -2.34778,-1.38667 -3.88333,-1.38667v0c-1.13778,0 -2.16889,0.27111 -3.09333,0.81333c-0.92444,0.54 -1.55667,1.27889 -1.89667,2.21667v0l-3.58667,-1.53667c0.48444,-1.25111 1.43778,-2.41 2.86,-3.47667c1.42222,-1.06667 3.3,-1.6 5.63333,-1.6v0c2.67333,0 4.89111,0.78222 6.65333,2.34667c1.76444,1.56444 2.64667,3.76889 2.64667,6.61333v0v12.63h-3.75333v-2.9h-0.17333c-1.56444,2.38889 -3.85333,3.58333 -6.86667,3.58333zM286.08,349.1v0c1.62,0 3.09111,-0.60444 4.41333,-1.81333c1.32444,-1.20889 1.98667,-2.63889 1.98667,-4.29v0c-1.11111,-0.90889 -2.77556,-1.36333 -4.99333,-1.36333v0c-1.90667,0 -3.34333,0.41222 -4.31,1.23667c-0.96667,0.82444 -1.45,1.79111 -1.45,2.9v0c0,1.02444 0.44111,1.83556 1.32333,2.43333c0.88222,0.59778 1.89222,0.89667 3.03,0.89667z"/>
      <path d="M308.65,352.34v0c-2.19111,0 -3.86222,-0.58222 -5.01333,-1.74667c-1.15333,-1.16667 -1.73,-2.81667 -1.73,-4.95v0v-10.96667h-3.66667v-3.58333h3.66667v-6.4h3.92667v6.4h5.12v3.58333h-5.12v10.66667c0,2.27556 0.93889,3.41333 2.81667,3.41333v0c0.71111,0 1.30778,-0.11333 1.79,-0.34v0l1.36667,3.37c-0.85333,0.36889 -1.90556,0.55333 -3.15667,0.55333z"/>
      <path d="M318.54667,325.84667c-0.54,0.54 -1.19333,0.81 -1.96,0.81c-0.76889,0 -1.42333,-0.27 -1.96333,-0.81c-0.54,-0.54222 -0.81,-1.19667 -0.81,-1.96333c0,-0.76889 0.27,-1.42333 0.81,-1.96333c0.54,-0.54 1.19444,-0.81 1.96333,-0.81c0.76667,0 1.42,0.27 1.96,0.81c0.54222,0.54 0.81333,1.19444 0.81333,1.96333c0,0.76667 -0.27111,1.42111 -0.81333,1.96333zM318.54667,331.09333v20.90667h-3.92333v-20.90667z"/>
      <path d="M324.86333,333.59c2.02,-2.12 4.59444,-3.18 7.72333,-3.18c3.12889,0 5.70222,1.06 7.72,3.18c2.02,2.11778 3.03,4.77 3.03,7.95667c0,3.18667 -1.01,5.83889 -3.03,7.95667c-2.01778,2.12 -4.59111,3.18 -7.72,3.18c-3.12889,0 -5.70333,-1.06 -7.72333,-3.18c-2.02,-2.11778 -3.03,-4.77 -3.03,-7.95667c0,-3.18667 1.01,-5.83889 3.03,-7.95667zM327.78667,347.03c1.35111,1.38 2.95111,2.07 4.8,2.07c1.84889,0 3.44889,-0.69 4.8,-2.07c1.35111,-1.38 2.02667,-3.20778 2.02667,-5.48333c0,-2.27556 -0.67556,-4.10333 -2.02667,-5.48333c-1.35111,-1.38 -2.95111,-2.07 -4.8,-2.07c-1.84889,0 -3.44889,0.69 -4.8,2.07c-1.35111,1.38 -2.02667,3.20778 -2.02667,5.48333c0,2.27556 0.67556,4.10333 2.02667,5.48333z"/>
      <path d="M346.49333,331.09333h3.75667v2.9h0.17c0.56889,-0.99556 1.46444,-1.84111 2.68667,-2.53667c1.22444,-0.69778 2.53333,-1.04667 3.92667,-1.04667v0c2.58889,0 4.56556,0.79667 5.93,2.39c1.36667,1.59333 2.05,3.72667 2.05,6.4v0v12.8h-3.92667v-12.20333c0,-3.86889 -1.72111,-5.80333 -5.16333,-5.80333v0c-1.62,0 -2.94222,0.64778 -3.96667,1.94333c-1.02444,1.29333 -1.53667,2.79333 -1.53667,4.5v0v11.56333h-3.92667z"/>
    </g>
    <g fill="#5f6368">
      <path d="M120.39167,372.4v0c0.88,0 1.62,0.13 2.22,0.39v0l-0.96,2.37c-0.32,-0.16 -0.74,-0.24 -1.26,-0.24v0c-0.72,0 -1.31,0.215 -1.77,0.645c-0.46,0.43 -0.69,1.055 -0.69,1.875v0v1.86h3.84v2.52h-3.84v12.18h-2.76v-12.18h-2.76v-2.52h2.76v-1.95c0,-1.5 0.48,-2.7 1.44,-3.6c0.96,-0.9 2.22,-1.35 3.78,-1.35z"/>
      <path d="M124.65167,381.055c1.42,-1.49 3.23,-2.235 5.43,-2.235c2.2,0 4.01,0.745 5.43,2.235c1.42,1.49 2.13,3.355 2.13,5.595c0,2.24 -0.71,4.105 -2.13,5.595c-1.42,1.49 -3.23,2.235 -5.43,2.235c-2.2,0 -4.01,-0.745 -5.43,-2.235c-1.42,-1.49 -2.13,-3.355 -2.13,-5.595c0,-2.24 0.71,-4.105 2.13,-5.595zM126.70667,390.505c0.95,0.97 2.075,1.455 3.375,1.455c1.3,0 2.425,-0.485 3.375,-1.455c0.95,-0.97 1.425,-2.255 1.425,-3.855c0,-1.6 -0.475,-2.885 -1.425,-3.855c-0.95,-0.97 -2.075,-1.455 -3.375,-1.455c-1.3,0 -2.425,0.485 -3.375,1.455c-0.95,0.97 -1.425,2.255 -1.425,3.855c0,1.6 0.475,2.885 1.425,3.855z"/>
      <path d="M142.62167,385.96v8.04h-2.76v-14.7h2.64v2.4h0.12c0.28,-0.8 0.855,-1.46 1.725,-1.98c0.87,-0.52 1.715,-0.78 2.535,-0.78c0.82,0 1.51,0.12 2.07,0.36v0l-1.05,2.58c-0.36,-0.14 -0.85,-0.21 -1.47,-0.21v0c-1,0 -1.885,0.395 -2.655,1.185c-0.77,0.79 -1.155,1.825 -1.155,3.105z"/>
      <path d=""/>
      <path d="M160.59167,394h-2.76v-21.48h7.32c1.82,0 3.395,0.605 4.725,1.815c1.33,1.21 1.995,2.735 1.995,4.575v0c0,1.5 -0.49,2.825 -1.47,3.975c-0.98,1.15 -2.2,1.875 -3.66,2.175v0l-0.06,0.09l6.03,8.73v0.12h-3.27l-5.79,-8.7h-3.06zM160.59167,375.16v7.56h4.44c1.1,0 2.045,-0.36 2.835,-1.08c0.79,-0.72 1.185,-1.63 1.185,-2.73v0c0,-0.94 -0.35,-1.8 -1.05,-2.58c-0.7,-0.78 -1.63,-1.17 -2.79,-1.17v0z"/>
      <path d="M180.90167,394.48v0c-2.22,0 -4.025,-0.74 -5.415,-2.22c-1.39,-1.48 -2.085,-3.35 -2.085,-5.61v0c0,-2.14 0.675,-3.98 2.025,-5.52c1.35,-1.54 3.075,-2.31 5.175,-2.31v0c2.18,0 3.925,0.71 5.235,2.13c1.31,1.42 1.965,3.32 1.965,5.7v0l-0.03,0.51h-11.61c0.08,1.48 0.575,2.65 1.485,3.51c0.91,0.86 1.975,1.29 3.195,1.29v0c1.98,0 3.32,-0.84 4.02,-2.52v0l2.46,1.02c-0.48,1.14 -1.27,2.095 -2.37,2.865c-1.1,0.77 -2.45,1.155 -4.05,1.155zM176.34167,384.88h8.52c-0.06,-0.84 -0.445,-1.64 -1.155,-2.4c-0.71,-0.76 -1.765,-1.14 -3.165,-1.14v0c-1.02,0 -1.905,0.32 -2.655,0.96c-0.75,0.64 -1.265,1.5 -1.545,2.58z"/>
      <path d="M192.78167,394h-2.76v-14.7h2.64v2.04h0.12c0.42,-0.7 1.065,-1.295 1.935,-1.785c0.87,-0.49 1.735,-0.735 2.595,-0.735v0c2.28,0 3.83,0.94 4.65,2.82v0c1.2,-1.88 2.91,-2.82 5.13,-2.82v0c1.74,0 3.05,0.555 3.93,1.665c0.88,1.11 1.32,2.615 1.32,4.515v0v9h-2.76v-8.58c0,-1.48 -0.27,-2.53 -0.81,-3.15c-0.54,-0.62 -1.36,-0.93 -2.46,-0.93v0c-1.08,0 -1.975,0.46 -2.685,1.38c-0.71,0.92 -1.065,1.97 -1.065,3.15v0v8.13h-2.76v-8.58c0,-1.48 -0.27,-2.53 -0.81,-3.15c-0.54,-0.62 -1.36,-0.93 -2.46,-0.93v0c-1.08,0 -1.975,0.46 -2.685,1.38c-0.71,0.92 -1.065,1.97 -1.065,3.15v0z"/>
      <path d="M216.57167,381.055c1.42,-1.49 3.23,-2.235 5.43,-2.235c2.2,0 4.01,0.745 5.43,2.235c1.42,1.49 2.13,3.355 2.13,5.595c0,2.24 -0.71,4.105 -2.13,5.595c-1.42,1.49 -3.23,2.235 -5.43,2.235c-2.2,0 -4.01,-0.745 -5.43,-2.235c-1.42,-1.49 -2.13,-3.355 -2.13,-5.595c0,-2.24 0.71,-4.105 2.13,-5.595zM218.62667,390.505c0.95,0.97 2.075,1.455 3.375,1.455c1.3,0 2.425,-0.485 3.375,-1.455c0.95,-0.97 1.425,-2.255 1.425,-3.855c0,-1.6 -0.475,-2.885 -1.425,-3.855c-0.95,-0.97 -2.075,-1.455 -3.375,-1.455c-1.3,0 -2.425,0.485 -3.375,1.455c-0.95,0.97 -1.425,2.255 -1.425,3.855c0,1.6 0.475,2.885 1.425,3.855z"/>
      <path d="M237.84167,394.24v0c-1.54,0 -2.715,-0.41 -3.525,-1.23c-0.81,-0.82 -1.215,-1.98 -1.215,-3.48v0v-7.71h-2.58v-2.52h2.58v-4.5h2.76v4.5h3.6v2.52h-3.6v7.5c0,1.6 0.66,2.4 1.98,2.4v0c0.5,0 0.92,-0.08 1.26,-0.24v0l0.96,2.37c-0.6,0.26 -1.34,0.39 -2.22,0.39z"/>
      <path d="M248.31167,394.48v0c-2.22,0 -4.025,-0.74 -5.415,-2.22c-1.39,-1.48 -2.085,-3.35 -2.085,-5.61v0c0,-2.14 0.675,-3.98 2.025,-5.52c1.35,-1.54 3.075,-2.31 5.175,-2.31v0c2.18,0 3.925,0.71 5.235,2.13c1.31,1.42 1.965,3.32 1.965,5.7v0l-0.03,0.51h-11.61c0.08,1.48 0.575,2.65 1.485,3.51c0.91,0.86 1.975,1.29 3.195,1.29v0c1.98,0 3.32,-0.84 4.02,-2.52v0l2.46,1.02c-0.48,1.14 -1.27,2.095 -2.37,2.865c-1.1,0.77 -2.45,1.155 -4.05,1.155zM243.75167,384.88h8.52c-0.06,-0.84 -0.445,-1.64 -1.155,-2.4c-0.71,-0.76 -1.765,-1.14 -3.165,-1.14v0c-1.02,0 -1.905,0.32 -2.655,0.96c-0.75,0.64 -1.265,1.5 -1.545,2.58z"/>
      <path d=""/>
      <path d="M274.32167,394.48v0c-3.16,0 -5.81,-1.07 -7.95,-3.21c-2.14,-2.14 -3.21,-4.81 -3.21,-8.01c0,-3.2 1.07,-5.87 3.21,-8.01c2.14,-2.14 4.79,-3.21 7.95,-3.21v0c3.24,0 5.87,1.17 7.89,3.51v0l-1.92,1.86c-1.46,-1.82 -3.45,-2.73 -5.97,-2.73v0c-2.34,0 -4.315,0.79 -5.925,2.37c-1.61,1.58 -2.415,3.65 -2.415,6.21c0,2.56 0.805,4.63 2.415,6.21c1.61,1.58 3.585,2.37 5.925,2.37v0c2.58,0 4.78,-1.04 6.6,-3.12v0l1.92,1.92c-0.98,1.18 -2.21,2.115 -3.69,2.805c-1.48,0.69 -3.09,1.035 -4.83,1.035z"/>
      <path d="M286.14167,381.055c1.42,-1.49 3.23,-2.235 5.43,-2.235c2.2,0 4.01,0.745 5.43,2.235c1.42,1.49 2.13,3.355 2.13,5.595c0,2.24 -0.71,4.105 -2.13,5.595c-1.42,1.49 -3.23,2.235 -5.43,2.235c-2.2,0 -4.01,-0.745 -5.43,-2.235c-1.42,-1.49 -2.13,-3.355 -2.13,-5.595c0,-2.24 0.71,-4.105 2.13,-5.595zM288.19667,390.505c0.95,0.97 2.075,1.455 3.375,1.455c1.3,0 2.425,-0.485 3.375,-1.455c0.95,-0.97 1.425,-2.255 1.425,-3.855c0,-1.6 -0.475,-2.885 -1.425,-3.855c-0.95,-0.97 -2.075,-1.455 -3.375,-1.455c-1.3,0 -2.425,0.485 -3.375,1.455c-0.95,0.97 -1.425,2.255 -1.425,3.855c0,1.6 0.475,2.885 1.425,3.855z"/>
      <path d="M301.35167,379.3h2.64v2.04h0.12c0.4,-0.7 1.03,-1.295 1.89,-1.785c0.86,-0.49 1.78,-0.735 2.76,-0.735v0c1.82,0 3.21,0.56 4.17,1.68c0.96,1.12 1.44,2.62 1.44,4.5v0v9h-2.76v-8.58c0,-2.72 -1.21,-4.08 -3.63,-4.08v0c-1.14,0 -2.07,0.455 -2.79,1.365c-0.72,0.91 -1.08,1.965 -1.08,3.165v0v8.13h-2.76z"/>
      <path d="M324.33167,372.4v0c0.88,0 1.62,0.13 2.22,0.39v0l-0.96,2.37c-0.32,-0.16 -0.74,-0.24 -1.26,-0.24v0c-0.72,0 -1.31,0.215 -1.77,0.645c-0.46,0.43 -0.69,1.055 -0.69,1.875v0v1.86h9.36v14.7h-2.76v-12.18h-6.6v12.18h-2.76v-12.18h-2.76v-2.52h2.76v-1.95c0,-1.5 0.48,-2.7 1.44,-3.6c0.96,-0.9 2.22,-1.35 3.78,-1.35zM331.23167,375.61c-0.38,0.38 -0.84,0.57 -1.38,0.57c-0.54,0 -1,-0.19 -1.38,-0.57c-0.38,-0.38 -0.57,-0.84 -0.57,-1.38c0,-0.54 0.19,-1 0.57,-1.38c0.38,-0.38 0.84,-0.57 1.38,-0.57c0.54,0 1,0.19 1.38,0.57c0.38,0.38 0.57,0.84 0.57,1.38c0,0.54 -0.19,1 -0.57,1.38z"/>
      <path d="M341.07167,400.96v0c-1.74,0 -3.16,-0.435 -4.26,-1.305c-1.1,-0.87 -1.89,-1.865 -2.37,-2.985v0l2.52,-1.05c0.28,0.8 0.795,1.47 1.545,2.01c0.75,0.54 1.605,0.81 2.565,0.81v0c1.52,0 2.715,-0.455 3.585,-1.365c0.87,-0.91 1.305,-2.145 1.305,-3.705v0v-1.41h-0.12c-0.48,0.72 -1.16,1.32 -2.04,1.8c-0.88,0.48 -1.87,0.72 -2.97,0.72v0c-1.9,0 -3.54,-0.75 -4.92,-2.25c-1.38,-1.5 -2.07,-3.36 -2.07,-5.58c0,-2.22 0.69,-4.08 2.07,-5.58c1.38,-1.5 3.02,-2.25 4.92,-2.25v0c1.1,0 2.09,0.24 2.97,0.72c0.88,0.48 1.56,1.08 2.04,1.8v0h0.12v-2.04h2.64v13.95c0,2.52 -0.73,4.435 -2.19,5.745c-1.46,1.31 -3.24,1.965 -5.34,1.965zM341.28167,391.96v0c1.3,0 2.405,-0.48 3.315,-1.44c0.91,-0.96 1.365,-2.25 1.365,-3.87c0,-1.62 -0.455,-2.91 -1.365,-3.87c-0.91,-0.96 -2.015,-1.44 -3.315,-1.44v0c-1.28,0 -2.38,0.485 -3.3,1.455c-0.92,0.97 -1.38,2.255 -1.38,3.855c0,1.6 0.46,2.885 1.38,3.855c0.92,0.97 2.02,1.455 3.3,1.455z"/>
    </g>
  </g>
</svg>
