<svg version="1.1" xmlns="http://www.w3.org/2000/svg" xmlns:xlink="http://www.w3.org/1999/xlink" width="1238.4" height="448" viewBox="0 0 1238.4 448">
  <g fill="none" stroke="none" stroke-width="1" stroke-linecap="butt" stroke-linejoin="miter" stroke-dasharray="" stroke-dashoffset="0">
    <rect x="0" y="0" width="1238.4" height="448" fill="none" fill-rule="nonzero"/>
    <circle cx="192" cy="224" r="96" fill="#ffca28" fill-rule="nonzero"/>
    <g fill="#3c4043" fill-rule="evenodd">
      <path d="M182.66667,186.66667h-28c-5.13333,0 -9.28667,4.2 -9.28667,9.33333l-0.04667,56c0,5.13333 4.2,9.33333 9.33333,9.33333h74.66667c5.13333,0 9.33333,-4.2 9.33333,-9.33333v-46.66667c0,-5.13333 -4.2,-9.33333 -9.33333,-9.33333h-37.33333zM189.43333,241.31333l15.008,-17.31333l20.22533,23.33333h-60.66667l15.16667,-18.66667z"/>
    </g>
    <g fill="#5f6368" fill-rule="nonzero">
      <path d="M383.61,274.05v0c-13.48,0 -24.78667,-4.56667 -33.92,-13.7c-9.12667,-9.12667 -13.69,-20.51667 -13.69,-34.17c0,-13.65333 4.56333,-25.04667 13.69,-34.18c9.13333,-9.13333 20.44,-13.7 33.92,-13.7v0c13.82667,0 25.05,4.99333 33.67,14.98v0l-8.2,7.94c-6.22667,-7.76667 -14.71667,-11.65 -25.47,-11.65v0c-9.98,0 -18.40667,3.37 -25.28,10.11c-6.86667,6.74 -10.3,15.57333 -10.3,26.5c0,10.92 3.43333,19.75 10.3,26.49c6.87333,6.74 15.3,10.11 25.28,10.11v0c11.00667,0 20.39333,-4.43667 28.16,-13.31v0l8.19,8.19c-4.18,5.04 -9.42667,9.03 -15.74,11.97c-6.31333,2.94667 -13.18333,4.42 -20.61,4.42z"/>
      <path d="M440.96,180.35v91.65h-11.78v-91.65z"/>
      <path d="M459.52,216.77c6.05333,-6.36 13.77333,-9.54 23.16,-9.54c9.38667,0 17.11,3.18 23.17,9.54c6.06,6.35333 9.09,14.31 9.09,23.87c0,9.56 -3.03,17.51667 -9.09,23.87c-6.06,6.36 -13.78333,9.54 -23.17,9.54c-9.38667,0 -17.10667,-3.18 -23.16,-9.54c-6.06,-6.35333 -9.09,-14.31 -9.09,-23.87c0,-9.56 3.03,-17.51667 9.09,-23.87zM468.28,257.09c4.05333,4.14 8.85333,6.21 14.4,6.21c5.54667,0 10.34667,-2.07 14.4,-6.21c4.05333,-4.14 6.08,-9.62333 6.08,-16.45c0,-6.82667 -2.02667,-12.31 -6.08,-16.45c-4.05333,-4.14 -8.85333,-6.21 -14.4,-6.21c-5.54667,0 -10.34667,2.07 -14.4,6.21c-4.05333,4.14 -6.08,9.62333 -6.08,16.45c0,6.82667 2.02667,12.31 6.08,16.45z"/>
      <path d="M579.45,209.28v62.72h-11.26v-8.7h-0.51c-1.79333,2.98667 -4.52667,5.52333 -8.2,7.61c-3.66667,2.09333 -7.54667,3.14 -11.64,3.14v0c-7.85333,0 -13.80667,-2.39 -17.86,-7.17c-4.05333,-4.78 -6.08,-11.18 -6.08,-19.2v0v-38.4h11.78v36.48c0,11.69333 5.16,17.54 15.48,17.54v0c4.86667,0 8.83667,-1.96333 11.91,-5.89c3.07333,-3.92667 4.61,-8.45 4.61,-13.57v0v-34.56z"/>
      <path d="M618.75,274.05v0c-8.10667,0 -15.10333,-3.2 -20.99,-9.6c-5.89333,-6.4 -8.84,-14.33667 -8.84,-23.81c0,-9.47333 2.94667,-17.41 8.84,-23.81c5.88667,-6.4 12.88333,-9.6 20.99,-9.6v0c4.78,0 9.06667,1.02333 12.86,3.07c3.8,2.05333 6.63667,4.61333 8.51,7.68v0h0.52l-0.52,-8.7v-28.93h11.78v91.65h-11.26v-8.7h-0.52c-1.87333,3.06667 -4.71,5.62667 -8.51,7.68c-3.79333,2.04667 -8.08,3.07 -12.86,3.07zM620.67,263.3v0c5.54667,0 10.26,-2.05 14.14,-6.15c3.88667,-4.09333 5.83,-9.59667 5.83,-16.51c0,-6.91333 -1.94333,-12.41667 -5.83,-16.51c-3.88,-4.1 -8.59333,-6.15 -14.14,-6.15v0c-5.46,0 -10.15333,2.07 -14.08,6.21c-3.92667,4.14 -5.89,9.62333 -5.89,16.45c0,6.82667 1.96333,12.31 5.89,16.45c3.92667,4.14 8.62,6.21 14.08,6.21z"/>
      <path d=""/>
      <path d="M718.46,274.05v0c-6.65333,0 -13.16,-2.17667 -19.52,-6.53c-6.36,-4.35333 -10.52,-10.45333 -12.48,-18.3v0l10.75,-4.36c1.28,5.04 3.90333,9.28667 7.87,12.74c3.97333,3.45333 8.43333,5.18 13.38,5.18v0c5.12,0 9.49333,-1.34333 13.12,-4.03c3.62667,-2.68667 5.44,-6.33333 5.44,-10.94v0c0,-5.12 -1.81333,-9.06667 -5.44,-11.84c-3.62667,-2.77333 -9.36667,-5.35667 -17.22,-7.75v0c-8.10667,-2.56 -14.25,-5.86667 -18.43,-9.92c-4.18,-4.05333 -6.27,-9.23667 -6.27,-15.55v0c0,-6.56667 2.60333,-12.28333 7.81,-17.15c5.20667,-4.86667 11.99,-7.3 20.35,-7.3v0c7.76667,0 14.08,1.94333 18.94,5.83c4.86667,3.88 8.02667,8.12333 9.48,12.73v0l-10.76,4.48c-0.76667,-2.9 -2.66333,-5.58667 -5.69,-8.06c-3.03333,-2.47333 -6.93667,-3.71 -11.71,-3.71v0c-4.52667,0 -8.39,1.25667 -11.59,3.77c-3.2,2.52 -4.8,5.65667 -4.8,9.41v0c0,3.41333 1.47333,6.29333 4.42,8.64c2.94,2.34667 7.27,4.46 12.99,6.34v0c4.52,1.44667 8.29667,2.85333 11.33,4.22c3.02667,1.36667 6.09667,3.18 9.21,5.44c3.12,2.26 5.46667,5.07667 7.04,8.45c1.58,3.37333 2.37,7.27667 2.37,11.71c0,4.44 -0.91667,8.41 -2.75,11.91c-1.83333,3.49333 -4.26667,6.26667 -7.3,8.32c-3.02667,2.04667 -6.29,3.60333 -9.79,4.67c-3.5,1.06667 -7.08333,1.6 -10.75,1.6z"/>
      <path d="M784.64,273.02v0c-6.57333,0 -11.58667,-1.74667 -15.04,-5.24c-3.46,-3.5 -5.19,-8.45 -5.19,-14.85v0v-32.9h-11.01v-10.75h11.01v-19.2h11.78v19.2h15.36v10.75h-15.36v32c0,6.82667 2.81667,10.24 8.45,10.24v0c2.13333,0 3.92333,-0.34 5.37,-1.02v0l4.1,10.11c-2.56,1.10667 -5.71667,1.66 -9.47,1.66z"/>
      <path d="M806.4,216.77c6.05333,-6.36 13.77333,-9.54 23.16,-9.54c9.38667,0 17.11,3.18 23.17,9.54c6.06,6.35333 9.09,14.31 9.09,23.87c0,9.56 -3.03,17.51667 -9.09,23.87c-6.06,6.36 -13.78333,9.54 -23.17,9.54c-9.38667,0 -17.10667,-3.18 -23.16,-9.54c-6.06,-6.35333 -9.09,-14.31 -9.09,-23.87c0,-9.56 3.03,-17.51667 9.09,-23.87zM815.16,257.09c4.05333,4.14 8.85333,6.21 14.4,6.21c5.54667,0 10.34667,-2.07 14.4,-6.21c4.05333,-4.14 6.08,-9.62333 6.08,-16.45c0,-6.82667 -2.02667,-12.31 -6.08,-16.45c-4.05333,-4.14 -8.85333,-6.21 -14.4,-6.21c-5.54667,0 -10.34667,2.07 -14.4,6.21c-4.05333,4.14 -6.08,9.62333 -6.08,16.45c0,6.82667 2.02667,12.31 6.08,16.45z"/>
      <path d="M883.07,237.7v34.3h-11.78v-62.72h11.27v10.24h0.51c1.19333,-3.41333 3.64667,-6.23 7.36,-8.45c3.71333,-2.22 7.31667,-3.33 10.81,-3.33c3.5,0 6.44667,0.51333 8.84,1.54v0l-4.48,11.01c-1.54,-0.6 -3.63333,-0.9 -6.28,-0.9v0c-4.26667,0 -8.04,1.68667 -11.32,5.06c-3.28667,3.36667 -4.93,7.78333 -4.93,13.25z"/>
      <path d="M935.04,274.05v0c-6.66,0 -12.23,-1.92 -16.71,-5.76c-4.48,-3.84 -6.72,-8.91667 -6.72,-15.23v0c0,-6.82667 2.64667,-12.18333 7.94,-16.07c5.28667,-3.88 11.81333,-5.82 19.58,-5.82v0c6.91333,0 12.59,1.28 17.03,3.84v0v-1.79c0,-4.61333 -1.58,-8.30667 -4.74,-11.08c-3.16,-2.77333 -7.04333,-4.16 -11.65,-4.16v0c-3.41333,0 -6.50667,0.81333 -9.28,2.44c-2.77333,1.62 -4.67,3.83667 -5.69,6.65v0l-10.76,-4.61c1.45333,-3.75333 4.31333,-7.23 8.58,-10.43c4.26667,-3.2 9.9,-4.8 16.9,-4.8v0c8.02,0 14.67333,2.34667 19.96,7.04c5.29333,4.69333 7.94,11.30667 7.94,19.84v0v37.89h-11.26v-8.7h-0.52c-4.69333,7.16667 -11.56,10.75 -20.6,10.75zM936.96,263.3v0c4.86,0 9.27333,-1.81333 13.24,-5.44c3.97333,-3.62667 5.96,-7.91667 5.96,-12.87v0c-3.33333,-2.72667 -8.32667,-4.09 -14.98,-4.09v0c-5.72,0 -10.03,1.23667 -12.93,3.71c-2.9,2.47333 -4.35,5.37333 -4.35,8.7v0c0,3.07333 1.32333,5.50667 3.97,7.3c2.64667,1.79333 5.67667,2.69 9.09,2.69z"/>
      <path d="M1007.36,301.7v0c-7.42667,0 -13.48667,-1.85667 -18.18,-5.57c-4.69333,-3.71333 -8.06333,-7.96 -10.11,-12.74v0l10.75,-4.48c1.19333,3.41333 3.39,6.27333 6.59,8.58c3.2,2.3 6.85,3.45 10.95,3.45v0c6.48,0 11.57667,-1.94 15.29,-5.82c3.71333,-3.88 5.57,-9.15 5.57,-15.81v0v-6.01h-0.51c-2.04667,3.06667 -4.95,5.62667 -8.71,7.68c-3.75333,2.04667 -7.97667,3.07 -12.67,3.07v0c-8.10667,0 -15.10333,-3.2 -20.99,-9.6c-5.88667,-6.4 -8.83,-14.33667 -8.83,-23.81c0,-9.47333 2.94333,-17.41 8.83,-23.81c5.88667,-6.4 12.88333,-9.6 20.99,-9.6v0c4.69333,0 8.91667,1.02333 12.67,3.07c3.76,2.05333 6.66333,4.61333 8.71,7.68v0h0.51v-8.7h11.26v59.52c0,10.75333 -3.11333,18.92333 -9.34,24.51c-6.22667,5.59333 -13.82,8.39 -22.78,8.39zM1008.25,263.3v0c5.54667,0 10.26333,-2.05 14.15,-6.15c3.88,-4.09333 5.82,-9.59667 5.82,-16.51c0,-6.91333 -1.94,-12.41667 -5.82,-16.51c-3.88667,-4.1 -8.60333,-6.15 -14.15,-6.15v0c-5.46,0 -10.15333,2.07 -14.08,6.21c-3.92667,4.14 -5.89,9.62333 -5.89,16.45c0,6.82667 1.96333,12.31 5.89,16.45c3.92667,4.14 8.62,6.21 14.08,6.21z"/>
      <path d="M1080.96,274.05v0c-9.47333,0 -17.17667,-3.15667 -23.11,-9.47c-5.92667,-6.32 -8.89,-14.3 -8.89,-23.94v0c0,-9.13333 2.88,-16.98333 8.64,-23.55c5.76,-6.57333 13.12,-9.86 22.08,-9.86v0c9.3,0 16.74333,3.03 22.33,9.09c5.59333,6.06 8.39,14.16667 8.39,24.32v0l-0.13,2.18h-49.54c0.34,6.31333 2.45333,11.30333 6.34,14.97c3.88,3.67333 8.42333,5.51 13.63,5.51v0c8.44667,0 14.16333,-3.58667 17.15,-10.76v0l10.5,4.36c-2.04667,4.86 -5.41667,8.93333 -10.11,12.22c-4.69333,3.28667 -10.45333,4.93 -17.28,4.93zM1061.5,233.09h36.35c-0.25333,-3.58667 -1.89667,-7 -4.93,-10.24c-3.02667,-3.24667 -7.52667,-4.87 -13.5,-4.87v0c-4.35333,0 -8.13,1.36667 -11.33,4.1c-3.2,2.73333 -5.39667,6.40333 -6.59,11.01z"/>
    </g>
  </g>
</svg>
