<svg version="1.1" xmlns="http://www.w3.org/2000/svg" xmlns:xlink="http://www.w3.org/1999/xlink" width="450.133" height="464" viewBox="0 0 450.133 464">
  <g fill="none" stroke="none" stroke-width="1" stroke-linecap="butt" stroke-linejoin="miter" stroke-dasharray="" stroke-dashoffset="0">
    <rect x="0" y="0" width="450.133" height="464" fill="none" fill-rule="nonzero"/>
    <circle cx="225.067" cy="192" r="96" fill="#ffca28" fill-rule="nonzero"/>
    <g fill="#3c4043" fill-rule="evenodd">
      <path d="M215.73333,154.66667h-28c-5.13333,0 -9.28667,4.2 -9.28667,9.33333l-0.04667,56c0,5.13333 4.2,9.33333 9.33333,9.33333h74.66667c5.13333,0 9.33333,-4.2 9.33333,-9.33333v-46.66667c0,-5.13333 -4.2,-9.33333 -9.33333,-9.33333h-37.33333zM222.5,209.31333l15.008,-17.31333l20.22533,23.33333h-60.66667l15.16667,-18.66667z"/>
    </g>
    <g fill="#5f6368" fill-rule="nonzero">
      <path d="M111.87,352.68333v0c-4.49333,0 -8.26222,-1.52222 -11.30667,-4.56667c-3.04222,-3.04222 -4.56333,-6.83889 -4.56333,-11.39c0,-4.55111 1.52111,-8.34889 4.56333,-11.39333c3.04444,-3.04444 6.81333,-4.56667 11.30667,-4.56667v0c4.60889,0 8.35,1.66444 11.22333,4.99333v0l-2.73333,2.64667c-2.07556,-2.58889 -4.90556,-3.88333 -8.49,-3.88333v0c-3.32667,0 -6.13556,1.12333 -8.42667,3.37c-2.28889,2.24667 -3.43333,5.19111 -3.43333,8.83333c0,3.64 1.14444,6.58333 3.43333,8.83c2.29111,2.24667 5.1,3.37 8.42667,3.37v0c3.66889,0 6.79778,-1.47889 9.38667,-4.43667v0l2.73,2.73c-1.39333,1.68 -3.14222,3.01 -5.24667,3.99c-2.10444,0.98222 -4.39444,1.47333 -6.87,1.47333z"/>
      <path d="M130.98667,321.45v30.55h-3.92667v-30.55z"/>
      <path d="M137.17333,333.59c2.01778,-2.12 4.59111,-3.18 7.72,-3.18c3.12889,0 5.70333,1.06 7.72333,3.18c2.02,2.11778 3.03,4.77 3.03,7.95667c0,3.18667 -1.01,5.83889 -3.03,7.95667c-2.02,2.12 -4.59444,3.18 -7.72333,3.18c-3.12889,0 -5.70222,-1.06 -7.72,-3.18c-2.02,-2.11778 -3.03,-4.77 -3.03,-7.95667c0,-3.18667 1.01,-5.83889 3.03,-7.95667zM140.09333,347.03c1.35111,1.38 2.95111,2.07 4.8,2.07c1.84889,0 3.44889,-0.69 4.8,-2.07c1.35111,-1.38 2.02667,-3.20778 2.02667,-5.48333c0,-2.27556 -0.67556,-4.10333 -2.02667,-5.48333c-1.35111,-1.38 -2.95111,-2.07 -4.8,-2.07c-1.84889,0 -3.44889,0.69 -4.8,2.07c-1.35111,1.38 -2.02667,3.20778 -2.02667,5.48333c0,2.27556 0.67556,4.10333 2.02667,5.48333z"/>
      <path d="M177.15,331.09333v20.90667h-3.75333v-2.9h-0.17c-0.59778,0.99556 -1.50889,1.84111 -2.73333,2.53667c-1.22222,0.69778 -2.51556,1.04667 -3.88,1.04667v0c-2.61778,0 -4.60222,-0.79667 -5.95333,-2.39c-1.35111,-1.59333 -2.02667,-3.72667 -2.02667,-6.4v0v-12.8h3.92667v12.16c0,3.89778 1.72,5.84667 5.16,5.84667v0c1.62222,0 2.94556,-0.65444 3.97,-1.96333c1.02444,-1.30889 1.53667,-2.81667 1.53667,-4.52333v0v-11.52z"/>
      <path d="M190.25,352.68333v0c-2.70222,0 -5.03444,-1.06667 -6.99667,-3.2c-1.96444,-2.13333 -2.94667,-4.77889 -2.94667,-7.93667c0,-3.15778 0.98222,-5.80333 2.94667,-7.93667c1.96222,-2.13333 4.29444,-3.2 6.99667,-3.2v0c1.59333,0 3.02222,0.34111 4.28667,1.02333c1.26667,0.68444 2.21222,1.53778 2.83667,2.56v0h0.17333l-0.17333,-2.9v-9.64333h3.92667v30.55h-3.75333v-2.9h-0.17333c-0.62444,1.02222 -1.57,1.87556 -2.83667,2.56c-1.26444,0.68222 -2.69333,1.02333 -4.28667,1.02333zM190.89,349.1v0c1.84889,0 3.42,-0.68333 4.71333,-2.05c1.29556,-1.36444 1.94333,-3.19889 1.94333,-5.50333c0,-2.30444 -0.64778,-4.13889 -1.94333,-5.50333c-1.29333,-1.36667 -2.86444,-2.05 -4.71333,-2.05v0c-1.82,0 -3.38444,0.69 -4.69333,2.07c-1.30889,1.38 -1.96333,3.20778 -1.96333,5.48333c0,2.27556 0.65444,4.10333 1.96333,5.48333c1.30889,1.38 2.87333,2.07 4.69333,2.07z"/>
      <path d=""/>
      <path d="M223.48667,352.68333v0c-2.21778,0 -4.38667,-0.72556 -6.50667,-2.17667c-2.12,-1.45111 -3.50667,-3.48444 -4.16,-6.1v0l3.58333,-1.45333c0.42667,1.68 1.30111,3.09556 2.62333,4.24667c1.32444,1.15111 2.81111,1.72667 4.46,1.72667v0c1.70667,0 3.16444,-0.44778 4.37333,-1.34333c1.20889,-0.89556 1.81333,-2.11111 1.81333,-3.64667v0c0,-1.70667 -0.60444,-3.02222 -1.81333,-3.94667c-1.20889,-0.92444 -3.12222,-1.78556 -5.74,-2.58333v0c-2.70222,-0.85333 -4.75,-1.95556 -6.14333,-3.30667c-1.39333,-1.35111 -2.09,-3.07889 -2.09,-5.18333v0c0,-2.18889 0.86778,-4.09444 2.60333,-5.71667c1.73556,-1.62222 3.99667,-2.43333 6.78333,-2.43333v0c2.58889,0 4.69333,0.64778 6.31333,1.94333c1.62222,1.29333 2.67556,2.70778 3.16,4.24333v0l-3.58667,1.49333c-0.25556,-0.96667 -0.88778,-1.86222 -1.89667,-2.68667c-1.01111,-0.82444 -2.31222,-1.23667 -3.90333,-1.23667v0c-1.50889,0 -2.79667,0.41889 -3.86333,1.25667c-1.06667,0.84 -1.6,1.88556 -1.6,3.13667v0c0,1.13778 0.49111,2.09778 1.47333,2.88c0.98,0.78222 2.42333,1.48667 4.33,2.11333v0c1.50667,0.48222 2.76556,0.95111 3.77667,1.40667c1.00889,0.45556 2.03222,1.06 3.07,1.81333c1.04,0.75333 1.82222,1.69222 2.34667,2.81667c0.52667,1.12444 0.79,2.42556 0.79,3.90333c0,1.48 -0.30556,2.80333 -0.91667,3.97c-0.61111,1.16444 -1.42222,2.08889 -2.43333,2.77333c-1.00889,0.68222 -2.09667,1.20111 -3.26333,1.55667c-1.16667,0.35556 -2.36111,0.53333 -3.58333,0.53333z"/>
      <path d="M245.54667,352.34v0c-2.19111,0 -3.86222,-0.58222 -5.01333,-1.74667c-1.15333,-1.16667 -1.73,-2.81667 -1.73,-4.95v0v-10.96667h-3.67v-3.58333h3.67v-6.4h3.92667v6.4h5.12v3.58333h-5.12v10.66667c0,2.27556 0.93889,3.41333 2.81667,3.41333v0c0.71111,0 1.30778,-0.11333 1.79,-0.34v0l1.36667,3.37c-0.85333,0.36889 -1.90556,0.55333 -3.15667,0.55333z"/>
      <path d="M252.8,333.59c2.01778,-2.12 4.59111,-3.18 7.72,-3.18c3.12889,0 5.70333,1.06 7.72333,3.18c2.02,2.11778 3.03,4.77 3.03,7.95667c0,3.18667 -1.01,5.83889 -3.03,7.95667c-2.02,2.12 -4.59444,3.18 -7.72333,3.18c-3.12889,0 -5.70222,-1.06 -7.72,-3.18c-2.02,-2.11778 -3.03,-4.77 -3.03,-7.95667c0,-3.18667 1.01,-5.83889 3.03,-7.95667zM255.72,347.03c1.35111,1.38 2.95111,2.07 4.8,2.07c1.84889,0 3.44889,-0.69 4.8,-2.07c1.35111,-1.38 2.02667,-3.20778 2.02667,-5.48333c0,-2.27556 -0.67556,-4.10333 -2.02667,-5.48333c-1.35111,-1.38 -2.95111,-2.07 -4.8,-2.07c-1.84889,0 -3.44889,0.69 -4.8,2.07c-1.35111,1.38 -2.02667,3.20778 -2.02667,5.48333c0,2.27556 0.67556,4.10333 2.02667,5.48333z"/>
      <path d="M278.35667,340.56667v11.43333h-3.92667v-20.90667h3.75667v3.41333h0.17c0.39778,-1.13778 1.21556,-2.07667 2.45333,-2.81667c1.23778,-0.74 2.43889,-1.11 3.60333,-1.11c1.16667,0 2.14889,0.17111 2.94667,0.51333v0l-1.49333,3.67c-0.51333,-0.2 -1.21111,-0.3 -2.09333,-0.3v0c-1.42222,0 -2.68,0.56222 -3.77333,1.68667c-1.09556,1.12222 -1.64333,2.59444 -1.64333,4.41667z"/>
      <path d="M295.68,352.68333v0c-2.22,0 -4.07667,-0.64 -5.57,-1.92c-1.49333,-1.28 -2.24,-2.97222 -2.24,-5.07667v0c0,-2.27556 0.88222,-4.06111 2.64667,-5.35667c1.76222,-1.29333 3.93778,-1.94 6.52667,-1.94v0c2.30444,0 4.19667,0.42667 5.67667,1.28v0v-0.59667c0,-1.53778 -0.52667,-2.76889 -1.58,-3.69333c-1.05333,-0.92444 -2.34778,-1.38667 -3.88333,-1.38667v0c-1.13778,0 -2.16889,0.27111 -3.09333,0.81333c-0.92444,0.54 -1.55667,1.27889 -1.89667,2.21667v0l-3.58667,-1.53667c0.48444,-1.25111 1.43778,-2.41 2.86,-3.47667c1.42222,-1.06667 3.3,-1.6 5.63333,-1.6v0c2.67333,0 4.89111,0.78222 6.65333,2.34667c1.76444,1.56444 2.64667,3.76889 2.64667,6.61333v0v12.63h-3.75333v-2.9h-0.17333c-1.56444,2.38889 -3.85333,3.58333 -6.86667,3.58333zM296.32,349.1v0c1.62,0 3.09111,-0.60444 4.41333,-1.81333c1.32444,-1.20889 1.98667,-2.63889 1.98667,-4.29v0c-1.11111,-0.90889 -2.77556,-1.36333 -4.99333,-1.36333v0c-1.90667,0 -3.34333,0.41222 -4.31,1.23667c-0.96667,0.82444 -1.45,1.79111 -1.45,2.9v0c0,1.02444 0.44111,1.83556 1.32333,2.43333c0.88222,0.59778 1.89222,0.89667 3.03,0.89667z"/>
      <path d="M319.78667,361.9v0c-2.47556,0 -4.49556,-0.61889 -6.06,-1.85667c-1.56444,-1.23778 -2.68778,-2.65333 -3.37,-4.24667v0l3.58333,-1.49333c0.39778,1.13778 1.13,2.09111 2.19667,2.86c1.06667,0.76667 2.28333,1.15 3.65,1.15v0c2.16,0 3.85889,-0.64667 5.09667,-1.94c1.23778,-1.29333 1.85667,-3.05 1.85667,-5.27v0v-2.00333h-0.17c-0.68222,1.02222 -1.65,1.87556 -2.90333,2.56c-1.25111,0.68222 -2.65889,1.02333 -4.22333,1.02333v0c-2.70222,0 -5.03444,-1.06667 -6.99667,-3.2c-1.96222,-2.13333 -2.94333,-4.77889 -2.94333,-7.93667c0,-3.15778 0.98111,-5.80333 2.94333,-7.93667c1.96222,-2.13333 4.29444,-3.2 6.99667,-3.2v0c1.56444,0 2.97222,0.34111 4.22333,1.02333c1.25333,0.68444 2.22111,1.53778 2.90333,2.56v0h0.17v-2.9h3.75333v19.84c0,3.58444 -1.03778,6.30778 -3.11333,8.17c-2.07556,1.86444 -4.60667,2.79667 -7.59333,2.79667zM320.08333,349.1v0c1.84889,0 3.42111,-0.68333 4.71667,-2.05c1.29333,-1.36444 1.94,-3.19889 1.94,-5.50333c0,-2.30444 -0.64667,-4.13889 -1.94,-5.50333c-1.29556,-1.36667 -2.86778,-2.05 -4.71667,-2.05v0c-1.82,0 -3.38444,0.69 -4.69333,2.07c-1.30889,1.38 -1.96333,3.20778 -1.96333,5.48333c0,2.27556 0.65444,4.10333 1.96333,5.48333c1.30889,1.38 2.87333,2.07 4.69333,2.07z"/>
      <path d="M344.32,352.68333v0c-3.15778,0 -5.72556,-1.05222 -7.70333,-3.15667c-1.97556,-2.10667 -2.96333,-4.76667 -2.96333,-7.98v0c0,-3.04444 0.96,-5.66111 2.88,-7.85c1.92,-2.19111 4.37333,-3.28667 7.36,-3.28667v0c3.1,0 5.58111,1.01 7.44333,3.03c1.86444,2.02 2.79667,4.72222 2.79667,8.10667v0l-0.04333,0.72667h-16.51333c0.11333,2.10444 0.81778,3.76778 2.11333,4.99c1.29333,1.22444 2.80778,1.83667 4.54333,1.83667v0c2.81556,0 4.72111,-1.19556 5.71667,-3.58667v0l3.5,1.45333c-0.68222,1.62 -1.80556,2.97778 -3.37,4.07333c-1.56444,1.09556 -3.48444,1.64333 -5.76,1.64333zM337.83333,339.03h12.11667c-0.08444,-1.19556 -0.63222,-2.33333 -1.64333,-3.41333c-1.00889,-1.08222 -2.50889,-1.62333 -4.5,-1.62333v0c-1.45111,0 -2.71,0.45556 -3.77667,1.36667c-1.06667,0.91111 -1.79889,2.13444 -2.19667,3.67z"/>
    </g>
  </g>
</svg>
