<svg version="1.1" xmlns="http://www.w3.org/2000/svg" xmlns:xlink="http://www.w3.org/1999/xlink" width="383.23" height="464" viewBox="0 0 383.23 464">
  <g fill="none" stroke="none" stroke-width="1" stroke-linecap="butt" stroke-linejoin="miter" stroke-dasharray="" stroke-dashoffset="0">
    <rect x="0" y="0" width="383.23" height="464" fill="none" fill-rule="nonzero"/>
    <circle cx="191.615" cy="192" r="96" fill="#ffca28" fill-rule="nonzero"/>
    <g fill="#3c4043" fill-rule="evenodd">
      <path d="M197.019,145.97267l10.91067,11.074c3.668,3.724 2.17933,5.11467 -0.18667,7.518l-10.65867,10.81733c-2.366,2.40333 -2.00667,5.334 -0.014,7.35467l7.24267,7.35c1.99733,2.02533 4.87667,2.38933 7.24267,-0.014l10.65867,-10.81733c2.366,-2.40333 5.41333,-2.212 7.42,-0.18667l10.822,10.99c1.99733,2.03 2.19333,5.12867 -0.17733,7.532l-34.96733,35.49c-4.08206,4.17026 -9.67173,6.52065 -15.50733,6.52065c-5.83561,0 -11.42527,-2.35039 -15.50733,-6.52065l-31.54667,-32.02267c-2.00667,-2.03 -2.17933,-5.14733 0.18667,-7.546l10.57933,-10.738c2.366,-2.40333 2.86067,-4.62 0.86333,-6.65l-7.98467,-8.106c-2.002,-2.02533 -2.02533,-5.28267 0.34067,-7.686l10.276,-10.43c2.366,-2.40333 5.46933,-2.268 7.46667,-0.24267l7.98933,8.106c1.99733,2.03 4.10667,1.60533 6.47267,-0.79333l10.65867,-10.822c2.366,-2.40333 5.42267,-2.20733 7.42,-0.17733z"/>
    </g>
    <g fill="#5f6368" fill-rule="nonzero">
      <path d="M113.83333,321.45v3.75667h-13.91v9.68333h12.54333v3.67h-12.54333v9.68667h13.91v3.75333h-17.83333v-30.55z"/>
      <path d="M127.74333,341.37667l7.46667,10.62333h-4.61l-5.16,-7.72333l-5.08,7.72333h-4.60667l7.38,-10.62333l-7.21,-10.28333h4.43667l5.16333,7.38l4.90667,-7.38h4.61z"/>
      <path d="M146.98667,352.34v0c-2.19111,0 -3.86222,-0.58222 -5.01333,-1.74667c-1.15333,-1.16667 -1.73,-2.81667 -1.73,-4.95v0v-10.96667h-3.67v-3.58333h3.67v-6.4h3.92667v6.4h5.12v3.58333h-5.12v10.66667c0,2.27556 0.93889,3.41333 2.81667,3.41333v0c0.71111,0 1.30778,-0.11333 1.79,-0.34v0l1.36667,3.37c-0.85333,0.36889 -1.90556,0.55333 -3.15667,0.55333z"/>
      <path d="M161.87667,352.68333v0c-3.15778,0 -5.72556,-1.05222 -7.70333,-3.15667c-1.97556,-2.10667 -2.96333,-4.76667 -2.96333,-7.98v0c0,-3.04444 0.96,-5.66111 2.88,-7.85c1.92,-2.19111 4.37333,-3.28667 7.36,-3.28667v0c3.1,0 5.58111,1.01 7.44333,3.03c1.86444,2.02 2.79667,4.72222 2.79667,8.10667v0l-0.04333,0.72667h-16.51333c0.11556,2.10444 0.82,3.76778 2.11333,4.99c1.29333,1.22444 2.80778,1.83667 4.54333,1.83667v0c2.81556,0 4.72111,-1.19556 5.71667,-3.58667v0l3.5,1.45333c-0.68222,1.62 -1.80556,2.97778 -3.37,4.07333c-1.56444,1.09556 -3.48444,1.64333 -5.76,1.64333zM155.39,339.03h12.11667c-0.08444,-1.19556 -0.63111,-2.33333 -1.64,-3.41333c-1.01111,-1.08222 -2.51222,-1.62333 -4.50333,-1.62333v0c-1.45111,0 -2.71,0.45556 -3.77667,1.36667c-1.06667,0.91111 -1.79889,2.13444 -2.19667,3.67z"/>
      <path d="M174.84667,331.09333h3.75333v2.9h0.17333c0.56889,-0.99556 1.46444,-1.84111 2.68667,-2.53667c1.22222,-0.69778 2.53111,-1.04667 3.92667,-1.04667v0c2.58667,0 4.56333,0.79667 5.93,2.39c1.36444,1.59333 2.04667,3.72667 2.04667,6.4v0v12.8h-3.92333v-12.20333c0,-3.86889 -1.72111,-5.80333 -5.16333,-5.80333v0c-1.62222,0 -2.94556,0.64778 -3.97,1.94333c-1.02222,1.29333 -1.53333,2.79333 -1.53333,4.5v0v11.56333h-3.92667z"/>
      <path d="M205.31,352.68333v0c-2.33111,0 -4.25778,-0.56889 -5.78,-1.70667c-1.52222,-1.13778 -2.63889,-2.56 -3.35,-4.26667v0l3.5,-1.45c1.10889,2.61556 3,3.92333 5.67333,3.92333v0c1.22222,0 2.22444,-0.27 3.00667,-0.81c0.78222,-0.54 1.17333,-1.25111 1.17333,-2.13333v0c0,-1.36444 -0.95222,-2.28889 -2.85667,-2.77333v0l-4.22333,-1.02333c-1.33778,-0.34222 -2.60444,-0.99 -3.8,-1.94333c-1.19333,-0.95111 -1.79,-2.23778 -1.79,-3.86v0c0,-1.84889 0.81778,-3.34889 2.45333,-4.5c1.63556,-1.15333 3.57667,-1.73 5.82333,-1.73v0c1.84889,0 3.49889,0.42 4.95,1.26c1.45111,0.83778 2.48889,2.03889 3.11333,3.60333v0l-3.41333,1.41c-0.76667,-1.84889 -2.35889,-2.77333 -4.77667,-2.77333v0c-1.16667,0 -2.14889,0.24111 -2.94667,0.72333c-0.79556,0.48444 -1.19333,1.13889 -1.19333,1.96333v0c0,1.19556 0.92444,2.00667 2.77333,2.43333v0l4.14,0.98c1.96222,0.45556 3.41222,1.23778 4.35,2.34667c0.94,1.10889 1.41,2.36111 1.41,3.75667v0c0,1.87556 -0.76889,3.44 -2.30667,4.69333c-1.53556,1.25111 -3.51222,1.87667 -5.93,1.87667z"/>
      <path d="M220.58667,325.84667c-0.54222,0.54 -1.19667,0.81 -1.96333,0.81c-0.76889,0 -1.42333,-0.27 -1.96333,-0.81c-0.54,-0.54222 -0.81,-1.19667 -0.81,-1.96333c0,-0.76889 0.27,-1.42333 0.81,-1.96333c0.54,-0.54 1.19444,-0.81 1.96333,-0.81c0.76667,0 1.42111,0.27 1.96333,0.81c0.54,0.54 0.81,1.19444 0.81,1.96333c0,0.76667 -0.27,1.42111 -0.81,1.96333zM220.58667,331.09333v20.90667h-3.92667v-20.90667z"/>
      <path d="M226.9,333.59c2.02,-2.12 4.59444,-3.18 7.72333,-3.18c3.12889,0 5.70333,1.06 7.72333,3.18c2.01778,2.11778 3.02667,4.77 3.02667,7.95667c0,3.18667 -1.00889,5.83889 -3.02667,7.95667c-2.02,2.12 -4.59444,3.18 -7.72333,3.18c-3.12889,0 -5.70333,-1.06 -7.72333,-3.18c-2.02,-2.11778 -3.03,-4.77 -3.03,-7.95667c0,-3.18667 1.01,-5.83889 3.03,-7.95667zM229.82333,347.03c1.35111,1.38 2.95111,2.07 4.8,2.07c1.84889,0 3.44889,-0.69 4.8,-2.07c1.35111,-1.38 2.02667,-3.20778 2.02667,-5.48333c0,-2.27556 -0.67556,-4.10333 -2.02667,-5.48333c-1.35111,-1.38 -2.95111,-2.07 -4.8,-2.07c-1.84889,0 -3.44889,0.69 -4.8,2.07c-1.35111,1.38 -2.02667,3.20778 -2.02667,5.48333c0,2.27556 0.67556,4.10333 2.02667,5.48333z"/>
      <path d="M248.53333,331.09333h3.75333v2.9h0.17c0.56889,-0.99556 1.46556,-1.84111 2.69,-2.53667c1.22222,-0.69778 2.53,-1.04667 3.92333,-1.04667v0c2.58889,0 4.56556,0.79667 5.93,2.39c1.36667,1.59333 2.05,3.72667 2.05,6.4v0v12.8h-3.92667v-12.20333c0,-3.86889 -1.72111,-5.80333 -5.16333,-5.80333v0c-1.62,0 -2.94222,0.64778 -3.96667,1.94333c-1.02444,1.29333 -1.53667,2.79333 -1.53667,4.5v0v11.56333h-3.92333z"/>
      <path d="M278.99667,352.68333v0c-2.33333,0 -4.26111,-0.56889 -5.78333,-1.70667c-1.52,-1.13778 -2.63556,-2.56 -3.34667,-4.26667v0l3.49667,-1.45c1.10889,2.61556 3.00111,3.92333 5.67667,3.92333v0c1.22222,0 2.22444,-0.27 3.00667,-0.81c0.78222,-0.54 1.17333,-1.25111 1.17333,-2.13333v0c0,-1.36444 -0.95333,-2.28889 -2.86,-2.77333v0l-4.22333,-1.02333c-1.33556,-0.34222 -2.60111,-0.99 -3.79667,-1.94333c-1.19556,-0.95111 -1.79333,-2.23778 -1.79333,-3.86v0c0,-1.84889 0.81778,-3.34889 2.45333,-4.5c1.63556,-1.15333 3.57778,-1.73 5.82667,-1.73v0c1.84889,0 3.49778,0.42 4.94667,1.26c1.45111,0.83778 2.49,2.03889 3.11667,3.60333v0l-3.41333,1.41c-0.76889,-1.84889 -2.36222,-2.77333 -4.78,-2.77333v0c-1.16667,0 -2.14778,0.24111 -2.94333,0.72333c-0.79556,0.48444 -1.19333,1.13889 -1.19333,1.96333v0c0,1.19556 0.92444,2.00667 2.77333,2.43333v0l4.13667,0.98c1.96222,0.45556 3.41333,1.23778 4.35333,2.34667c0.93778,1.10889 1.40667,2.36111 1.40667,3.75667v0c0,1.87556 -0.76778,3.44 -2.30333,4.69333c-1.53556,1.25111 -3.51222,1.87667 -5.93,1.87667z"/>
    </g>
  </g>
</svg>
