<svg version="1.1" xmlns="http://www.w3.org/2000/svg" xmlns:xlink="http://www.w3.org/1999/xlink" width="192" height="192" viewBox="0 0 192 192">
  <g fill="none" stroke="none" stroke-width="1" stroke-linecap="butt" stroke-linejoin="miter" stroke-dasharray="" stroke-dashoffset="0">
    <rect x="0" y="0" width="192" height="192" fill="none" fill-rule="nonzero"/>
    <circle cx="96" cy="96" r="96" fill="#ffca28" fill-rule="nonzero"/>
    <g fill="#3c4043" fill-rule="evenodd">
      <path d="M101.404,49.97267l10.91067,11.074c3.668,3.724 2.17933,5.11467 -0.18667,7.518l-10.65867,10.81733c-2.366,2.40333 -2.00667,5.334 -0.014,7.35467l7.24267,7.35c1.99733,2.02533 4.87667,2.38933 7.24267,-0.014l10.65867,-10.81733c2.366,-2.40333 5.41333,-2.212 7.42,-0.18667l10.822,10.99c1.99733,2.03 2.19333,5.12867 -0.17733,7.532l-34.96733,35.49c-4.08206,4.17026 -9.67173,6.52065 -15.50733,6.52065c-5.83561,0 -11.42527,-2.35039 -15.50733,-6.52065l-31.54667,-32.02267c-2.00667,-2.03 -2.17933,-5.14733 0.18667,-7.546l10.57933,-10.738c2.366,-2.40333 2.86067,-4.62 0.86333,-6.65l-7.98467,-8.106c-2.002,-2.02533 -2.02533,-5.28267 0.34067,-7.686l10.276,-10.43c2.366,-2.40333 5.46933,-2.268 7.46667,-0.24267l7.98933,8.106c1.99733,2.03 4.10667,1.60533 6.47267,-0.79333l10.65867,-10.822c2.366,-2.40333 5.42267,-2.20733 7.42,-0.17733z"/>
    </g>
  </g>
</svg>
