<svg version="1.1" xmlns="http://www.w3.org/2000/svg" xmlns:xlink="http://www.w3.org/1999/xlink" width="504.533" height="464" viewBox="0 0 504.533 464">
  <g fill="none" stroke="none" stroke-width="1" stroke-linecap="butt" stroke-linejoin="miter" stroke-dasharray="" stroke-dashoffset="0">
    <rect x="0" y="0" width="504.533" height="464" fill="none" fill-rule="nonzero"/>
    <circle cx="252.267" cy="192" r="96" fill="#ffca28" fill-rule="nonzero"/>
    <g fill="#3c4043" fill-rule="evenodd">
      <path d="M205.6,193.4c0,9.8 7.93333,17.73333 17.73333,17.73333h19.6v8.86667h-19.6c-14.46667,0 -26.13333,-11.66667 -26.13333,-26.13333c0,-13.53333 10.26667,-24.73333 23.33333,-26.13333c5.6,-10.26667 16.33333,-17.73333 28.93333,-17.73333c16.33333,0 29.4,11.2 32.66667,25.66667c11.66667,0.93333 20.53333,10.26667 20.53333,21.93333c0,0.93333 -0.46667,1.4 -0.46667,2.33333l-8.86667,-3.73333c-0.93333,-6.53333 -6.06667,-11.66667 -13.06667,-11.66667h-6.06667v-2.33333c0,-13.53333 -10.73333,-24.26667 -24.26667,-24.26667c-11.2,0 -20.53333,7.46667 -23.33333,17.73333h-3.26667c-9.8,0 -17.73333,7.93333 -17.73333,17.73333zM252.26667,221.54l42,-6.20667l-42,-6.25333v-17.08l56,23.57133l-56,23.09533z"/>
    </g>
    <g fill="#5f6368" fill-rule="nonzero">
      <path d="M111.87,352.68333v0c-4.49333,0 -8.26222,-1.52222 -11.30667,-4.56667c-3.04222,-3.04222 -4.56333,-6.83889 -4.56333,-11.39c0,-4.55111 1.52111,-8.34889 4.56333,-11.39333c3.04444,-3.04444 6.81333,-4.56667 11.30667,-4.56667v0c4.60889,0 8.35,1.66444 11.22333,4.99333v0l-2.73333,2.64667c-2.07556,-2.58889 -4.90556,-3.88333 -8.49,-3.88333v0c-3.32667,0 -6.13556,1.12333 -8.42667,3.37c-2.28889,2.24667 -3.43333,5.19111 -3.43333,8.83333c0,3.64 1.14444,6.58333 3.43333,8.83c2.29111,2.24667 5.1,3.37 8.42667,3.37v0c3.66889,0 6.79778,-1.47889 9.38667,-4.43667v0l2.73,2.73c-1.39333,1.68 -3.14222,3.01 -5.24667,3.99c-2.10444,0.98222 -4.39444,1.47333 -6.87,1.47333z"/>
      <path d="M130.98667,321.45v30.55h-3.92667v-30.55z"/>
      <path d="M137.17333,333.59c2.01778,-2.12 4.59111,-3.18 7.72,-3.18c3.12889,0 5.70333,1.06 7.72333,3.18c2.02,2.11778 3.03,4.77 3.03,7.95667c0,3.18667 -1.01,5.83889 -3.03,7.95667c-2.02,2.12 -4.59444,3.18 -7.72333,3.18c-3.12889,0 -5.70222,-1.06 -7.72,-3.18c-2.02,-2.11778 -3.03,-4.77 -3.03,-7.95667c0,-3.18667 1.01,-5.83889 3.03,-7.95667zM140.09333,347.03c1.35111,1.38 2.95111,2.07 4.8,2.07c1.84889,0 3.44889,-0.69 4.8,-2.07c1.35111,-1.38 2.02667,-3.20778 2.02667,-5.48333c0,-2.27556 -0.67556,-4.10333 -2.02667,-5.48333c-1.35111,-1.38 -2.95111,-2.07 -4.8,-2.07c-1.84889,0 -3.44889,0.69 -4.8,2.07c-1.35111,1.38 -2.02667,3.20778 -2.02667,5.48333c0,2.27556 0.67556,4.10333 2.02667,5.48333z"/>
      <path d="M177.15,331.09333v20.90667h-3.75333v-2.9h-0.17c-0.59778,0.99556 -1.50889,1.84111 -2.73333,2.53667c-1.22222,0.69778 -2.51556,1.04667 -3.88,1.04667v0c-2.61778,0 -4.60222,-0.79667 -5.95333,-2.39c-1.35111,-1.59333 -2.02667,-3.72667 -2.02667,-6.4v0v-12.8h3.92667v12.16c0,3.89778 1.72,5.84667 5.16,5.84667v0c1.62222,0 2.94556,-0.65444 3.97,-1.96333c1.02444,-1.30889 1.53667,-2.81667 1.53667,-4.52333v0v-11.52z"/>
      <path d="M190.25,352.68333v0c-2.70222,0 -5.03444,-1.06667 -6.99667,-3.2c-1.96444,-2.13333 -2.94667,-4.77889 -2.94667,-7.93667c0,-3.15778 0.98222,-5.80333 2.94667,-7.93667c1.96222,-2.13333 4.29444,-3.2 6.99667,-3.2v0c1.59333,0 3.02222,0.34111 4.28667,1.02333c1.26667,0.68444 2.21222,1.53778 2.83667,2.56v0h0.17333l-0.17333,-2.9v-9.64333h3.92667v30.55h-3.75333v-2.9h-0.17333c-0.62444,1.02222 -1.57,1.87556 -2.83667,2.56c-1.26444,0.68222 -2.69333,1.02333 -4.28667,1.02333zM190.89,349.1v0c1.84889,0 3.42,-0.68333 4.71333,-2.05c1.29556,-1.36444 1.94333,-3.19889 1.94333,-5.50333c0,-2.30444 -0.64778,-4.13889 -1.94333,-5.50333c-1.29333,-1.36667 -2.86444,-2.05 -4.71333,-2.05v0c-1.82,0 -3.38444,0.69 -4.69333,2.07c-1.30889,1.38 -1.96333,3.20778 -1.96333,5.48333c0,2.27556 0.65444,4.10333 1.96333,5.48333c1.30889,1.38 2.87333,2.07 4.69333,2.07z"/>
      <path d=""/>
      <path d="M220.07333,352h-3.92667v-30.55h3.92667l10.62333,18.60333h0.17l10.62667,-18.60333h3.92333v30.55h-3.92333v-18.13333l0.17,-5.12h-0.17l-9.56,16.76667h-2.30333l-9.55667,-16.76667h-0.17l0.17,5.12z"/>
      <path d="M259.92333,352.68333v0c-3.15778,0 -5.72444,-1.05222 -7.7,-3.15667c-1.97778,-2.10667 -2.96667,-4.76667 -2.96667,-7.98v0c0,-3.04444 0.96,-5.66111 2.88,-7.85c1.92,-2.19111 4.37333,-3.28667 7.36,-3.28667v0c3.1,0 5.58222,1.01 7.44667,3.03c1.86222,2.02 2.79333,4.72222 2.79333,8.10667v0l-0.04333,0.72667h-16.51c0.11333,2.10444 0.81667,3.76778 2.11,4.99c1.29556,1.22444 2.81111,1.83667 4.54667,1.83667v0c2.81556,0 4.72111,-1.19556 5.71667,-3.58667v0l3.49667,1.45333c-0.68222,1.62 -1.80556,2.97778 -3.37,4.07333c-1.56444,1.09556 -3.48444,1.64333 -5.76,1.64333zM253.44,339.03h12.11667c-0.08667,-1.19556 -0.63444,-2.33333 -1.64333,-3.41333c-1.00889,-1.08222 -2.50889,-1.62333 -4.5,-1.62333v0c-1.45111,0 -2.71,0.45556 -3.77667,1.36667c-1.06667,0.91111 -1.79889,2.13444 -2.19667,3.67z"/>
      <path d="M280.66,352.68333v0c-2.33333,0 -4.26,-0.56889 -5.78,-1.70667c-1.52222,-1.13778 -2.63889,-2.56 -3.35,-4.26667v0l3.49667,-1.45c1.11111,2.61556 3.00333,3.92333 5.67667,3.92333v0c1.22222,0 2.22444,-0.27 3.00667,-0.81c0.78222,-0.54 1.17333,-1.25111 1.17333,-2.13333v0c0,-1.36444 -0.95222,-2.28889 -2.85667,-2.77333v0l-4.22667,-1.02333c-1.33556,-0.34222 -2.60111,-0.99 -3.79667,-1.94333c-1.19333,-0.95111 -1.79,-2.23778 -1.79,-3.86v0c0,-1.84889 0.81778,-3.34889 2.45333,-4.5c1.63556,-1.15333 3.57667,-1.73 5.82333,-1.73v0c1.84889,0 3.49889,0.42 4.95,1.26c1.44889,0.83778 2.48667,2.03889 3.11333,3.60333v0l-3.41333,1.41c-0.76889,-1.84889 -2.36222,-2.77333 -4.78,-2.77333v0c-1.16444,0 -2.14556,0.24111 -2.94333,0.72333c-0.79556,0.48444 -1.19333,1.13889 -1.19333,1.96333v0c0,1.19556 0.92444,2.00667 2.77333,2.43333v0l4.13667,0.98c1.96444,0.45556 3.41556,1.23778 4.35333,2.34667c0.93778,1.10889 1.40667,2.36111 1.40667,3.75667v0c0,1.87556 -0.76778,3.44 -2.30333,4.69333c-1.53556,1.25111 -3.51222,1.87667 -5.93,1.87667z"/>
      <path d="M299.64667,352.68333v0c-2.33333,0 -4.26,-0.56889 -5.78,-1.70667c-1.52222,-1.13778 -2.63889,-2.56 -3.35,-4.26667v0l3.49667,-1.45c1.11111,2.61556 3.00333,3.92333 5.67667,3.92333v0c1.22222,0 2.22444,-0.27 3.00667,-0.81c0.78222,-0.54 1.17333,-1.25111 1.17333,-2.13333v0c0,-1.36444 -0.95222,-2.28889 -2.85667,-2.77333v0l-4.22667,-1.02333c-1.33556,-0.34222 -2.60111,-0.99 -3.79667,-1.94333c-1.19333,-0.95111 -1.79,-2.23778 -1.79,-3.86v0c0,-1.84889 0.81778,-3.34889 2.45333,-4.5c1.63556,-1.15333 3.57667,-1.73 5.82333,-1.73v0c1.84889,0 3.49889,0.42 4.95,1.26c1.44889,0.83778 2.48667,2.03889 3.11333,3.60333v0l-3.41333,1.41c-0.76889,-1.84889 -2.36222,-2.77333 -4.78,-2.77333v0c-1.16444,0 -2.14556,0.24111 -2.94333,0.72333c-0.79556,0.48444 -1.19333,1.13889 -1.19333,1.96333v0c0,1.19556 0.92444,2.00667 2.77333,2.43333v0l4.13667,0.98c1.96444,0.45556 3.41556,1.23778 4.35333,2.34667c0.93778,1.10889 1.40667,2.36111 1.40667,3.75667v0c0,1.87556 -0.76778,3.44 -2.30333,4.69333c-1.53556,1.25111 -3.51222,1.87667 -5.93,1.87667z"/>
      <path d="M318.12,352.68333v0c-2.21778,0 -4.07333,-0.64 -5.56667,-1.92c-1.49333,-1.28 -2.24,-2.97222 -2.24,-5.07667v0c0,-2.27556 0.88222,-4.06111 2.64667,-5.35667c1.76222,-1.29333 3.93778,-1.94 6.52667,-1.94v0c2.30444,0 4.19556,0.42667 5.67333,1.28v0v-0.59667c0,-1.53778 -0.52556,-2.76889 -1.57667,-3.69333c-1.05333,-0.92444 -2.34778,-1.38667 -3.88333,-1.38667v0c-1.13778,0 -2.16889,0.27111 -3.09333,0.81333c-0.92444,0.54 -1.55778,1.27889 -1.9,2.21667v0l-3.58333,-1.53667c0.48444,-1.25111 1.43778,-2.41 2.86,-3.47667c1.42222,-1.06667 3.29889,-1.6 5.63,-1.6v0c2.67556,0 4.89444,0.78222 6.65667,2.34667c1.76444,1.56444 2.64667,3.76889 2.64667,6.61333v0v12.63h-3.75667v-2.9h-0.17c-1.56444,2.38889 -3.85444,3.58333 -6.87,3.58333zM318.76,349.1v0c1.62222,0 3.09444,-0.60444 4.41667,-1.81333c1.32222,-1.20889 1.98333,-2.63889 1.98333,-4.29v0c-1.10889,-0.90889 -2.77222,-1.36333 -4.99,-1.36333v0c-1.90667,0 -3.34333,0.41222 -4.31,1.23667c-0.96667,0.82444 -1.45,1.79111 -1.45,2.9v0c0,1.02444 0.44111,1.83556 1.32333,2.43333c0.88,0.59778 1.88889,0.89667 3.02667,0.89667z"/>
      <path d="M342.22667,361.9v0c-2.47333,0 -4.49222,-0.61889 -6.05667,-1.85667c-1.56444,-1.23778 -2.68778,-2.65333 -3.37,-4.24667v0l3.58333,-1.49333c0.39778,1.13778 1.13,2.09111 2.19667,2.86c1.06667,0.76667 2.28222,1.15 3.64667,1.15v0c2.16222,0 3.86222,-0.64667 5.1,-1.94c1.23778,-1.29333 1.85667,-3.05 1.85667,-5.27v0v-2.00333h-0.17c-0.68444,1.02222 -1.65222,1.87556 -2.90333,2.56c-1.25111,0.68222 -2.65889,1.02333 -4.22333,1.02333v0c-2.70222,0 -5.03444,-1.06667 -6.99667,-3.2c-1.96222,-2.13333 -2.94333,-4.77889 -2.94333,-7.93667c0,-3.15778 0.98111,-5.80333 2.94333,-7.93667c1.96222,-2.13333 4.29444,-3.2 6.99667,-3.2v0c1.56444,0 2.97222,0.34111 4.22333,1.02333c1.25111,0.68444 2.21889,1.53778 2.90333,2.56v0h0.17v-2.9h3.75333v19.84c0,3.58444 -1.03778,6.30778 -3.11333,8.17c-2.07778,1.86444 -4.61,2.79667 -7.59667,2.79667zM342.52667,349.1v0c1.84889,0 3.42,-0.68333 4.71333,-2.05c1.29556,-1.36444 1.94333,-3.19889 1.94333,-5.50333c0,-2.30444 -0.64778,-4.13889 -1.94333,-5.50333c-1.29333,-1.36667 -2.86444,-2.05 -4.71333,-2.05v0c-1.82,0 -3.38444,0.69 -4.69333,2.07c-1.30889,1.38 -1.96333,3.20778 -1.96333,5.48333c0,2.27556 0.65444,4.10333 1.96333,5.48333c1.30889,1.38 2.87333,2.07 4.69333,2.07z"/>
      <path d="M361.34333,325.84667c-0.54,0.54 -1.19444,0.81 -1.96333,0.81c-0.76889,0 -1.42333,-0.27 -1.96333,-0.81c-0.54,-0.54222 -0.81,-1.19667 -0.81,-1.96333c0,-0.76889 0.27,-1.42333 0.81,-1.96333c0.54,-0.54 1.19444,-0.81 1.96333,-0.81c0.76889,0 1.42333,0.27 1.96333,0.81c0.54,0.54 0.81,1.19444 0.81,1.96333c0,0.76667 -0.27,1.42111 -0.81,1.96333zM361.34333,331.09333v20.90667h-3.92667v-20.90667z"/>
      <path d="M366.03667,331.09333h3.75333v2.9h0.17c0.56889,-0.99556 1.46556,-1.84111 2.69,-2.53667c1.22222,-0.69778 2.53,-1.04667 3.92333,-1.04667v0c2.58889,0 4.56667,0.79667 5.93333,2.39c1.36444,1.59333 2.04667,3.72667 2.04667,6.4v0v12.8h-3.92667v-12.20333c0,-3.86889 -1.72,-5.80333 -5.16,-5.80333v0c-1.62222,0 -2.94556,0.64778 -3.97,1.94333c-1.02444,1.29333 -1.53667,2.79333 -1.53667,4.5v0v11.56333h-3.92333z"/>
      <path d="M397.82333,361.9v0c-2.47556,0 -4.49556,-0.61889 -6.06,-1.85667c-1.56444,-1.23778 -2.68778,-2.65333 -3.37,-4.24667v0l3.58333,-1.49333c0.39778,1.13778 1.13,2.09111 2.19667,2.86c1.06667,0.76667 2.28333,1.15 3.65,1.15v0c2.16222,0 3.86111,-0.64667 5.09667,-1.94c1.23778,-1.29333 1.85667,-3.05 1.85667,-5.27v0v-2.00333h-0.17c-0.68222,1.02222 -1.64889,1.87556 -2.9,2.56c-1.25333,0.68222 -2.66222,1.02333 -4.22667,1.02333v0c-2.70222,0 -5.03444,-1.06667 -6.99667,-3.2c-1.96222,-2.13333 -2.94333,-4.77889 -2.94333,-7.93667c0,-3.15778 0.98111,-5.80333 2.94333,-7.93667c1.96222,-2.13333 4.29444,-3.2 6.99667,-3.2v0c1.56444,0 2.97333,0.34111 4.22667,1.02333c1.25111,0.68444 2.21778,1.53778 2.9,2.56v0h0.17v-2.9h3.75667v19.84c0,3.58444 -1.03889,6.30778 -3.11667,8.17c-2.07556,1.86444 -4.60667,2.79667 -7.59333,2.79667zM398.12,349.1v0c1.84889,0 3.42111,-0.68333 4.71667,-2.05c1.29333,-1.36444 1.94,-3.19889 1.94,-5.50333c0,-2.30444 -0.64667,-4.13889 -1.94,-5.50333c-1.29556,-1.36667 -2.86778,-2.05 -4.71667,-2.05v0c-1.82,0 -3.38444,0.69 -4.69333,2.07c-1.30667,1.38 -1.96,3.20778 -1.96,5.48333c0,2.27556 0.65333,4.10333 1.96,5.48333c1.30889,1.38 2.87333,2.07 4.69333,2.07z"/>
    </g>
  </g>
</svg>
