<svg version="1.1" xmlns="http://www.w3.org/2000/svg" xmlns:xlink="http://www.w3.org/1999/xlink" width="1401.6" height="448" viewBox="0 0 1401.6 448">
  <g fill="none" stroke="none" stroke-width="1" stroke-linecap="butt" stroke-linejoin="miter" stroke-dasharray="" stroke-dashoffset="0">
    <rect x="0" y="0" width="1401.6" height="448" fill="none" fill-rule="nonzero"/>
    <circle cx="192" cy="224" r="96" fill="#ffca28" fill-rule="nonzero"/>
    <g fill="#3c4043" fill-rule="evenodd">
      <path d="M145.33333,225.4c0,9.8 7.93333,17.73333 17.73333,17.73333h19.6v8.86667h-19.6c-14.46667,0 -26.13333,-11.66667 -26.13333,-26.13333c0,-13.53333 10.26667,-24.73333 23.33333,-26.13333c5.6,-10.26667 16.33333,-17.73333 28.93333,-17.73333c16.33333,0 29.4,11.2 32.66667,25.66667c11.66667,0.93333 20.53333,10.26667 20.53333,21.93333c0,0.93333 -0.46667,1.4 -0.46667,2.33333l-8.86667,-3.73333c-0.93333,-6.53333 -6.06667,-11.66667 -13.06667,-11.66667h-6.06667v-2.33333c0,-13.53333 -10.73333,-24.26667 -24.26667,-24.26667c-11.2,0 -20.53333,7.46667 -23.33333,17.73333h-3.26667c-9.8,0 -17.73333,7.93333 -17.73333,17.73333zM192,253.54l42,-6.20667l-42,-6.25333v-17.08l56,23.57133l-56,23.09533z"/>
    </g>
    <g fill="#5f6368" fill-rule="nonzero">
      <path d="M383.61,274.05v0c-13.48,0 -24.78667,-4.56667 -33.92,-13.7c-9.12667,-9.12667 -13.69,-20.51667 -13.69,-34.17c0,-13.65333 4.56333,-25.04667 13.69,-34.18c9.13333,-9.13333 20.44,-13.7 33.92,-13.7v0c13.82667,0 25.05,4.99333 33.67,14.98v0l-8.2,7.94c-6.22667,-7.76667 -14.71667,-11.65 -25.47,-11.65v0c-9.98,0 -18.40667,3.37 -25.28,10.11c-6.86667,6.74 -10.3,15.57333 -10.3,26.5c0,10.92 3.43333,19.75 10.3,26.49c6.87333,6.74 15.3,10.11 25.28,10.11v0c11.00667,0 20.39333,-4.43667 28.16,-13.31v0l8.19,8.19c-4.18,5.04 -9.42667,9.03 -15.74,11.97c-6.31333,2.94667 -13.18333,4.42 -20.61,4.42z"/>
      <path d="M440.96,180.35v91.65h-11.78v-91.65z"/>
      <path d="M459.52,216.77c6.05333,-6.36 13.77333,-9.54 23.16,-9.54c9.38667,0 17.11,3.18 23.17,9.54c6.06,6.35333 9.09,14.31 9.09,23.87c0,9.56 -3.03,17.51667 -9.09,23.87c-6.06,6.36 -13.78333,9.54 -23.17,9.54c-9.38667,0 -17.10667,-3.18 -23.16,-9.54c-6.06,-6.35333 -9.09,-14.31 -9.09,-23.87c0,-9.56 3.03,-17.51667 9.09,-23.87zM468.28,257.09c4.05333,4.14 8.85333,6.21 14.4,6.21c5.54667,0 10.34667,-2.07 14.4,-6.21c4.05333,-4.14 6.08,-9.62333 6.08,-16.45c0,-6.82667 -2.02667,-12.31 -6.08,-16.45c-4.05333,-4.14 -8.85333,-6.21 -14.4,-6.21c-5.54667,0 -10.34667,2.07 -14.4,6.21c-4.05333,4.14 -6.08,9.62333 -6.08,16.45c0,6.82667 2.02667,12.31 6.08,16.45z"/>
      <path d="M579.45,209.28v62.72h-11.26v-8.7h-0.51c-1.79333,2.98667 -4.52667,5.52333 -8.2,7.61c-3.66667,2.09333 -7.54667,3.14 -11.64,3.14v0c-7.85333,0 -13.80667,-2.39 -17.86,-7.17c-4.05333,-4.78 -6.08,-11.18 -6.08,-19.2v0v-38.4h11.78v36.48c0,11.69333 5.16,17.54 15.48,17.54v0c4.86667,0 8.83667,-1.96333 11.91,-5.89c3.07333,-3.92667 4.61,-8.45 4.61,-13.57v0v-34.56z"/>
      <path d="M618.75,274.05v0c-8.10667,0 -15.10333,-3.2 -20.99,-9.6c-5.89333,-6.4 -8.84,-14.33667 -8.84,-23.81c0,-9.47333 2.94667,-17.41 8.84,-23.81c5.88667,-6.4 12.88333,-9.6 20.99,-9.6v0c4.78,0 9.06667,1.02333 12.86,3.07c3.8,2.05333 6.63667,4.61333 8.51,7.68v0h0.52l-0.52,-8.7v-28.93h11.78v91.65h-11.26v-8.7h-0.52c-1.87333,3.06667 -4.71,5.62667 -8.51,7.68c-3.79333,2.04667 -8.08,3.07 -12.86,3.07zM620.67,263.3v0c5.54667,0 10.26,-2.05 14.14,-6.15c3.88667,-4.09333 5.83,-9.59667 5.83,-16.51c0,-6.91333 -1.94333,-12.41667 -5.83,-16.51c-3.88,-4.1 -8.59333,-6.15 -14.14,-6.15v0c-5.46,0 -10.15333,2.07 -14.08,6.21c-3.92667,4.14 -5.89,9.62333 -5.89,16.45c0,6.82667 1.96333,12.31 5.89,16.45c3.92667,4.14 8.62,6.21 14.08,6.21z"/>
      <path d=""/>
      <path d="M708.22,272h-11.78v-91.65h11.78l31.87,55.81h0.51l31.88,-55.81h11.77v91.65h-11.77v-54.4l0.51,-15.36h-0.51l-28.68,50.3h-6.91l-28.67,-50.3h-0.51l0.51,15.36z"/>
      <path d="M827.77,274.05v0c-9.47333,0 -17.17333,-3.15667 -23.1,-9.47c-5.93333,-6.32 -8.9,-14.3 -8.9,-23.94v0c0,-9.13333 2.88,-16.98333 8.64,-23.55c5.76,-6.57333 13.12,-9.86 22.08,-9.86v0c9.3,0 16.74667,3.03 22.34,9.09c5.58667,6.06 8.38,14.16667 8.38,24.32v0l-0.13,2.18h-49.53c0.34,6.31333 2.45,11.30333 6.33,14.97c3.88667,3.67333 8.43333,5.51 13.64,5.51v0c8.44667,0 14.16333,-3.58667 17.15,-10.76v0l10.49,4.36c-2.04667,4.86 -5.41667,8.93333 -10.11,12.22c-4.69333,3.28667 -10.45333,4.93 -17.28,4.93zM808.32,233.09h36.35c-0.26,-3.58667 -1.90333,-7 -4.93,-10.24c-3.02667,-3.24667 -7.52667,-4.87 -13.5,-4.87v0c-4.35333,0 -8.13,1.36667 -11.33,4.1c-3.2,2.73333 -5.39667,6.40333 -6.59,11.01z"/>
      <path d="M889.98,274.05v0c-7,0 -12.78,-1.70667 -17.34,-5.12c-4.56667,-3.41333 -7.91667,-7.68 -10.05,-12.8v0l10.49,-4.35c3.33333,7.84667 9.01,11.77 17.03,11.77v0c3.66667,0 6.67333,-0.81 9.02,-2.43c2.34667,-1.62 3.52,-3.75333 3.52,-6.4v0c0,-4.09333 -2.85667,-6.86667 -8.57,-8.32v0l-12.68,-3.07c-4.00667,-1.02667 -7.80333,-2.97 -11.39,-5.83c-3.58,-2.85333 -5.37,-6.71333 -5.37,-11.58v0c0,-5.54667 2.45333,-10.04667 7.36,-13.5c4.90667,-3.46 10.73,-5.19 17.47,-5.19v0c5.54667,0 10.49667,1.26 14.85,3.78c4.34667,2.51333 7.46,6.11667 9.34,10.81v0l-10.24,4.23c-2.30667,-5.54667 -7.08667,-8.32 -14.34,-8.32v0c-3.49333,0 -6.43667,0.72333 -8.83,2.17c-2.38667,1.45333 -3.58,3.41667 -3.58,5.89v0c0,3.58667 2.77333,6.02 8.32,7.3v0l12.41,2.94c5.89333,1.36667 10.24667,3.71333 13.06,7.04c2.81333,3.32667 4.22,7.08333 4.22,11.27v0c0,5.62667 -2.30333,10.32 -6.91,14.08c-4.60667,3.75333 -10.53667,5.63 -17.79,5.63z"/>
      <path d="M946.94,274.05v0c-7,0 -12.78,-1.70667 -17.34,-5.12c-4.56667,-3.41333 -7.91667,-7.68 -10.05,-12.8v0l10.49,-4.35c3.33333,7.84667 9.01,11.77 17.03,11.77v0c3.66667,0 6.67333,-0.81 9.02,-2.43c2.34667,-1.62 3.52,-3.75333 3.52,-6.4v0c0,-4.09333 -2.85667,-6.86667 -8.57,-8.32v0l-12.68,-3.07c-4.00667,-1.02667 -7.80333,-2.97 -11.39,-5.83c-3.58,-2.85333 -5.37,-6.71333 -5.37,-11.58v0c0,-5.54667 2.45333,-10.04667 7.36,-13.5c4.90667,-3.46 10.73,-5.19 17.47,-5.19v0c5.54667,0 10.49667,1.26 14.85,3.78c4.34667,2.51333 7.46,6.11667 9.34,10.81v0l-10.24,4.23c-2.30667,-5.54667 -7.08667,-8.32 -14.34,-8.32v0c-3.49333,0 -6.43667,0.72333 -8.83,2.17c-2.38667,1.45333 -3.58,3.41667 -3.58,5.89v0c0,3.58667 2.77333,6.02 8.32,7.3v0l12.41,2.94c5.89333,1.36667 10.24667,3.71333 13.06,7.04c2.81333,3.32667 4.22,7.08333 4.22,11.27v0c0,5.62667 -2.30333,10.32 -6.91,14.08c-4.60667,3.75333 -10.53667,5.63 -17.79,5.63z"/>
      <path d="M1002.36,274.05v0c-6.65333,0 -12.22,-1.92 -16.7,-5.76c-4.48,-3.84 -6.72,-8.91667 -6.72,-15.23v0c0,-6.82667 2.64667,-12.18333 7.94,-16.07c5.28667,-3.88 11.81333,-5.82 19.58,-5.82v0c6.91333,0 12.58667,1.28 17.02,3.84v0v-1.79c0,-4.61333 -1.57667,-8.30667 -4.73,-11.08c-3.16,-2.77333 -7.04333,-4.16 -11.65,-4.16v0c-3.41333,0 -6.50667,0.81333 -9.28,2.44c-2.77333,1.62 -4.67333,3.83667 -5.7,6.65v0l-10.75,-4.61c1.45333,-3.75333 4.31333,-7.23 8.58,-10.43c4.26667,-3.2 9.89667,-4.8 16.89,-4.8v0c8.02667,0 14.68333,2.34667 19.97,7.04c5.29333,4.69333 7.94,11.30667 7.94,19.84v0v37.89h-11.27v-8.7h-0.51c-4.69333,7.16667 -11.56333,10.75 -20.61,10.75zM1004.28,263.3v0c4.86667,0 9.28333,-1.81333 13.25,-5.44c3.96667,-3.62667 5.95,-7.91667 5.95,-12.87v0c-3.32667,-2.72667 -8.31667,-4.09 -14.97,-4.09v0c-5.72,0 -10.03,1.23667 -12.93,3.71c-2.9,2.47333 -4.35,5.37333 -4.35,8.7v0c0,3.07333 1.32333,5.50667 3.97,7.3c2.64,1.79333 5.66667,2.69 9.08,2.69z"/>
      <path d="M1074.68,301.7v0c-7.42,0 -13.47667,-1.85667 -18.17,-5.57c-4.69333,-3.71333 -8.06333,-7.96 -10.11,-12.74v0l10.75,-4.48c1.19333,3.41333 3.39,6.27333 6.59,8.58c3.2,2.3 6.84667,3.45 10.94,3.45v0c6.48667,0 11.58667,-1.94 15.3,-5.82c3.71333,-3.88 5.57,-9.15 5.57,-15.81v0v-6.01h-0.51c-2.05333,3.06667 -4.95667,5.62667 -8.71,7.68c-3.75333,2.04667 -7.97667,3.07 -12.67,3.07v0c-8.10667,0 -15.10333,-3.2 -20.99,-9.6c-5.88667,-6.4 -8.83,-14.33667 -8.83,-23.81c0,-9.47333 2.94333,-17.41 8.83,-23.81c5.88667,-6.4 12.88333,-9.6 20.99,-9.6v0c4.69333,0 8.91667,1.02333 12.67,3.07c3.75333,2.05333 6.65667,4.61333 8.71,7.68v0h0.51v-8.7h11.26v59.52c0,10.75333 -3.11333,18.92333 -9.34,24.51c-6.23333,5.59333 -13.83,8.39 -22.79,8.39zM1075.58,263.3v0c5.54667,0 10.26,-2.05 14.14,-6.15c3.88667,-4.09333 5.83,-9.59667 5.83,-16.51c0,-6.91333 -1.94333,-12.41667 -5.83,-16.51c-3.88,-4.1 -8.59333,-6.15 -14.14,-6.15v0c-5.46,0 -10.15333,2.07 -14.08,6.21c-3.92667,4.14 -5.89,9.62333 -5.89,16.45c0,6.82667 1.96333,12.31 5.89,16.45c3.92667,4.14 8.62,6.21 14.08,6.21z"/>
      <path d="M1132.03,193.54c-1.62,1.62 -3.58333,2.43 -5.89,2.43c-2.30667,0 -4.27,-0.81 -5.89,-2.43c-1.62,-1.62667 -2.43,-3.59 -2.43,-5.89c0,-2.30667 0.81,-4.27 2.43,-5.89c1.62,-1.62 3.58333,-2.43 5.89,-2.43c2.30667,0 4.27,0.81 5.89,2.43c1.62,1.62 2.43,3.58333 2.43,5.89c0,2.3 -0.81,4.26333 -2.43,5.89zM1132.03,209.28v62.72h-11.78v-62.72z"/>
      <path d="M1146.11,209.28h11.26v8.7h0.51c1.70667,-2.98667 4.39667,-5.52333 8.07,-7.61c3.66667,-2.09333 7.59,-3.14 11.77,-3.14v0c7.76667,0 13.7,2.39 17.8,7.17c4.09333,4.78 6.14,11.18 6.14,19.2v0v38.4h-11.78v-36.61c0,-11.60667 -5.16,-17.41 -15.48,-17.41v0c-4.86667,0 -8.83667,1.94333 -11.91,5.83c-3.07333,3.88 -4.61,8.38 -4.61,13.5v0v34.69h-11.77z"/>
      <path d="M1241.47,301.7v0c-7.42667,0 -13.48667,-1.85667 -18.18,-5.57c-4.69333,-3.71333 -8.06333,-7.96 -10.11,-12.74v0l10.75,-4.48c1.19333,3.41333 3.39,6.27333 6.59,8.58c3.2,2.3 6.85,3.45 10.95,3.45v0c6.48667,0 11.58333,-1.94 15.29,-5.82c3.71333,-3.88 5.57,-9.15 5.57,-15.81v0v-6.01h-0.51c-2.04667,3.06667 -4.94667,5.62667 -8.7,7.68c-3.76,2.04667 -7.98667,3.07 -12.68,3.07v0c-8.10667,0 -15.10333,-3.2 -20.99,-9.6c-5.88667,-6.4 -8.83,-14.33667 -8.83,-23.81c0,-9.47333 2.94333,-17.41 8.83,-23.81c5.88667,-6.4 12.88333,-9.6 20.99,-9.6v0c4.69333,0 8.92,1.02333 12.68,3.07c3.75333,2.05333 6.65333,4.61333 8.7,7.68v0h0.51v-8.7h11.27v59.52c0,10.75333 -3.11667,18.92333 -9.35,24.51c-6.22667,5.59333 -13.82,8.39 -22.78,8.39zM1242.36,263.3v0c5.54667,0 10.26333,-2.05 14.15,-6.15c3.88,-4.09333 5.82,-9.59667 5.82,-16.51c0,-6.91333 -1.94,-12.41667 -5.82,-16.51c-3.88667,-4.1 -8.60333,-6.15 -14.15,-6.15v0c-5.46,0 -10.15333,2.07 -14.08,6.21c-3.92,4.14 -5.88,9.62333 -5.88,16.45c0,6.82667 1.96,12.31 5.88,16.45c3.92667,4.14 8.62,6.21 14.08,6.21z"/>
    </g>
  </g>
</svg>
