<svg height="192" viewBox="0 0 192 192" width="192" xmlns="http://www.w3.org/2000/svg"><g fill="none"><path d="m0 0h192v192h-192z" fill="none"/><circle cx="96" cy="96" fill="#ffca28" r="96"/><path d="m49.33333 97.4c0 9.8 7.93333 17.73333 17.73333 17.73333h19.6v8.86667h-19.6c-14.46667 0-26.13333-11.66667-26.13333-26.13333 0-13.53333 10.26667-24.73333 23.33333-26.13333 5.6-10.26667 16.33333-17.73333 28.93333-17.73333 16.33333 0 29.4 11.2 32.66667 25.66667 11.66667.93333 20.53333 10.26667 20.53333 21.93333 0 .93333-.46667 1.4-.46667 2.33333l-8.86667-3.73333c-.93333-6.53333-6.06667-11.66667-13.06667-11.66667h-6.06667v-2.33333c0-13.53333-10.73333-24.26667-24.26667-24.26667-11.2 0-20.53333 7.46667-23.33333 17.73333h-3.26667c-9.8 0-17.73333 7.93333-17.73333 17.73333zm46.66667 28.14 42-6.20667-42-6.25333v-17.08l56 23.57133-56 23.09533z" fill="#3c4043" fill-rule="evenodd"/></g></svg>