<svg version="1.1" xmlns="http://www.w3.org/2000/svg" xmlns:xlink="http://www.w3.org/1999/xlink" width="1421.44" height="448" viewBox="0 0 1421.44 448">
  <g fill="none" stroke="none" stroke-width="1" stroke-linecap="butt" stroke-linejoin="miter" stroke-dasharray="" stroke-dashoffset="0">
    <rect x="0" y="0" width="1421.44" height="448" fill="none" fill-rule="nonzero"/>
    <circle cx="192" cy="224" r="96" fill="#ffca28" fill-rule="nonzero"/>
    <g fill="#3c4043" fill-rule="evenodd">
      <path d="M192,172.66667c4.63867,0 8.4,3.72867 8.4,8.32533c0,3.62133 -2.33333,6.70133 -5.59533,7.84933l-0.00467,11.82533h20.53333c10.30932,0 18.66667,8.35735 18.66667,18.66667h2.33333c2.57733,0 4.66667,2.08934 4.66667,4.66667v18.41467c0,2.57733 -2.08934,4.66667 -4.66667,4.66667l-2.33333,-0.00467v4.92333c0,10.30932 -8.35735,18.66667 -18.66667,18.66667h-46.66667c-10.30932,0 -18.66667,-8.35735 -18.66667,-18.66667v-4.92333h-2.33333c-2.57733,0 -4.66667,-2.08934 -4.66667,-4.66667v-18.41c0,-2.57733 2.08934,-4.66667 4.66667,-4.66667h2.33333c0,-10.30932 8.35735,-18.66667 18.66667,-18.66667h20.53333v-11.82533c-3.10845,-1.08134 -5.29086,-3.88887 -5.572,-7.168l-0.028,-0.68133c0,-4.59667 3.76133,-8.32533 8.4,-8.32533zM215.33333,210h-46.66667c-4.88425,-0.00155 -8.94368,3.76284 -9.31,8.63333l-0.02333,0.7v32.66667c-0.00155,4.88425 3.76284,8.94368 8.63333,9.31l0.7,0.02333h46.66667c4.88425,0.00155 8.94368,-3.76284 9.31,-8.63333l0.02333,-0.7v-32.66667c0.00155,-4.88425 -3.76284,-8.94368 -8.63333,-9.31zM203.66667,247.33333l-3.86867,9.33333h-15.53533l-3.92933,-9.33333zM215.33333,224v18.66667h-9.33333v-18.66667zM178,224v18.66667h-9.33333v-18.66667z"/>
    </g>
    <g fill="#5f6368" fill-rule="nonzero">
      <path d="M347.77,272h-11.77v-91.65h11.77l31.87,55.81h0.52l31.87,-55.81h11.77v91.65h-11.77v-54.4l0.51,-15.36h-0.51l-28.67,50.3h-6.92l-28.67,-50.3h-0.51l0.51,15.36z"/>
      <path d="M458.75,274.05v0c-6.66,0 -12.23,-1.92 -16.71,-5.76c-4.48,-3.84 -6.72,-8.91667 -6.72,-15.23v0c0,-6.82667 2.64667,-12.18333 7.94,-16.07c5.29333,-3.88 11.82,-5.82 19.58,-5.82v0c6.91333,0 12.59,1.28 17.03,3.84v0v-1.79c0,-4.61333 -1.58,-8.30667 -4.74,-11.08c-3.15333,-2.77333 -7.03667,-4.16 -11.65,-4.16v0c-3.41333,0 -6.50667,0.81333 -9.28,2.44c-2.77333,1.62 -4.67,3.83667 -5.69,6.65v0l-10.75,-4.61c1.44667,-3.75333 4.30333,-7.23 8.57,-10.43c4.26667,-3.2 9.9,-4.8 16.9,-4.8v0c8.02,0 14.67667,2.34667 19.97,7.04c5.28667,4.69333 7.93,11.30667 7.93,19.84v0v37.89h-11.26v-8.7h-0.51c-4.69333,7.16667 -11.56333,10.75 -20.61,10.75zM460.67,263.3v0c4.86,0 9.27667,-1.81333 13.25,-5.44c3.96667,-3.62667 5.95,-7.91667 5.95,-12.87v0c-3.32667,-2.72667 -8.32,-4.09 -14.98,-4.09v0c-5.71333,0 -10.02333,1.23667 -12.93,3.71c-2.9,2.47333 -4.35,5.37333 -4.35,8.7v0c0,3.07333 1.32333,5.50667 3.97,7.3c2.64667,1.79333 5.67667,2.69 9.09,2.69z"/>
      <path d="M532.48,274.05v0c-9.38667,0 -17.11,-3.18 -23.17,-9.54c-6.06,-6.35333 -9.09,-14.31 -9.09,-23.87c0,-9.56 3.03,-17.51667 9.09,-23.87c6.06,-6.36 13.78333,-9.54 23.17,-9.54v0c6.99333,0 12.79333,1.70667 17.4,5.12c4.61333,3.41333 7.98667,7.72333 10.12,12.93v0l-10.76,4.48c-3.24,-7.85333 -9.08333,-11.78 -17.53,-11.78v0c-5.20667,0 -9.79333,2.13333 -13.76,6.4c-3.96667,4.26667 -5.95,9.68667 -5.95,16.26c0,6.57333 1.98333,11.99333 5.95,16.26c3.96667,4.26667 8.55333,6.4 13.76,6.4v0c8.78667,0 14.84333,-3.92667 18.17,-11.78v0l10.5,4.48c-2.13333,5.12 -5.56667,9.40667 -10.3,12.86c-4.74,3.46 -10.60667,5.19 -17.6,5.19z"/>
      <path d="M569.34,180.35h11.78v28.93l-0.52,8.7h0.52c1.70667,-2.98667 4.39333,-5.52333 8.06,-7.61c3.66667,-2.09333 7.59333,-3.14 11.78,-3.14v0c7.76,0 13.69,2.39 17.79,7.17c4.09333,4.78 6.14,11.18 6.14,19.2v0v38.4h-11.77v-36.61c0,-11.60667 -5.16333,-17.41 -15.49,-17.41v0c-4.86667,0 -8.83667,1.94333 -11.91,5.83c-3.06667,3.88 -4.6,8.38 -4.6,13.5v0v34.69h-11.78z"/>
      <path d="M650.24,193.54c-1.62667,1.62 -3.59,2.43 -5.89,2.43c-2.30667,0 -4.27,-0.81 -5.89,-2.43c-1.62,-1.62667 -2.43,-3.59 -2.43,-5.89c0,-2.30667 0.81,-4.27 2.43,-5.89c1.62,-1.62 3.58333,-2.43 5.89,-2.43c2.3,0 4.26333,0.81 5.89,2.43c1.62,1.62 2.43,3.58333 2.43,5.89c0,2.3 -0.81,4.26333 -2.43,5.89zM650.24,209.28v62.72h-11.78v-62.72z"/>
      <path d="M664.32,209.28h11.26v8.7h0.51c1.70667,-2.98667 4.39667,-5.52333 8.07,-7.61c3.66667,-2.09333 7.59,-3.14 11.77,-3.14v0c7.76667,0 13.69667,2.39 17.79,7.17c4.1,4.78 6.15,11.18 6.15,19.2v0v38.4h-11.78v-36.61c0,-11.60667 -5.16333,-17.41 -15.49,-17.41v0c-4.86,0 -8.82667,1.94333 -11.9,5.83c-3.07333,3.88 -4.61,8.38 -4.61,13.5v0v34.69h-11.77z"/>
      <path d="M760.83,274.05v0c-9.47333,0 -17.17667,-3.15667 -23.11,-9.47c-5.92667,-6.32 -8.89,-14.3 -8.89,-23.94v0c0,-9.13333 2.88,-16.98333 8.64,-23.55c5.76,-6.57333 13.12,-9.86 22.08,-9.86v0c9.3,0 16.74333,3.03 22.33,9.09c5.59333,6.06 8.39,14.16667 8.39,24.32v0l-0.13,2.18h-49.54c0.34667,6.31333 2.46,11.30333 6.34,14.97c3.88,3.67333 8.42333,5.51 13.63,5.51v0c8.44667,0 14.16333,-3.58667 17.15,-10.76v0l10.5,4.36c-2.04667,4.86 -5.41667,8.93333 -10.11,12.22c-4.69333,3.28667 -10.45333,4.93 -17.28,4.93zM741.37,233.09h36.35c-0.25333,-3.58667 -1.89333,-7 -4.92,-10.24c-3.03333,-3.24667 -7.53667,-4.87 -13.51,-4.87v0c-4.35333,0 -8.13,1.36667 -11.33,4.1c-3.2,2.73333 -5.39667,6.40333 -6.59,11.01z"/>
      <path d=""/>
      <path d="M882.68,272h-51.45v-91.65h11.77v80.39h39.68z"/>
      <path d="M921.34,274.05v0c-9.47333,0 -17.17333,-3.15667 -23.1,-9.47c-5.93333,-6.32 -8.9,-14.3 -8.9,-23.94v0c0,-9.13333 2.88,-16.98333 8.64,-23.55c5.76,-6.57333 13.12,-9.86 22.08,-9.86v0c9.3,0 16.74667,3.03 22.34,9.09c5.58667,6.06 8.38,14.16667 8.38,24.32v0l-0.13,2.18h-49.53c0.34,6.31333 2.45,11.30333 6.33,14.97c3.88667,3.67333 8.43,5.51 13.63,5.51v0c8.45333,0 14.17333,-3.58667 17.16,-10.76v0l10.49,4.36c-2.04667,4.86 -5.41667,8.93333 -10.11,12.22c-4.69333,3.28667 -10.45333,4.93 -17.28,4.93zM901.88,233.09h36.36c-0.26,-3.58667 -1.90333,-7 -4.93,-10.24c-3.03333,-3.24667 -7.53667,-4.87 -13.51,-4.87v0c-4.34667,0 -8.12,1.36667 -11.32,4.1c-3.2,2.73333 -5.4,6.40333 -6.6,11.01z"/>
      <path d="M980.09,274.05v0c-6.65333,0 -12.22,-1.92 -16.7,-5.76c-4.48,-3.84 -6.72,-8.91667 -6.72,-15.23v0c0,-6.82667 2.64333,-12.18333 7.93,-16.07c5.29333,-3.88 11.82333,-5.82 19.59,-5.82v0c6.91333,0 12.58667,1.28 17.02,3.84v0v-1.79c0,-4.61333 -1.57667,-8.30667 -4.73,-11.08c-3.16,-2.77333 -7.04333,-4.16 -11.65,-4.16v0c-3.41333,0 -6.50667,0.81333 -9.28,2.44c-2.77333,1.62 -4.67333,3.83667 -5.7,6.65v0l-10.75,-4.61c1.45333,-3.75333 4.31333,-7.23 8.58,-10.43c4.26667,-3.2 9.89667,-4.8 16.89,-4.8v0c8.02,0 14.67667,2.34667 19.97,7.04c5.29333,4.69333 7.94,11.30667 7.94,19.84v0v37.89h-11.27v-8.7h-0.51c-4.69333,7.16667 -11.56333,10.75 -20.61,10.75zM982.01,263.3v0c4.86667,0 9.28333,-1.81333 13.25,-5.44c3.96667,-3.62667 5.95,-7.91667 5.95,-12.87v0c-3.32667,-2.72667 -8.31667,-4.09 -14.97,-4.09v0c-5.72,0 -10.03,1.23667 -12.93,3.71c-2.9,2.47333 -4.35,5.37333 -4.35,8.7v0c0,3.07333 1.32,5.50667 3.96,7.3c2.64667,1.79333 5.67667,2.69 9.09,2.69z"/>
      <path d="M1036.28,237.7v34.3h-11.77v-62.72h11.26v10.24h0.51c1.2,-3.41333 3.65333,-6.23 7.36,-8.45c3.71333,-2.22 7.32,-3.33 10.82,-3.33c3.5,0 6.44333,0.51333 8.83,1.54v0l-4.48,11.01c-1.53333,-0.6 -3.62333,-0.9 -6.27,-0.9v0c-4.26667,0 -8.04333,1.68667 -11.33,5.06c-3.28667,3.36667 -4.93,7.78333 -4.93,13.25z"/>
      <path d="M1069.69,209.28h11.27v8.7h0.51c1.70667,-2.98667 4.39333,-5.52333 8.06,-7.61c3.67333,-2.09333 7.6,-3.14 11.78,-3.14v0c7.76667,0 13.69667,2.39 17.79,7.17c4.09333,4.78 6.14,11.18 6.14,19.2v0v38.4h-11.77v-36.61c0,-11.60667 -5.16333,-17.41 -15.49,-17.41v0c-4.86667,0 -8.83333,1.94333 -11.9,5.83c-3.07333,3.88 -4.61,8.38 -4.61,13.5v0v34.69h-11.78z"/>
      <path d="M1151.87,193.54c-1.62,1.62 -3.58333,2.43 -5.89,2.43c-2.30667,0 -4.27,-0.81 -5.89,-2.43c-1.62,-1.62667 -2.43,-3.59 -2.43,-5.89c0,-2.30667 0.81,-4.27 2.43,-5.89c1.62,-1.62 3.58333,-2.43 5.89,-2.43c2.30667,0 4.27,0.81 5.89,2.43c1.62,1.62 2.43,3.58333 2.43,5.89c0,2.3 -0.81,4.26333 -2.43,5.89zM1151.87,209.28v62.72h-11.78v-62.72z"/>
      <path d="M1165.95,209.28h11.26v8.7h0.51c1.70667,-2.98667 4.39667,-5.52333 8.07,-7.61c3.66667,-2.09333 7.59,-3.14 11.77,-3.14v0c7.76667,0 13.7,2.39 17.8,7.17c4.09333,4.78 6.14,11.18 6.14,19.2v0v38.4h-11.78v-36.61c0,-11.60667 -5.16,-17.41 -15.48,-17.41v0c-4.86667,0 -8.83667,1.94333 -11.91,5.83c-3.07333,3.88 -4.61,8.38 -4.61,13.5v0v34.69h-11.77z"/>
      <path d="M1261.31,301.7v0c-7.42667,0 -13.48667,-1.85667 -18.18,-5.57c-4.69333,-3.71333 -8.06333,-7.96 -10.11,-12.74v0l10.75,-4.48c1.19333,3.41333 3.39,6.27333 6.59,8.58c3.2,2.3 6.85,3.45 10.95,3.45v0c6.48667,0 11.58333,-1.94 15.29,-5.82c3.71333,-3.88 5.57,-9.15 5.57,-15.81v0v-6.01h-0.51c-2.04667,3.06667 -4.94667,5.62667 -8.7,7.68c-3.76,2.04667 -7.98667,3.07 -12.68,3.07v0c-8.10667,0 -15.10333,-3.2 -20.99,-9.6c-5.88667,-6.4 -8.83,-14.33667 -8.83,-23.81c0,-9.47333 2.94333,-17.41 8.83,-23.81c5.88667,-6.4 12.88333,-9.6 20.99,-9.6v0c4.69333,0 8.92,1.02333 12.68,3.07c3.75333,2.05333 6.65333,4.61333 8.7,7.68v0h0.51v-8.7h11.27v59.52c0,10.75333 -3.11667,18.92333 -9.35,24.51c-6.22667,5.59333 -13.82,8.39 -22.78,8.39zM1262.2,263.3v0c5.54667,0 10.26333,-2.05 14.15,-6.15c3.88,-4.09333 5.82,-9.59667 5.82,-16.51c0,-6.91333 -1.94,-12.41667 -5.82,-16.51c-3.88667,-4.1 -8.60333,-6.15 -14.15,-6.15v0c-5.46,0 -10.15333,2.07 -14.08,6.21c-3.92,4.14 -5.88,9.62333 -5.88,16.45c0,6.82667 1.96,12.31 5.88,16.45c3.92667,4.14 8.62,6.21 14.08,6.21z"/>
    </g>
  </g>
</svg>
