<svg version="1.1" xmlns="http://www.w3.org/2000/svg" xmlns:xlink="http://www.w3.org/1999/xlink" width="511.147" height="464" viewBox="0 0 511.147 464">
  <g fill="none" stroke="none" stroke-width="1" stroke-linecap="butt" stroke-linejoin="miter" stroke-dasharray="" stroke-dashoffset="0">
    <rect x="0" y="0" width="511.147" height="464" fill="none" fill-rule="nonzero"/>
    <circle cx="255.573" cy="192" r="96" fill="#ffca28" fill-rule="nonzero"/>
    <g fill="#3c4043" fill-rule="evenodd">
      <path d="M255.57333,140.66667c4.63867,0 8.4,3.72867 8.4,8.32533c0,3.62133 -2.33333,6.70133 -5.59533,7.84933l-0.00467,11.82533h20.53333c10.30932,0 18.66667,8.35735 18.66667,18.66667h2.33333c2.57733,0 4.66667,2.08934 4.66667,4.66667v18.41467c0,2.57733 -2.08934,4.66667 -4.66667,4.66667l-2.33333,-0.00467v4.92333c0,10.30932 -8.35735,18.66667 -18.66667,18.66667h-46.66667c-10.30932,0 -18.66667,-8.35735 -18.66667,-18.66667v-4.92333h-2.33333c-2.57733,0 -4.66667,-2.08934 -4.66667,-4.66667v-18.41c0,-2.57733 2.08934,-4.66667 4.66667,-4.66667h2.33333c0,-10.30932 8.35735,-18.66667 18.66667,-18.66667h20.53333v-11.82533c-3.10845,-1.08134 -5.29086,-3.88887 -5.572,-7.168l-0.028,-0.68133c0,-4.59667 3.76133,-8.32533 8.4,-8.32533zM278.90667,178h-46.66667c-4.88425,-0.00155 -8.94368,3.76284 -9.31,8.63333l-0.02333,0.7v32.66667c-0.00155,4.88425 3.76284,8.94368 8.63333,9.31l0.7,0.02333h46.66667c4.88425,0.00155 8.94368,-3.76284 9.31,-8.63333l0.02333,-0.7v-32.66667c0.00155,-4.88425 -3.76284,-8.94368 -8.63333,-9.31zM267.24,215.33333l-3.86867,9.33333h-15.53533l-3.92933,-9.33333zM278.90667,192v18.66667h-9.33333v-18.66667zM241.57333,192v18.66667h-9.33333v-18.66667z"/>
    </g>
    <g fill="#5f6368" fill-rule="nonzero">
      <path d="M99.92333,352h-3.92333v-30.55h3.92333l10.62333,18.60333h0.17333l10.62333,-18.60333h3.92333v30.55h-3.92333v-18.13333l0.17,-5.12h-0.17l-9.55667,16.76667h-2.30667l-9.55667,-16.76667h-0.17l0.17,5.12z"/>
      <path d="M136.91667,352.68333v0c-2.22,0 -4.07667,-0.64 -5.57,-1.92c-1.49333,-1.28 -2.24,-2.97222 -2.24,-5.07667v0c0,-2.27556 0.88222,-4.06111 2.64667,-5.35667c1.76444,-1.29333 3.94,-1.94 6.52667,-1.94v0c2.30444,0 4.19667,0.42667 5.67667,1.28v0v-0.59667c0,-1.53778 -0.52667,-2.76889 -1.58,-3.69333c-1.05111,-0.92444 -2.34556,-1.38667 -3.88333,-1.38667v0c-1.13778,0 -2.16889,0.27111 -3.09333,0.81333c-0.92444,0.54 -1.55667,1.27889 -1.89667,2.21667v0l-3.58333,-1.53667c0.48222,-1.25111 1.43444,-2.41 2.85667,-3.47667c1.42222,-1.06667 3.3,-1.6 5.63333,-1.6v0c2.67333,0 4.89222,0.78222 6.65667,2.34667c1.76222,1.56444 2.64333,3.76889 2.64333,6.61333v0v12.63h-3.75333v-2.9h-0.17c-1.56444,2.38889 -3.85444,3.58333 -6.87,3.58333zM137.55667,349.1v0c1.62,0 3.09222,-0.60444 4.41667,-1.81333c1.32222,-1.20889 1.98333,-2.63889 1.98333,-4.29v0c-1.10889,-0.90889 -2.77333,-1.36333 -4.99333,-1.36333v0c-1.90444,0 -3.34111,0.41222 -4.31,1.23667c-0.96667,0.82444 -1.45,1.79111 -1.45,2.9v0c0,1.02444 0.44111,1.83556 1.32333,2.43333c0.88222,0.59778 1.89222,0.89667 3.03,0.89667z"/>
      <path d="M161.49333,352.68333v0c-3.12889,0 -5.70333,-1.06 -7.72333,-3.18c-2.02,-2.11778 -3.03,-4.77 -3.03,-7.95667c0,-3.18667 1.01,-5.83889 3.03,-7.95667c2.02,-2.12 4.59444,-3.18 7.72333,-3.18v0c2.33111,0 4.26444,0.56889 5.8,1.70667c1.53778,1.13778 2.66222,2.57444 3.37333,4.31v0l-3.58667,1.49333c-1.08,-2.61778 -3.02778,-3.92667 -5.84333,-3.92667v0c-1.73556,0 -3.26444,0.71111 -4.58667,2.13333c-1.32222,1.42222 -1.98333,3.22889 -1.98333,5.42c0,2.19111 0.66111,3.99778 1.98333,5.42c1.32222,1.42222 2.85111,2.13333 4.58667,2.13333v0c2.92889,0 4.94778,-1.30889 6.05667,-3.92667v0l3.5,1.49333c-0.71111,1.70667 -1.85556,3.13556 -3.43333,4.28667c-1.58,1.15333 -3.53556,1.73 -5.86667,1.73z"/>
      <path d="M173.78,321.45h3.92667v9.64333l-0.17333,2.9h0.17333c0.56889,-0.99556 1.46444,-1.84111 2.68667,-2.53667c1.22222,-0.69778 2.53111,-1.04667 3.92667,-1.04667v0c2.58667,0 4.56333,0.79667 5.93,2.39c1.36444,1.59333 2.04667,3.72667 2.04667,6.4v0v12.8h-3.92333v-12.20333c0,-3.86889 -1.72111,-5.80333 -5.16333,-5.80333v0c-1.62222,0 -2.94556,0.64778 -3.97,1.94333c-1.02222,1.29333 -1.53333,2.79333 -1.53333,4.5v0v11.56333h-3.92667z"/>
      <path d="M200.74667,325.84667c-0.54222,0.54 -1.19667,0.81 -1.96333,0.81c-0.76889,0 -1.42333,-0.27 -1.96333,-0.81c-0.54,-0.54222 -0.81,-1.19667 -0.81,-1.96333c0,-0.76889 0.27,-1.42333 0.81,-1.96333c0.54,-0.54 1.19444,-0.81 1.96333,-0.81c0.76667,0 1.42111,0.27 1.96333,0.81c0.54,0.54 0.81,1.19444 0.81,1.96333c0,0.76667 -0.27,1.42111 -0.81,1.96333zM200.74667,331.09333v20.90667h-3.92667v-20.90667z"/>
      <path d="M205.44,331.09333h3.75333v2.9h0.17c0.56889,-0.99556 1.46556,-1.84111 2.69,-2.53667c1.22222,-0.69778 2.53,-1.04667 3.92333,-1.04667v0c2.58889,0 4.56556,0.79667 5.93,2.39c1.36667,1.59333 2.05,3.72667 2.05,6.4v0v12.8h-3.92667v-12.20333c0,-3.86889 -1.72111,-5.80333 -5.16333,-5.80333v0c-1.62,0 -2.94222,0.64778 -3.96667,1.94333c-1.02444,1.29333 -1.53667,2.79333 -1.53667,4.5v0v11.56333h-3.92333z"/>
      <path d="M237.61,352.68333v0c-3.15778,0 -5.72556,-1.05222 -7.70333,-3.15667c-1.97556,-2.10667 -2.96333,-4.76667 -2.96333,-7.98v0c0,-3.04444 0.96,-5.66111 2.88,-7.85c1.92,-2.19111 4.37333,-3.28667 7.36,-3.28667v0c3.1,0 5.58111,1.01 7.44333,3.03c1.86444,2.02 2.79667,4.72222 2.79667,8.10667v0l-0.04333,0.72667h-16.51333c0.11556,2.10444 0.82,3.76778 2.11333,4.99c1.29333,1.22444 2.80778,1.83667 4.54333,1.83667v0c2.81556,0 4.72111,-1.19556 5.71667,-3.58667v0l3.5,1.45333c-0.68222,1.62 -1.80556,2.97778 -3.37,4.07333c-1.56444,1.09556 -3.48444,1.64333 -5.76,1.64333zM231.12333,339.03h12.11667c-0.08444,-1.19556 -0.63111,-2.33333 -1.64,-3.41333c-1.01111,-1.08222 -2.51222,-1.62333 -4.50333,-1.62333v0c-1.45111,0 -2.71,0.45556 -3.77667,1.36667c-1.06667,0.91111 -1.79889,2.13444 -2.19667,3.67z"/>
      <path d=""/>
      <path d="M278.22667,352h-17.15v-30.55h3.92333v26.79667h13.22667z"/>
      <path d="M291.11333,352.68333v0c-3.15778,0 -5.72444,-1.05222 -7.7,-3.15667c-1.97778,-2.10667 -2.96667,-4.76667 -2.96667,-7.98v0c0,-3.04444 0.96,-5.66111 2.88,-7.85c1.92,-2.19111 4.37333,-3.28667 7.36,-3.28667v0c3.1,0 5.58222,1.01 7.44667,3.03c1.86222,2.02 2.79333,4.72222 2.79333,8.10667v0l-0.04333,0.72667h-16.51c0.11333,2.10444 0.81667,3.76778 2.11,4.99c1.29556,1.22444 2.81,1.83667 4.54333,1.83667v0c2.81778,0 4.72444,-1.19556 5.72,-3.58667v0l3.49667,1.45333c-0.68222,1.62 -1.80556,2.97778 -3.37,4.07333c-1.56444,1.09556 -3.48444,1.64333 -5.76,1.64333zM284.62667,339.03h12.12c-0.08667,-1.19556 -0.63444,-2.33333 -1.64333,-3.41333c-1.01111,-1.08222 -2.51222,-1.62333 -4.50333,-1.62333v0c-1.44889,0 -2.70667,0.45556 -3.77333,1.36667c-1.06667,0.91111 -1.8,2.13444 -2.2,3.67z"/>
      <path d="M310.69667,352.68333v0c-2.21778,0 -4.07333,-0.64 -5.56667,-1.92c-1.49333,-1.28 -2.24,-2.97222 -2.24,-5.07667v0c0,-2.27556 0.88111,-4.06111 2.64333,-5.35667c1.76444,-1.29333 3.94111,-1.94 6.53,-1.94v0c2.30444,0 4.19556,0.42667 5.67333,1.28v0v-0.59667c0,-1.53778 -0.52556,-2.76889 -1.57667,-3.69333c-1.05333,-0.92444 -2.34778,-1.38667 -3.88333,-1.38667v0c-1.13778,0 -2.16889,0.27111 -3.09333,0.81333c-0.92444,0.54 -1.55778,1.27889 -1.9,2.21667v0l-3.58333,-1.53667c0.48444,-1.25111 1.43778,-2.41 2.86,-3.47667c1.42222,-1.06667 3.29889,-1.6 5.63,-1.6v0c2.67333,0 4.89222,0.78222 6.65667,2.34667c1.76444,1.56444 2.64667,3.76889 2.64667,6.61333v0v12.63h-3.75667v-2.9h-0.17c-1.56444,2.38889 -3.85444,3.58333 -6.87,3.58333zM311.33667,349.1v0c1.62222,0 3.09444,-0.60444 4.41667,-1.81333c1.32222,-1.20889 1.98333,-2.63889 1.98333,-4.29v0c-1.10889,-0.90889 -2.77222,-1.36333 -4.99,-1.36333v0c-1.90667,0 -3.34333,0.41222 -4.31,1.23667c-0.96667,0.82444 -1.45,1.79111 -1.45,2.9v0c0,1.02444 0.44,1.83556 1.32,2.43333c0.88222,0.59778 1.89222,0.89667 3.03,0.89667z"/>
      <path d="M329.42667,340.56667v11.43333h-3.92333v-20.90667h3.75333v3.41333h0.17c0.4,-1.13778 1.21778,-2.07667 2.45333,-2.81667c1.23778,-0.74 2.44,-1.11 3.60667,-1.11c1.16667,0 2.14778,0.17111 2.94333,0.51333v0l-1.49333,3.67c-0.51111,-0.2 -1.20778,-0.3 -2.09,-0.3v0c-1.42222,0 -2.68111,0.56222 -3.77667,1.68667c-1.09556,1.12222 -1.64333,2.59444 -1.64333,4.41667z"/>
      <path d="M340.56333,331.09333h3.75667v2.9h0.17c0.56889,-0.99556 1.46444,-1.84111 2.68667,-2.53667c1.22444,-0.69778 2.53333,-1.04667 3.92667,-1.04667v0c2.58889,0 4.56556,0.79667 5.93,2.39c1.36444,1.59333 2.04667,3.72667 2.04667,6.4v0v12.8h-3.92333v-12.20333c0,-3.86889 -1.72111,-5.80333 -5.16333,-5.80333v0c-1.62222,0 -2.94444,0.64778 -3.96667,1.94333c-1.02444,1.29333 -1.53667,2.79333 -1.53667,4.5v0v11.56333h-3.92667z"/>
      <path d="M367.95667,325.84667c-0.54,0.54 -1.19444,0.81 -1.96333,0.81c-0.76889,0 -1.42333,-0.27 -1.96333,-0.81c-0.54,-0.54222 -0.81,-1.19667 -0.81,-1.96333c0,-0.76889 0.27,-1.42333 0.81,-1.96333c0.54,-0.54 1.19444,-0.81 1.96333,-0.81c0.76889,0 1.42333,0.27 1.96333,0.81c0.54,0.54 0.81,1.19444 0.81,1.96333c0,0.76667 -0.27,1.42111 -0.81,1.96333zM367.95667,331.09333v20.90667h-3.92667v-20.90667z"/>
      <path d="M372.65,331.09333h3.75333v2.9h0.17c0.56889,-0.99556 1.46556,-1.84111 2.69,-2.53667c1.22222,-0.69778 2.53,-1.04667 3.92333,-1.04667v0c2.58889,0 4.56667,0.79667 5.93333,2.39c1.36444,1.59333 2.04667,3.72667 2.04667,6.4v0v12.8h-3.92667v-12.20333c0,-3.86889 -1.72,-5.80333 -5.16,-5.80333v0c-1.62222,0 -2.94556,0.64778 -3.97,1.94333c-1.02444,1.29333 -1.53667,2.79333 -1.53667,4.5v0v11.56333h-3.92333z"/>
      <path d="M404.43667,361.9v0c-2.47556,0 -4.49556,-0.61889 -6.06,-1.85667c-1.56444,-1.23778 -2.68778,-2.65333 -3.37,-4.24667v0l3.58333,-1.49333c0.39778,1.13778 1.13,2.09111 2.19667,2.86c1.06667,0.76667 2.28333,1.15 3.65,1.15v0c2.16222,0 3.86111,-0.64667 5.09667,-1.94c1.23778,-1.29333 1.85667,-3.05 1.85667,-5.27v0v-2.00333h-0.17c-0.68222,1.02222 -1.64889,1.87556 -2.9,2.56c-1.25333,0.68222 -2.66222,1.02333 -4.22667,1.02333v0c-2.70222,0 -5.03444,-1.06667 -6.99667,-3.2c-1.96222,-2.13333 -2.94333,-4.77889 -2.94333,-7.93667c0,-3.15778 0.98111,-5.80333 2.94333,-7.93667c1.96222,-2.13333 4.29444,-3.2 6.99667,-3.2v0c1.56444,0 2.97333,0.34111 4.22667,1.02333c1.25111,0.68444 2.21778,1.53778 2.9,2.56v0h0.17v-2.9h3.75667v19.84c0,3.58444 -1.03889,6.30778 -3.11667,8.17c-2.07556,1.86444 -4.60667,2.79667 -7.59333,2.79667zM404.73333,349.1v0c1.84889,0 3.42111,-0.68333 4.71667,-2.05c1.29333,-1.36444 1.94,-3.19889 1.94,-5.50333c0,-2.30444 -0.64667,-4.13889 -1.94,-5.50333c-1.29556,-1.36667 -2.86778,-2.05 -4.71667,-2.05v0c-1.82,0 -3.38444,0.69 -4.69333,2.07c-1.30667,1.38 -1.96,3.20778 -1.96,5.48333c0,2.27556 0.65333,4.10333 1.96,5.48333c1.30889,1.38 2.87333,2.07 4.69333,2.07z"/>
    </g>
  </g>
</svg>
