<svg version="1.1" xmlns="http://www.w3.org/2000/svg" xmlns:xlink="http://www.w3.org/1999/xlink" width="192" height="192" viewBox="0 0 192 192">
  <g fill="none" stroke="none" stroke-width="1" stroke-linecap="butt" stroke-linejoin="miter" stroke-dasharray="" stroke-dashoffset="0">
    <rect x="0" y="0" width="192" height="192" fill="none" fill-rule="nonzero"/>
    <circle cx="96" cy="96" r="96" fill="#ffca28" fill-rule="nonzero"/>
    <g fill="#3c4043" fill-rule="evenodd">
      <path d="M96,44.66667c4.63867,0 8.4,3.72867 8.4,8.32533c0,3.62133 -2.33333,6.70133 -5.59533,7.84933l-0.00467,11.82533h20.53333c10.30932,0 18.66667,8.35735 18.66667,18.66667h2.33333c2.57733,0 4.66667,2.08934 4.66667,4.66667v18.41467c0,2.57733 -2.08934,4.66667 -4.66667,4.66667l-2.33333,-0.00467v4.92333c0,10.30932 -8.35735,18.66667 -18.66667,18.66667h-46.66667c-10.30932,0 -18.66667,-8.35735 -18.66667,-18.66667v-4.92333h-2.33333c-2.57733,0 -4.66667,-2.08934 -4.66667,-4.66667v-18.41c0,-2.57733 2.08934,-4.66667 4.66667,-4.66667h2.33333c0,-10.30932 8.35735,-18.66667 18.66667,-18.66667h20.53333v-11.82533c-3.10845,-1.08134 -5.29086,-3.88887 -5.572,-7.168l-0.028,-0.68133c0,-4.59667 3.76133,-8.32533 8.4,-8.32533zM119.33333,82h-46.66667c-4.88425,-0.00155 -8.94368,3.76284 -9.31,8.63333l-0.02333,0.7v32.66667c-0.00155,4.88425 3.76284,8.94368 8.63333,9.31l0.7,0.02333h46.66667c4.88425,0.00155 8.94368,-3.76284 9.31,-8.63333l0.02333,-0.7v-32.66667c0.00155,-4.88425 -3.76284,-8.94368 -8.63333,-9.31zM107.66667,119.33333l-3.86867,9.33333h-15.53533l-3.92933,-9.33333zM119.33333,96v18.66667h-9.33333v-18.66667zM82,96v18.66667h-9.33333v-18.66667z"/>
    </g>
  </g>
</svg>
