<svg version="1.1" xmlns="http://www.w3.org/2000/svg" xmlns:xlink="http://www.w3.org/1999/xlink" width="1070.84" height="448" viewBox="0 0 1070.84 448">
  <g fill="none" fill-rule="nonzero" stroke="none" stroke-width="1" stroke-linecap="butt" stroke-linejoin="miter" stroke-dasharray="" stroke-dashoffset="0">
    <rect x="0" y="0" width="1070.84" height="448" fill="none"/>
    <circle cx="192" cy="224" r="96" fill="#ffca28"/>
    <g fill="#3c4043">
      <path d="M186.48867,243.726l29.66133,-27.68267l-7.48067,-6.98133l-22.18067,20.70133l-11.02733,-10.29l-7.48067,6.98133zM192,275.33333c-12.16133,-2.86067 -22.204,-9.37067 -30.11867,-19.53933c-7.91933,-10.16867 -11.88133,-21.45733 -11.88133,-33.87067v-29.89l42,-14.7l42,14.7v29.89c0,12.41333 -3.95733,23.70667 -11.87667,33.87067c-7.91933,10.16867 -17.962,16.68333 -30.12333,19.53933zM192,265.04333c9.1,-2.69733 16.62733,-8.08733 22.57267,-16.17c5.95467,-8.08267 8.92733,-17.066 8.92733,-26.95v-23.15133l-31.5,-11.032l-31.5,11.032v23.15133c0,9.87933 2.97733,18.86733 8.92267,26.95c5.95467,8.08733 13.47733,13.47733 22.57733,16.17z"/>
    </g>
    <g fill="#5f6368">
      <path d="M349.05,272h-13.05l34.56,-91.65h13.31l34.56,91.65h-13.06l-8.83,-24.83h-38.53zM376.96,194.82l-14.98,41.34h30.46l-14.97,-41.34z"/>
      <path d="M457.85,274.05v0c-4.78,0 -9.06667,-1.02333 -12.86,-3.07c-3.8,-2.05333 -6.63667,-4.61333 -8.51,-7.68v0h-0.52l0.52,8.7v27.65h-11.78v-90.37h11.26v8.7h0.52c1.87333,-3.06667 4.71,-5.62667 8.51,-7.68c3.79333,-2.04667 8.08,-3.07 12.86,-3.07v0c8.10667,0 15.10333,3.2 20.99,9.6c5.89333,6.4 8.84,14.33667 8.84,23.81c0,9.47333 -2.94667,17.41 -8.84,23.81c-5.88667,6.4 -12.88333,9.6 -20.99,9.6zM455.93,263.3v0c5.46,0 10.15333,-2.07 14.08,-6.21c3.92667,-4.14 5.89,-9.62333 5.89,-16.45c0,-6.82667 -1.96333,-12.31 -5.89,-16.45c-3.92667,-4.14 -8.62,-6.21 -14.08,-6.21v0c-5.54667,0 -10.26,2.05 -14.14,6.15c-3.88667,4.09333 -5.83,9.59667 -5.83,16.51c0,6.91333 1.94333,12.41667 5.83,16.51c3.88,4.1 8.59333,6.15 14.14,6.15z"/>
      <path d="M527.87,274.05v0c-4.78,0 -9.07,-1.02333 -12.87,-3.07c-3.79333,-2.05333 -6.63,-4.61333 -8.51,-7.68v0h-0.51l0.51,8.7v27.65h-11.77v-90.37h11.26v8.7h0.51c1.88,-3.06667 4.71667,-5.62667 8.51,-7.68c3.8,-2.04667 8.09,-3.07 12.87,-3.07v0c8.10667,0 15.10333,3.2 20.99,9.6c5.88667,6.4 8.83,14.33667 8.83,23.81c0,9.47333 -2.94333,17.41 -8.83,23.81c-5.88667,6.4 -12.88333,9.6 -20.99,9.6zM525.95,263.3v0c5.46,0 10.15333,-2.07 14.08,-6.21c3.92667,-4.14 5.89,-9.62333 5.89,-16.45c0,-6.82667 -1.96333,-12.31 -5.89,-16.45c-3.92667,-4.14 -8.62,-6.21 -14.08,-6.21v0c-5.54667,0 -10.26333,2.05 -14.15,6.15c-3.88,4.09333 -5.82,9.59667 -5.82,16.51c0,6.91333 1.94,12.41667 5.82,16.51c3.88667,4.1 8.60333,6.15 14.15,6.15z"/>
      <path d=""/>
      <path d="M639.23,274.05v0c-13.48667,0 -24.79333,-4.56667 -33.92,-13.7c-9.13333,-9.12667 -13.7,-20.51667 -13.7,-34.17c0,-13.65333 4.56667,-25.04667 13.7,-34.18c9.12667,-9.13333 20.43333,-13.7 33.92,-13.7v0c13.82,0 25.04,4.99333 33.66,14.98v0l-8.19,7.94c-6.22667,-7.76667 -14.71667,-11.65 -25.47,-11.65v0c-9.98667,0 -18.41333,3.37 -25.28,10.11c-6.87333,6.74 -10.31,15.57333 -10.31,26.5c0,10.92 3.43667,19.75 10.31,26.49c6.86667,6.74 15.29333,10.11 25.28,10.11v0c11.00667,0 20.39333,-4.43667 28.16,-13.31v0l8.19,8.19c-4.18,5.04 -9.42667,9.03 -15.74,11.97c-6.32,2.94667 -13.19,4.42 -20.61,4.42z"/>
      <path d="M684.8,180.35h11.77v28.93l-0.51,8.7h0.51c1.70667,-2.98667 4.39667,-5.52333 8.07,-7.61c3.66667,-2.09333 7.59,-3.14 11.77,-3.14v0c7.76667,0 13.69667,2.39 17.79,7.17c4.1,4.78 6.15,11.18 6.15,19.2v0v38.4h-11.78v-36.61c0,-11.60667 -5.16333,-17.41 -15.49,-17.41v0c-4.86,0 -8.82667,1.94333 -11.9,5.83c-3.07333,3.88 -4.61,8.38 -4.61,13.5v0v34.69h-11.77z"/>
      <path d="M781.31,274.05v0c-9.47333,0 -17.17667,-3.15667 -23.11,-9.47c-5.92667,-6.32 -8.89,-14.3 -8.89,-23.94v0c0,-9.13333 2.88,-16.98333 8.64,-23.55c5.76,-6.57333 13.12,-9.86 22.08,-9.86v0c9.3,0 16.74333,3.03 22.33,9.09c5.59333,6.06 8.39,14.16667 8.39,24.32v0l-0.13,2.18h-49.54c0.34667,6.31333 2.46,11.30333 6.34,14.97c3.88,3.67333 8.42333,5.51 13.63,5.51v0c8.44667,0 14.16333,-3.58667 17.15,-10.76v0l10.5,4.36c-2.04667,4.86 -5.41667,8.93333 -10.11,12.22c-4.69333,3.28667 -10.45333,4.93 -17.28,4.93zM761.85,233.09h36.35c-0.25333,-3.58667 -1.89333,-7 -4.92,-10.24c-3.03333,-3.24667 -7.53667,-4.87 -13.51,-4.87v0c-4.35333,0 -8.13,1.36667 -11.33,4.1c-3.2,2.73333 -5.39667,6.40333 -6.59,11.01z"/>
      <path d="M849.53,274.05v0c-9.38667,0 -17.11,-3.18 -23.17,-9.54c-6.05333,-6.35333 -9.08,-14.31 -9.08,-23.87c0,-9.56 3.02667,-17.51667 9.08,-23.87c6.06,-6.36 13.78333,-9.54 23.17,-9.54v0c7,0 12.80333,1.70667 17.41,5.12c4.60667,3.41333 7.97667,7.72333 10.11,12.93v0l-10.75,4.48c-3.24,-7.85333 -9.08667,-11.78 -17.54,-11.78v0c-5.2,0 -9.78667,2.13333 -13.76,6.4c-3.96667,4.26667 -5.95,9.68667 -5.95,16.26c0,6.57333 1.98333,11.99333 5.95,16.26c3.97333,4.26667 8.56,6.4 13.76,6.4v0c8.79333,0 14.85333,-3.92667 18.18,-11.78v0l10.5,4.48c-2.13333,5.12 -5.57,9.40667 -10.31,12.86c-4.73333,3.46 -10.6,5.19 -17.6,5.19z"/>
      <path d="M887.68,180.35h11.77v56.45l27.14,-27.52h15.1v0.51l-24.45,24.45l25.6,37.25v0.51h-14.2l-19.72,-29.57l-9.47,9.47v20.1h-11.77z"/>
    </g>
  </g>
</svg>
