<svg version="1.1" xmlns="http://www.w3.org/2000/svg" xmlns:xlink="http://www.w3.org/1999/xlink" width="192" height="192" viewBox="0 0 192 192">
  <g fill="none" fill-rule="nonzero" stroke="none" stroke-width="1" stroke-linecap="butt" stroke-linejoin="miter" stroke-dasharray="" stroke-dashoffset="0">
    <rect x="0" y="0" width="192" height="192" fill="none"/>
    <circle cx="96" cy="96" r="96" fill="#ffca28"/>
    <g fill="#3c4043">
      <path d="M90.48867,115.726l29.66133,-27.68267l-7.48067,-6.98133l-22.18067,20.70133l-11.02733,-10.29l-7.48067,6.98133zM96,147.33333c-12.16133,-2.86067 -22.204,-9.37067 -30.11867,-19.53933c-7.91933,-10.16867 -11.88133,-21.45733 -11.88133,-33.87067v-29.89l42,-14.7l42,14.7v29.89c0,12.41333 -3.95733,23.70667 -11.87667,33.87067c-7.91933,10.16867 -17.962,16.68333 -30.12333,19.53933zM96,137.04333c9.1,-2.69733 16.62733,-8.08733 22.57267,-16.17c5.95467,-8.08267 8.92733,-17.066 8.92733,-26.95v-23.15133l-31.5,-11.032l-31.5,11.032v23.15133c0,9.87933 2.97733,18.86733 8.92267,26.95c5.95467,8.08733 13.47733,13.47733 22.57733,16.17z"/>
    </g>
  </g>
</svg>
