<svg version="1.1" xmlns="http://www.w3.org/2000/svg" xmlns:xlink="http://www.w3.org/1999/xlink" width="192" height="192" viewBox="0 0 192 192">
  <defs>
    <clipPath id="clip-1">
      <path d="M143.41,47.34c-0.25062,-1.47441 -1.30281,-2.68586 -2.7276,-3.14045c-1.4248,-0.45459 -2.98418,-0.07637 -4.0424,0.98045l-20.76,20.82l-16.34,-31.11c-0.69157,-1.31455 -2.05463,-2.13764 -3.54,-2.13764c-1.48537,0 -2.84843,0.82308 -3.54,2.13764l-8.93,17l-22.4,-41.77c-0.8124,-1.51752 -2.50451,-2.34514 -4.20114,-2.05481c-1.69663,0.29033 -3.01727,1.63351 -3.27886,3.33481l-21.65,138.6l57.9,32.46c3.63583,2.03003 8.06417,2.03003 11.7,0l58.4,-32.46z" id="a 1" fill="none"/>
    </clipPath>
    <linearGradient x1="56.9" y1="102.54" x2="48.9" y2="98.36" gradientUnits="userSpaceOnUse" id="color-1">
      <stop offset="0" stop-color="#a52714"/>
      <stop offset=".4" stop-color="#a52714" stop-opacity=".5"/>
      <stop offset=".8" stop-color="#a52714" stop-opacity="0"/>
    </linearGradient>
    <linearGradient x1="90.89" y1="90.91" x2="87.31" y2="87.33" gradientUnits="userSpaceOnUse" id="color-2">
      <stop offset="0" stop-color="#a52714" stop-opacity=".8"/>
      <stop offset=".5" stop-color="#a52714" stop-opacity=".21"/>
      <stop offset="1" stop-color="#a52714" stop-opacity="0"/>
    </linearGradient>
    <linearGradient x1="27.188" y1="40.281" x2="160.875" y2="173.968" gradientUnits="userSpaceOnUse" id="color-3">
      <stop offset="0" stop-color="#ffffff" stop-opacity=".1"/>
      <stop offset="1" stop-color="#ffffff" stop-opacity="0"/>
    </linearGradient>
  </defs>
  <g fill="none" fill-rule="nonzero" stroke="none" stroke-width="1" stroke-linecap="butt" stroke-linejoin="miter" stroke-dasharray="" stroke-dashoffset="0">
    <rect x="0" y="0" width="192" height="192" fill="none"/>
    <g>
      <g clip-path="url(#clip-1)">
        <path d="M32,150l21.66,-138.61c0.26477,-1.69982 1.58673,-3.03996 3.28278,-3.32793c1.69604,-0.28796 3.38625,0.54076 4.19722,2.05793l22.4,41.78l8.93,-17c0.69157,-1.31455 2.05463,-2.13764 3.54,-2.13764c1.48537,0 2.84843,0.82308 3.54,2.13764l60.45,115.1z" fill="#ffa000"/>
        <path d="M106,9l-106,-9v192l32,-42z" fill="url(#color-1)" opacity=".12"/>
        <path d="M106.83,96.01l-23.3,-44.12l-51.53,98.11z" fill="#f57c00"/>
        <path d="M0,0h192v192h-192z" fill="url(#color-2)" opacity=".2"/>
        <path d="M160,150l-16.59,-102.66c-0.25062,-1.47441 -1.30281,-2.68586 -2.7276,-3.14045c-1.4248,-0.45459 -2.98418,-0.07637 -4.0424,0.98045l-104.64,104.82l57.9,32.47c3.63583,2.03003 8.06417,2.03003 11.7,0z" fill="#ffca28"/>
        <path d="M143.41,47.34c-0.25062,-1.47441 -1.30281,-2.68586 -2.7276,-3.14045c-1.4248,-0.45459 -2.98418,-0.07637 -4.0424,0.98045l-20.76,20.82l-16.34,-31.11c-0.69157,-1.31455 -2.05463,-2.13764 -3.54,-2.13764c-1.48537,0 -2.84843,0.82308 -3.54,2.13764l-8.93,17l-22.4,-41.77c-0.8124,-1.51752 -2.50451,-2.34514 -4.20114,-2.05481c-1.69663,0.29033 -3.01727,1.63351 -3.27886,3.33481l-21.65,138.6h-0.08l0.07,0.08l0.57,0.28l83.27,-83.36l20.78,-20.8c1.05765,-1.06267 2.62077,-1.44465 4.04932,-0.98954c1.42856,0.45512 2.48265,1.67089 2.73068,3.14954l16.45,101.74l0.16,-0.1zM32.19,149.81l21.47,-137.42c0.26158,-1.7013 1.58223,-3.04448 3.27886,-3.33481c1.69663,-0.29033 3.38875,0.53729 4.20114,2.05481l22.4,41.78l8.93,-17c0.69157,-1.31455 2.05463,-2.13764 3.54,-2.13764c1.48537,0 2.84843,0.82308 3.54,2.13764l16,30.43z" fill-opacity=".2" fill="#ffffff"/>
        <path d="M101.6,181.49c-3.63583,2.03003 -8.06417,2.03003 -11.7,0l-57.76,-32.4l-0.14,0.91l57.9,32.46c3.63583,2.03003 8.06417,2.03003 11.7,0l58.4,-32.46l-0.15,-0.92z" fill="#a52714" opacity=".2"/>
        <path d="M143.41,47.34c-0.25062,-1.47441 -1.30281,-2.68586 -2.7276,-3.14045c-1.4248,-0.45459 -2.98418,-0.07637 -4.0424,0.98045l-20.76,20.82l-16.34,-31.11c-0.69157,-1.31455 -2.05463,-2.13764 -3.54,-2.13764c-1.48537,0 -2.84843,0.82308 -3.54,2.13764l-8.93,17l-22.4,-41.77c-0.8124,-1.51752 -2.50451,-2.34514 -4.20114,-2.05481c-1.69663,0.29033 -3.01727,1.63351 -3.27886,3.33481l-21.65,138.6l57.9,32.46c3.63583,2.03003 8.06417,2.03003 11.7,0l58.4,-32.46z" fill="url(#color-3)"/>
      </g>
    </g>
    <circle cx="144" cy="144" r="40" fill="#ffffff"/>
    <g fill="#5f6368">
      <path d="M141.638,152.454l12.712,-11.864l-3.206,-2.992l-9.506,8.872l-4.726,-4.41l-3.206,2.992zM144,166c-5.212,-1.226 -9.516,-4.016 -12.908,-8.374c-3.394,-4.358 -5.092,-9.196 -5.092,-14.516v-12.81l18,-6.3l18,6.3v12.81c0,5.32 -1.696,10.16 -5.09,14.516c-3.394,4.358 -7.698,7.15 -12.91,8.374zM144,161.59c3.9,-1.156 7.126,-3.466 9.674,-6.93c2.552,-3.464 3.826,-7.314 3.826,-11.55v-9.922l-13.5,-4.728l-13.5,4.728v9.922c0,4.234 1.276,8.086 3.824,11.55c2.552,3.466 5.776,5.776 9.676,6.93z"/>
    </g>
  </g>
</svg>
