<svg version="1.1" xmlns="http://www.w3.org/2000/svg" xmlns:xlink="http://www.w3.org/1999/xlink" width="1552.12" height="448" viewBox="0 0 1552.12 448">
  <g fill="none" fill-rule="nonzero" stroke="none" stroke-width="1" stroke-linecap="butt" stroke-linejoin="miter" stroke-dasharray="" stroke-dashoffset="0">
    <rect x="0" y="0" width="1552.12" height="448" fill="none"/>
    <path d="M132.227,250.934l17.428,-111.546c0.26478,-1.69857 1.58525,-3.03801 3.27988,-3.32698c1.69463,-0.28897 3.38438,0.53715 4.19712,2.05198l18.74,34.96zM197.6,310.487c-3.63771,2.02446 -8.06523,2.01689 -11.696,-0.02l-57.904,-32.467l104.636,-104.825c1.057,-1.06199 2.61948,-1.44304 4.04672,-0.9869c1.42724,0.45614 2.47911,1.67274 2.72428,3.1509l8.29197,51.30245c-2.50344,-0.42184 -5.07556,-0.64145 -7.69897,-0.64145c-25.4051,0 -46,20.5949 -46,46c0,12.85566 5.27359,24.47961 13.77548,32.82654zM129.584,267.92l58.877,-105.032c0.69092,-1.31568 2.05443,-2.13974 3.5405,-2.13974c1.48607,0 2.84958,0.82405 3.5405,2.13974l13.406,25.525zM200,272c0,-22.09139 17.90861,-40 40,-40c22.09139,0 40,17.90861 40,40c0,22.09139 -17.90861,40 -40,40c-22.09139,0 -40,-17.90861 -40,-40zM237.638,280.454l12.712,-11.864l-3.206,-2.992l-9.506,8.872l-4.726,-4.41l-3.206,2.992zM252.91,285.626c3.394,-4.356 5.09,-9.196 5.09,-14.516v-12.81l-18,-6.3l-18,6.3v12.81c0,5.32 1.698,10.158 5.092,14.516c3.392,4.358 7.696,7.148 12.908,8.374c5.212,-1.224 9.516,-4.016 12.91,-8.374zM230.324,282.66c-2.548,-3.464 -3.824,-7.316 -3.824,-11.55v-9.922l13.5,-4.728l13.5,4.728v9.922c0,4.236 -1.274,8.086 -3.826,11.55c-2.548,3.464 -5.774,5.774 -9.674,6.93c-3.9,-1.154 -7.124,-3.464 -9.676,-6.93z" fill="#ffffff"/>
    <g fill="#ffffff">
      <path d="M347.77,232.7v39.3h-11.77v-91.65h53.5v11.27h-41.73v30.08h37.63v11z"/>
      <path d="M411.64,193.54c-1.62,1.62 -3.58,2.43 -5.88,2.43c-2.30667,0 -4.27,-0.81 -5.89,-2.43c-1.62,-1.62667 -2.43,-3.59 -2.43,-5.89c0,-2.30667 0.81,-4.27 2.43,-5.89c1.62,-1.62 3.58333,-2.43 5.89,-2.43c2.3,0 4.26,0.81 5.88,2.43c1.62667,1.62 2.44,3.58333 2.44,5.89c0,2.3 -0.81333,4.26333 -2.44,5.89zM411.64,209.28v62.72h-11.77v-62.72z"/>
      <path d="M437.5,237.7v34.3h-11.78v-62.72h11.27v10.24h0.51c1.19333,-3.41333 3.64667,-6.23 7.36,-8.45c3.71333,-2.22 7.32,-3.33 10.82,-3.33c3.49333,0 6.43667,0.51333 8.83,1.54v0l-4.48,11.01c-1.54,-0.6 -3.63,-0.9 -6.27,-0.9v0c-4.26667,0 -8.04333,1.68667 -11.33,5.06c-3.28667,3.36667 -4.93,7.78333 -4.93,13.25z"/>
      <path d="M496.76,274.05v0c-9.46667,0 -17.16667,-3.15667 -23.1,-9.47c-5.93333,-6.32 -8.9,-14.3 -8.9,-23.94v0c0,-9.13333 2.88,-16.98333 8.64,-23.55c5.76,-6.57333 13.12,-9.86 22.08,-9.86v0c9.30667,0 16.75333,3.03 22.34,9.09c5.58667,6.06 8.38,14.16667 8.38,24.32v0l-0.12,2.18h-49.54c0.34,6.31333 2.45333,11.30333 6.34,14.97c3.88,3.67333 8.42333,5.51 13.63,5.51v0c8.44667,0 14.16333,-3.58667 17.15,-10.76v0l10.5,4.36c-2.05333,4.86 -5.42667,8.93333 -10.12,12.22c-4.69333,3.28667 -10.45333,4.93 -17.28,4.93zM477.31,233.09h36.35c-0.25333,-3.58667 -1.89667,-7 -4.93,-10.24c-3.02667,-3.24667 -7.52667,-4.87 -13.5,-4.87v0c-4.35333,0 -8.13,1.36667 -11.33,4.1c-3.2,2.73333 -5.39667,6.40333 -6.59,11.01z"/>
      <path d="M568.83,274.05v0c-4.78,0 -9.07,-1.02333 -12.87,-3.07c-3.79333,-2.05333 -6.63,-4.61333 -8.51,-7.68v0h-0.51v8.7h-11.26v-91.65h11.77v28.93l-0.51,8.7h0.51c1.88,-3.06667 4.71667,-5.62667 8.51,-7.68c3.8,-2.04667 8.09,-3.07 12.87,-3.07v0c8.10667,0 15.10333,3.2 20.99,9.6c5.88667,6.4 8.83,14.33667 8.83,23.81c0,9.47333 -2.94333,17.41 -8.83,23.81c-5.88667,6.4 -12.88333,9.6 -20.99,9.6zM566.91,263.3v0c5.46,0 10.15333,-2.07 14.08,-6.21c3.92667,-4.14 5.89,-9.62333 5.89,-16.45c0,-6.82667 -1.96333,-12.31 -5.89,-16.45c-3.92667,-4.14 -8.62,-6.21 -14.08,-6.21v0c-5.54667,0 -10.26333,2.05 -14.15,6.15c-3.88,4.09333 -5.82,9.59667 -5.82,16.51c0,6.91333 1.94,12.41667 5.82,16.51c3.88667,4.1 8.60333,6.15 14.15,6.15z"/>
      <path d="M628.6,274.05v0c-6.65333,0 -12.22,-1.92 -16.7,-5.76c-4.48,-3.84 -6.72,-8.91667 -6.72,-15.23v0c0,-6.82667 2.64667,-12.18333 7.94,-16.07c5.28667,-3.88 11.81333,-5.82 19.58,-5.82v0c6.91333,0 12.58667,1.28 17.02,3.84v0v-1.79c0,-4.61333 -1.57667,-8.30667 -4.73,-11.08c-3.16,-2.77333 -7.04333,-4.16 -11.65,-4.16v0c-3.41333,0 -6.50667,0.81333 -9.28,2.44c-2.77333,1.62 -4.67333,3.83667 -5.7,6.65v0l-10.75,-4.61c1.45333,-3.75333 4.31333,-7.23 8.58,-10.43c4.26667,-3.2 9.89667,-4.8 16.89,-4.8v0c8.02667,0 14.68333,2.34667 19.97,7.04c5.29333,4.69333 7.94,11.30667 7.94,19.84v0v37.89h-11.27v-8.7h-0.51c-4.69333,7.16667 -11.56333,10.75 -20.61,10.75zM630.52,263.3v0c4.86667,0 9.28333,-1.81333 13.25,-5.44c3.96667,-3.62667 5.95,-7.91667 5.95,-12.87v0c-3.32667,-2.72667 -8.31667,-4.09 -14.97,-4.09v0c-5.72,0 -10.03,1.23667 -12.93,3.71c-2.9,2.47333 -4.35,5.37333 -4.35,8.7v0c0,3.07333 1.32333,5.50667 3.97,7.3c2.64,1.79333 5.66667,2.69 9.08,2.69z"/>
      <path d="M695.68,274.05v0c-7,0 -12.78333,-1.70667 -17.35,-5.12c-4.56667,-3.41333 -7.91667,-7.68 -10.05,-12.8v0l10.5,-4.35c3.32667,7.84667 9,11.77 17.02,11.77v0c3.67333,0 6.68333,-0.81 9.03,-2.43c2.34667,-1.62 3.52,-3.75333 3.52,-6.4v0c0,-4.09333 -2.86,-6.86667 -8.58,-8.32v0l-12.67,-3.07c-4.01333,-1.02667 -7.81,-2.97 -11.39,-5.83c-3.58667,-2.85333 -5.38,-6.71333 -5.38,-11.58v0c0,-5.54667 2.45333,-10.04667 7.36,-13.5c4.90667,-3.46 10.73,-5.19 17.47,-5.19v0c5.54667,0 10.49667,1.26 14.85,3.78c4.35333,2.51333 7.47,6.11667 9.35,10.81v0l-10.24,4.23c-2.30667,-5.54667 -7.08667,-8.32 -14.34,-8.32v0c-3.5,0 -6.44333,0.72333 -8.83,2.17c-2.39333,1.45333 -3.59,3.41667 -3.59,5.89v0c0,3.58667 2.77333,6.02 8.32,7.3v0l12.42,2.94c5.88667,1.36667 10.24,3.71333 13.06,7.04c2.81333,3.32667 4.22,7.08333 4.22,11.27v0c0,5.62667 -2.30333,10.32 -6.91,14.08c-4.60667,3.75333 -10.53667,5.63 -17.79,5.63z"/>
      <path d="M759.68,274.05v0c-9.47333,0 -17.17667,-3.15667 -23.11,-9.47c-5.92667,-6.32 -8.89,-14.3 -8.89,-23.94v0c0,-9.13333 2.88,-16.98333 8.64,-23.55c5.76,-6.57333 13.12,-9.86 22.08,-9.86v0c9.3,0 16.74333,3.03 22.33,9.09c5.59333,6.06 8.39,14.16667 8.39,24.32v0l-0.13,2.18h-49.54c0.34,6.31333 2.45333,11.30333 6.34,14.97c3.88,3.67333 8.42333,5.51 13.63,5.51v0c8.44667,0 14.16333,-3.58667 17.15,-10.76v0l10.5,4.36c-2.04667,4.86 -5.41667,8.93333 -10.11,12.22c-4.69333,3.28667 -10.45333,4.93 -17.28,4.93zM740.22,233.09h36.35c-0.25333,-3.58667 -1.89667,-7 -4.93,-10.24c-3.02667,-3.24667 -7.52667,-4.87 -13.5,-4.87v0c-4.35333,0 -8.13,1.36667 -11.33,4.1c-3.2,2.73333 -5.39667,6.40333 -6.59,11.01z"/>
      <path d=""/>
      <path d="M830.33,272h-13.05l34.56,-91.65h13.31l34.56,91.65h-13.06l-8.83,-24.83h-38.53zM858.24,194.82l-14.98,41.34h30.46l-14.97,-41.34z"/>
      <path d="M939.13,274.05v0c-4.78,0 -9.06667,-1.02333 -12.86,-3.07c-3.8,-2.05333 -6.63667,-4.61333 -8.51,-7.68v0h-0.52l0.52,8.7v27.65h-11.78v-90.37h11.26v8.7h0.52c1.87333,-3.06667 4.71,-5.62667 8.51,-7.68c3.79333,-2.04667 8.08,-3.07 12.86,-3.07v0c8.10667,0 15.10333,3.2 20.99,9.6c5.89333,6.4 8.84,14.33667 8.84,23.81c0,9.47333 -2.94667,17.41 -8.84,23.81c-5.88667,6.4 -12.88333,9.6 -20.99,9.6zM937.21,263.3v0c5.46,0 10.15333,-2.07 14.08,-6.21c3.92667,-4.14 5.89,-9.62333 5.89,-16.45c0,-6.82667 -1.96333,-12.31 -5.89,-16.45c-3.92667,-4.14 -8.62,-6.21 -14.08,-6.21v0c-5.54667,0 -10.26,2.05 -14.14,6.15c-3.88667,4.09333 -5.83,9.59667 -5.83,16.51c0,6.91333 1.94333,12.41667 5.83,16.51c3.88,4.1 8.59333,6.15 14.14,6.15z"/>
      <path d="M1009.15,274.05v0c-4.78,0 -9.07,-1.02333 -12.87,-3.07c-3.79333,-2.05333 -6.63,-4.61333 -8.51,-7.68v0h-0.51l0.51,8.7v27.65h-11.77v-90.37h11.26v8.7h0.51c1.88,-3.06667 4.71667,-5.62667 8.51,-7.68c3.8,-2.04667 8.09,-3.07 12.87,-3.07v0c8.10667,0 15.10333,3.2 20.99,9.6c5.88667,6.4 8.83,14.33667 8.83,23.81c0,9.47333 -2.94333,17.41 -8.83,23.81c-5.88667,6.4 -12.88333,9.6 -20.99,9.6zM1007.23,263.3v0c5.46,0 10.15333,-2.07 14.08,-6.21c3.92667,-4.14 5.89,-9.62333 5.89,-16.45c0,-6.82667 -1.96333,-12.31 -5.89,-16.45c-3.92667,-4.14 -8.62,-6.21 -14.08,-6.21v0c-5.54667,0 -10.26333,2.05 -14.15,6.15c-3.88,4.09333 -5.82,9.59667 -5.82,16.51c0,6.91333 1.94,12.41667 5.82,16.51c3.88667,4.1 8.60333,6.15 14.15,6.15z"/>
      <path d=""/>
      <path d="M1120.51,274.05v0c-13.48667,0 -24.79333,-4.56667 -33.92,-13.7c-9.13333,-9.12667 -13.7,-20.51667 -13.7,-34.17c0,-13.65333 4.56667,-25.04667 13.7,-34.18c9.12667,-9.13333 20.43333,-13.7 33.92,-13.7v0c13.82,0 25.04,4.99333 33.66,14.98v0l-8.19,7.94c-6.22667,-7.76667 -14.71667,-11.65 -25.47,-11.65v0c-9.98667,0 -18.41333,3.37 -25.28,10.11c-6.87333,6.74 -10.31,15.57333 -10.31,26.5c0,10.92 3.43667,19.75 10.31,26.49c6.86667,6.74 15.29333,10.11 25.28,10.11v0c11.00667,0 20.39333,-4.43667 28.16,-13.31v0l8.19,8.19c-4.18,5.04 -9.42667,9.03 -15.74,11.97c-6.32,2.94667 -13.19,4.42 -20.61,4.42z"/>
      <path d="M1166.08,180.35h11.77v28.93l-0.51,8.7h0.51c1.70667,-2.98667 4.39667,-5.52333 8.07,-7.61c3.66667,-2.09333 7.59,-3.14 11.77,-3.14v0c7.76667,0 13.69667,2.39 17.79,7.17c4.1,4.78 6.15,11.18 6.15,19.2v0v38.4h-11.78v-36.61c0,-11.60667 -5.16333,-17.41 -15.49,-17.41v0c-4.86,0 -8.82667,1.94333 -11.9,5.83c-3.07333,3.88 -4.61,8.38 -4.61,13.5v0v34.69h-11.77z"/>
      <path d="M1262.59,274.05v0c-9.47333,0 -17.17667,-3.15667 -23.11,-9.47c-5.92667,-6.32 -8.89,-14.3 -8.89,-23.94v0c0,-9.13333 2.88,-16.98333 8.64,-23.55c5.76,-6.57333 13.12,-9.86 22.08,-9.86v0c9.3,0 16.74333,3.03 22.33,9.09c5.59333,6.06 8.39,14.16667 8.39,24.32v0l-0.13,2.18h-49.54c0.34667,6.31333 2.46,11.30333 6.34,14.97c3.88,3.67333 8.42333,5.51 13.63,5.51v0c8.44667,0 14.16333,-3.58667 17.15,-10.76v0l10.5,4.36c-2.04667,4.86 -5.41667,8.93333 -10.11,12.22c-4.69333,3.28667 -10.45333,4.93 -17.28,4.93zM1243.13,233.09h36.35c-0.25333,-3.58667 -1.89333,-7 -4.92,-10.24c-3.03333,-3.24667 -7.53667,-4.87 -13.51,-4.87v0c-4.35333,0 -8.13,1.36667 -11.33,4.1c-3.2,2.73333 -5.39667,6.40333 -6.59,11.01z"/>
      <path d="M1330.81,274.05v0c-9.38667,0 -17.11,-3.18 -23.17,-9.54c-6.05333,-6.35333 -9.08,-14.31 -9.08,-23.87c0,-9.56 3.02667,-17.51667 9.08,-23.87c6.06,-6.36 13.78333,-9.54 23.17,-9.54v0c7,0 12.80333,1.70667 17.41,5.12c4.60667,3.41333 7.97667,7.72333 10.11,12.93v0l-10.75,4.48c-3.24,-7.85333 -9.08667,-11.78 -17.54,-11.78v0c-5.2,0 -9.78667,2.13333 -13.76,6.4c-3.96667,4.26667 -5.95,9.68667 -5.95,16.26c0,6.57333 1.98333,11.99333 5.95,16.26c3.97333,4.26667 8.56,6.4 13.76,6.4v0c8.79333,0 14.85333,-3.92667 18.18,-11.78v0l10.5,4.48c-2.13333,5.12 -5.57,9.40667 -10.31,12.86c-4.73333,3.46 -10.6,5.19 -17.6,5.19z"/>
      <path d="M1368.96,180.35h11.77v56.45l27.14,-27.52h15.1v0.51l-24.45,24.45l25.6,37.25v0.51h-14.2l-19.72,-29.57l-9.47,9.47v20.1h-11.77z"/>
    </g>
  </g>
</svg>
