<svg version="1.1" xmlns="http://www.w3.org/2000/svg" xmlns:xlink="http://www.w3.org/1999/xlink" width="192" height="192" viewBox="0 0 192 192">
  <g fill="none" fill-rule="nonzero" stroke="none" stroke-width="1" stroke-linecap="butt" stroke-linejoin="miter" stroke-dasharray="" stroke-dashoffset="0">
    <rect x="0" y="0" width="192" height="192" fill="none"/>
    <path d="M36.227,122.934l17.428,-111.546c0.26478,-1.69857 1.58525,-3.03801 3.27988,-3.32698c1.69463,-0.28897 3.38438,0.53715 4.19712,2.05198l18.74,34.96zM101.6,182.487c-3.63771,2.02446 -8.06523,2.01689 -11.696,-0.02l-57.904,-32.467l104.636,-104.825c1.057,-1.06199 2.61948,-1.44304 4.04672,-0.9869c1.42724,0.45614 2.47911,1.67274 2.72428,3.1509l8.29197,51.30245c-2.50344,-0.42184 -5.07556,-0.64145 -7.69897,-0.64145c-25.4051,0 -46,20.5949 -46,46c0,12.85566 5.27359,24.47961 13.77548,32.82654zM33.584,139.92l58.877,-105.032c0.69092,-1.31568 2.05443,-2.13974 3.5405,-2.13974c1.48607,0 2.84958,0.82405 3.5405,2.13974l13.406,25.525zM104,144c0,-22.09139 17.90861,-40 40,-40c22.09139,0 40,17.90861 40,40c0,22.09139 -17.90861,40 -40,40c-22.09139,0 -40,-17.90861 -40,-40zM141.638,152.454l12.712,-11.864l-3.206,-2.992l-9.506,8.872l-4.726,-4.41l-3.206,2.992zM156.91,157.626c3.394,-4.356 5.09,-9.196 5.09,-14.516v-12.81l-18,-6.3l-18,6.3v12.81c0,5.32 1.698,10.158 5.092,14.516c3.392,4.358 7.696,7.148 12.908,8.374c5.212,-1.224 9.516,-4.016 12.91,-8.374zM134.324,154.66c-2.548,-3.464 -3.824,-7.316 -3.824,-11.55v-9.922l13.5,-4.728l13.5,4.728v9.922c0,4.236 -1.274,8.086 -3.826,11.55c-2.548,3.464 -5.774,5.774 -9.674,6.93c-3.9,-1.154 -7.124,-3.464 -9.676,-6.93z" fill="#ffffff"/>
  </g>
</svg>
