<svg version="1.1" xmlns="http://www.w3.org/2000/svg" xmlns:xlink="http://www.w3.org/1999/xlink" width="554.707" height="464" viewBox="0 0 554.707 464">
  <defs>
    <clipPath id="clip-1">
      <path d="M324.76333,143.34c-0.25062,-1.47441 -1.30281,-2.68586 -2.7276,-3.14045c-1.4248,-0.45459 -2.98418,-0.07637 -4.0424,0.98045l-20.76,20.82l-16.34,-31.11c-0.69157,-1.31455 -2.05463,-2.13764 -3.54,-2.13764c-1.48537,0 -2.84843,0.82308 -3.54,2.13764l-8.93,17l-22.4,-41.77c-0.8124,-1.51752 -2.50451,-2.34514 -4.20114,-2.05481c-1.69663,0.29033 -3.01727,1.63351 -3.27886,3.33481l-21.65,138.6l57.9,32.46c3.63583,2.03003 8.06417,2.03003 11.7,0l58.4,-32.46z" id="a 1" fill="none"/>
    </clipPath>
    <linearGradient x1="238.253" y1="198.54" x2="230.253" y2="194.36" gradientUnits="userSpaceOnUse" id="color-1">
      <stop offset="0" stop-color="#a52714"/>
      <stop offset=".4" stop-color="#a52714" stop-opacity=".5"/>
      <stop offset=".8" stop-color="#a52714" stop-opacity="0"/>
    </linearGradient>
    <linearGradient x1="272.243" y1="186.91" x2="268.663" y2="183.33" gradientUnits="userSpaceOnUse" id="color-2">
      <stop offset="0" stop-color="#a52714" stop-opacity=".8"/>
      <stop offset=".5" stop-color="#a52714" stop-opacity=".21"/>
      <stop offset="1" stop-color="#a52714" stop-opacity="0"/>
    </linearGradient>
    <linearGradient x1="208.541" y1="136.281" x2="342.228" y2="269.968" gradientUnits="userSpaceOnUse" id="color-3">
      <stop offset="0" stop-color="#ffffff" stop-opacity=".1"/>
      <stop offset="1" stop-color="#ffffff" stop-opacity="0"/>
    </linearGradient>
  </defs>
  <g fill="none" fill-rule="nonzero" stroke="none" stroke-width="1" stroke-linecap="butt" stroke-linejoin="miter" stroke-dasharray="" stroke-dashoffset="0">
    <rect x="0" y="0" width="554.707" height="464" fill="none"/>
    <g>
      <g clip-path="url(#clip-1)">
        <path d="M213.35333,246l21.66,-138.61c0.26477,-1.69982 1.58673,-3.03996 3.28278,-3.32793c1.69604,-0.28796 3.38625,0.54076 4.19722,2.05793l22.4,41.78l8.93,-17c0.69157,-1.31455 2.05463,-2.13764 3.54,-2.13764c1.48537,0 2.84843,0.82308 3.54,2.13764l60.45,115.1z" fill="#ffa000"/>
        <path d="M287.35333,105l-106,-9v192l32,-42z" fill="url(#color-1)" opacity=".12"/>
        <path d="M288.18333,192.01l-23.3,-44.12l-51.53,98.11z" fill="#f57c00"/>
        <path d="M181.35333,96h192v192h-192z" fill="url(#color-2)" opacity=".2"/>
        <path d="M341.35333,246l-16.59,-102.66c-0.25062,-1.47441 -1.30281,-2.68586 -2.7276,-3.14045c-1.4248,-0.45459 -2.98418,-0.07637 -4.0424,0.98045l-104.64,104.82l57.9,32.47c3.63583,2.03003 8.06417,2.03003 11.7,0z" fill="#ffca28"/>
        <path d="M324.76333,143.34c-0.25062,-1.47441 -1.30281,-2.68586 -2.7276,-3.14045c-1.4248,-0.45459 -2.98418,-0.07637 -4.0424,0.98045l-20.76,20.82l-16.34,-31.11c-0.69157,-1.31455 -2.05463,-2.13764 -3.54,-2.13764c-1.48537,0 -2.84843,0.82308 -3.54,2.13764l-8.93,17l-22.4,-41.77c-0.8124,-1.51752 -2.50451,-2.34514 -4.20114,-2.05481c-1.69663,0.29033 -3.01727,1.63351 -3.27886,3.33481l-21.65,138.6h-0.08l0.07,0.08l0.57,0.28l83.27,-83.36l20.78,-20.8c1.05765,-1.06267 2.62077,-1.44465 4.04932,-0.98954c1.42856,0.45512 2.48265,1.67089 2.73068,3.14954l16.45,101.74l0.16,-0.1zM213.54333,245.81l21.47,-137.42c0.26158,-1.7013 1.58223,-3.04448 3.27886,-3.33481c1.69663,-0.29033 3.38875,0.53729 4.20114,2.05481l22.4,41.78l8.93,-17c0.69157,-1.31455 2.05463,-2.13764 3.54,-2.13764c1.48537,0 2.84843,0.82308 3.54,2.13764l16,30.43z" fill-opacity=".2" fill="#ffffff"/>
        <path d="M282.95333,277.49c-3.63583,2.03003 -8.06417,2.03003 -11.7,0l-57.76,-32.4l-0.14,0.91l57.9,32.46c3.63583,2.03003 8.06417,2.03003 11.7,0l58.4,-32.46l-0.15,-0.92z" fill="#a52714" opacity=".2"/>
        <path d="M324.76333,143.34c-0.25062,-1.47441 -1.30281,-2.68586 -2.7276,-3.14045c-1.4248,-0.45459 -2.98418,-0.07637 -4.0424,0.98045l-20.76,20.82l-16.34,-31.11c-0.69157,-1.31455 -2.05463,-2.13764 -3.54,-2.13764c-1.48537,0 -2.84843,0.82308 -3.54,2.13764l-8.93,17l-22.4,-41.77c-0.8124,-1.51752 -2.50451,-2.34514 -4.20114,-2.05481c-1.69663,0.29033 -3.01727,1.63351 -3.27886,3.33481l-21.65,138.6l57.9,32.46c3.63583,2.03003 8.06417,2.03003 11.7,0l58.4,-32.46z" fill="url(#color-3)"/>
      </g>
    </g>
    <circle cx="325.353" cy="240" r="40" fill="#5f6368"/>
    <g fill="#ffffff">
      <path d="M322.99133,248.454l12.712,-11.864l-3.206,-2.992l-9.506,8.872l-4.726,-4.41l-3.206,2.992zM325.35333,262c-5.212,-1.226 -9.516,-4.016 -12.908,-8.374c-3.394,-4.358 -5.092,-9.196 -5.092,-14.516v-12.81l18,-6.3l18,6.3v12.81c0,5.32 -1.696,10.16 -5.09,14.516c-3.394,4.358 -7.698,7.15 -12.91,8.374zM325.35333,257.59c3.9,-1.156 7.126,-3.466 9.674,-6.93c2.552,-3.464 3.826,-7.314 3.826,-11.55v-9.922l-13.5,-4.728l-13.5,4.728v9.922c0,4.234 1.276,8.086 3.824,11.55c2.552,3.466 5.776,5.776 9.676,6.93z"/>
    </g>
    <g fill="#5f6368">
      <path d="M99.92333,338.9v13.1h-3.92333v-30.55h17.83333v3.75667h-13.91v10.02667h12.54333v3.66667z"/>
      <path d="M121.21333,325.84667c-0.54,0.54 -1.19333,0.81 -1.96,0.81c-0.76889,0 -1.42333,-0.27 -1.96333,-0.81c-0.54,-0.54222 -0.81,-1.19667 -0.81,-1.96333c0,-0.76889 0.27,-1.42333 0.81,-1.96333c0.54,-0.54 1.19444,-0.81 1.96333,-0.81c0.76667,0 1.42,0.27 1.96,0.81c0.54222,0.54 0.81333,1.19444 0.81333,1.96333c0,0.76667 -0.27111,1.42111 -0.81333,1.96333zM121.21333,331.09333v20.90667h-3.92333v-20.90667z"/>
      <path d="M129.83333,340.56667v11.43333h-3.92667v-20.90667h3.75667v3.41333h0.17c0.39778,-1.13778 1.21556,-2.07667 2.45333,-2.81667c1.23778,-0.74 2.44,-1.11 3.60667,-1.11c1.16444,0 2.14556,0.17111 2.94333,0.51333v0l-1.49333,3.67c-0.51333,-0.2 -1.21,-0.3 -2.09,-0.3v0c-1.42222,0 -2.68111,0.56222 -3.77667,1.68667c-1.09556,1.12222 -1.64333,2.59444 -1.64333,4.41667z"/>
      <path d="M149.58667,352.68333v0c-3.15556,0 -5.72222,-1.05222 -7.7,-3.15667c-1.97778,-2.10667 -2.96667,-4.76667 -2.96667,-7.98v0c0,-3.04444 0.96,-5.66111 2.88,-7.85c1.92,-2.19111 4.37333,-3.28667 7.36,-3.28667v0c3.10222,0 5.58444,1.01 7.44667,3.03c1.86222,2.02 2.79333,4.72222 2.79333,8.10667v0l-0.04,0.72667h-16.51333c0.11333,2.10444 0.81778,3.76778 2.11333,4.99c1.29333,1.22444 2.80778,1.83667 4.54333,1.83667v0c2.81556,0 4.72111,-1.19556 5.71667,-3.58667v0l3.5,1.45333c-0.68444,1.62 -1.80889,2.97778 -3.37333,4.07333c-1.56444,1.09556 -3.48444,1.64333 -5.76,1.64333zM143.10333,339.03h12.11667c-0.08444,-1.19556 -0.63222,-2.33333 -1.64333,-3.41333c-1.00889,-1.08222 -2.50889,-1.62333 -4.5,-1.62333v0c-1.45111,0 -2.71,0.45556 -3.77667,1.36667c-1.06667,0.91111 -1.79889,2.13444 -2.19667,3.67z"/>
      <path d="M173.61,352.68333v0c-1.59333,0 -3.02333,-0.34111 -4.29,-1.02333c-1.26444,-0.68444 -2.21,-1.53778 -2.83667,-2.56v0h-0.17v2.9h-3.75333v-30.55h3.92333v9.64333l-0.17,2.9h0.17c0.62667,-1.02222 1.57222,-1.87556 2.83667,-2.56c1.26667,-0.68222 2.69667,-1.02333 4.29,-1.02333v0c2.70222,0 5.03444,1.06667 6.99667,3.2c1.96222,2.13333 2.94333,4.77889 2.94333,7.93667c0,3.15778 -0.98111,5.80333 -2.94333,7.93667c-1.96222,2.13333 -4.29444,3.2 -6.99667,3.2zM172.97,349.1v0c1.82,0 3.38444,-0.69 4.69333,-2.07c1.30889,-1.38 1.96333,-3.20778 1.96333,-5.48333c0,-2.27556 -0.65444,-4.10333 -1.96333,-5.48333c-1.30889,-1.38 -2.87333,-2.07 -4.69333,-2.07v0c-1.84889,0 -3.42111,0.68333 -4.71667,2.05c-1.29333,1.36444 -1.94,3.19889 -1.94,5.50333c0,2.30444 0.64667,4.13889 1.94,5.50333c1.29556,1.36667 2.86778,2.05 4.71667,2.05z"/>
      <path d="M193.53333,352.68333v0c-2.21778,0 -4.07333,-0.64 -5.56667,-1.92c-1.49333,-1.28 -2.24,-2.97222 -2.24,-5.07667v0c0,-2.27556 0.88222,-4.06111 2.64667,-5.35667c1.76222,-1.29333 3.93778,-1.94 6.52667,-1.94v0c2.30444,0 4.19556,0.42667 5.67333,1.28v0v-0.59667c0,-1.53778 -0.52556,-2.76889 -1.57667,-3.69333c-1.05333,-0.92444 -2.34778,-1.38667 -3.88333,-1.38667v0c-1.13778,0 -2.16889,0.27111 -3.09333,0.81333c-0.92444,0.54 -1.55778,1.27889 -1.9,2.21667v0l-3.58333,-1.53667c0.48444,-1.25111 1.43778,-2.41 2.86,-3.47667c1.42222,-1.06667 3.29889,-1.6 5.63,-1.6v0c2.67556,0 4.89444,0.78222 6.65667,2.34667c1.76444,1.56444 2.64667,3.76889 2.64667,6.61333v0v12.63h-3.75667v-2.9h-0.17c-1.56444,2.38889 -3.85444,3.58333 -6.87,3.58333zM194.17333,349.1v0c1.62222,0 3.09444,-0.60444 4.41667,-1.81333c1.32222,-1.20889 1.98333,-2.63889 1.98333,-4.29v0c-1.10889,-0.90889 -2.77222,-1.36333 -4.99,-1.36333v0c-1.90667,0 -3.34333,0.41222 -4.31,1.23667c-0.96667,0.82444 -1.45,1.79111 -1.45,2.9v0c0,1.02444 0.44111,1.83556 1.32333,2.43333c0.88,0.59778 1.88889,0.89667 3.02667,0.89667z"/>
      <path d="M215.89333,352.68333v0c-2.33333,0 -4.26111,-0.56889 -5.78333,-1.70667c-1.52222,-1.13778 -2.63889,-2.56 -3.35,-4.26667v0l3.5,-1.45c1.10889,2.61556 3,3.92333 5.67333,3.92333v0c1.22444,0 2.22778,-0.27 3.01,-0.81c0.78222,-0.54 1.17333,-1.25111 1.17333,-2.13333v0c0,-1.36444 -0.95333,-2.28889 -2.86,-2.77333v0l-4.22333,-1.02333c-1.33778,-0.34222 -2.60333,-0.99 -3.79667,-1.94333c-1.19556,-0.95111 -1.79333,-2.23778 -1.79333,-3.86v0c0,-1.84889 0.81778,-3.34889 2.45333,-4.5c1.63556,-1.15333 3.57667,-1.73 5.82333,-1.73v0c1.84889,0 3.49889,0.42 4.95,1.26c1.45111,0.83778 2.49,2.03889 3.11667,3.60333v0l-3.41333,1.41c-0.76889,-1.84889 -2.36222,-2.77333 -4.78,-2.77333v0c-1.16667,0 -2.14778,0.24111 -2.94333,0.72333c-0.79778,0.48444 -1.19667,1.13889 -1.19667,1.96333v0c0,1.19556 0.92444,2.00667 2.77333,2.43333v0l4.14,0.98c1.96222,0.45556 3.41333,1.23778 4.35333,2.34667c0.93778,1.10889 1.40667,2.36111 1.40667,3.75667v0c0,1.87556 -0.76778,3.44 -2.30333,4.69333c-1.53556,1.25111 -3.51222,1.87667 -5.93,1.87667z"/>
      <path d="M237.22667,352.68333v0c-3.15778,0 -5.72556,-1.05222 -7.70333,-3.15667c-1.97556,-2.10667 -2.96333,-4.76667 -2.96333,-7.98v0c0,-3.04444 0.96,-5.66111 2.88,-7.85c1.92,-2.19111 4.37333,-3.28667 7.36,-3.28667v0c3.1,0 5.58111,1.01 7.44333,3.03c1.86444,2.02 2.79667,4.72222 2.79667,8.10667v0l-0.04333,0.72667h-16.51333c0.11333,2.10444 0.81778,3.76778 2.11333,4.99c1.29333,1.22444 2.80778,1.83667 4.54333,1.83667v0c2.81556,0 4.72111,-1.19556 5.71667,-3.58667v0l3.5,1.45333c-0.68222,1.62 -1.80556,2.97778 -3.37,4.07333c-1.56444,1.09556 -3.48444,1.64333 -5.76,1.64333zM230.74,339.03h12.11667c-0.08444,-1.19556 -0.63222,-2.33333 -1.64333,-3.41333c-1.00889,-1.08222 -2.50889,-1.62333 -4.5,-1.62333v0c-1.45111,0 -2.71,0.45556 -3.77667,1.36667c-1.06667,0.91111 -1.79889,2.13444 -2.19667,3.67z"/>
      <path d=""/>
      <path d="M260.77667,352h-4.35l11.52,-30.55h4.43667l11.52,30.55h-4.35333l-2.94333,-8.27667h-12.84333zM270.08,326.27333l-4.99333,13.78h10.15333l-4.99,-13.78z"/>
      <path d="M297.04333,352.68333v0c-1.59333,0 -3.02222,-0.34111 -4.28667,-1.02333c-1.26667,-0.68444 -2.21222,-1.53778 -2.83667,-2.56v0h-0.17333l0.17333,2.9v9.21667h-3.92667v-30.12333h3.75333v2.9h0.17333c0.62444,-1.02222 1.57,-1.87556 2.83667,-2.56c1.26444,-0.68222 2.69333,-1.02333 4.28667,-1.02333v0c2.70222,0 5.03444,1.06667 6.99667,3.2c1.96444,2.13333 2.94667,4.77889 2.94667,7.93667c0,3.15778 -0.98222,5.80333 -2.94667,7.93667c-1.96222,2.13333 -4.29444,3.2 -6.99667,3.2zM296.40333,349.1v0c1.82,0 3.38444,-0.69 4.69333,-2.07c1.30889,-1.38 1.96333,-3.20778 1.96333,-5.48333c0,-2.27556 -0.65444,-4.10333 -1.96333,-5.48333c-1.30889,-1.38 -2.87333,-2.07 -4.69333,-2.07v0c-1.84889,0 -3.42,0.68333 -4.71333,2.05c-1.29556,1.36444 -1.94333,3.19889 -1.94333,5.50333c0,2.30444 0.64778,4.13889 1.94333,5.50333c1.29333,1.36667 2.86444,2.05 4.71333,2.05z"/>
      <path d="M320.38333,352.68333v0c-1.59333,0 -3.02333,-0.34111 -4.29,-1.02333c-1.26444,-0.68444 -2.21,-1.53778 -2.83667,-2.56v0h-0.17l0.17,2.9v9.21667h-3.92333v-30.12333h3.75333v2.9h0.17c0.62667,-1.02222 1.57222,-1.87556 2.83667,-2.56c1.26667,-0.68222 2.69667,-1.02333 4.29,-1.02333v0c2.70222,0 5.03444,1.06667 6.99667,3.2c1.96222,2.13333 2.94333,4.77889 2.94333,7.93667c0,3.15778 -0.98111,5.80333 -2.94333,7.93667c-1.96222,2.13333 -4.29444,3.2 -6.99667,3.2zM319.74333,349.1v0c1.82,0 3.38444,-0.69 4.69333,-2.07c1.30889,-1.38 1.96333,-3.20778 1.96333,-5.48333c0,-2.27556 -0.65444,-4.10333 -1.96333,-5.48333c-1.30889,-1.38 -2.87333,-2.07 -4.69333,-2.07v0c-1.84889,0 -3.42111,0.68333 -4.71667,2.05c-1.29333,1.36444 -1.94,3.19889 -1.94,5.50333c0,2.30444 0.64667,4.13889 1.94,5.50333c1.29556,1.36667 2.86778,2.05 4.71667,2.05z"/>
      <path d=""/>
      <path d="M357.50333,352.68333v0c-4.49556,0 -8.26444,-1.52222 -11.30667,-4.56667c-3.04444,-3.04222 -4.56667,-6.83889 -4.56667,-11.39c0,-4.55111 1.52222,-8.34889 4.56667,-11.39333c3.04222,-3.04444 6.81111,-4.56667 11.30667,-4.56667v0c4.60667,0 8.34667,1.66444 11.22,4.99333v0l-2.73,2.64667c-2.07556,-2.58889 -4.90556,-3.88333 -8.49,-3.88333v0c-3.32889,0 -6.13778,1.12333 -8.42667,3.37c-2.29111,2.24667 -3.43667,5.19111 -3.43667,8.83333c0,3.64 1.14556,6.58333 3.43667,8.83c2.28889,2.24667 5.09778,3.37 8.42667,3.37v0c3.66889,0 6.79778,-1.47889 9.38667,-4.43667v0l2.73,2.73c-1.39333,1.68 -3.14222,3.01 -5.24667,3.99c-2.10667,0.98222 -4.39667,1.47333 -6.87,1.47333z"/>
      <path d="M372.69333,321.45h3.92333v9.64333l-0.17,2.9h0.17c0.56889,-0.99556 1.46556,-1.84111 2.69,-2.53667c1.22222,-0.69778 2.53,-1.04667 3.92333,-1.04667v0c2.58889,0 4.56556,0.79667 5.93,2.39c1.36667,1.59333 2.05,3.72667 2.05,6.4v0v12.8h-3.92667v-12.20333c0,-3.86889 -1.72111,-5.80333 -5.16333,-5.80333v0c-1.62,0 -2.94222,0.64778 -3.96667,1.94333c-1.02444,1.29333 -1.53667,2.79333 -1.53667,4.5v0v11.56333h-3.92333z"/>
      <path d="M404.86333,352.68333v0c-3.15778,0 -5.72556,-1.05222 -7.70333,-3.15667c-1.97556,-2.10667 -2.96333,-4.76667 -2.96333,-7.98v0c0,-3.04444 0.96,-5.66111 2.88,-7.85c1.92,-2.19111 4.37333,-3.28667 7.36,-3.28667v0c3.1,0 5.58111,1.01 7.44333,3.03c1.86444,2.02 2.79667,4.72222 2.79667,8.10667v0l-0.04333,0.72667h-16.51333c0.11556,2.10444 0.82,3.76778 2.11333,4.99c1.29333,1.22444 2.80778,1.83667 4.54333,1.83667v0c2.81556,0 4.72111,-1.19556 5.71667,-3.58667v0l3.5,1.45333c-0.68222,1.62 -1.80556,2.97778 -3.37,4.07333c-1.56444,1.09556 -3.48444,1.64333 -5.76,1.64333zM398.37667,339.03h12.11667c-0.08444,-1.19556 -0.63111,-2.33333 -1.64,-3.41333c-1.01111,-1.08222 -2.51222,-1.62333 -4.50333,-1.62333v0c-1.45111,0 -2.71,0.45556 -3.77667,1.36667c-1.06667,0.91111 -1.79889,2.13444 -2.19667,3.67z"/>
      <path d="M427.60333,352.68333v0c-3.12889,0 -5.70333,-1.06 -7.72333,-3.18c-2.01778,-2.11778 -3.02667,-4.77 -3.02667,-7.95667c0,-3.18667 1.00889,-5.83889 3.02667,-7.95667c2.02,-2.12 4.59444,-3.18 7.72333,-3.18v0c2.33333,0 4.26778,0.56889 5.80333,1.70667c1.53556,1.13778 2.65889,2.57444 3.37,4.31v0l-3.58333,1.49333c-1.08,-2.61778 -3.02889,-3.92667 -5.84667,-3.92667v0c-1.73333,0 -3.26222,0.71111 -4.58667,2.13333c-1.32222,1.42222 -1.98333,3.22889 -1.98333,5.42c0,2.19111 0.66111,3.99778 1.98333,5.42c1.32444,1.42222 2.85333,2.13333 4.58667,2.13333v0c2.93111,0 4.95111,-1.30889 6.06,-3.92667v0l3.5,1.49333c-0.71111,1.70667 -1.85667,3.13556 -3.43667,4.28667c-1.57778,1.15333 -3.53333,1.73 -5.86667,1.73z"/>
      <path d="M440.32,321.45h3.92333v18.81667l9.04667,-9.17333h5.03333v0.17l-8.15,8.15l8.53333,12.41667v0.17h-4.73333l-6.57333,-9.85667l-3.15667,3.15667v6.7h-3.92333z"/>
    </g>
  </g>
</svg>
