<svg version="1.1" xmlns="http://www.w3.org/2000/svg" xmlns:xlink="http://www.w3.org/1999/xlink" width="394.28" height="464" viewBox="0 0 394.28 464">
  <g fill="none" fill-rule="nonzero" stroke="none" stroke-width="1" stroke-linecap="butt" stroke-linejoin="miter" stroke-dasharray="" stroke-dashoffset="0">
    <rect x="0" y="0" width="394.28" height="464" fill="none"/>
    <circle cx="197.14" cy="192" r="96" fill="#ffca28"/>
    <g fill="#3c4043">
      <path d="M191.62867,211.726l29.66133,-27.68267l-7.48067,-6.98133l-22.18067,20.70133l-11.02733,-10.29l-7.48067,6.98133zM197.14,243.33333c-12.16133,-2.86067 -22.204,-9.37067 -30.11867,-19.53933c-7.91933,-10.16867 -11.88133,-21.45733 -11.88133,-33.87067v-29.89l42,-14.7l42,14.7v29.89c0,12.41333 -3.95733,23.70667 -11.87667,33.87067c-7.91933,10.16867 -17.962,16.68333 -30.12333,19.53933zM197.14,233.04333c9.1,-2.69733 16.62733,-8.08733 22.57267,-16.17c5.95467,-8.08267 8.92733,-17.066 8.92733,-26.95v-23.15133l-31.5,-11.032l-31.5,11.032v23.15133c0,9.87933 2.97733,18.86733 8.92267,26.95c5.95467,8.08733 13.47733,13.47733 22.57733,16.17z"/>
    </g>
    <g fill="#5f6368">
      <path d="M100.35,352h-4.35l11.52,-30.55h4.43667l11.52,30.55h-4.35333l-2.94333,-8.27667h-12.84333zM109.65333,326.27333l-4.99333,13.78h10.15333l-4.99,-13.78z"/>
      <path d="M136.61667,352.68333v0c-1.59333,0 -3.02222,-0.34111 -4.28667,-1.02333c-1.26667,-0.68444 -2.21222,-1.53778 -2.83667,-2.56v0h-0.17333l0.17333,2.9v9.21667h-3.92667v-30.12333h3.75333v2.9h0.17333c0.62444,-1.02222 1.57,-1.87556 2.83667,-2.56c1.26444,-0.68222 2.69333,-1.02333 4.28667,-1.02333v0c2.70222,0 5.03444,1.06667 6.99667,3.2c1.96444,2.13333 2.94667,4.77889 2.94667,7.93667c0,3.15778 -0.98222,5.80333 -2.94667,7.93667c-1.96222,2.13333 -4.29444,3.2 -6.99667,3.2zM135.97667,349.1v0c1.82,0 3.38444,-0.69 4.69333,-2.07c1.30889,-1.38 1.96333,-3.20778 1.96333,-5.48333c0,-2.27556 -0.65444,-4.10333 -1.96333,-5.48333c-1.30889,-1.38 -2.87333,-2.07 -4.69333,-2.07v0c-1.84889,0 -3.42,0.68333 -4.71333,2.05c-1.29556,1.36444 -1.94333,3.19889 -1.94333,5.50333c0,2.30444 0.64778,4.13889 1.94333,5.50333c1.29333,1.36667 2.86444,2.05 4.71333,2.05z"/>
      <path d="M159.95667,352.68333v0c-1.59333,0 -3.02333,-0.34111 -4.29,-1.02333c-1.26444,-0.68444 -2.21,-1.53778 -2.83667,-2.56v0h-0.17l0.17,2.9v9.21667h-3.92333v-30.12333h3.75333v2.9h0.17c0.62667,-1.02222 1.57222,-1.87556 2.83667,-2.56c1.26667,-0.68222 2.69667,-1.02333 4.29,-1.02333v0c2.70222,0 5.03444,1.06667 6.99667,3.2c1.96222,2.13333 2.94333,4.77889 2.94333,7.93667c0,3.15778 -0.98111,5.80333 -2.94333,7.93667c-1.96222,2.13333 -4.29444,3.2 -6.99667,3.2zM159.31667,349.1v0c1.82,0 3.38444,-0.69 4.69333,-2.07c1.30889,-1.38 1.96333,-3.20778 1.96333,-5.48333c0,-2.27556 -0.65444,-4.10333 -1.96333,-5.48333c-1.30889,-1.38 -2.87333,-2.07 -4.69333,-2.07v0c-1.84889,0 -3.42111,0.68333 -4.71667,2.05c-1.29333,1.36444 -1.94,3.19889 -1.94,5.50333c0,2.30444 0.64667,4.13889 1.94,5.50333c1.29556,1.36667 2.86778,2.05 4.71667,2.05z"/>
      <path d=""/>
      <path d="M197.07667,352.68333v0c-4.49556,0 -8.26444,-1.52222 -11.30667,-4.56667c-3.04444,-3.04222 -4.56667,-6.83889 -4.56667,-11.39c0,-4.55111 1.52222,-8.34889 4.56667,-11.39333c3.04222,-3.04444 6.81111,-4.56667 11.30667,-4.56667v0c4.60667,0 8.34667,1.66444 11.22,4.99333v0l-2.73,2.64667c-2.07556,-2.58889 -4.90556,-3.88333 -8.49,-3.88333v0c-3.32889,0 -6.13778,1.12333 -8.42667,3.37c-2.29111,2.24667 -3.43667,5.19111 -3.43667,8.83333c0,3.64 1.14556,6.58333 3.43667,8.83c2.28889,2.24667 5.09778,3.37 8.42667,3.37v0c3.66889,0 6.79778,-1.47889 9.38667,-4.43667v0l2.73,2.73c-1.39333,1.68 -3.14222,3.01 -5.24667,3.99c-2.10667,0.98222 -4.39667,1.47333 -6.87,1.47333z"/>
      <path d="M212.26667,321.45h3.92333v9.64333l-0.17,2.9h0.17c0.56889,-0.99556 1.46556,-1.84111 2.69,-2.53667c1.22222,-0.69778 2.53,-1.04667 3.92333,-1.04667v0c2.58889,0 4.56556,0.79667 5.93,2.39c1.36667,1.59333 2.05,3.72667 2.05,6.4v0v12.8h-3.92667v-12.20333c0,-3.86889 -1.72111,-5.80333 -5.16333,-5.80333v0c-1.62,0 -2.94222,0.64778 -3.96667,1.94333c-1.02444,1.29333 -1.53667,2.79333 -1.53667,4.5v0v11.56333h-3.92333z"/>
      <path d="M244.43667,352.68333v0c-3.15778,0 -5.72556,-1.05222 -7.70333,-3.15667c-1.97556,-2.10667 -2.96333,-4.76667 -2.96333,-7.98v0c0,-3.04444 0.96,-5.66111 2.88,-7.85c1.92,-2.19111 4.37333,-3.28667 7.36,-3.28667v0c3.1,0 5.58111,1.01 7.44333,3.03c1.86444,2.02 2.79667,4.72222 2.79667,8.10667v0l-0.04333,0.72667h-16.51333c0.11556,2.10444 0.82,3.76778 2.11333,4.99c1.29333,1.22444 2.80778,1.83667 4.54333,1.83667v0c2.81556,0 4.72111,-1.19556 5.71667,-3.58667v0l3.5,1.45333c-0.68222,1.62 -1.80556,2.97778 -3.37,4.07333c-1.56444,1.09556 -3.48444,1.64333 -5.76,1.64333zM237.95,339.03h12.11667c-0.08444,-1.19556 -0.63111,-2.33333 -1.64,-3.41333c-1.01111,-1.08222 -2.51222,-1.62333 -4.50333,-1.62333v0c-1.45111,0 -2.71,0.45556 -3.77667,1.36667c-1.06667,0.91111 -1.79889,2.13444 -2.19667,3.67z"/>
      <path d="M267.17667,352.68333v0c-3.12889,0 -5.70333,-1.06 -7.72333,-3.18c-2.01778,-2.11778 -3.02667,-4.77 -3.02667,-7.95667c0,-3.18667 1.00889,-5.83889 3.02667,-7.95667c2.02,-2.12 4.59444,-3.18 7.72333,-3.18v0c2.33333,0 4.26778,0.56889 5.80333,1.70667c1.53556,1.13778 2.65889,2.57444 3.37,4.31v0l-3.58333,1.49333c-1.08,-2.61778 -3.02889,-3.92667 -5.84667,-3.92667v0c-1.73333,0 -3.26222,0.71111 -4.58667,2.13333c-1.32222,1.42222 -1.98333,3.22889 -1.98333,5.42c0,2.19111 0.66111,3.99778 1.98333,5.42c1.32444,1.42222 2.85333,2.13333 4.58667,2.13333v0c2.93111,0 4.95111,-1.30889 6.06,-3.92667v0l3.5,1.49333c-0.71111,1.70667 -1.85667,3.13556 -3.43667,4.28667c-1.57778,1.15333 -3.53333,1.73 -5.86667,1.73z"/>
      <path d="M279.89333,321.45h3.92333v18.81667l9.04667,-9.17333h5.03333v0.17l-8.15,8.15l8.53333,12.41667v0.17h-4.73333l-6.57333,-9.85667l-3.15667,3.15667v6.7h-3.92333z"/>
    </g>
  </g>
</svg>
