<svg version="1.1" xmlns="http://www.w3.org/2000/svg" xmlns:xlink="http://www.w3.org/1999/xlink" width="458.197" height="464" viewBox="0 0 458.197 464">
  <g fill="none" stroke="none" stroke-width="1" stroke-linecap="butt" stroke-linejoin="miter" stroke-dasharray="" stroke-dashoffset="0">
    <rect x="0" y="0" width="458.197" height="464" fill="none" fill-rule="nonzero"/>
    <circle cx="229.098" cy="192" r="96" fill="#ffca28" fill-rule="nonzero"/>
    <g fill="#3c4043" fill-rule="evenodd">
      <path d="M247.765,187.33333c7.74667,0 13.95333,-6.25333 13.95333,-14c0,-7.74667 -6.20667,-14 -13.95333,-14c-7.74667,0 -14,6.25333 -14,14c0,7.74667 6.25333,14 14,14zM210.43167,187.33333c7.74667,0 13.95333,-6.25333 13.95333,-14c0,-7.74667 -6.20667,-14 -13.95333,-14c-7.74667,0 -14,6.25333 -14,14c0,7.74667 6.25333,14 14,14zM210.43167,196.66667c-10.87333,0 -32.66667,5.46 -32.66667,16.33333v11.66667h65.33333v-11.66667c0,-10.87333 -21.79333,-16.33333 -32.66667,-16.33333zM247.765,196.66667c-1.35333,0 -2.89333,0.09333 -4.52667,0.23333c5.41333,3.92 9.19333,9.19333 9.19333,16.1v11.66667h28v-11.66667c0,-10.87333 -21.79333,-16.33333 -32.66667,-16.33333z"/>
    </g>
    <g fill="#5f6368" fill-rule="nonzero">
      <path d="M100.35,352h-4.35l11.52,-30.55h4.43667l11.52,30.55h-4.35333l-2.94333,-8.27667h-12.84333zM109.65333,326.27333l-4.99333,13.78h10.15333l-4.99,-13.78z"/>
      <path d="M144.08333,331.09333v20.90667h-3.75333v-2.9h-0.17c-0.59778,0.99556 -1.50889,1.84111 -2.73333,2.53667c-1.22222,0.69778 -2.51556,1.04667 -3.88,1.04667v0c-2.61778,0 -4.60222,-0.79667 -5.95333,-2.39c-1.35111,-1.59333 -2.02667,-3.72667 -2.02667,-6.4v0v-12.8h3.92667v12.16c0,3.89778 1.72,5.84667 5.16,5.84667v0c1.62222,0 2.94556,-0.65444 3.97,-1.96333c1.02444,-1.30889 1.53667,-2.81667 1.53667,-4.52333v0v-11.52z"/>
      <path d="M157.69333,352.34v0c-2.18889,0 -3.86,-0.58222 -5.01333,-1.74667c-1.15111,-1.16667 -1.72667,-2.81667 -1.72667,-4.95v0v-10.96667h-3.67v-3.58333h3.67v-6.4h3.92667v6.4h5.12v3.58333h-5.12v10.66667c0,2.27556 0.93778,3.41333 2.81333,3.41333v0c0.71111,0 1.30889,-0.11333 1.79333,-0.34v0l1.36667,3.37c-0.85333,0.36889 -1.90667,0.55333 -3.16,0.55333z"/>
      <path d="M163.32667,321.45h3.92667v9.64333l-0.17333,2.9h0.17333c0.56889,-0.99556 1.46444,-1.84111 2.68667,-2.53667c1.22222,-0.69778 2.53111,-1.04667 3.92667,-1.04667v0c2.58667,0 4.56333,0.79667 5.93,2.39c1.36444,1.59333 2.04667,3.72667 2.04667,6.4v0v12.8h-3.92333v-12.20333c0,-3.86889 -1.72111,-5.80333 -5.16333,-5.80333v0c-1.62222,0 -2.94556,0.64778 -3.97,1.94333c-1.02222,1.29333 -1.53333,2.79333 -1.53333,4.5v0v11.56333h-3.92667z"/>
      <path d="M195.49667,352.68333v0c-3.15778,0 -5.72444,-1.05222 -7.7,-3.15667c-1.97778,-2.10667 -2.96667,-4.76667 -2.96667,-7.98v0c0,-3.04444 0.96,-5.66111 2.88,-7.85c1.92,-2.19111 4.37333,-3.28667 7.36,-3.28667v0c3.1,0 5.58222,1.01 7.44667,3.03c1.86222,2.02 2.79333,4.72222 2.79333,8.10667v0l-0.04333,0.72667h-16.51c0.11333,2.10444 0.81667,3.76778 2.11,4.99c1.29556,1.22444 2.81111,1.83667 4.54667,1.83667v0c2.81556,0 4.72111,-1.19556 5.71667,-3.58667v0l3.49667,1.45333c-0.68222,1.62 -1.80556,2.97778 -3.37,4.07333c-1.56444,1.09556 -3.48444,1.64333 -5.76,1.64333zM189.01333,339.03h12.11667c-0.08667,-1.19556 -0.63444,-2.33333 -1.64333,-3.41333c-1.00889,-1.08222 -2.50889,-1.62333 -4.5,-1.62333v0c-1.45111,0 -2.71,0.45556 -3.77667,1.36667c-1.06667,0.91111 -1.79889,2.13444 -2.19667,3.67z"/>
      <path d="M208.46667,331.09333h3.75667v2.9h0.17c0.56889,-0.99556 1.46444,-1.84111 2.68667,-2.53667c1.22444,-0.69778 2.53333,-1.04667 3.92667,-1.04667v0c2.58889,0 4.56556,0.79667 5.93,2.39c1.36667,1.59333 2.05,3.72667 2.05,6.4v0v12.8h-3.92667v-12.20333c0,-3.86889 -1.72111,-5.80333 -5.16333,-5.80333v0c-1.62,0 -2.94222,0.64778 -3.96667,1.94333c-1.02444,1.29333 -1.53667,2.79333 -1.53667,4.5v0v11.56333h-3.92667z"/>
      <path d="M239.57333,352.34v0c-2.19111,0 -3.86222,-0.58222 -5.01333,-1.74667c-1.15333,-1.16667 -1.73,-2.81667 -1.73,-4.95v0v-10.96667h-3.67v-3.58333h3.67v-6.4h3.92667v6.4h5.12v3.58333h-5.12v10.66667c0,2.27556 0.93889,3.41333 2.81667,3.41333v0c0.71111,0 1.30778,-0.11333 1.79,-0.34v0l1.36667,3.37c-0.85333,0.36889 -1.90556,0.55333 -3.15667,0.55333z"/>
      <path d="M249.47,325.84667c-0.54,0.54 -1.19444,0.81 -1.96333,0.81c-0.76667,0 -1.42,-0.27 -1.96,-0.81c-0.54222,-0.54222 -0.81333,-1.19667 -0.81333,-1.96333c0,-0.76889 0.27111,-1.42333 0.81333,-1.96333c0.54,-0.54 1.19333,-0.81 1.96,-0.81c0.76889,0 1.42333,0.27 1.96333,0.81c0.54,0.54 0.81,1.19444 0.81,1.96333c0,0.76667 -0.27,1.42111 -0.81,1.96333zM249.47,331.09333v20.90667h-3.92333v-20.90667z"/>
      <path d="M263.50667,352.68333v0c-3.12889,0 -5.70222,-1.06 -7.72,-3.18c-2.02,-2.11778 -3.03,-4.77 -3.03,-7.95667c0,-3.18667 1.01,-5.83889 3.03,-7.95667c2.01778,-2.12 4.59111,-3.18 7.72,-3.18v0c2.33333,0 4.26778,0.56889 5.80333,1.70667c1.53556,1.13778 2.65889,2.57444 3.37,4.31v0l-3.58333,1.49333c-1.08,-2.61778 -3.02778,-3.92667 -5.84333,-3.92667v0c-1.73556,0 -3.26444,0.71111 -4.58667,2.13333c-1.32444,1.42222 -1.98667,3.22889 -1.98667,5.42c0,2.19111 0.66222,3.99778 1.98667,5.42c1.32222,1.42222 2.85111,2.13333 4.58667,2.13333v0c2.92889,0 4.94778,-1.30889 6.05667,-3.92667v0l3.5,1.49333c-0.71111,1.70667 -1.85667,3.13556 -3.43667,4.28667c-1.57778,1.15333 -3.53333,1.73 -5.86667,1.73z"/>
      <path d="M282.62333,352.68333v0c-2.22,0 -4.07667,-0.64 -5.57,-1.92c-1.49333,-1.28 -2.24,-2.97222 -2.24,-5.07667v0c0,-2.27556 0.88222,-4.06111 2.64667,-5.35667c1.76444,-1.29333 3.94,-1.94 6.52667,-1.94v0c2.30444,0 4.19667,0.42667 5.67667,1.28v0v-0.59667c0,-1.53778 -0.52667,-2.76889 -1.58,-3.69333c-1.05111,-0.92444 -2.34556,-1.38667 -3.88333,-1.38667v0c-1.13778,0 -2.16889,0.27111 -3.09333,0.81333c-0.92444,0.54 -1.55667,1.27889 -1.89667,2.21667v0l-3.58333,-1.53667c0.48222,-1.25111 1.43444,-2.41 2.85667,-3.47667c1.42222,-1.06667 3.3,-1.6 5.63333,-1.6v0c2.67333,0 4.89222,0.78222 6.65667,2.34667c1.76222,1.56444 2.64333,3.76889 2.64333,6.61333v0v12.63h-3.75333v-2.9h-0.17c-1.56444,2.38889 -3.85444,3.58333 -6.87,3.58333zM283.26333,349.1v0c1.62,0 3.09222,-0.60444 4.41667,-1.81333c1.32222,-1.20889 1.98333,-2.63889 1.98333,-4.29v0c-1.10889,-0.90889 -2.77333,-1.36333 -4.99333,-1.36333v0c-1.90444,0 -3.34111,0.41222 -4.31,1.23667c-0.96667,0.82444 -1.45,1.79111 -1.45,2.9v0c0,1.02444 0.44111,1.83556 1.32333,2.43333c0.88222,0.59778 1.89222,0.89667 3.03,0.89667z"/>
      <path d="M305.83333,352.34v0c-2.19111,0 -3.86222,-0.58222 -5.01333,-1.74667c-1.15111,-1.16667 -1.72667,-2.81667 -1.72667,-4.95v0v-10.96667h-3.67v-3.58333h3.67v-6.4h3.92333v6.4h5.12v3.58333h-5.12v10.66667c0,2.27556 0.93889,3.41333 2.81667,3.41333v0c0.71111,0 1.30889,-0.11333 1.79333,-0.34v0l1.36333,3.37c-0.85333,0.36889 -1.90556,0.55333 -3.15667,0.55333z"/>
      <path d="M315.73333,325.84667c-0.54222,0.54 -1.19667,0.81 -1.96333,0.81c-0.76889,0 -1.42333,-0.27 -1.96333,-0.81c-0.54,-0.54222 -0.81,-1.19667 -0.81,-1.96333c0,-0.76889 0.27,-1.42333 0.81,-1.96333c0.54,-0.54 1.19444,-0.81 1.96333,-0.81c0.76667,0 1.42111,0.27 1.96333,0.81c0.54,0.54 0.81,1.19444 0.81,1.96333c0,0.76667 -0.27,1.42111 -0.81,1.96333zM315.73333,331.09333v20.90667h-3.92667v-20.90667z"/>
      <path d="M322.04667,333.59c2.02,-2.12 4.59444,-3.18 7.72333,-3.18c3.12889,0 5.70333,1.06 7.72333,3.18c2.01778,2.11778 3.02667,4.77 3.02667,7.95667c0,3.18667 -1.00889,5.83889 -3.02667,7.95667c-2.02,2.12 -4.59444,3.18 -7.72333,3.18c-3.12889,0 -5.70333,-1.06 -7.72333,-3.18c-2.02,-2.11778 -3.03,-4.77 -3.03,-7.95667c0,-3.18667 1.01,-5.83889 3.03,-7.95667zM324.97,347.03c1.35111,1.38 2.95111,2.07 4.8,2.07c1.84889,0 3.44889,-0.69 4.8,-2.07c1.35111,-1.38 2.02667,-3.20778 2.02667,-5.48333c0,-2.27556 -0.67556,-4.10333 -2.02667,-5.48333c-1.35111,-1.38 -2.95111,-2.07 -4.8,-2.07c-1.84889,0 -3.44889,0.69 -4.8,2.07c-1.35111,1.38 -2.02667,3.20778 -2.02667,5.48333c0,2.27556 0.67556,4.10333 2.02667,5.48333z"/>
      <path d="M343.68,331.09333h3.75333v2.9h0.17c0.56889,-0.99556 1.46556,-1.84111 2.69,-2.53667c1.22222,-0.69778 2.53,-1.04667 3.92333,-1.04667v0c2.58889,0 4.56556,0.79667 5.93,2.39c1.36667,1.59333 2.05,3.72667 2.05,6.4v0v12.8h-3.92667v-12.20333c0,-3.86889 -1.72111,-5.80333 -5.16333,-5.80333v0c-1.62,0 -2.94222,0.64778 -3.96667,1.94333c-1.02444,1.29333 -1.53667,2.79333 -1.53667,4.5v0v11.56333h-3.92333z"/>
    </g>
  </g>
</svg>
