<svg version="1.1" xmlns="http://www.w3.org/2000/svg" xmlns:xlink="http://www.w3.org/1999/xlink" width="1262.59" height="448" viewBox="0 0 1262.59 448">
  <g fill="none" stroke="none" stroke-width="1" stroke-linecap="butt" stroke-linejoin="miter" stroke-dasharray="" stroke-dashoffset="0">
    <rect x="0" y="0" width="1262.59" height="448" fill="none" fill-rule="nonzero"/>
    <circle cx="192" cy="224" r="96" fill="#ffca28" fill-rule="nonzero"/>
    <g fill="#3c4043" fill-rule="evenodd">
      <path d="M210.66667,219.33333c7.74667,0 13.95333,-6.25333 13.95333,-14c0,-7.74667 -6.20667,-14 -13.95333,-14c-7.74667,0 -14,6.25333 -14,14c0,7.74667 6.25333,14 14,14zM173.33333,219.33333c7.74667,0 13.95333,-6.25333 13.95333,-14c0,-7.74667 -6.20667,-14 -13.95333,-14c-7.74667,0 -14,6.25333 -14,14c0,7.74667 6.25333,14 14,14zM173.33333,228.66667c-10.87333,0 -32.66667,5.46 -32.66667,16.33333v11.66667h65.33333v-11.66667c0,-10.87333 -21.79333,-16.33333 -32.66667,-16.33333zM210.66667,228.66667c-1.35333,0 -2.89333,0.09333 -4.52667,0.23333c5.41333,3.92 9.19333,9.19333 9.19333,16.1v11.66667h28v-11.66667c0,-10.87333 -21.79333,-16.33333 -32.66667,-16.33333z"/>
    </g>
    <g fill="#5f6368" fill-rule="nonzero">
      <path d="M349.05,272h-13.05l34.56,-91.65h13.31l34.56,91.65h-13.06l-8.83,-24.83h-38.53zM376.96,194.82l-14.98,41.34h30.46l-14.97,-41.34z"/>
      <path d="M480.25,209.28v62.72h-11.26v-8.7h-0.51c-1.79333,2.98667 -4.52667,5.52333 -8.2,7.61c-3.66667,2.09333 -7.54667,3.14 -11.64,3.14v0c-7.85333,0 -13.80667,-2.39 -17.86,-7.17c-4.05333,-4.78 -6.08,-11.18 -6.08,-19.2v0v-38.4h11.78v36.48c0,11.69333 5.16,17.54 15.48,17.54v0c4.86667,0 8.83667,-1.96333 11.91,-5.89c3.07333,-3.92667 4.61,-8.45 4.61,-13.57v0v-34.56z"/>
      <path d="M521.08,273.02v0c-6.56667,0 -11.58,-1.74667 -15.04,-5.24c-3.45333,-3.5 -5.18,-8.45 -5.18,-14.85v0v-32.9h-11.01v-10.75h11.01v-19.2h11.78v19.2h15.36v10.75h-15.36v32c0,6.82667 2.81333,10.24 8.44,10.24v0c2.13333,0 3.92667,-0.34 5.38,-1.02v0l4.1,10.11c-2.56,1.10667 -5.72,1.66 -9.48,1.66z"/>
      <path d="M537.98,180.35h11.78v28.93l-0.52,8.7h0.52c1.70667,-2.98667 4.39333,-5.52333 8.06,-7.61c3.66667,-2.09333 7.59333,-3.14 11.78,-3.14v0c7.76,0 13.69,2.39 17.79,7.17c4.09333,4.78 6.14,11.18 6.14,19.2v0v38.4h-11.77v-36.61c0,-11.60667 -5.16333,-17.41 -15.49,-17.41v0c-4.86667,0 -8.83667,1.94333 -11.91,5.83c-3.06667,3.88 -4.6,8.38 -4.6,13.5v0v34.69h-11.78z"/>
      <path d="M634.49,274.05v0c-9.47333,0 -17.17333,-3.15667 -23.1,-9.47c-5.93333,-6.32 -8.9,-14.3 -8.9,-23.94v0c0,-9.13333 2.88,-16.98333 8.64,-23.55c5.76,-6.57333 13.12,-9.86 22.08,-9.86v0c9.3,0 16.74667,3.03 22.34,9.09c5.58667,6.06 8.38,14.16667 8.38,24.32v0l-0.13,2.18h-49.53c0.34,6.31333 2.45,11.30333 6.33,14.97c3.88667,3.67333 8.43333,5.51 13.64,5.51v0c8.44667,0 14.16333,-3.58667 17.15,-10.76v0l10.49,4.36c-2.04667,4.86 -5.41667,8.93333 -10.11,12.22c-4.69333,3.28667 -10.45333,4.93 -17.28,4.93zM615.04,233.09h36.35c-0.26,-3.58667 -1.90333,-7 -4.93,-10.24c-3.02667,-3.24667 -7.52667,-4.87 -13.5,-4.87v0c-4.35333,0 -8.13,1.36667 -11.33,4.1c-3.2,2.73333 -5.39667,6.40333 -6.59,11.01z"/>
      <path d="M673.4,209.28h11.27v8.7h0.51c1.70667,-2.98667 4.39333,-5.52333 8.06,-7.61c3.67333,-2.09333 7.6,-3.14 11.78,-3.14v0c7.76667,0 13.69667,2.39 17.79,7.17c4.1,4.78 6.15,11.18 6.15,19.2v0v38.4h-11.78v-36.61c0,-11.60667 -5.16333,-17.41 -15.49,-17.41v0c-4.86,0 -8.82667,1.94333 -11.9,5.83c-3.07333,3.88 -4.61,8.38 -4.61,13.5v0v34.69h-11.78z"/>
      <path d="M766.72,273.02v0c-6.57333,0 -11.58667,-1.74667 -15.04,-5.24c-3.46,-3.5 -5.19,-8.45 -5.19,-14.85v0v-32.9h-11.01v-10.75h11.01v-19.2h11.78v19.2h15.36v10.75h-15.36v32c0,6.82667 2.81667,10.24 8.45,10.24v0c2.13333,0 3.92333,-0.34 5.37,-1.02v0l4.1,10.11c-2.56,1.10667 -5.71667,1.66 -9.47,1.66z"/>
      <path d="M796.41,193.54c-1.62,1.62 -3.58333,2.43 -5.89,2.43c-2.3,0 -4.26,-0.81 -5.88,-2.43c-1.62667,-1.62667 -2.44,-3.59 -2.44,-5.89c0,-2.30667 0.81333,-4.27 2.44,-5.89c1.62,-1.62 3.58,-2.43 5.88,-2.43c2.30667,0 4.27,0.81 5.89,2.43c1.62,1.62 2.43,3.58333 2.43,5.89c0,2.3 -0.81,4.26333 -2.43,5.89zM796.41,209.28v62.72h-11.77v-62.72z"/>
      <path d="M838.52,274.05v0c-9.38667,0 -17.10667,-3.18 -23.16,-9.54c-6.06,-6.35333 -9.09,-14.31 -9.09,-23.87c0,-9.56 3.03,-17.51667 9.09,-23.87c6.05333,-6.36 13.77333,-9.54 23.16,-9.54v0c7,0 12.80333,1.70667 17.41,5.12c4.60667,3.41333 7.97667,7.72333 10.11,12.93v0l-10.75,4.48c-3.24,-7.85333 -9.08333,-11.78 -17.53,-11.78v0c-5.20667,0 -9.79333,2.13333 -13.76,6.4c-3.97333,4.26667 -5.96,9.68667 -5.96,16.26c0,6.57333 1.98667,11.99333 5.96,16.26c3.96667,4.26667 8.55333,6.4 13.76,6.4v0c8.78667,0 14.84333,-3.92667 18.17,-11.78v0l10.5,4.48c-2.13333,5.12 -5.57,9.40667 -10.31,12.86c-4.73333,3.46 -10.6,5.19 -17.6,5.19z"/>
      <path d="M895.87,274.05v0c-6.66,0 -12.23,-1.92 -16.71,-5.76c-4.48,-3.84 -6.72,-8.91667 -6.72,-15.23v0c0,-6.82667 2.64667,-12.18333 7.94,-16.07c5.29333,-3.88 11.82,-5.82 19.58,-5.82v0c6.91333,0 12.59,1.28 17.03,3.84v0v-1.79c0,-4.61333 -1.58,-8.30667 -4.74,-11.08c-3.15333,-2.77333 -7.03667,-4.16 -11.65,-4.16v0c-3.41333,0 -6.50667,0.81333 -9.28,2.44c-2.77333,1.62 -4.67,3.83667 -5.69,6.65v0l-10.75,-4.61c1.44667,-3.75333 4.30333,-7.23 8.57,-10.43c4.26667,-3.2 9.9,-4.8 16.9,-4.8v0c8.02,0 14.67667,2.34667 19.97,7.04c5.28667,4.69333 7.93,11.30667 7.93,19.84v0v37.89h-11.26v-8.7h-0.51c-4.69333,7.16667 -11.56333,10.75 -20.61,10.75zM897.79,263.3v0c4.86,0 9.27667,-1.81333 13.25,-5.44c3.96667,-3.62667 5.95,-7.91667 5.95,-12.87v0c-3.32667,-2.72667 -8.32,-4.09 -14.98,-4.09v0c-5.71333,0 -10.02333,1.23667 -12.93,3.71c-2.9,2.47333 -4.35,5.37333 -4.35,8.7v0c0,3.07333 1.32333,5.50667 3.97,7.3c2.64667,1.79333 5.67667,2.69 9.09,2.69z"/>
      <path d="M965.5,273.02v0c-6.57333,0 -11.58667,-1.74667 -15.04,-5.24c-3.45333,-3.5 -5.18,-8.45 -5.18,-14.85v0v-32.9h-11.01v-10.75h11.01v-19.2h11.77v19.2h15.36v10.75h-15.36v32c0,6.82667 2.81667,10.24 8.45,10.24v0c2.13333,0 3.92667,-0.34 5.38,-1.02v0l4.09,10.11c-2.56,1.10667 -5.71667,1.66 -9.47,1.66z"/>
      <path d="M995.2,193.54c-1.62667,1.62 -3.59,2.43 -5.89,2.43c-2.30667,0 -4.27,-0.81 -5.89,-2.43c-1.62,-1.62667 -2.43,-3.59 -2.43,-5.89c0,-2.30667 0.81,-4.27 2.43,-5.89c1.62,-1.62 3.58333,-2.43 5.89,-2.43c2.3,0 4.26333,0.81 5.89,2.43c1.62,1.62 2.43,3.58333 2.43,5.89c0,2.3 -0.81,4.26333 -2.43,5.89zM995.2,209.28v62.72h-11.78v-62.72z"/>
      <path d="M1014.14,216.77c6.06,-6.36 13.78333,-9.54 23.17,-9.54c9.38667,0 17.11,3.18 23.17,9.54c6.05333,6.35333 9.08,14.31 9.08,23.87c0,9.56 -3.02667,17.51667 -9.08,23.87c-6.06,6.36 -13.78333,9.54 -23.17,9.54c-9.38667,0 -17.11,-3.18 -23.17,-9.54c-6.06,-6.35333 -9.09,-14.31 -9.09,-23.87c0,-9.56 3.03,-17.51667 9.09,-23.87zM1022.91,257.09c4.05333,4.14 8.85333,6.21 14.4,6.21c5.54667,0 10.34667,-2.07 14.4,-6.21c4.05333,-4.14 6.08,-9.62333 6.08,-16.45c0,-6.82667 -2.02667,-12.31 -6.08,-16.45c-4.05333,-4.14 -8.85333,-6.21 -14.4,-6.21c-5.54667,0 -10.34667,2.07 -14.4,6.21c-4.05333,4.14 -6.08,9.62333 -6.08,16.45c0,6.82667 2.02667,12.31 6.08,16.45z"/>
      <path d="M1079.04,209.28h11.26v8.7h0.51c1.70667,-2.98667 4.39667,-5.52333 8.07,-7.61c3.66667,-2.09333 7.59,-3.14 11.77,-3.14v0c7.76667,0 13.69667,2.39 17.79,7.17c4.1,4.78 6.15,11.18 6.15,19.2v0v38.4h-11.78v-36.61c0,-11.60667 -5.16333,-17.41 -15.49,-17.41v0c-4.86,0 -8.82667,1.94333 -11.9,5.83c-3.07333,3.88 -4.61,8.38 -4.61,13.5v0v34.69h-11.77z"/>
    </g>
  </g>
</svg>
