<svg version="1.1" xmlns="http://www.w3.org/2000/svg" xmlns:xlink="http://www.w3.org/1999/xlink" width="192" height="192" viewBox="0 0 192 192">
  <g fill="none" stroke="none" stroke-width="1" stroke-linecap="butt" stroke-linejoin="miter" stroke-dasharray="" stroke-dashoffset="0">
    <rect x="0" y="0" width="192" height="192" fill="none" fill-rule="nonzero"/>
    <circle cx="96" cy="96" r="96" fill="#ffca28" fill-rule="nonzero"/>
    <g fill="#3c4043" fill-rule="evenodd">
      <path d="M114.66667,91.33333c7.74667,0 13.95333,-6.25333 13.95333,-14c0,-7.74667 -6.20667,-14 -13.95333,-14c-7.74667,0 -14,6.25333 -14,14c0,7.74667 6.25333,14 14,14zM77.33333,91.33333c7.74667,0 13.95333,-6.25333 13.95333,-14c0,-7.74667 -6.20667,-14 -13.95333,-14c-7.74667,0 -14,6.25333 -14,14c0,7.74667 6.25333,14 14,14zM77.33333,100.66667c-10.87333,0 -32.66667,5.46 -32.66667,16.33333v11.66667h65.33333v-11.66667c0,-10.87333 -21.79333,-16.33333 -32.66667,-16.33333zM114.66667,100.66667c-1.35333,0 -2.89333,0.09333 -4.52667,0.23333c5.41333,3.92 9.19333,9.19333 9.19333,16.1v11.66667h28v-11.66667c0,-10.87333 -21.79333,-16.33333 -32.66667,-16.33333z"/>
    </g>
  </g>
</svg>
