<svg version="1.1" xmlns="http://www.w3.org/2000/svg" xmlns:xlink="http://www.w3.org/1999/xlink" width="1062.52" height="448" viewBox="0 0 1062.52 448">
  <g fill="none" fill-rule="nonzero" stroke="none" stroke-width="1" stroke-linecap="butt" stroke-linejoin="miter" stroke-dasharray="" stroke-dashoffset="0">
    <rect x="0" y="0" width="1062.52" height="448" fill="none"/>
    <circle cx="192" cy="224" r="96" fill="#ffca28"/>
    <g fill="#3c4043">
      <path d="M171,194.13333l11.66667,6.53333l-6.53333,-11.66667l6.53333,-11.66667l-11.66667,6.53333l-11.66667,-6.53333l6.53333,11.66667l-6.53333,11.66667zM227,239.86667l-11.66667,-6.53333l6.53333,11.66667l-6.53333,11.66667l11.66667,-6.53333l11.66667,6.53333l-6.53333,-11.66667l6.53333,-11.66667zM238.66667,177.33333l-11.66667,6.53333l-11.66667,-6.53333l6.53333,11.66667l-6.53333,11.66667l11.66667,-6.53333l11.66667,6.53333l-6.53333,-11.66667zM203.06,202.02c-0.87194,-0.87373 -2.05562,-1.36474 -3.29,-1.36474c-1.23438,0 -2.41806,0.49101 -3.29,1.36474l-54.46,54.46c-0.87373,0.87194 -1.36474,2.05562 -1.36474,3.29c0,1.23438 0.49101,2.41806 1.36474,3.29l10.92,10.92c1.82,1.82 4.76,1.82 6.58,0l54.41333,-54.41333c0.87373,-0.87194 1.36474,-2.05562 1.36474,-3.29c0,-1.23438 -0.49101,-2.41806 -1.36474,-3.29zM198.25333,227.64l-9.89333,-9.89333l11.38667,-11.38667l9.89333,9.89333z"/>
    </g>
    <g fill="#5f6368">
      <path d="M347.77,234.88v37.12h-11.77v-91.65h31.23c7.76667,0 14.48667,2.58333 20.16,7.75c5.67333,5.16 8.51,11.66667 8.51,19.52c0,7.84667 -2.83667,14.35333 -8.51,19.52c-5.67333,5.16 -12.39333,7.74 -20.16,7.74v0zM347.77,191.62v32h19.71c4.95333,0 8.92333,-1.66667 11.91,-5c2.98667,-3.32667 4.48,-6.99333 4.48,-11c0,-4.01333 -1.49333,-7.68333 -4.48,-11.01c-2.98667,-3.32667 -6.95667,-4.99 -11.91,-4.99v0z"/>
      <path d="M415.36,237.7v34.3h-11.78v-62.72h11.26v10.24h0.52c1.19333,-3.41333 3.64667,-6.23 7.36,-8.45c3.70667,-2.22 7.31,-3.33 10.81,-3.33c3.5,0 6.44333,0.51333 8.83,1.54v0l-4.48,11.01c-1.53333,-0.6 -3.62333,-0.9 -6.27,-0.9v0c-4.26667,0 -8.04333,1.68667 -11.33,5.06c-3.28,3.36667 -4.92,7.78333 -4.92,13.25z"/>
      <path d="M474.62,274.05v0c-9.47333,0 -17.17333,-3.15667 -23.1,-9.47c-5.93333,-6.32 -8.9,-14.3 -8.9,-23.94v0c0,-9.13333 2.88,-16.98333 8.64,-23.55c5.76,-6.57333 13.12,-9.86 22.08,-9.86v0c9.3,0 16.74667,3.03 22.34,9.09c5.58667,6.06 8.38,14.16667 8.38,24.32v0l-0.13,2.18h-49.53c0.34,6.31333 2.45,11.30333 6.33,14.97c3.88667,3.67333 8.43,5.51 13.63,5.51v0c8.45333,0 14.17333,-3.58667 17.16,-10.76v0l10.49,4.36c-2.04667,4.86 -5.41667,8.93333 -10.11,12.22c-4.69333,3.28667 -10.45333,4.93 -17.28,4.93zM455.16,233.09h36.36c-0.26,-3.58667 -1.90333,-7 -4.93,-10.24c-3.03333,-3.24667 -7.53667,-4.87 -13.51,-4.87v0c-4.34667,0 -8.12,1.36667 -11.32,4.1c-3.2,2.73333 -5.4,6.40333 -6.6,11.01z"/>
      <path d="M540.41,274.05v0c-8.10667,0 -15.10333,-3.2 -20.99,-9.6c-5.88667,-6.4 -8.83,-14.33667 -8.83,-23.81c0,-9.47333 2.94333,-17.41 8.83,-23.81c5.88667,-6.4 12.88333,-9.6 20.99,-9.6v0c4.78,0 9.07,1.02333 12.87,3.07c3.79333,2.05333 6.63,4.61333 8.51,7.68v0h0.51l-0.51,-8.7v-28.93h11.77v91.65h-11.26v-8.7h-0.51c-1.88,3.06667 -4.71667,5.62667 -8.51,7.68c-3.8,2.04667 -8.09,3.07 -12.87,3.07zM542.33,263.3v0c5.54667,0 10.26333,-2.05 14.15,-6.15c3.88,-4.09333 5.82,-9.59667 5.82,-16.51c0,-6.91333 -1.94,-12.41667 -5.82,-16.51c-3.88667,-4.1 -8.60333,-6.15 -14.15,-6.15v0c-5.46,0 -10.15333,2.07 -14.08,6.21c-3.92667,4.14 -5.89,9.62333 -5.89,16.45c0,6.82667 1.96333,12.31 5.89,16.45c3.92667,4.14 8.62,6.21 14.08,6.21z"/>
      <path d="M599.42,193.54c-1.62,1.62 -3.58333,2.43 -5.89,2.43c-2.3,0 -4.26333,-0.81 -5.89,-2.43c-1.62,-1.62667 -2.43,-3.59 -2.43,-5.89c0,-2.30667 0.81,-4.27 2.43,-5.89c1.62667,-1.62 3.59,-2.43 5.89,-2.43c2.30667,0 4.27,0.81 5.89,2.43c1.62,1.62 2.43,3.58333 2.43,5.89c0,2.3 -0.81,4.26333 -2.43,5.89zM599.42,209.28v62.72h-11.78v-62.72z"/>
      <path d="M641.53,274.05v0c-9.38667,0 -17.11,-3.18 -23.17,-9.54c-6.05333,-6.35333 -9.08,-14.31 -9.08,-23.87c0,-9.56 3.02667,-17.51667 9.08,-23.87c6.06,-6.36 13.78333,-9.54 23.17,-9.54v0c7,0 12.80333,1.70667 17.41,5.12c4.60667,3.41333 7.97667,7.72333 10.11,12.93v0l-10.75,4.48c-3.24,-7.85333 -9.08667,-11.78 -17.54,-11.78v0c-5.2,0 -9.78667,2.13333 -13.76,6.4c-3.96667,4.26667 -5.95,9.68667 -5.95,16.26c0,6.57333 1.98333,11.99333 5.95,16.26c3.97333,4.26667 8.56,6.4 13.76,6.4v0c8.79333,0 14.85333,-3.92667 18.18,-11.78v0l10.5,4.48c-2.13333,5.12 -5.57,9.40667 -10.31,12.86c-4.73333,3.46 -10.6,5.19 -17.6,5.19z"/>
      <path d="M704.89,273.02v0c-6.56667,0 -11.58,-1.74667 -15.04,-5.24c-3.45333,-3.5 -5.18,-8.45 -5.18,-14.85v0v-32.9h-11.01v-10.75h11.01v-19.2h11.77v19.2h15.36v10.75h-15.36v32c0,6.82667 2.81667,10.24 8.45,10.24v0c2.13333,0 3.92667,-0.34 5.38,-1.02v0l4.09,10.11c-2.56,1.10667 -5.71667,1.66 -9.47,1.66z"/>
      <path d="M734.59,193.54c-1.62,1.62 -3.58333,2.43 -5.89,2.43c-2.30667,0 -4.27,-0.81 -5.89,-2.43c-1.62,-1.62667 -2.43,-3.59 -2.43,-5.89c0,-2.30667 0.81,-4.27 2.43,-5.89c1.62,-1.62 3.58333,-2.43 5.89,-2.43c2.30667,0 4.27,0.81 5.89,2.43c1.62,1.62 2.43,3.58333 2.43,5.89c0,2.3 -0.81,4.26333 -2.43,5.89zM734.59,209.28v62.72h-11.78v-62.72z"/>
      <path d="M753.53,216.77c6.06,-6.36 13.78333,-9.54 23.17,-9.54c9.38667,0 17.11,3.18 23.17,9.54c6.06,6.35333 9.09,14.31 9.09,23.87c0,9.56 -3.03,17.51667 -9.09,23.87c-6.06,6.36 -13.78333,9.54 -23.17,9.54c-9.38667,0 -17.11,-3.18 -23.17,-9.54c-6.06,-6.35333 -9.09,-14.31 -9.09,-23.87c0,-9.56 3.03,-17.51667 9.09,-23.87zM762.3,257.09c4.05333,4.14 8.85333,6.21 14.4,6.21c5.54667,0 10.34667,-2.07 14.4,-6.21c4.05333,-4.14 6.08,-9.62333 6.08,-16.45c0,-6.82667 -2.02667,-12.31 -6.08,-16.45c-4.05333,-4.14 -8.85333,-6.21 -14.4,-6.21c-5.54667,0 -10.34667,2.07 -14.4,6.21c-4.05333,4.14 -6.08,9.62333 -6.08,16.45c0,6.82667 2.02667,12.31 6.08,16.45z"/>
      <path d="M818.43,209.28h11.26v8.7h0.51c1.70667,-2.98667 4.39667,-5.52333 8.07,-7.61c3.66667,-2.09333 7.59,-3.14 11.77,-3.14v0c7.76667,0 13.7,2.39 17.8,7.17c4.09333,4.78 6.14,11.18 6.14,19.2v0v38.4h-11.78v-36.61c0,-11.60667 -5.16,-17.41 -15.48,-17.41v0c-4.86667,0 -8.83667,1.94333 -11.91,5.83c-3.07333,3.88 -4.61,8.38 -4.61,13.5v0v34.69h-11.77z"/>
      <path d="M909.82,274.05v0c-7,0 -12.78,-1.70667 -17.34,-5.12c-4.56667,-3.41333 -7.91667,-7.68 -10.05,-12.8v0l10.49,-4.35c3.33333,7.84667 9.01,11.77 17.03,11.77v0c3.66667,0 6.67333,-0.81 9.02,-2.43c2.34667,-1.62 3.52,-3.75333 3.52,-6.4v0c0,-4.09333 -2.85667,-6.86667 -8.57,-8.32v0l-12.68,-3.07c-4.00667,-1.02667 -7.80333,-2.97 -11.39,-5.83c-3.58,-2.85333 -5.37,-6.71333 -5.37,-11.58v0c0,-5.54667 2.45333,-10.04667 7.36,-13.5c4.90667,-3.46 10.73,-5.19 17.47,-5.19v0c5.54667,0 10.49667,1.26 14.85,3.78c4.34667,2.51333 7.46,6.11667 9.34,10.81v0l-10.24,4.23c-2.30667,-5.54667 -7.08667,-8.32 -14.34,-8.32v0c-3.49333,0 -6.43667,0.72333 -8.83,2.17c-2.38667,1.45333 -3.58,3.41667 -3.58,5.89v0c0,3.58667 2.77333,6.02 8.32,7.3v0l12.41,2.94c5.89333,1.36667 10.24667,3.71333 13.06,7.04c2.81333,3.32667 4.22,7.08333 4.22,11.27v0c0,5.62667 -2.30333,10.32 -6.91,14.08c-4.60667,3.75333 -10.53667,5.63 -17.79,5.63z"/>
    </g>
  </g>
</svg>
