<svg version="1.1" xmlns="http://www.w3.org/2000/svg" xmlns:xlink="http://www.w3.org/1999/xlink" width="192" height="192" viewBox="0 0 192 192">
  <g fill="none" fill-rule="nonzero" stroke="none" stroke-width="1" stroke-linecap="butt" stroke-linejoin="miter" stroke-dasharray="" stroke-dashoffset="0">
    <rect x="0" y="0" width="192" height="192" fill="none"/>
    <circle cx="96" cy="96" r="96" fill="#ffca28"/>
    <g fill="#3c4043">
      <path d="M75,66.13333l11.66667,6.53333l-6.53333,-11.66667l6.53333,-11.66667l-11.66667,6.53333l-11.66667,-6.53333l6.53333,11.66667l-6.53333,11.66667zM131,111.86667l-11.66667,-6.53333l6.53333,11.66667l-6.53333,11.66667l11.66667,-6.53333l11.66667,6.53333l-6.53333,-11.66667l6.53333,-11.66667zM142.66667,49.33333l-11.66667,6.53333l-11.66667,-6.53333l6.53333,11.66667l-6.53333,11.66667l11.66667,-6.53333l11.66667,6.53333l-6.53333,-11.66667zM107.06,74.02c-0.87194,-0.87373 -2.05562,-1.36474 -3.29,-1.36474c-1.23438,0 -2.41806,0.49101 -3.29,1.36474l-54.46,54.46c-0.87373,0.87194 -1.36474,2.05562 -1.36474,3.29c0,1.23438 0.49101,2.41806 1.36474,3.29l10.92,10.92c1.82,1.82 4.76,1.82 6.58,0l54.41333,-54.41333c0.87373,-0.87194 1.36474,-2.05562 1.36474,-3.29c0,-1.23438 -0.49101,-2.41806 -1.36474,-3.29zM102.25333,99.64l-9.89333,-9.89333l11.38667,-11.38667l9.89333,9.89333z"/>
    </g>
  </g>
</svg>
