<svg version="1.1" xmlns="http://www.w3.org/2000/svg" xmlns:xlink="http://www.w3.org/1999/xlink" width="391.507" height="464" viewBox="0 0 391.507 464">
  <g fill="none" fill-rule="nonzero" stroke="none" stroke-width="1" stroke-linecap="butt" stroke-linejoin="miter" stroke-dasharray="" stroke-dashoffset="0">
    <rect x="0" y="0" width="391.507" height="464" fill="none"/>
    <circle cx="195.753" cy="192" r="96" fill="#ffca28"/>
    <g fill="#3c4043">
      <path d="M174.75333,162.13333l11.66667,6.53333l-6.53333,-11.66667l6.53333,-11.66667l-11.66667,6.53333l-11.66667,-6.53333l6.53333,11.66667l-6.53333,11.66667zM230.75333,207.86667l-11.66667,-6.53333l6.53333,11.66667l-6.53333,11.66667l11.66667,-6.53333l11.66667,6.53333l-6.53333,-11.66667l6.53333,-11.66667zM242.42,145.33333l-11.66667,6.53333l-11.66667,-6.53333l6.53333,11.66667l-6.53333,11.66667l11.66667,-6.53333l11.66667,6.53333l-6.53333,-11.66667zM206.81333,170.02c-0.87194,-0.87373 -2.05562,-1.36474 -3.29,-1.36474c-1.23438,0 -2.41806,0.49101 -3.29,1.36474l-54.46,54.46c-0.87373,0.87194 -1.36474,2.05562 -1.36474,3.29c0,1.23438 0.49101,2.41806 1.36474,3.29l10.92,10.92c1.82,1.82 4.76,1.82 6.58,0l54.41333,-54.41333c0.87373,-0.87194 1.36474,-2.05562 1.36474,-3.29c0,-1.23438 -0.49101,-2.41806 -1.36474,-3.29zM202.00667,195.64l-9.89333,-9.89333l11.38667,-11.38667l9.89333,9.89333z"/>
    </g>
    <g fill="#5f6368">
      <path d="M99.92333,339.62667v12.37333h-3.92333v-30.55h10.41c2.58889,0 4.82889,0.86111 6.72,2.58333c1.89111,1.72 2.83667,3.88889 2.83667,6.50667c0,2.61556 -0.94556,4.78444 -2.83667,6.50667c-1.89111,1.72 -4.13111,2.58 -6.72,2.58v0zM99.92333,325.20667v10.66667h6.57c1.65111,0 2.97444,-0.55556 3.97,-1.66667c0.99556,-1.10889 1.49333,-2.33111 1.49333,-3.66667c0,-1.33778 -0.49778,-2.56111 -1.49333,-3.67c-0.99556,-1.10889 -2.31889,-1.66333 -3.97,-1.66333v0z"/>
      <path d="M122.45333,340.56667v11.43333h-3.92667v-20.90667h3.75333v3.41333h0.17333c0.39778,-1.13778 1.21556,-2.07667 2.45333,-2.81667c1.23556,-0.74 2.43667,-1.11 3.60333,-1.11c1.16667,0 2.14778,0.17111 2.94333,0.51333v0l-1.49333,3.67c-0.51111,-0.2 -1.20778,-0.3 -2.09,-0.3v0c-1.42222,0 -2.68111,0.56222 -3.77667,1.68667c-1.09333,1.12222 -1.64,2.59444 -1.64,4.41667z"/>
      <path d="M142.20667,352.68333v0c-3.15778,0 -5.72444,-1.05222 -7.7,-3.15667c-1.97778,-2.10667 -2.96667,-4.76667 -2.96667,-7.98v0c0,-3.04444 0.96,-5.66111 2.88,-7.85c1.92,-2.19111 4.37333,-3.28667 7.36,-3.28667v0c3.1,0 5.58222,1.01 7.44667,3.03c1.86222,2.02 2.79333,4.72222 2.79333,8.10667v0l-0.04333,0.72667h-16.51c0.11333,2.10444 0.81667,3.76778 2.11,4.99c1.29556,1.22444 2.81,1.83667 4.54333,1.83667v0c2.81778,0 4.72444,-1.19556 5.72,-3.58667v0l3.49667,1.45333c-0.68222,1.62 -1.80556,2.97778 -3.37,4.07333c-1.56444,1.09556 -3.48444,1.64333 -5.76,1.64333zM135.72,339.03h12.12c-0.08667,-1.19556 -0.63444,-2.33333 -1.64333,-3.41333c-1.01111,-1.08222 -2.51222,-1.62333 -4.50333,-1.62333v0c-1.44889,0 -2.70667,0.45556 -3.77333,1.36667c-1.06667,0.91111 -1.8,2.13444 -2.2,3.67z"/>
      <path d="M164.13667,352.68333v0c-2.70222,0 -5.03444,-1.06667 -6.99667,-3.2c-1.96222,-2.13333 -2.94333,-4.77889 -2.94333,-7.93667c0,-3.15778 0.98111,-5.80333 2.94333,-7.93667c1.96222,-2.13333 4.29444,-3.2 6.99667,-3.2v0c1.59333,0 3.02333,0.34111 4.29,1.02333c1.26444,0.68444 2.21,1.53778 2.83667,2.56v0h0.17l-0.17,-2.9v-9.64333h3.92333v30.55h-3.75333v-2.9h-0.17c-0.62667,1.02222 -1.57222,1.87556 -2.83667,2.56c-1.26667,0.68222 -2.69667,1.02333 -4.29,1.02333zM164.77667,349.1v0c1.84889,0 3.42111,-0.68333 4.71667,-2.05c1.29333,-1.36444 1.94,-3.19889 1.94,-5.50333c0,-2.30444 -0.64667,-4.13889 -1.94,-5.50333c-1.29556,-1.36667 -2.86778,-2.05 -4.71667,-2.05v0c-1.82,0 -3.38444,0.69 -4.69333,2.07c-1.30889,1.38 -1.96333,3.20778 -1.96333,5.48333c0,2.27556 0.65444,4.10333 1.96333,5.48333c1.30889,1.38 2.87333,2.07 4.69333,2.07z"/>
      <path d="M183.80667,325.84667c-0.54,0.54 -1.19444,0.81 -1.96333,0.81c-0.76667,0 -1.42111,-0.27 -1.96333,-0.81c-0.54,-0.54222 -0.81,-1.19667 -0.81,-1.96333c0,-0.76889 0.27,-1.42333 0.81,-1.96333c0.54222,-0.54 1.19667,-0.81 1.96333,-0.81c0.76889,0 1.42333,0.27 1.96333,0.81c0.54,0.54 0.81,1.19444 0.81,1.96333c0,0.76667 -0.27,1.42111 -0.81,1.96333zM183.80667,331.09333v20.90667h-3.92667v-20.90667z"/>
      <path d="M197.84333,352.68333v0c-3.12889,0 -5.70333,-1.06 -7.72333,-3.18c-2.01778,-2.11778 -3.02667,-4.77 -3.02667,-7.95667c0,-3.18667 1.00889,-5.83889 3.02667,-7.95667c2.02,-2.12 4.59444,-3.18 7.72333,-3.18v0c2.33333,0 4.26778,0.56889 5.80333,1.70667c1.53556,1.13778 2.65889,2.57444 3.37,4.31v0l-3.58333,1.49333c-1.08,-2.61778 -3.02889,-3.92667 -5.84667,-3.92667v0c-1.73333,0 -3.26222,0.71111 -4.58667,2.13333c-1.32222,1.42222 -1.98333,3.22889 -1.98333,5.42c0,2.19111 0.66111,3.99778 1.98333,5.42c1.32444,1.42222 2.85333,2.13333 4.58667,2.13333v0c2.93111,0 4.95111,-1.30889 6.06,-3.92667v0l3.5,1.49333c-0.71111,1.70667 -1.85667,3.13556 -3.43667,4.28667c-1.57778,1.15333 -3.53333,1.73 -5.86667,1.73z"/>
      <path d="M218.96333,352.34v0c-2.18889,0 -3.86,-0.58222 -5.01333,-1.74667c-1.15111,-1.16667 -1.72667,-2.81667 -1.72667,-4.95v0v-10.96667h-3.67v-3.58333h3.67v-6.4h3.92333v6.4h5.12v3.58333h-5.12v10.66667c0,2.27556 0.93889,3.41333 2.81667,3.41333v0c0.71111,0 1.30889,-0.11333 1.79333,-0.34v0l1.36333,3.37c-0.85333,0.36889 -1.90556,0.55333 -3.15667,0.55333z"/>
      <path d="M228.86333,325.84667c-0.54,0.54 -1.19444,0.81 -1.96333,0.81c-0.76889,0 -1.42333,-0.27 -1.96333,-0.81c-0.54,-0.54222 -0.81,-1.19667 -0.81,-1.96333c0,-0.76889 0.27,-1.42333 0.81,-1.96333c0.54,-0.54 1.19444,-0.81 1.96333,-0.81c0.76889,0 1.42333,0.27 1.96333,0.81c0.54,0.54 0.81,1.19444 0.81,1.96333c0,0.76667 -0.27,1.42111 -0.81,1.96333zM228.86333,331.09333v20.90667h-3.92667v-20.90667z"/>
      <path d="M235.17667,333.59c2.02,-2.12 4.59444,-3.18 7.72333,-3.18c3.12889,0 5.70333,1.06 7.72333,3.18c2.02,2.11778 3.03,4.77 3.03,7.95667c0,3.18667 -1.01,5.83889 -3.03,7.95667c-2.02,2.12 -4.59444,3.18 -7.72333,3.18c-3.12889,0 -5.70333,-1.06 -7.72333,-3.18c-2.02,-2.11778 -3.03,-4.77 -3.03,-7.95667c0,-3.18667 1.01,-5.83889 3.03,-7.95667zM238.1,347.03c1.35111,1.38 2.95111,2.07 4.8,2.07c1.84889,0 3.44889,-0.69 4.8,-2.07c1.35111,-1.38 2.02667,-3.20778 2.02667,-5.48333c0,-2.27556 -0.67556,-4.10333 -2.02667,-5.48333c-1.35111,-1.38 -2.95111,-2.07 -4.8,-2.07c-1.84889,0 -3.44889,0.69 -4.8,2.07c-1.35111,1.38 -2.02667,3.20778 -2.02667,5.48333c0,2.27556 0.67556,4.10333 2.02667,5.48333z"/>
      <path d="M256.81,331.09333h3.75333v2.9h0.17c0.56889,-0.99556 1.46556,-1.84111 2.69,-2.53667c1.22222,-0.69778 2.53,-1.04667 3.92333,-1.04667v0c2.58889,0 4.56667,0.79667 5.93333,2.39c1.36444,1.59333 2.04667,3.72667 2.04667,6.4v0v12.8h-3.92667v-12.20333c0,-3.86889 -1.72,-5.80333 -5.16,-5.80333v0c-1.62222,0 -2.94556,0.64778 -3.97,1.94333c-1.02444,1.29333 -1.53667,2.79333 -1.53667,4.5v0v11.56333h-3.92333z"/>
      <path d="M287.27333,352.68333v0c-2.33333,0 -4.26,-0.56889 -5.78,-1.70667c-1.52222,-1.13778 -2.63889,-2.56 -3.35,-4.26667v0l3.49667,-1.45c1.11111,2.61556 3.00333,3.92333 5.67667,3.92333v0c1.22222,0 2.22444,-0.27 3.00667,-0.81c0.78222,-0.54 1.17333,-1.25111 1.17333,-2.13333v0c0,-1.36444 -0.95222,-2.28889 -2.85667,-2.77333v0l-4.22667,-1.02333c-1.33556,-0.34222 -2.60111,-0.99 -3.79667,-1.94333c-1.19333,-0.95111 -1.79,-2.23778 -1.79,-3.86v0c0,-1.84889 0.81778,-3.34889 2.45333,-4.5c1.63556,-1.15333 3.57667,-1.73 5.82333,-1.73v0c1.84889,0 3.49889,0.42 4.95,1.26c1.44889,0.83778 2.48667,2.03889 3.11333,3.60333v0l-3.41333,1.41c-0.76889,-1.84889 -2.36222,-2.77333 -4.78,-2.77333v0c-1.16444,0 -2.14556,0.24111 -2.94333,0.72333c-0.79556,0.48444 -1.19333,1.13889 -1.19333,1.96333v0c0,1.19556 0.92444,2.00667 2.77333,2.43333v0l4.13667,0.98c1.96444,0.45556 3.41556,1.23778 4.35333,2.34667c0.93778,1.10889 1.40667,2.36111 1.40667,3.75667v0c0,1.87556 -0.76778,3.44 -2.30333,4.69333c-1.53556,1.25111 -3.51222,1.87667 -5.93,1.87667z"/>
    </g>
  </g>
</svg>
