<svg version="1.1" xmlns="http://www.w3.org/2000/svg" xmlns:xlink="http://www.w3.org/1999/xlink" width="485.93" height="464" viewBox="0 0 485.93 464">
  <g fill="none" stroke="none" stroke-width="1" stroke-linecap="butt" stroke-linejoin="miter" stroke-dasharray="" stroke-dashoffset="0">
    <rect x="0" y="0" width="485.93" height="464" fill="none" fill-rule="nonzero"/>
    <circle cx="242.965" cy="192" r="96" fill="#ffca28" fill-rule="nonzero"/>
    <g fill="#3c4043" fill-rule="evenodd">
      <path d="M280.331,214.19467v-44.38l-15.71733,-15.71733l9.88867,-9.89333l19.796,19.796v50.26l-0.03267,0.01867v5.73533l-19.77733,19.782l-9.87467,-9.87933zM205.599,214.18067l15.71733,15.722l-9.88867,9.89333l-19.796,-19.796v-50.26l0.03267,-0.01867v-5.73533l19.77733,-19.782l9.87467,9.87933l-15.71733,15.722v44.38zM221.96967,199.014c-3.87759,0 -7.021,-3.14341 -7.021,-7.021c0,-3.87759 3.14341,-7.021 7.021,-7.021c3.8763,0 7.01867,3.14236 7.01867,7.01867c0,3.8763 -3.14236,7.01867 -7.01867,7.01867zM242.96033,199.014c-3.87759,0 -7.021,-3.14341 -7.021,-7.021c0,-3.87759 3.14341,-7.021 7.021,-7.021c3.8763,0 7.01867,3.14236 7.01867,7.01867c0,3.8763 -3.14236,7.01867 -7.01867,7.01867zM263.951,199.014c-3.87759,0 -7.021,-3.14341 -7.021,-7.021c0,-3.87759 3.14341,-7.021 7.021,-7.021c3.8763,0 7.01867,3.14236 7.01867,7.01867c0,3.8763 -3.14236,7.01867 -7.01867,7.01867z"/>
    </g>
    <g fill="#5f6368" fill-rule="nonzero">
      <path d="M111.87,352.68333v0c-4.49333,0 -8.26222,-1.52222 -11.30667,-4.56667c-3.04222,-3.04222 -4.56333,-6.83889 -4.56333,-11.39c0,-4.55111 1.52111,-8.34889 4.56333,-11.39333c3.04444,-3.04444 6.81333,-4.56667 11.30667,-4.56667v0c4.60889,0 8.35,1.66444 11.22333,4.99333v0l-2.73333,2.64667c-2.07556,-2.58889 -4.90556,-3.88333 -8.49,-3.88333v0c-3.32667,0 -6.13556,1.12333 -8.42667,3.37c-2.28889,2.24667 -3.43333,5.19111 -3.43333,8.83333c0,3.64 1.14444,6.58333 3.43333,8.83c2.29111,2.24667 5.1,3.37 8.42667,3.37v0c3.66889,0 6.79778,-1.47889 9.38667,-4.43667v0l2.73,2.73c-1.39333,1.68 -3.14222,3.01 -5.24667,3.99c-2.10444,0.98222 -4.39444,1.47333 -6.87,1.47333z"/>
      <path d="M130.98667,321.45v30.55h-3.92667v-30.55z"/>
      <path d="M137.17333,333.59c2.01778,-2.12 4.59111,-3.18 7.72,-3.18c3.12889,0 5.70333,1.06 7.72333,3.18c2.02,2.11778 3.03,4.77 3.03,7.95667c0,3.18667 -1.01,5.83889 -3.03,7.95667c-2.02,2.12 -4.59444,3.18 -7.72333,3.18c-3.12889,0 -5.70222,-1.06 -7.72,-3.18c-2.02,-2.11778 -3.03,-4.77 -3.03,-7.95667c0,-3.18667 1.01,-5.83889 3.03,-7.95667zM140.09333,347.03c1.35111,1.38 2.95111,2.07 4.8,2.07c1.84889,0 3.44889,-0.69 4.8,-2.07c1.35111,-1.38 2.02667,-3.20778 2.02667,-5.48333c0,-2.27556 -0.67556,-4.10333 -2.02667,-5.48333c-1.35111,-1.38 -2.95111,-2.07 -4.8,-2.07c-1.84889,0 -3.44889,0.69 -4.8,2.07c-1.35111,1.38 -2.02667,3.20778 -2.02667,5.48333c0,2.27556 0.67556,4.10333 2.02667,5.48333z"/>
      <path d="M177.15,331.09333v20.90667h-3.75333v-2.9h-0.17c-0.59778,0.99556 -1.50889,1.84111 -2.73333,2.53667c-1.22222,0.69778 -2.51556,1.04667 -3.88,1.04667v0c-2.61778,0 -4.60222,-0.79667 -5.95333,-2.39c-1.35111,-1.59333 -2.02667,-3.72667 -2.02667,-6.4v0v-12.8h3.92667v12.16c0,3.89778 1.72,5.84667 5.16,5.84667v0c1.62222,0 2.94556,-0.65444 3.97,-1.96333c1.02444,-1.30889 1.53667,-2.81667 1.53667,-4.52333v0v-11.52z"/>
      <path d="M190.25,352.68333v0c-2.70222,0 -5.03444,-1.06667 -6.99667,-3.2c-1.96444,-2.13333 -2.94667,-4.77889 -2.94667,-7.93667c0,-3.15778 0.98222,-5.80333 2.94667,-7.93667c1.96222,-2.13333 4.29444,-3.2 6.99667,-3.2v0c1.59333,0 3.02222,0.34111 4.28667,1.02333c1.26667,0.68444 2.21222,1.53778 2.83667,2.56v0h0.17333l-0.17333,-2.9v-9.64333h3.92667v30.55h-3.75333v-2.9h-0.17333c-0.62444,1.02222 -1.57,1.87556 -2.83667,2.56c-1.26444,0.68222 -2.69333,1.02333 -4.28667,1.02333zM190.89,349.1v0c1.84889,0 3.42,-0.68333 4.71333,-2.05c1.29556,-1.36444 1.94333,-3.19889 1.94333,-5.50333c0,-2.30444 -0.64778,-4.13889 -1.94333,-5.50333c-1.29333,-1.36667 -2.86444,-2.05 -4.71333,-2.05v0c-1.82,0 -3.38444,0.69 -4.69333,2.07c-1.30889,1.38 -1.96333,3.20778 -1.96333,5.48333c0,2.27556 0.65444,4.10333 1.96333,5.48333c1.30889,1.38 2.87333,2.07 4.69333,2.07z"/>
      <path d=""/>
      <path d="M220.07333,338.9v13.1h-3.92667v-30.55h17.83667v3.75667h-13.91v10.02667h12.54333v3.66667z"/>
      <path d="M255.23,331.09333v20.90667h-3.75333v-2.9h-0.17c-0.59778,0.99556 -1.50889,1.84111 -2.73333,2.53667c-1.22222,0.69778 -2.51556,1.04667 -3.88,1.04667v0c-2.61778,0 -4.60222,-0.79667 -5.95333,-2.39c-1.35111,-1.59333 -2.02667,-3.72667 -2.02667,-6.4v0v-12.8h3.92667v12.16c0,3.89778 1.72,5.84667 5.16,5.84667v0c1.62222,0 2.94556,-0.65444 3.97,-1.96333c1.02444,-1.30889 1.53667,-2.81667 1.53667,-4.52333v0v-11.52z"/>
      <path d="M260.01,331.09333h3.75333v2.9h0.17c0.56889,-0.99556 1.46556,-1.84111 2.69,-2.53667c1.22222,-0.69778 2.53,-1.04667 3.92333,-1.04667v0c2.58889,0 4.56667,0.79667 5.93333,2.39c1.36444,1.59333 2.04667,3.72667 2.04667,6.4v0v12.8h-3.92667v-12.20333c0,-3.86889 -1.72,-5.80333 -5.16,-5.80333v0c-1.62222,0 -2.94556,0.64778 -3.97,1.94333c-1.02444,1.29333 -1.53667,2.79333 -1.53667,4.5v0v11.56333h-3.92333z"/>
      <path d="M292.26667,352.68333v0c-3.12889,0 -5.70333,-1.06 -7.72333,-3.18c-2.02,-2.11778 -3.03,-4.77 -3.03,-7.95667c0,-3.18667 1.01,-5.83889 3.03,-7.95667c2.02,-2.12 4.59444,-3.18 7.72333,-3.18v0c2.33111,0 4.26444,0.56889 5.8,1.70667c1.53778,1.13778 2.66222,2.57444 3.37333,4.31v0l-3.58667,1.49333c-1.08,-2.61778 -3.02778,-3.92667 -5.84333,-3.92667v0c-1.73556,0 -3.26444,0.71111 -4.58667,2.13333c-1.32222,1.42222 -1.98333,3.22889 -1.98333,5.42c0,2.19111 0.66111,3.99778 1.98333,5.42c1.32222,1.42222 2.85111,2.13333 4.58667,2.13333v0c2.92889,0 4.94778,-1.30889 6.05667,-3.92667v0l3.5,1.49333c-0.71111,1.70667 -1.85556,3.13556 -3.43333,4.28667c-1.58,1.15333 -3.53556,1.73 -5.86667,1.73z"/>
      <path d="M313.38667,352.34v0c-2.19111,0 -3.86222,-0.58222 -5.01333,-1.74667c-1.15333,-1.16667 -1.73,-2.81667 -1.73,-4.95v0v-10.96667h-3.67v-3.58333h3.67v-6.4h3.92667v6.4h5.12v3.58333h-5.12v10.66667c0,2.27556 0.93889,3.41333 2.81667,3.41333v0c0.71111,0 1.30778,-0.11333 1.79,-0.34v0l1.36667,3.37c-0.85333,0.36889 -1.90556,0.55333 -3.15667,0.55333z"/>
      <path d="M323.28333,325.84667c-0.54,0.54 -1.19444,0.81 -1.96333,0.81c-0.76667,0 -1.42,-0.27 -1.96,-0.81c-0.54222,-0.54222 -0.81333,-1.19667 -0.81333,-1.96333c0,-0.76889 0.27111,-1.42333 0.81333,-1.96333c0.54,-0.54 1.19333,-0.81 1.96,-0.81c0.76889,0 1.42333,0.27 1.96333,0.81c0.54,0.54 0.81,1.19444 0.81,1.96333c0,0.76667 -0.27,1.42111 -0.81,1.96333zM323.28333,331.09333v20.90667h-3.92333v-20.90667z"/>
      <path d="M329.6,333.59c2.01778,-2.12 4.59111,-3.18 7.72,-3.18c3.12889,0 5.70333,1.06 7.72333,3.18c2.02,2.11778 3.03,4.77 3.03,7.95667c0,3.18667 -1.01,5.83889 -3.03,7.95667c-2.02,2.12 -4.59444,3.18 -7.72333,3.18c-3.12889,0 -5.70222,-1.06 -7.72,-3.18c-2.02,-2.11778 -3.03,-4.77 -3.03,-7.95667c0,-3.18667 1.01,-5.83889 3.03,-7.95667zM332.52,347.03c1.35111,1.38 2.95111,2.07 4.8,2.07c1.84889,0 3.44889,-0.69 4.8,-2.07c1.35111,-1.38 2.02667,-3.20778 2.02667,-5.48333c0,-2.27556 -0.67556,-4.10333 -2.02667,-5.48333c-1.35111,-1.38 -2.95111,-2.07 -4.8,-2.07c-1.84889,0 -3.44889,0.69 -4.8,2.07c-1.35111,1.38 -2.02667,3.20778 -2.02667,5.48333c0,2.27556 0.67556,4.10333 2.02667,5.48333z"/>
      <path d="M351.23,331.09333h3.75667v2.9h0.17c0.56889,-0.99556 1.46444,-1.84111 2.68667,-2.53667c1.22444,-0.69778 2.53333,-1.04667 3.92667,-1.04667v0c2.58889,0 4.56556,0.79667 5.93,2.39c1.36444,1.59333 2.04667,3.72667 2.04667,6.4v0v12.8h-3.92333v-12.20333c0,-3.86889 -1.72111,-5.80333 -5.16333,-5.80333v0c-1.62222,0 -2.94444,0.64778 -3.96667,1.94333c-1.02444,1.29333 -1.53667,2.79333 -1.53667,4.5v0v11.56333h-3.92667z"/>
      <path d="M381.69333,352.68333v0c-2.33111,0 -4.25778,-0.56889 -5.78,-1.70667c-1.52222,-1.13778 -2.63889,-2.56 -3.35,-4.26667v0l3.5,-1.45c1.10889,2.61556 3,3.92333 5.67333,3.92333v0c1.22444,0 2.22778,-0.27 3.01,-0.81c0.78222,-0.54 1.17333,-1.25111 1.17333,-2.13333v0c0,-1.36444 -0.95333,-2.28889 -2.86,-2.77333v0l-4.22333,-1.02333c-1.33778,-0.34222 -2.60333,-0.99 -3.79667,-1.94333c-1.19556,-0.95111 -1.79333,-2.23778 -1.79333,-3.86v0c0,-1.84889 0.81778,-3.34889 2.45333,-4.5c1.63556,-1.15333 3.57667,-1.73 5.82333,-1.73v0c1.84889,0 3.49889,0.42 4.95,1.26c1.45111,0.83778 2.48889,2.03889 3.11333,3.60333v0l-3.41333,1.41c-0.76667,-1.84889 -2.35889,-2.77333 -4.77667,-2.77333v0c-1.16667,0 -2.14778,0.24111 -2.94333,0.72333c-0.79778,0.48444 -1.19667,1.13889 -1.19667,1.96333v0c0,1.19556 0.92444,2.00667 2.77333,2.43333v0l4.14,0.98c1.96222,0.45556 3.41222,1.23778 4.35,2.34667c0.94,1.10889 1.41,2.36111 1.41,3.75667v0c0,1.87556 -0.76778,3.44 -2.30333,4.69333c-1.53778,1.25111 -3.51556,1.87667 -5.93333,1.87667z"/>
    </g>
  </g>
</svg>
