<svg version="1.1" xmlns="http://www.w3.org/2000/svg" xmlns:xlink="http://www.w3.org/1999/xlink" width="192" height="192" viewBox="0 0 192 192">
  <g fill="none" stroke="none" stroke-width="1" stroke-linecap="butt" stroke-linejoin="miter" stroke-dasharray="" stroke-dashoffset="0">
    <rect x="0" y="0" width="192" height="192" fill="none" fill-rule="nonzero"/>
    <circle cx="96" cy="96" r="96" fill="#ffca28" fill-rule="nonzero"/>
    <g fill="#3c4043" fill-rule="evenodd">
      <path d="M133.366,118.19467v-44.38l-15.71733,-15.71733l9.88867,-9.89333l19.796,19.796v50.26l-0.03267,0.01867v5.73533l-19.77733,19.782l-9.87467,-9.87933zM58.634,118.18067l15.71733,15.722l-9.88867,9.89333l-19.796,-19.796v-50.26l0.03267,-0.01867v-5.73533l19.77733,-19.782l9.87467,9.87933l-15.71733,15.722v44.38zM75.00467,103.014c-3.87759,0 -7.021,-3.14341 -7.021,-7.021c0,-3.87759 3.14341,-7.021 7.021,-7.021c3.8763,0 7.01867,3.14236 7.01867,7.01867c0,3.8763 -3.14236,7.01867 -7.01867,7.01867zM95.99533,103.014c-3.87759,0 -7.021,-3.14341 -7.021,-7.021c0,-3.87759 3.14341,-7.021 7.021,-7.021c3.8763,0 7.01867,3.14236 7.01867,7.01867c0,3.8763 -3.14236,7.01867 -7.01867,7.01867zM116.986,103.014c-3.87759,0 -7.021,-3.14341 -7.021,-7.021c0,-3.87759 3.14341,-7.021 7.021,-7.021c3.8763,0 7.01867,3.14236 7.01867,7.01867c0,3.8763 -3.14236,7.01867 -7.01867,7.01867z"/>
    </g>
  </g>
</svg>
