<svg version="1.1" xmlns="http://www.w3.org/2000/svg" xmlns:xlink="http://www.w3.org/1999/xlink" width="1345.79" height="448" viewBox="0 0 1345.79 448">
  <g fill="none" stroke="none" stroke-width="1" stroke-linecap="butt" stroke-linejoin="miter" stroke-dasharray="" stroke-dashoffset="0">
    <rect x="0" y="0" width="1345.79" height="448" fill="none" fill-rule="nonzero"/>
    <circle cx="192" cy="224" r="96" fill="#ffca28" fill-rule="nonzero"/>
    <g fill="#3c4043" fill-rule="evenodd">
      <path d="M229.366,246.19467v-44.38l-15.71733,-15.71733l9.88867,-9.89333l19.796,19.796v50.26l-0.03267,0.01867v5.73533l-19.77733,19.782l-9.87467,-9.87933zM154.634,246.18067l15.71733,15.722l-9.88867,9.89333l-19.796,-19.796v-50.26l0.03267,-0.01867v-5.73533l19.77733,-19.782l9.87467,9.87933l-15.71733,15.722v44.38zM171.00467,231.014c-3.87759,0 -7.021,-3.14341 -7.021,-7.021c0,-3.87759 3.14341,-7.021 7.021,-7.021c3.8763,0 7.01867,3.14236 7.01867,7.01867c0,3.8763 -3.14236,7.01867 -7.01867,7.01867zM191.99533,231.014c-3.87759,0 -7.021,-3.14341 -7.021,-7.021c0,-3.87759 3.14341,-7.021 7.021,-7.021c3.8763,0 7.01867,3.14236 7.01867,7.01867c0,3.8763 -3.14236,7.01867 -7.01867,7.01867zM212.986,231.014c-3.87759,0 -7.021,-3.14341 -7.021,-7.021c0,-3.87759 3.14341,-7.021 7.021,-7.021c3.8763,0 7.01867,3.14236 7.01867,7.01867c0,3.8763 -3.14236,7.01867 -7.01867,7.01867z"/>
    </g>
    <g fill="#5f6368" fill-rule="nonzero">
      <path d="M383.61,274.05v0c-13.48,0 -24.78667,-4.56667 -33.92,-13.7c-9.12667,-9.12667 -13.69,-20.51667 -13.69,-34.17c0,-13.65333 4.56333,-25.04667 13.69,-34.18c9.13333,-9.13333 20.44,-13.7 33.92,-13.7v0c13.82667,0 25.05,4.99333 33.67,14.98v0l-8.2,7.94c-6.22667,-7.76667 -14.71667,-11.65 -25.47,-11.65v0c-9.98,0 -18.40667,3.37 -25.28,10.11c-6.86667,6.74 -10.3,15.57333 -10.3,26.5c0,10.92 3.43333,19.75 10.3,26.49c6.87333,6.74 15.3,10.11 25.28,10.11v0c11.00667,0 20.39333,-4.43667 28.16,-13.31v0l8.19,8.19c-4.18,5.04 -9.42667,9.03 -15.74,11.97c-6.31333,2.94667 -13.18333,4.42 -20.61,4.42z"/>
      <path d="M440.96,180.35v91.65h-11.78v-91.65z"/>
      <path d="M459.52,216.77c6.05333,-6.36 13.77333,-9.54 23.16,-9.54c9.38667,0 17.11,3.18 23.17,9.54c6.06,6.35333 9.09,14.31 9.09,23.87c0,9.56 -3.03,17.51667 -9.09,23.87c-6.06,6.36 -13.78333,9.54 -23.17,9.54c-9.38667,0 -17.10667,-3.18 -23.16,-9.54c-6.06,-6.35333 -9.09,-14.31 -9.09,-23.87c0,-9.56 3.03,-17.51667 9.09,-23.87zM468.28,257.09c4.05333,4.14 8.85333,6.21 14.4,6.21c5.54667,0 10.34667,-2.07 14.4,-6.21c4.05333,-4.14 6.08,-9.62333 6.08,-16.45c0,-6.82667 -2.02667,-12.31 -6.08,-16.45c-4.05333,-4.14 -8.85333,-6.21 -14.4,-6.21c-5.54667,0 -10.34667,2.07 -14.4,6.21c-4.05333,4.14 -6.08,9.62333 -6.08,16.45c0,6.82667 2.02667,12.31 6.08,16.45z"/>
      <path d="M579.45,209.28v62.72h-11.26v-8.7h-0.51c-1.79333,2.98667 -4.52667,5.52333 -8.2,7.61c-3.66667,2.09333 -7.54667,3.14 -11.64,3.14v0c-7.85333,0 -13.80667,-2.39 -17.86,-7.17c-4.05333,-4.78 -6.08,-11.18 -6.08,-19.2v0v-38.4h11.78v36.48c0,11.69333 5.16,17.54 15.48,17.54v0c4.86667,0 8.83667,-1.96333 11.91,-5.89c3.07333,-3.92667 4.61,-8.45 4.61,-13.57v0v-34.56z"/>
      <path d="M618.75,274.05v0c-8.10667,0 -15.10333,-3.2 -20.99,-9.6c-5.89333,-6.4 -8.84,-14.33667 -8.84,-23.81c0,-9.47333 2.94667,-17.41 8.84,-23.81c5.88667,-6.4 12.88333,-9.6 20.99,-9.6v0c4.78,0 9.06667,1.02333 12.86,3.07c3.8,2.05333 6.63667,4.61333 8.51,7.68v0h0.52l-0.52,-8.7v-28.93h11.78v91.65h-11.26v-8.7h-0.52c-1.87333,3.06667 -4.71,5.62667 -8.51,7.68c-3.79333,2.04667 -8.08,3.07 -12.86,3.07zM620.67,263.3v0c5.54667,0 10.26,-2.05 14.14,-6.15c3.88667,-4.09333 5.83,-9.59667 5.83,-16.51c0,-6.91333 -1.94333,-12.41667 -5.83,-16.51c-3.88,-4.1 -8.59333,-6.15 -14.14,-6.15v0c-5.46,0 -10.15333,2.07 -14.08,6.21c-3.92667,4.14 -5.89,9.62333 -5.89,16.45c0,6.82667 1.96333,12.31 5.89,16.45c3.92667,4.14 8.62,6.21 14.08,6.21z"/>
      <path d=""/>
      <path d="M708.22,232.7v39.3h-11.78v-91.65h53.51v11.27h-41.73v30.08h37.63v11z"/>
      <path d="M813.69,209.28v62.72h-11.26v-8.7h-0.51c-1.79333,2.98667 -4.52667,5.52333 -8.2,7.61c-3.66667,2.09333 -7.54667,3.14 -11.64,3.14v0c-7.85333,0 -13.80667,-2.39 -17.86,-7.17c-4.05333,-4.78 -6.08,-11.18 -6.08,-19.2v0v-38.4h11.78v36.48c0,11.69333 5.16,17.54 15.48,17.54v0c4.86667,0 8.83667,-1.96333 11.91,-5.89c3.07333,-3.92667 4.61,-8.45 4.61,-13.57v0v-34.56z"/>
      <path d="M828.03,209.28h11.26v8.7h0.51c1.70667,-2.98667 4.39667,-5.52333 8.07,-7.61c3.66667,-2.09333 7.59,-3.14 11.77,-3.14v0c7.76667,0 13.7,2.39 17.8,7.17c4.09333,4.78 6.14,11.18 6.14,19.2v0v38.4h-11.78v-36.61c0,-11.60667 -5.16,-17.41 -15.48,-17.41v0c-4.86667,0 -8.83667,1.94333 -11.91,5.83c-3.07333,3.88 -4.61,8.38 -4.61,13.5v0v34.69h-11.77z"/>
      <path d="M924.8,274.05v0c-9.38667,0 -17.11,-3.18 -23.17,-9.54c-6.06,-6.35333 -9.09,-14.31 -9.09,-23.87c0,-9.56 3.03,-17.51667 9.09,-23.87c6.06,-6.36 13.78333,-9.54 23.17,-9.54v0c6.99333,0 12.79333,1.70667 17.4,5.12c4.61333,3.41333 7.98667,7.72333 10.12,12.93v0l-10.76,4.48c-3.24,-7.85333 -9.08333,-11.78 -17.53,-11.78v0c-5.20667,0 -9.79333,2.13333 -13.76,6.4c-3.96667,4.26667 -5.95,9.68667 -5.95,16.26c0,6.57333 1.98333,11.99333 5.95,16.26c3.96667,4.26667 8.55333,6.4 13.76,6.4v0c8.78667,0 14.84333,-3.92667 18.17,-11.78v0l10.5,4.48c-2.13333,5.12 -5.56667,9.40667 -10.3,12.86c-4.74,3.46 -10.60667,5.19 -17.6,5.19z"/>
      <path d="M988.16,273.02v0c-6.57333,0 -11.58667,-1.74667 -15.04,-5.24c-3.46,-3.5 -5.19,-8.45 -5.19,-14.85v0v-32.9h-11.01v-10.75h11.01v-19.2h11.78v19.2h15.36v10.75h-15.36v32c0,6.82667 2.81667,10.24 8.45,10.24v0c2.13333,0 3.92333,-0.34 5.37,-1.02v0l4.1,10.11c-2.56,1.10667 -5.71667,1.66 -9.47,1.66z"/>
      <path d="M1017.85,193.54c-1.62,1.62 -3.58333,2.43 -5.89,2.43c-2.3,0 -4.26,-0.81 -5.88,-2.43c-1.62667,-1.62667 -2.44,-3.59 -2.44,-5.89c0,-2.30667 0.81333,-4.27 2.44,-5.89c1.62,-1.62 3.58,-2.43 5.88,-2.43c2.30667,0 4.27,0.81 5.89,2.43c1.62,1.62 2.43,3.58333 2.43,5.89c0,2.3 -0.81,4.26333 -2.43,5.89zM1017.85,209.28v62.72h-11.77v-62.72z"/>
      <path d="M1036.8,216.77c6.05333,-6.36 13.77333,-9.54 23.16,-9.54c9.38667,0 17.11,3.18 23.17,9.54c6.06,6.35333 9.09,14.31 9.09,23.87c0,9.56 -3.03,17.51667 -9.09,23.87c-6.06,6.36 -13.78333,9.54 -23.17,9.54c-9.38667,0 -17.10667,-3.18 -23.16,-9.54c-6.06,-6.35333 -9.09,-14.31 -9.09,-23.87c0,-9.56 3.03,-17.51667 9.09,-23.87zM1045.56,257.09c4.05333,4.14 8.85333,6.21 14.4,6.21c5.54667,0 10.34667,-2.07 14.4,-6.21c4.05333,-4.14 6.08,-9.62333 6.08,-16.45c0,-6.82667 -2.02667,-12.31 -6.08,-16.45c-4.05333,-4.14 -8.85333,-6.21 -14.4,-6.21c-5.54667,0 -10.34667,2.07 -14.4,6.21c-4.05333,4.14 -6.08,9.62333 -6.08,16.45c0,6.82667 2.02667,12.31 6.08,16.45z"/>
      <path d="M1101.69,209.28h11.27v8.7h0.51c1.70667,-2.98667 4.39333,-5.52333 8.06,-7.61c3.67333,-2.09333 7.6,-3.14 11.78,-3.14v0c7.76667,0 13.69667,2.39 17.79,7.17c4.09333,4.78 6.14,11.18 6.14,19.2v0v38.4h-11.77v-36.61c0,-11.60667 -5.16333,-17.41 -15.49,-17.41v0c-4.86667,0 -8.83333,1.94333 -11.9,5.83c-3.07333,3.88 -4.61,8.38 -4.61,13.5v0v34.69h-11.78z"/>
      <path d="M1193.08,274.05v0c-6.99333,0 -12.77333,-1.70667 -17.34,-5.12c-4.56667,-3.41333 -7.91667,-7.68 -10.05,-12.8v0l10.5,-4.35c3.32667,7.84667 9,11.77 17.02,11.77v0c3.67333,0 6.68333,-0.81 9.03,-2.43c2.34667,-1.62 3.52,-3.75333 3.52,-6.4v0c0,-4.09333 -2.86,-6.86667 -8.58,-8.32v0l-12.67,-3.07c-4.01333,-1.02667 -7.81,-2.97 -11.39,-5.83c-3.58667,-2.85333 -5.38,-6.71333 -5.38,-11.58v0c0,-5.54667 2.45333,-10.04667 7.36,-13.5c4.90667,-3.46 10.73,-5.19 17.47,-5.19v0c5.54667,0 10.49667,1.26 14.85,3.78c4.35333,2.51333 7.46667,6.11667 9.34,10.81v0l-10.24,4.23c-2.3,-5.54667 -7.07667,-8.32 -14.33,-8.32v0c-3.5,0 -6.44333,0.72333 -8.83,2.17c-2.39333,1.45333 -3.59,3.41667 -3.59,5.89v0c0,3.58667 2.77333,6.02 8.32,7.3v0l12.42,2.94c5.88667,1.36667 10.23667,3.71333 13.05,7.04c2.82,3.32667 4.23,7.08333 4.23,11.27v0c0,5.62667 -2.30333,10.32 -6.91,14.08c-4.61333,3.75333 -10.54667,5.63 -17.8,5.63z"/>
    </g>
  </g>
</svg>
