<svg version="1.1" xmlns="http://www.w3.org/2000/svg" xmlns:xlink="http://www.w3.org/1999/xlink" width="635.263" height="464" viewBox="0 0 635.263 464">
  <g fill="none" stroke="none" stroke-width="1" stroke-linecap="butt" stroke-linejoin="miter" stroke-dasharray="" stroke-dashoffset="0">
    <rect x="0" y="0" width="635.263" height="464" fill="none" fill-rule="nonzero"/>
    <circle cx="317.632" cy="192" r="96" fill="#ffca28" fill-rule="nonzero"/>
    <g fill="#3c4043" fill-rule="evenodd">
      <path d="M317.63167,145.33333c25.66667,0 46.66667,21 46.66667,46.66667c0,25.66667 -21,46.66667 -46.66667,46.66667c-25.66667,0 -46.66667,-21 -46.66667,-46.66667c0,-25.66667 21,-46.66667 46.66667,-46.66667zM342.365,220c7.46667,-7 12.6,-16.8 12.6,-28c0,-20.53333 -16.8,-37.33333 -37.33333,-37.33333c-20.53333,0 -37.33333,16.8 -37.33333,37.33333c0,11.2 5.13333,21 12.6,28c6.53333,-5.6 14.93333,-9.33333 24.73333,-9.33333c9.8,0 18.2,3.73333 24.73333,9.33333zM294.29833,178c2.8,0 4.66667,1.86667 4.66667,4.66667c0,2.8 -1.86667,4.66667 -4.66667,4.66667c-2.8,0 -4.66667,-1.86667 -4.66667,-4.66667c0,-2.8 1.86667,-4.66667 4.66667,-4.66667zM312.965,168.66667c0,2.8 -1.86667,4.66667 -4.66667,4.66667c-2.8,0 -4.66667,-1.86667 -4.66667,-4.66667c0,-2.8 1.86667,-4.66667 4.66667,-4.66667c2.8,0 4.66667,1.86667 4.66667,4.66667zM340.965,178c2.8,0 4.66667,1.86667 4.66667,4.66667c0,2.8 -1.86667,4.66667 -4.66667,4.66667c-2.8,0 -4.66667,-1.86667 -4.66667,-4.66667c0,-2.8 1.86667,-4.66667 4.66667,-4.66667zM323.031,166.156c1.22503,-1.9177 3.65458,-2.67222 5.75044,-1.78587c2.09586,0.88635 3.24684,3.15512 2.72423,5.36987c-1.56271,7.98043 -3.1276,15.96043 -4.69467,23.94c-0.69661,3.71859 -3.56912,6.64881 -7.27312,7.41924c-3.704,0.77042 -7.50669,-0.77138 -9.62828,-3.90379c-2.1216,-3.13241 -2.14237,-7.23572 -0.05259,-10.38945z"/>
    </g>
    <g fill="#5f6368" fill-rule="nonzero">
      <path d="M99.92333,339.62667v12.37333h-3.92333v-30.55h10.41c2.58889,0 4.82889,0.86111 6.72,2.58333c1.89111,1.72 2.83667,3.88889 2.83667,6.50667c0,2.61556 -0.94556,4.78444 -2.83667,6.50667c-1.89111,1.72 -4.13111,2.58 -6.72,2.58v0zM99.92333,325.20667v10.66667h6.57c1.65111,0 2.97444,-0.55556 3.97,-1.66667c0.99556,-1.10889 1.49333,-2.33111 1.49333,-3.66667c0,-1.33778 -0.49778,-2.56111 -1.49333,-3.67c-0.99556,-1.10889 -2.31889,-1.66333 -3.97,-1.66333v0z"/>
      <path d="M127.36,352.68333v0c-3.15778,0 -5.72556,-1.05222 -7.70333,-3.15667c-1.97556,-2.10667 -2.96333,-4.76667 -2.96333,-7.98v0c0,-3.04444 0.96,-5.66111 2.88,-7.85c1.92,-2.19111 4.37333,-3.28667 7.36,-3.28667v0c3.1,0 5.58111,1.01 7.44333,3.03c1.86444,2.02 2.79667,4.72222 2.79667,8.10667v0l-0.04333,0.72667h-16.51333c0.11333,2.10444 0.81778,3.76778 2.11333,4.99c1.29333,1.22444 2.80778,1.83667 4.54333,1.83667v0c2.81556,0 4.72111,-1.19556 5.71667,-3.58667v0l3.5,1.45333c-0.68222,1.62 -1.80556,2.97778 -3.37,4.07333c-1.56444,1.09556 -3.48444,1.64333 -5.76,1.64333zM120.87333,339.03h12.11667c-0.08444,-1.19556 -0.63222,-2.33333 -1.64333,-3.41333c-1.00889,-1.08222 -2.50889,-1.62333 -4.5,-1.62333v0c-1.45111,0 -2.71,0.45556 -3.77667,1.36667c-1.06667,0.91111 -1.79889,2.13444 -2.19667,3.67z"/>
      <path d="M166.95333,321.28v0c1.25111,0 2.30333,0.18444 3.15667,0.55333v0l-1.36333,3.37333c-0.45556,-0.22889 -1.05333,-0.34333 -1.79333,-0.34333v0c-1.02444,0 -1.86333,0.30556 -2.51667,0.91667c-0.65556,0.61333 -0.98333,1.50222 -0.98333,2.66667v0v2.64667h5.46333v3.58333h-5.46333v17.32333h-3.92333v-17.32333h-3.92667v-3.58333h3.92667v-2.77333c0,-2.13333 0.68222,-3.84 2.04667,-5.12c1.36667,-1.28 3.15889,-1.92 5.37667,-1.92zM140.75667,331.09333h3.75333v3.41333h0.17c0.45556,-1.22222 1.30222,-2.18222 2.54,-2.88c1.23778,-0.69778 2.59556,-1.04667 4.07333,-1.04667v0c0.42667,0 0.89667,0.02889 1.41,0.08667v0v3.84c-0.54,-0.05778 -1.06667,-0.08667 -1.58,-0.08667v0c-1.87778,0 -3.42111,0.54778 -4.63,1.64333c-1.20889,1.09556 -1.81333,2.59667 -1.81333,4.50333v0v11.43333h-3.92333z"/>
      <path d="M173.22667,333.59c2.01778,-2.12 4.59111,-3.18 7.72,-3.18c3.12889,0 5.70333,1.06 7.72333,3.18c2.02,2.11778 3.03,4.77 3.03,7.95667c0,3.18667 -1.01,5.83889 -3.03,7.95667c-2.02,2.12 -4.59444,3.18 -7.72333,3.18c-3.12889,0 -5.70222,-1.06 -7.72,-3.18c-2.02,-2.11778 -3.03,-4.77 -3.03,-7.95667c0,-3.18667 1.01,-5.83889 3.03,-7.95667zM176.14667,347.03c1.35111,1.38 2.95111,2.07 4.8,2.07c1.84889,0 3.44889,-0.69 4.8,-2.07c1.35111,-1.38 2.02667,-3.20778 2.02667,-5.48333c0,-2.27556 -0.67556,-4.10333 -2.02667,-5.48333c-1.35111,-1.38 -2.95111,-2.07 -4.8,-2.07c-1.84889,0 -3.44889,0.69 -4.8,2.07c-1.35111,1.38 -2.02667,3.20778 -2.02667,5.48333c0,2.27556 0.67556,4.10333 2.02667,5.48333z"/>
      <path d="M198.78333,340.56667v11.43333h-3.92667v-20.90667h3.75667v3.41333h0.17c0.39778,-1.13778 1.21556,-2.07667 2.45333,-2.81667c1.23778,-0.74 2.43889,-1.11 3.60333,-1.11c1.16667,0 2.14889,0.17111 2.94667,0.51333v0l-1.49333,3.67c-0.51333,-0.2 -1.21111,-0.3 -2.09333,-0.3v0c-1.42222,0 -2.68,0.56222 -3.77333,1.68667c-1.09556,1.12222 -1.64333,2.59444 -1.64333,4.41667z"/>
      <path d="M213.84333,352h-3.92333v-20.90667h3.75333v2.9h0.17c0.59778,-0.99556 1.51556,-1.84111 2.75333,-2.53667c1.23778,-0.69778 2.46778,-1.04667 3.69,-1.04667v0c3.24222,0 5.44667,1.33667 6.61333,4.01v0c1.70667,-2.67333 4.13889,-4.01 7.29667,-4.01v0c2.47333,0 4.33667,0.79 5.59,2.37c1.25111,1.57778 1.87667,3.71778 1.87667,6.42v0v12.8h-3.92667v-12.20333c0,-2.10444 -0.38333,-3.59778 -1.15,-4.48c-0.76889,-0.88222 -1.93556,-1.32333 -3.5,-1.32333v0c-1.53556,0 -2.80889,0.65444 -3.82,1.96333c-1.00889,1.30889 -1.51333,2.80222 -1.51333,4.48v0v11.56333h-3.92667v-12.20333c0,-2.10444 -0.38333,-3.59778 -1.15,-4.48c-0.76889,-0.88222 -1.93556,-1.32333 -3.5,-1.32333v0c-1.53556,0 -2.80778,0.65444 -3.81667,1.96333c-1.01111,1.30889 -1.51667,2.80222 -1.51667,4.48v0z"/>
      <path d="M252.67,352.68333v0c-2.21778,0 -4.07333,-0.64 -5.56667,-1.92c-1.49333,-1.28 -2.24,-2.97222 -2.24,-5.07667v0c0,-2.27556 0.88111,-4.06111 2.64333,-5.35667c1.76444,-1.29333 3.94111,-1.94 6.53,-1.94v0c2.30444,0 4.19556,0.42667 5.67333,1.28v0v-0.59667c0,-1.53778 -0.52556,-2.76889 -1.57667,-3.69333c-1.05333,-0.92444 -2.34778,-1.38667 -3.88333,-1.38667v0c-1.13778,0 -2.16889,0.27111 -3.09333,0.81333c-0.92444,0.54 -1.55778,1.27889 -1.9,2.21667v0l-3.58333,-1.53667c0.48444,-1.25111 1.43778,-2.41 2.86,-3.47667c1.42222,-1.06667 3.29889,-1.6 5.63,-1.6v0c2.67333,0 4.89222,0.78222 6.65667,2.34667c1.76444,1.56444 2.64667,3.76889 2.64667,6.61333v0v12.63h-3.75667v-2.9h-0.17c-1.56444,2.38889 -3.85444,3.58333 -6.87,3.58333zM253.31,349.1v0c1.62222,0 3.09444,-0.60444 4.41667,-1.81333c1.32222,-1.20889 1.98333,-2.63889 1.98333,-4.29v0c-1.10889,-0.90889 -2.77222,-1.36333 -4.99,-1.36333v0c-1.90667,0 -3.34333,0.41222 -4.31,1.23667c-0.96667,0.82444 -1.45,1.79111 -1.45,2.9v0c0,1.02444 0.44,1.83556 1.32,2.43333c0.88222,0.59778 1.89222,0.89667 3.03,0.89667z"/>
      <path d="M267.47667,331.09333h3.75333v2.9h0.17c0.56889,-0.99556 1.46556,-1.84111 2.69,-2.53667c1.22222,-0.69778 2.53,-1.04667 3.92333,-1.04667v0c2.58889,0 4.56667,0.79667 5.93333,2.39c1.36444,1.59333 2.04667,3.72667 2.04667,6.4v0v12.8h-3.92667v-12.20333c0,-3.86889 -1.72,-5.80333 -5.16,-5.80333v0c-1.62222,0 -2.94556,0.64778 -3.97,1.94333c-1.02444,1.29333 -1.53667,2.79333 -1.53667,4.5v0v11.56333h-3.92333z"/>
      <path d="M299.73333,352.68333v0c-3.12889,0 -5.70333,-1.06 -7.72333,-3.18c-2.02,-2.11778 -3.03,-4.77 -3.03,-7.95667c0,-3.18667 1.01,-5.83889 3.03,-7.95667c2.02,-2.12 4.59444,-3.18 7.72333,-3.18v0c2.33111,0 4.26444,0.56889 5.8,1.70667c1.53778,1.13778 2.66222,2.57444 3.37333,4.31v0l-3.58667,1.49333c-1.08,-2.61778 -3.02778,-3.92667 -5.84333,-3.92667v0c-1.73556,0 -3.26444,0.71111 -4.58667,2.13333c-1.32222,1.42222 -1.98333,3.22889 -1.98333,5.42c0,2.19111 0.66111,3.99778 1.98333,5.42c1.32222,1.42222 2.85111,2.13333 4.58667,2.13333v0c2.92889,0 4.94778,-1.30889 6.05667,-3.92667v0l3.5,1.49333c-0.71111,1.70667 -1.85556,3.13556 -3.43333,4.28667c-1.58,1.15333 -3.53556,1.73 -5.86667,1.73z"/>
      <path d="M321.49333,352.68333v0c-3.15778,0 -5.72556,-1.05222 -7.70333,-3.15667c-1.97556,-2.10667 -2.96333,-4.76667 -2.96333,-7.98v0c0,-3.04444 0.96,-5.66111 2.88,-7.85c1.92,-2.19111 4.37333,-3.28667 7.36,-3.28667v0c3.1,0 5.58111,1.01 7.44333,3.03c1.86444,2.02 2.79667,4.72222 2.79667,8.10667v0l-0.04333,0.72667h-16.51333c0.11333,2.10444 0.81778,3.76778 2.11333,4.99c1.29333,1.22444 2.80778,1.83667 4.54333,1.83667v0c2.81556,0 4.72111,-1.19556 5.71667,-3.58667v0l3.5,1.45333c-0.68222,1.62 -1.80556,2.97778 -3.37,4.07333c-1.56444,1.09556 -3.48444,1.64333 -5.76,1.64333zM315.00667,339.03h12.11667c-0.08444,-1.19556 -0.63222,-2.33333 -1.64333,-3.41333c-1.00889,-1.08222 -2.50889,-1.62333 -4.5,-1.62333v0c-1.45111,0 -2.71,0.45556 -3.77667,1.36667c-1.06667,0.91111 -1.79889,2.13444 -2.19667,3.67z"/>
      <path d=""/>
      <path d="M348.88333,352h-3.92333v-30.55h3.92333l10.62333,18.60333h0.17333l10.62333,-18.60333h3.92333v30.55h-3.92333v-18.13333l0.17,-5.12h-0.17l-9.55667,16.76667h-2.30667l-9.55667,-16.76667h-0.17l0.17,5.12z"/>
      <path d="M381.52333,333.59c2.02,-2.12 4.59444,-3.18 7.72333,-3.18c3.12889,0 5.70333,1.06 7.72333,3.18c2.02,2.11778 3.03,4.77 3.03,7.95667c0,3.18667 -1.01,5.83889 -3.03,7.95667c-2.02,2.12 -4.59444,3.18 -7.72333,3.18c-3.12889,0 -5.70333,-1.06 -7.72333,-3.18c-2.02,-2.11778 -3.03,-4.77 -3.03,-7.95667c0,-3.18667 1.01,-5.83889 3.03,-7.95667zM384.44667,347.03c1.35111,1.38 2.95111,2.07 4.8,2.07c1.84889,0 3.44889,-0.69 4.8,-2.07c1.35111,-1.38 2.02667,-3.20778 2.02667,-5.48333c0,-2.27556 -0.67556,-4.10333 -2.02667,-5.48333c-1.35111,-1.38 -2.95111,-2.07 -4.8,-2.07c-1.84889,0 -3.44889,0.69 -4.8,2.07c-1.35111,1.38 -2.02667,3.20778 -2.02667,5.48333c0,2.27556 0.67556,4.10333 2.02667,5.48333z"/>
      <path d="M403.15667,331.09333h3.75333v2.9h0.17c0.56889,-0.99556 1.46556,-1.84111 2.69,-2.53667c1.22222,-0.69778 2.53,-1.04667 3.92333,-1.04667v0c2.58889,0 4.56667,0.79667 5.93333,2.39c1.36444,1.59333 2.04667,3.72667 2.04667,6.4v0v12.8h-3.92667v-12.20333c0,-3.86889 -1.72,-5.80333 -5.16,-5.80333v0c-1.62222,0 -2.94556,0.64778 -3.97,1.94333c-1.02444,1.29333 -1.53667,2.79333 -1.53667,4.5v0v11.56333h-3.92333z"/>
      <path d="M430.54667,325.84667c-0.54,0.54 -1.19333,0.81 -1.96,0.81c-0.76889,0 -1.42333,-0.27 -1.96333,-0.81c-0.54,-0.54222 -0.81,-1.19667 -0.81,-1.96333c0,-0.76889 0.27,-1.42333 0.81,-1.96333c0.54,-0.54 1.19444,-0.81 1.96333,-0.81c0.76667,0 1.42,0.27 1.96,0.81c0.54222,0.54 0.81333,1.19444 0.81333,1.96333c0,0.76667 -0.27111,1.42111 -0.81333,1.96333zM430.54667,331.09333v20.90667h-3.92333v-20.90667z"/>
      <path d="M443.86,352.34v0c-2.19111,0 -3.86222,-0.58222 -5.01333,-1.74667c-1.15111,-1.16667 -1.72667,-2.81667 -1.72667,-4.95v0v-10.96667h-3.67v-3.58333h3.67v-6.4h3.92333v6.4h5.12v3.58333h-5.12v10.66667c0,2.27556 0.93889,3.41333 2.81667,3.41333v0c0.71111,0 1.30889,-0.11333 1.79333,-0.34v0l1.36333,3.37c-0.85333,0.36889 -1.90556,0.55333 -3.15667,0.55333z"/>
      <path d="M451.11333,333.59c2.02,-2.12 4.59444,-3.18 7.72333,-3.18c3.12889,0 5.70333,1.06 7.72333,3.18c2.01778,2.11778 3.02667,4.77 3.02667,7.95667c0,3.18667 -1.00889,5.83889 -3.02667,7.95667c-2.02,2.12 -4.59444,3.18 -7.72333,3.18c-3.12889,0 -5.70333,-1.06 -7.72333,-3.18c-2.02,-2.11778 -3.03,-4.77 -3.03,-7.95667c0,-3.18667 1.01,-5.83889 3.03,-7.95667zM454.03667,347.03c1.35111,1.38 2.95111,2.07 4.8,2.07c1.84889,0 3.44889,-0.69 4.8,-2.07c1.35111,-1.38 2.02667,-3.20778 2.02667,-5.48333c0,-2.27556 -0.67556,-4.10333 -2.02667,-5.48333c-1.35111,-1.38 -2.95111,-2.07 -4.8,-2.07c-1.84889,0 -3.44889,0.69 -4.8,2.07c-1.35111,1.38 -2.02667,3.20778 -2.02667,5.48333c0,2.27556 0.67556,4.10333 2.02667,5.48333z"/>
      <path d="M476.67,340.56667v11.43333h-3.92333v-20.90667h3.75333v3.41333h0.17c0.39778,-1.13778 1.21556,-2.07667 2.45333,-2.81667c1.23778,-0.74 2.44,-1.11 3.60667,-1.11c1.16667,0 2.14778,0.17111 2.94333,0.51333v0l-1.49333,3.67c-0.51111,-0.2 -1.20778,-0.3 -2.09,-0.3v0c-1.42222,0 -2.68111,0.56222 -3.77667,1.68667c-1.09556,1.12222 -1.64333,2.59444 -1.64333,4.41667z"/>
      <path d="M492.07333,325.84667c-0.54,0.54 -1.19444,0.81 -1.96333,0.81c-0.76667,0 -1.42111,-0.27 -1.96333,-0.81c-0.54,-0.54222 -0.81,-1.19667 -0.81,-1.96333c0,-0.76889 0.27,-1.42333 0.81,-1.96333c0.54222,-0.54 1.19667,-0.81 1.96333,-0.81c0.76889,0 1.42333,0.27 1.96333,0.81c0.54,0.54 0.81,1.19444 0.81,1.96333c0,0.76667 -0.27,1.42111 -0.81,1.96333zM492.07333,331.09333v20.90667h-3.92667v-20.90667z"/>
      <path d="M496.76667,331.09333h3.75333v2.9h0.17333c0.56889,-0.99556 1.46444,-1.84111 2.68667,-2.53667c1.22222,-0.69778 2.53111,-1.04667 3.92667,-1.04667v0c2.58667,0 4.56333,0.79667 5.93,2.39c1.36444,1.59333 2.04667,3.72667 2.04667,6.4v0v12.8h-3.92333v-12.20333c0,-3.86889 -1.72111,-5.80333 -5.16333,-5.80333v0c-1.62222,0 -2.94556,0.64778 -3.97,1.94333c-1.02222,1.29333 -1.53333,2.79333 -1.53333,4.5v0v11.56333h-3.92667z"/>
      <path d="M528.55333,361.9v0c-2.47556,0 -4.49556,-0.61889 -6.06,-1.85667c-1.56444,-1.23778 -2.68778,-2.65333 -3.37,-4.24667v0l3.58333,-1.49333c0.4,1.13778 1.13333,2.09111 2.2,2.86c1.06667,0.76667 2.28222,1.15 3.64667,1.15v0c2.16222,0 3.86222,-0.64667 5.1,-1.94c1.23556,-1.29333 1.85333,-3.05 1.85333,-5.27v0v-2.00333h-0.17c-0.68222,1.02222 -1.64889,1.87556 -2.9,2.56c-1.25111,0.68222 -2.65889,1.02333 -4.22333,1.02333v0c-2.70222,0 -5.03556,-1.06667 -7,-3.2c-1.96222,-2.13333 -2.94333,-4.77889 -2.94333,-7.93667c0,-3.15778 0.98111,-5.80333 2.94333,-7.93667c1.96444,-2.13333 4.29778,-3.2 7,-3.2v0c1.56444,0 2.97222,0.34111 4.22333,1.02333c1.25111,0.68444 2.21778,1.53778 2.9,2.56v0h0.17v-2.9h3.75667v19.84c0,3.58444 -1.03889,6.30778 -3.11667,8.17c-2.07556,1.86444 -4.60667,2.79667 -7.59333,2.79667zM528.85333,349.1v0c1.84889,0 3.42,-0.68333 4.71333,-2.05c1.29333,-1.36444 1.94,-3.19889 1.94,-5.50333c0,-2.30444 -0.64667,-4.13889 -1.94,-5.50333c-1.29333,-1.36667 -2.86444,-2.05 -4.71333,-2.05v0c-1.82222,0 -3.38667,0.69 -4.69333,2.07c-1.30889,1.38 -1.96333,3.20778 -1.96333,5.48333c0,2.27556 0.65444,4.10333 1.96333,5.48333c1.30667,1.38 2.87111,2.07 4.69333,2.07z"/>
    </g>
  </g>
</svg>
