<svg version="1.1" xmlns="http://www.w3.org/2000/svg" xmlns:xlink="http://www.w3.org/1999/xlink" width="1793.79" height="448" viewBox="0 0 1793.79 448">
  <g fill="none" stroke="none" stroke-width="1" stroke-linecap="butt" stroke-linejoin="miter" stroke-dasharray="" stroke-dashoffset="0">
    <rect x="0" y="0" width="1793.79" height="448" fill="none" fill-rule="nonzero"/>
    <circle cx="192" cy="224" r="96" fill="#ffca28" fill-rule="nonzero"/>
    <g fill="#3c4043" fill-rule="evenodd">
      <path d="M192,177.33333c25.66667,0 46.66667,21 46.66667,46.66667c0,25.66667 -21,46.66667 -46.66667,46.66667c-25.66667,0 -46.66667,-21 -46.66667,-46.66667c0,-25.66667 21,-46.66667 46.66667,-46.66667zM216.73333,252c7.46667,-7 12.6,-16.8 12.6,-28c0,-20.53333 -16.8,-37.33333 -37.33333,-37.33333c-20.53333,0 -37.33333,16.8 -37.33333,37.33333c0,11.2 5.13333,21 12.6,28c6.53333,-5.6 14.93333,-9.33333 24.73333,-9.33333c9.8,0 18.2,3.73333 24.73333,9.33333zM168.66667,210c2.8,0 4.66667,1.86667 4.66667,4.66667c0,2.8 -1.86667,4.66667 -4.66667,4.66667c-2.8,0 -4.66667,-1.86667 -4.66667,-4.66667c0,-2.8 1.86667,-4.66667 4.66667,-4.66667zM187.33333,200.66667c0,2.8 -1.86667,4.66667 -4.66667,4.66667c-2.8,0 -4.66667,-1.86667 -4.66667,-4.66667c0,-2.8 1.86667,-4.66667 4.66667,-4.66667c2.8,0 4.66667,1.86667 4.66667,4.66667zM215.33333,210c2.8,0 4.66667,1.86667 4.66667,4.66667c0,2.8 -1.86667,4.66667 -4.66667,4.66667c-2.8,0 -4.66667,-1.86667 -4.66667,-4.66667c0,-2.8 1.86667,-4.66667 4.66667,-4.66667zM197.39933,198.156c1.22503,-1.9177 3.65458,-2.67222 5.75044,-1.78587c2.09586,0.88635 3.24684,3.15512 2.72423,5.36987c-1.56271,7.98043 -3.1276,15.96043 -4.69467,23.94c-0.69661,3.71859 -3.56912,6.64881 -7.27312,7.41924c-3.704,0.77042 -7.50669,-0.77138 -9.62828,-3.90379c-2.1216,-3.13241 -2.14237,-7.23572 -0.05259,-10.38945z"/>
    </g>
    <g fill="#5f6368" fill-rule="nonzero">
      <path d="M347.77,234.88v37.12h-11.77v-91.65h31.23c7.76667,0 14.48667,2.58333 20.16,7.75c5.67333,5.16 8.51,11.66667 8.51,19.52c0,7.84667 -2.83667,14.35333 -8.51,19.52c-5.67333,5.16 -12.39333,7.74 -20.16,7.74v0zM347.77,191.62v32h19.71c4.95333,0 8.92333,-1.66667 11.91,-5c2.98667,-3.32667 4.48,-6.99333 4.48,-11c0,-4.01333 -1.49333,-7.68333 -4.48,-11.01c-2.98667,-3.32667 -6.95667,-4.99 -11.91,-4.99v0z"/>
      <path d="M430.08,274.05v0c-9.47333,0 -17.17667,-3.15667 -23.11,-9.47c-5.92667,-6.32 -8.89,-14.3 -8.89,-23.94v0c0,-9.13333 2.88,-16.98333 8.64,-23.55c5.76,-6.57333 13.12,-9.86 22.08,-9.86v0c9.3,0 16.74333,3.03 22.33,9.09c5.59333,6.06 8.39,14.16667 8.39,24.32v0l-0.13,2.18h-49.54c0.34,6.31333 2.45333,11.30333 6.34,14.97c3.88,3.67333 8.42333,5.51 13.63,5.51v0c8.44667,0 14.16333,-3.58667 17.15,-10.76v0l10.5,4.36c-2.04667,4.86 -5.41667,8.93333 -10.11,12.22c-4.69333,3.28667 -10.45333,4.93 -17.28,4.93zM410.62,233.09h36.35c-0.25333,-3.58667 -1.89667,-7 -4.93,-10.24c-3.02667,-3.24667 -7.52667,-4.87 -13.5,-4.87v0c-4.35333,0 -8.13,1.36667 -11.33,4.1c-3.2,2.73333 -5.39667,6.40333 -6.59,11.01z"/>
      <path d="M548.86,179.84v0c3.75333,0 6.91,0.55333 9.47,1.66v0l-4.09,10.12c-1.36667,-0.68667 -3.16,-1.03 -5.38,-1.03v0c-3.07333,0 -5.59,0.91667 -7.55,2.75c-1.96667,1.84 -2.95,4.50667 -2.95,8v0v7.94h16.39v10.75h-16.39v51.97h-11.77v-51.97h-11.78v-10.75h11.78v-8.32c0,-6.4 2.04667,-11.52 6.14,-15.36c4.1,-3.84 9.47667,-5.76 16.13,-5.76zM470.27,209.28h11.26v10.24h0.51c1.36667,-3.66667 3.90667,-6.54667 7.62,-8.64c3.71333,-2.09333 7.78667,-3.14 12.22,-3.14v0c1.28,0 2.69,0.08667 4.23,0.26v0v11.52c-1.62,-0.17333 -3.2,-0.26 -4.74,-0.26v0c-5.63333,0 -10.26333,1.64333 -13.89,4.93c-3.62667,3.28667 -5.44,7.79 -5.44,13.51v0v34.3h-11.77z"/>
      <path d="M567.68,216.77c6.05333,-6.36 13.77333,-9.54 23.16,-9.54c9.38667,0 17.11,3.18 23.17,9.54c6.06,6.35333 9.09,14.31 9.09,23.87c0,9.56 -3.03,17.51667 -9.09,23.87c-6.06,6.36 -13.78333,9.54 -23.17,9.54c-9.38667,0 -17.10667,-3.18 -23.16,-9.54c-6.06,-6.35333 -9.09,-14.31 -9.09,-23.87c0,-9.56 3.03,-17.51667 9.09,-23.87zM576.44,257.09c4.05333,4.14 8.85333,6.21 14.4,6.21c5.54667,0 10.34667,-2.07 14.4,-6.21c4.05333,-4.14 6.08,-9.62333 6.08,-16.45c0,-6.82667 -2.02667,-12.31 -6.08,-16.45c-4.05333,-4.14 -8.85333,-6.21 -14.4,-6.21c-5.54667,0 -10.34667,2.07 -14.4,6.21c-4.05333,4.14 -6.08,9.62333 -6.08,16.45c0,6.82667 2.02667,12.31 6.08,16.45z"/>
      <path d="M644.35,237.7v34.3h-11.78v-62.72h11.27v10.24h0.51c1.19333,-3.41333 3.64667,-6.23 7.36,-8.45c3.71333,-2.22 7.31667,-3.33 10.81,-3.33c3.5,0 6.44667,0.51333 8.84,1.54v0l-4.48,11.01c-1.54,-0.6 -3.63333,-0.9 -6.28,-0.9v0c-4.26667,0 -8.04,1.68667 -11.32,5.06c-3.28667,3.36667 -4.93,7.78333 -4.93,13.25z"/>
      <path d="M689.53,272h-11.77v-62.72h11.26v8.7h0.51c1.79333,-2.98667 4.54667,-5.52333 8.26,-7.61c3.71333,-2.09333 7.40333,-3.14 11.07,-3.14v0c9.72667,0 16.34,4.01 19.84,12.03v0c5.12,-8.02 12.41667,-12.03 21.89,-12.03v0c7.42,0 13.01,2.37 16.77,7.11c3.75333,4.73333 5.63,11.15333 5.63,19.26v0v38.4h-11.78v-36.61c0,-6.31333 -1.15,-10.79333 -3.45,-13.44c-2.30667,-2.64667 -5.80667,-3.97 -10.5,-3.97v0c-4.60667,0 -8.42667,1.96333 -11.46,5.89c-3.02667,3.92667 -4.54,8.40667 -4.54,13.44v0v34.69h-11.78v-36.61c0,-6.31333 -1.15,-10.79333 -3.45,-13.44c-2.30667,-2.64667 -5.80667,-3.97 -10.5,-3.97v0c-4.60667,0 -8.42333,1.96333 -11.45,5.89c-3.03333,3.92667 -4.55,8.40667 -4.55,13.44v0z"/>
      <path d="M806.01,274.05v0c-6.65333,0 -12.22,-1.92 -16.7,-5.76c-4.48,-3.84 -6.72,-8.91667 -6.72,-15.23v0c0,-6.82667 2.64333,-12.18333 7.93,-16.07c5.29333,-3.88 11.82333,-5.82 19.59,-5.82v0c6.91333,0 12.58667,1.28 17.02,3.84v0v-1.79c0,-4.61333 -1.57667,-8.30667 -4.73,-11.08c-3.16,-2.77333 -7.04333,-4.16 -11.65,-4.16v0c-3.41333,0 -6.50667,0.81333 -9.28,2.44c-2.77333,1.62 -4.67333,3.83667 -5.7,6.65v0l-10.75,-4.61c1.45333,-3.75333 4.31333,-7.23 8.58,-10.43c4.26667,-3.2 9.89667,-4.8 16.89,-4.8v0c8.02,0 14.67667,2.34667 19.97,7.04c5.29333,4.69333 7.94,11.30667 7.94,19.84v0v37.89h-11.27v-8.7h-0.51c-4.69333,7.16667 -11.56333,10.75 -20.61,10.75zM807.93,263.3v0c4.86667,0 9.28333,-1.81333 13.25,-5.44c3.96667,-3.62667 5.95,-7.91667 5.95,-12.87v0c-3.32667,-2.72667 -8.31667,-4.09 -14.97,-4.09v0c-5.72,0 -10.03,1.23667 -12.93,3.71c-2.9,2.47333 -4.35,5.37333 -4.35,8.7v0c0,3.07333 1.32,5.50667 3.96,7.3c2.64667,1.79333 5.67667,2.69 9.09,2.69z"/>
      <path d="M850.43,209.28h11.26v8.7h0.51c1.70667,-2.98667 4.39667,-5.52333 8.07,-7.61c3.66667,-2.09333 7.59,-3.14 11.77,-3.14v0c7.76667,0 13.7,2.39 17.8,7.17c4.09333,4.78 6.14,11.18 6.14,19.2v0v38.4h-11.78v-36.61c0,-11.60667 -5.16,-17.41 -15.48,-17.41v0c-4.86667,0 -8.83667,1.94333 -11.91,5.83c-3.07333,3.88 -4.61,8.38 -4.61,13.5v0v34.69h-11.77z"/>
      <path d="M947.2,274.05v0c-9.38667,0 -17.11,-3.18 -23.17,-9.54c-6.06,-6.35333 -9.09,-14.31 -9.09,-23.87c0,-9.56 3.03,-17.51667 9.09,-23.87c6.06,-6.36 13.78333,-9.54 23.17,-9.54v0c6.99333,0 12.79333,1.70667 17.4,5.12c4.61333,3.41333 7.98667,7.72333 10.12,12.93v0l-10.76,4.48c-3.24,-7.85333 -9.08333,-11.78 -17.53,-11.78v0c-5.20667,0 -9.79333,2.13333 -13.76,6.4c-3.96667,4.26667 -5.95,9.68667 -5.95,16.26c0,6.57333 1.98333,11.99333 5.95,16.26c3.96667,4.26667 8.55333,6.4 13.76,6.4v0c8.78667,0 14.84333,-3.92667 18.17,-11.78v0l10.5,4.48c-2.13333,5.12 -5.56667,9.40667 -10.3,12.86c-4.74,3.46 -10.60667,5.19 -17.6,5.19z"/>
      <path d="M1012.48,274.05v0c-9.47333,0 -17.17667,-3.15667 -23.11,-9.47c-5.92667,-6.32 -8.89,-14.3 -8.89,-23.94v0c0,-9.13333 2.88,-16.98333 8.64,-23.55c5.76,-6.57333 13.12,-9.86 22.08,-9.86v0c9.3,0 16.74333,3.03 22.33,9.09c5.59333,6.06 8.39,14.16667 8.39,24.32v0l-0.13,2.18h-49.54c0.34,6.31333 2.45333,11.30333 6.34,14.97c3.88,3.67333 8.42333,5.51 13.63,5.51v0c8.44667,0 14.16333,-3.58667 17.15,-10.76v0l10.5,4.36c-2.04667,4.86 -5.41667,8.93333 -10.11,12.22c-4.69333,3.28667 -10.45333,4.93 -17.28,4.93zM993.02,233.09h36.35c-0.25333,-3.58667 -1.89667,-7 -4.93,-10.24c-3.02667,-3.24667 -7.52667,-4.87 -13.5,-4.87v0c-4.35333,0 -8.13,1.36667 -11.33,4.1c-3.2,2.73333 -5.39667,6.40333 -6.59,11.01z"/>
      <path d=""/>
      <path d="M1094.65,272h-11.77v-91.65h11.77l31.87,55.81h0.52l31.87,-55.81h11.77v91.65h-11.77v-54.4l0.51,-15.36h-0.51l-28.67,50.3h-6.92l-28.67,-50.3h-0.51l0.51,15.36z"/>
      <path d="M1192.57,216.77c6.06,-6.36 13.78333,-9.54 23.17,-9.54c9.38667,0 17.11,3.18 23.17,9.54c6.06,6.35333 9.09,14.31 9.09,23.87c0,9.56 -3.03,17.51667 -9.09,23.87c-6.06,6.36 -13.78333,9.54 -23.17,9.54c-9.38667,0 -17.11,-3.18 -23.17,-9.54c-6.06,-6.35333 -9.09,-14.31 -9.09,-23.87c0,-9.56 3.03,-17.51667 9.09,-23.87zM1201.34,257.09c4.05333,4.14 8.85333,6.21 14.4,6.21c5.54667,0 10.34667,-2.07 14.4,-6.21c4.05333,-4.14 6.08,-9.62333 6.08,-16.45c0,-6.82667 -2.02667,-12.31 -6.08,-16.45c-4.05333,-4.14 -8.85333,-6.21 -14.4,-6.21c-5.54667,0 -10.34667,2.07 -14.4,6.21c-4.05333,4.14 -6.08,9.62333 -6.08,16.45c0,6.82667 2.02667,12.31 6.08,16.45z"/>
      <path d="M1257.47,209.28h11.26v8.7h0.51c1.70667,-2.98667 4.39667,-5.52333 8.07,-7.61c3.66667,-2.09333 7.59,-3.14 11.77,-3.14v0c7.76667,0 13.7,2.39 17.8,7.17c4.09333,4.78 6.14,11.18 6.14,19.2v0v38.4h-11.78v-36.61c0,-11.60667 -5.16,-17.41 -15.48,-17.41v0c-4.86667,0 -8.83667,1.94333 -11.91,5.83c-3.07333,3.88 -4.61,8.38 -4.61,13.5v0v34.69h-11.77z"/>
      <path d="M1339.64,193.54c-1.62,1.62 -3.58,2.43 -5.88,2.43c-2.30667,0 -4.27,-0.81 -5.89,-2.43c-1.62,-1.62667 -2.43,-3.59 -2.43,-5.89c0,-2.30667 0.81,-4.27 2.43,-5.89c1.62,-1.62 3.58333,-2.43 5.89,-2.43c2.3,0 4.26,0.81 5.88,2.43c1.62667,1.62 2.44,3.58333 2.44,5.89c0,2.3 -0.81333,4.26333 -2.44,5.89zM1339.64,209.28v62.72h-11.77v-62.72z"/>
      <path d="M1379.58,273.02v0c-6.57333,0 -11.58667,-1.74667 -15.04,-5.24c-3.45333,-3.5 -5.18,-8.45 -5.18,-14.85v0v-32.9h-11.01v-10.75h11.01v-19.2h11.77v19.2h15.36v10.75h-15.36v32c0,6.82667 2.81667,10.24 8.45,10.24v0c2.13333,0 3.92667,-0.34 5.38,-1.02v0l4.09,10.11c-2.56,1.10667 -5.71667,1.66 -9.47,1.66z"/>
      <path d="M1401.34,216.77c6.06,-6.36 13.78333,-9.54 23.17,-9.54c9.38667,0 17.11,3.18 23.17,9.54c6.05333,6.35333 9.08,14.31 9.08,23.87c0,9.56 -3.02667,17.51667 -9.08,23.87c-6.06,6.36 -13.78333,9.54 -23.17,9.54c-9.38667,0 -17.11,-3.18 -23.17,-9.54c-6.06,-6.35333 -9.09,-14.31 -9.09,-23.87c0,-9.56 3.03,-17.51667 9.09,-23.87zM1410.11,257.09c4.05333,4.14 8.85333,6.21 14.4,6.21c5.54667,0 10.34667,-2.07 14.4,-6.21c4.05333,-4.14 6.08,-9.62333 6.08,-16.45c0,-6.82667 -2.02667,-12.31 -6.08,-16.45c-4.05333,-4.14 -8.85333,-6.21 -14.4,-6.21c-5.54667,0 -10.34667,2.07 -14.4,6.21c-4.05333,4.14 -6.08,9.62333 -6.08,16.45c0,6.82667 2.02667,12.31 6.08,16.45z"/>
      <path d="M1478.01,237.7v34.3h-11.77v-62.72h11.26v10.24h0.51c1.19333,-3.41333 3.64667,-6.23 7.36,-8.45c3.71333,-2.22 7.32,-3.33 10.82,-3.33c3.5,0 6.44333,0.51333 8.83,1.54v0l-4.48,11.01c-1.53333,-0.6 -3.62333,-0.9 -6.27,-0.9v0c-4.26667,0 -8.04333,1.68667 -11.33,5.06c-3.28667,3.36667 -4.93,7.78333 -4.93,13.25z"/>
      <path d="M1524.22,193.54c-1.62,1.62 -3.58333,2.43 -5.89,2.43c-2.3,0 -4.26333,-0.81 -5.89,-2.43c-1.62,-1.62667 -2.43,-3.59 -2.43,-5.89c0,-2.30667 0.81,-4.27 2.43,-5.89c1.62667,-1.62 3.59,-2.43 5.89,-2.43c2.30667,0 4.27,0.81 5.89,2.43c1.62,1.62 2.43,3.58333 2.43,5.89c0,2.3 -0.81,4.26333 -2.43,5.89zM1524.22,209.28v62.72h-11.78v-62.72z"/>
      <path d="M1538.3,209.28h11.26v8.7h0.52c1.70667,-2.98667 4.39333,-5.52333 8.06,-7.61c3.66667,-2.09333 7.59333,-3.14 11.78,-3.14v0c7.76,0 13.69,2.39 17.79,7.17c4.09333,4.78 6.14,11.18 6.14,19.2v0v38.4h-11.77v-36.61c0,-11.60667 -5.16333,-17.41 -15.49,-17.41v0c-4.86667,0 -8.83667,1.94333 -11.91,5.83c-3.06667,3.88 -4.6,8.38 -4.6,13.5v0v34.69h-11.78z"/>
      <path d="M1633.66,301.7v0c-7.42667,0 -13.48667,-1.85667 -18.18,-5.57c-4.69333,-3.71333 -8.06333,-7.96 -10.11,-12.74v0l10.75,-4.48c1.2,3.41333 3.4,6.27333 6.6,8.58c3.2,2.3 6.84667,3.45 10.94,3.45v0c6.48667,0 11.58667,-1.94 15.3,-5.82c3.70667,-3.88 5.56,-9.15 5.56,-15.81v0v-6.01h-0.51c-2.04667,3.06667 -4.94667,5.62667 -8.7,7.68c-3.75333,2.04667 -7.97667,3.07 -12.67,3.07v0c-8.10667,0 -15.10667,-3.2 -21,-9.6c-5.88667,-6.4 -8.83,-14.33667 -8.83,-23.81c0,-9.47333 2.94333,-17.41 8.83,-23.81c5.89333,-6.4 12.89333,-9.6 21,-9.6v0c4.69333,0 8.91667,1.02333 12.67,3.07c3.75333,2.05333 6.65333,4.61333 8.7,7.68v0h0.51v-8.7h11.27v59.52c0,10.75333 -3.11667,18.92333 -9.35,24.51c-6.22667,5.59333 -13.82,8.39 -22.78,8.39zM1634.56,263.3v0c5.54667,0 10.26,-2.05 14.14,-6.15c3.88,-4.09333 5.82,-9.59667 5.82,-16.51c0,-6.91333 -1.94,-12.41667 -5.82,-16.51c-3.88,-4.1 -8.59333,-6.15 -14.14,-6.15v0c-5.46667,0 -10.16,2.07 -14.08,6.21c-3.92667,4.14 -5.89,9.62333 -5.89,16.45c0,6.82667 1.96333,12.31 5.89,16.45c3.92,4.14 8.61333,6.21 14.08,6.21z"/>
    </g>
  </g>
</svg>
