<svg version="1.1" xmlns="http://www.w3.org/2000/svg" xmlns:xlink="http://www.w3.org/1999/xlink" width="1480.96" height="448" viewBox="0 0 1480.96 448">
  <g fill="none" stroke="none" stroke-width="1" stroke-linecap="butt" stroke-linejoin="miter" stroke-dasharray="" stroke-dashoffset="0">
    <rect x="0" y="0" width="1480.96" height="448" fill="none" fill-rule="nonzero"/>
    <circle cx="192" cy="224" r="96" fill="#ffca28" fill-rule="nonzero"/>
    <g fill="#3c4043" fill-rule="evenodd">
      <path d="M150,238h84v18.676c0.00248,2.47121 -0.97715,4.84212 -2.72325,6.59085c-1.7461,1.74872 -4.11554,2.73192 -6.58675,2.73315h-65.38c-5.14297,-0.01029 -9.30744,-4.18102 -9.31,-9.324zM150,191.296c0,-5.13333 4.16733,-9.296 9.31,-9.296h65.38c5.14267,0 9.31,4.2 9.31,9.296v32.74133c0,5.13333 -4.16733,9.296 -9.31,9.296h-65.38c-5.14267,0 -9.31,-4.2 -9.31,-9.296zM159.33333,191.33333h65.33333v14h-65.33333zM159.33333,217.02333c0,-1.30667 0.99867,-2.35667 2.35667,-2.35667h4.62c1.30667,0 2.35667,0.99867 2.35667,2.35667v4.62c0,1.30667 -0.99867,2.35667 -2.35667,2.35667h-4.62c-0.6281,0.01019 -1.23347,-0.23482 -1.67766,-0.67901c-0.44419,-0.44419 -0.68921,-1.04956 -0.67901,-1.67766zM159.33333,249.69c0,-1.30667 0.99867,-2.35667 2.35667,-2.35667h4.62c1.30667,0 2.35667,0.99867 2.35667,2.35667v4.62c0,1.30667 -0.99867,2.35667 -2.35667,2.35667h-4.62c-0.6281,0.01019 -1.23347,-0.23482 -1.67766,-0.67901c-0.44419,-0.44419 -0.68921,-1.04956 -0.67901,-1.67766z"/>
    </g>
    <g fill="#5f6368" fill-rule="nonzero">
      <path d="M347.77,272h-11.77v-91.65h31.23c7.76667,0 14.48667,2.58333 20.16,7.75c5.67333,5.16 8.51,11.66667 8.51,19.52v0c0,6.4 -2.09,12.05333 -6.27,16.96c-4.18,4.90667 -9.38667,8 -15.62,9.28v0l-0.25,0.38l25.72,37.25v0.51h-13.95l-24.7,-37.12h-13.06zM347.77,191.62v32.25h18.95c4.69333,0 8.72333,-1.53667 12.09,-4.61c3.37333,-3.06667 5.06,-6.94667 5.06,-11.64v0c0,-4.01333 -1.49333,-7.68333 -4.48,-11.01c-2.98667,-3.32667 -6.95667,-4.99 -11.91,-4.99v0z"/>
      <path d="M434.43,274.05v0c-9.47333,0 -17.17667,-3.15667 -23.11,-9.47c-5.92667,-6.32 -8.89,-14.3 -8.89,-23.94v0c0,-9.13333 2.88,-16.98333 8.64,-23.55c5.76,-6.57333 13.12,-9.86 22.08,-9.86v0c9.3,0 16.74333,3.03 22.33,9.09c5.59333,6.06 8.39,14.16667 8.39,24.32v0l-0.13,2.18h-49.54c0.34667,6.31333 2.46,11.30333 6.34,14.97c3.88,3.67333 8.42333,5.51 13.63,5.51v0c8.44667,0 14.16333,-3.58667 17.15,-10.76v0l10.5,4.36c-2.04667,4.86 -5.41667,8.93333 -10.11,12.22c-4.69333,3.28667 -10.45333,4.93 -17.28,4.93zM414.97,233.09h36.35c-0.25333,-3.58667 -1.89333,-7 -4.92,-10.24c-3.03333,-3.24667 -7.53667,-4.87 -13.51,-4.87v0c-4.35333,0 -8.13,1.36667 -11.33,4.1c-3.2,2.73333 -5.39667,6.40333 -6.59,11.01z"/>
      <path d="M493.18,274.05v0c-6.65333,0 -12.22,-1.92 -16.7,-5.76c-4.48,-3.84 -6.72,-8.91667 -6.72,-15.23v0c0,-6.82667 2.64333,-12.18333 7.93,-16.07c5.29333,-3.88 11.82333,-5.82 19.59,-5.82v0c6.90667,0 12.58,1.28 17.02,3.84v0v-1.79c0,-4.61333 -1.58,-8.30667 -4.74,-11.08c-3.15333,-2.77333 -7.03333,-4.16 -11.64,-4.16v0c-3.41333,0 -6.50667,0.81333 -9.28,2.44c-2.77333,1.62 -4.67333,3.83667 -5.7,6.65v0l-10.75,-4.61c1.44667,-3.75333 4.30333,-7.23 8.57,-10.43c4.26667,-3.2 9.9,-4.8 16.9,-4.8v0c8.02,0 14.67667,2.34667 19.97,7.04c5.28667,4.69333 7.93,11.30667 7.93,19.84v0v37.89h-11.26v-8.7h-0.51c-4.69333,7.16667 -11.56333,10.75 -20.61,10.75zM495.1,263.3v0c4.86667,0 9.28333,-1.81333 13.25,-5.44c3.96667,-3.62667 5.95,-7.91667 5.95,-12.87v0c-3.32667,-2.72667 -8.32,-4.09 -14.98,-4.09v0c-5.71333,0 -10.02,1.23667 -12.92,3.71c-2.90667,2.47333 -4.36,5.37333 -4.36,8.7v0c0,3.07333 1.32333,5.50667 3.97,7.3c2.64667,1.79333 5.67667,2.69 9.09,2.69z"/>
      <path d="M550.01,180.35v91.65h-11.77v-91.65z"/>
      <path d="M592.12,273.02v0c-6.56667,0 -11.58,-1.74667 -15.04,-5.24c-3.45333,-3.5 -5.18,-8.45 -5.18,-14.85v0v-32.9h-11.01v-10.75h11.01v-19.2h11.78v19.2h15.36v10.75h-15.36v32c0,6.82667 2.81333,10.24 8.44,10.24v0c2.13333,0 3.92667,-0.34 5.38,-1.02v0l4.1,10.11c-2.56,1.10667 -5.72,1.66 -9.48,1.66z"/>
      <path d="M621.82,193.54c-1.62,1.62 -3.58333,2.43 -5.89,2.43c-2.3,0 -4.26333,-0.81 -5.89,-2.43c-1.62,-1.62667 -2.43,-3.59 -2.43,-5.89c0,-2.30667 0.81,-4.27 2.43,-5.89c1.62667,-1.62 3.59,-2.43 5.89,-2.43c2.30667,0 4.27,0.81 5.89,2.43c1.62,1.62 2.43,3.58333 2.43,5.89c0,2.3 -0.81,4.26333 -2.43,5.89zM621.82,209.28v62.72h-11.78v-62.72z"/>
      <path d="M647.68,272h-11.78v-62.72h11.26v8.7h0.52c1.78667,-2.98667 4.53667,-5.52333 8.25,-7.61c3.71333,-2.09333 7.40333,-3.14 11.07,-3.14v0c9.73333,0 16.34667,4.01 19.84,12.03v0c5.12,-8.02 12.41667,-12.03 21.89,-12.03v0c7.42667,0 13.01667,2.37 16.77,7.11c3.75333,4.73333 5.63,11.15333 5.63,19.26v0v38.4h-11.77v-36.61c0,-6.31333 -1.15333,-10.79333 -3.46,-13.44c-2.30667,-2.64667 -5.80667,-3.97 -10.5,-3.97v0c-4.60667,0 -8.42333,1.96333 -11.45,5.89c-3.03333,3.92667 -4.55,8.40667 -4.55,13.44v0v34.69h-11.77v-36.61c0,-6.31333 -1.15333,-10.79333 -3.46,-13.44c-2.3,-2.64667 -5.79667,-3.97 -10.49,-3.97v0c-4.61333,0 -8.43333,1.96333 -11.46,5.89c-3.02667,3.92667 -4.54,8.40667 -4.54,13.44v0z"/>
      <path d="M772.09,274.05v0c-9.47333,0 -17.17333,-3.15667 -23.1,-9.47c-5.93333,-6.32 -8.9,-14.3 -8.9,-23.94v0c0,-9.13333 2.88,-16.98333 8.64,-23.55c5.76,-6.57333 13.12,-9.86 22.08,-9.86v0c9.3,0 16.74667,3.03 22.34,9.09c5.58667,6.06 8.38,14.16667 8.38,24.32v0l-0.13,2.18h-49.53c0.34,6.31333 2.45,11.30333 6.33,14.97c3.88667,3.67333 8.43333,5.51 13.64,5.51v0c8.44667,0 14.16333,-3.58667 17.15,-10.76v0l10.49,4.36c-2.04667,4.86 -5.41667,8.93333 -10.11,12.22c-4.69333,3.28667 -10.45333,4.93 -17.28,4.93zM752.64,233.09h36.35c-0.26,-3.58667 -1.90333,-7 -4.93,-10.24c-3.02667,-3.24667 -7.52667,-4.87 -13.5,-4.87v0c-4.35333,0 -8.13,1.36667 -11.33,4.1c-3.2,2.73333 -5.39667,6.40333 -6.59,11.01z"/>
      <path d=""/>
      <path d="M870.52,272h-28.03v-91.65h28.03c14.08,0 25.34667,4.24667 33.8,12.74c8.44667,8.48667 12.67,19.51667 12.67,33.09c0,13.56667 -4.22333,24.59333 -12.67,33.08c-8.45333,8.49333 -19.72,12.74 -33.8,12.74zM854.27,191.62v69.12h16.25c10.58667,0 18.97333,-3.03 25.16,-9.09c6.18667,-6.06 9.28,-14.55 9.28,-25.47v0c0,-10.84 -3.09333,-19.31 -9.28,-25.41c-6.18667,-6.1 -14.57333,-9.15 -25.16,-9.15v0z"/>
      <path d="M948.73,274.05v0c-6.65333,0 -12.22,-1.92 -16.7,-5.76c-4.48,-3.84 -6.72,-8.91667 -6.72,-15.23v0c0,-6.82667 2.64333,-12.18333 7.93,-16.07c5.29333,-3.88 11.82333,-5.82 19.59,-5.82v0c6.91333,0 12.58667,1.28 17.02,3.84v0v-1.79c0,-4.61333 -1.57667,-8.30667 -4.73,-11.08c-3.16,-2.77333 -7.04333,-4.16 -11.65,-4.16v0c-3.41333,0 -6.50667,0.81333 -9.28,2.44c-2.77333,1.62 -4.67333,3.83667 -5.7,6.65v0l-10.75,-4.61c1.45333,-3.75333 4.31333,-7.23 8.58,-10.43c4.26667,-3.2 9.89667,-4.8 16.89,-4.8v0c8.02,0 14.67667,2.34667 19.97,7.04c5.29333,4.69333 7.94,11.30667 7.94,19.84v0v37.89h-11.27v-8.7h-0.51c-4.69333,7.16667 -11.56333,10.75 -20.61,10.75zM950.65,263.3v0c4.86667,0 9.28333,-1.81333 13.25,-5.44c3.96667,-3.62667 5.95,-7.91667 5.95,-12.87v0c-3.32667,-2.72667 -8.31667,-4.09 -14.97,-4.09v0c-5.72,0 -10.03,1.23667 -12.93,3.71c-2.9,2.47333 -4.35,5.37333 -4.35,8.7v0c0,3.07333 1.32,5.50667 3.96,7.3c2.64667,1.79333 5.67667,2.69 9.09,2.69z"/>
      <path d="M1018.36,273.02v0c-6.56667,0 -11.58,-1.74667 -15.04,-5.24c-3.45333,-3.5 -5.18,-8.45 -5.18,-14.85v0v-32.9h-11.01v-10.75h11.01v-19.2h11.78v19.2h15.36v10.75h-15.36v32c0,6.82667 2.81333,10.24 8.44,10.24v0c2.13333,0 3.92667,-0.34 5.38,-1.02v0l4.1,10.11c-2.56,1.10667 -5.72,1.66 -9.48,1.66z"/>
      <path d="M1055.1,274.05v0c-6.65333,0 -12.22,-1.92 -16.7,-5.76c-4.48,-3.84 -6.72,-8.91667 -6.72,-15.23v0c0,-6.82667 2.64333,-12.18333 7.93,-16.07c5.29333,-3.88 11.82333,-5.82 19.59,-5.82v0c6.90667,0 12.58,1.28 17.02,3.84v0v-1.79c0,-4.61333 -1.58,-8.30667 -4.74,-11.08c-3.15333,-2.77333 -7.03333,-4.16 -11.64,-4.16v0c-3.41333,0 -6.50667,0.81333 -9.28,2.44c-2.77333,1.62 -4.67333,3.83667 -5.7,6.65v0l-10.75,-4.61c1.44667,-3.75333 4.30333,-7.23 8.57,-10.43c4.26667,-3.2 9.9,-4.8 16.9,-4.8v0c8.02,0 14.67667,2.34667 19.97,7.04c5.28667,4.69333 7.93,11.30667 7.93,19.84v0v37.89h-11.26v-8.7h-0.51c-4.69333,7.16667 -11.56333,10.75 -20.61,10.75zM1057.02,263.3v0c4.86667,0 9.28333,-1.81333 13.25,-5.44c3.96667,-3.62667 5.95,-7.91667 5.95,-12.87v0c-3.32667,-2.72667 -8.32,-4.09 -14.98,-4.09v0c-5.71333,0 -10.02,1.23667 -12.92,3.71c-2.90667,2.47333 -4.36,5.37333 -4.36,8.7v0c0,3.07333 1.32333,5.50667 3.97,7.3c2.64667,1.79333 5.67667,2.69 9.09,2.69z"/>
      <path d="M1132.67,274.05v0c-4.78,0 -9.07,-1.02333 -12.87,-3.07c-3.79333,-2.05333 -6.63,-4.61333 -8.51,-7.68v0h-0.51v8.7h-11.26v-91.65h11.77v28.93l-0.51,8.7h0.51c1.88,-3.06667 4.71667,-5.62667 8.51,-7.68c3.8,-2.04667 8.09,-3.07 12.87,-3.07v0c8.10667,0 15.10333,3.2 20.99,9.6c5.88667,6.4 8.83,14.33667 8.83,23.81c0,9.47333 -2.94333,17.41 -8.83,23.81c-5.88667,6.4 -12.88333,9.6 -20.99,9.6zM1130.75,263.3v0c5.46,0 10.15333,-2.07 14.08,-6.21c3.92667,-4.14 5.89,-9.62333 5.89,-16.45c0,-6.82667 -1.96333,-12.31 -5.89,-16.45c-3.92667,-4.14 -8.62,-6.21 -14.08,-6.21v0c-5.54667,0 -10.26333,2.05 -14.15,6.15c-3.88,4.09333 -5.82,9.59667 -5.82,16.51c0,6.91333 1.94,12.41667 5.82,16.51c3.88667,4.1 8.60333,6.15 14.15,6.15z"/>
      <path d="M1192.44,274.05v0c-6.65333,0 -12.22,-1.92 -16.7,-5.76c-4.48,-3.84 -6.72,-8.91667 -6.72,-15.23v0c0,-6.82667 2.64667,-12.18333 7.94,-16.07c5.28667,-3.88 11.81333,-5.82 19.58,-5.82v0c6.91333,0 12.58667,1.28 17.02,3.84v0v-1.79c0,-4.61333 -1.57667,-8.30667 -4.73,-11.08c-3.16,-2.77333 -7.04333,-4.16 -11.65,-4.16v0c-3.41333,0 -6.50667,0.81333 -9.28,2.44c-2.77333,1.62 -4.67333,3.83667 -5.7,6.65v0l-10.75,-4.61c1.45333,-3.75333 4.31333,-7.23 8.58,-10.43c4.26667,-3.2 9.89667,-4.8 16.89,-4.8v0c8.02667,0 14.68333,2.34667 19.97,7.04c5.29333,4.69333 7.94,11.30667 7.94,19.84v0v37.89h-11.27v-8.7h-0.51c-4.69333,7.16667 -11.56333,10.75 -20.61,10.75zM1194.36,263.3v0c4.86667,0 9.28333,-1.81333 13.25,-5.44c3.96667,-3.62667 5.95,-7.91667 5.95,-12.87v0c-3.32667,-2.72667 -8.31667,-4.09 -14.97,-4.09v0c-5.72,0 -10.03,1.23667 -12.93,3.71c-2.9,2.47333 -4.35,5.37333 -4.35,8.7v0c0,3.07333 1.32333,5.50667 3.97,7.3c2.64,1.79333 5.66667,2.69 9.08,2.69z"/>
      <path d="M1259.52,274.05v0c-7,0 -12.78333,-1.70667 -17.35,-5.12c-4.56667,-3.41333 -7.91667,-7.68 -10.05,-12.8v0l10.5,-4.35c3.32667,7.84667 9,11.77 17.02,11.77v0c3.67333,0 6.68333,-0.81 9.03,-2.43c2.34667,-1.62 3.52,-3.75333 3.52,-6.4v0c0,-4.09333 -2.86,-6.86667 -8.58,-8.32v0l-12.67,-3.07c-4.01333,-1.02667 -7.81,-2.97 -11.39,-5.83c-3.58667,-2.85333 -5.38,-6.71333 -5.38,-11.58v0c0,-5.54667 2.45333,-10.04667 7.36,-13.5c4.90667,-3.46 10.73,-5.19 17.47,-5.19v0c5.54667,0 10.49667,1.26 14.85,3.78c4.35333,2.51333 7.47,6.11667 9.35,10.81v0l-10.24,4.23c-2.30667,-5.54667 -7.08667,-8.32 -14.34,-8.32v0c-3.5,0 -6.44333,0.72333 -8.83,2.17c-2.39333,1.45333 -3.59,3.41667 -3.59,5.89v0c0,3.58667 2.77333,6.02 8.32,7.3v0l12.42,2.94c5.88667,1.36667 10.24,3.71333 13.06,7.04c2.81333,3.32667 4.22,7.08333 4.22,11.27v0c0,5.62667 -2.30333,10.32 -6.91,14.08c-4.60667,3.75333 -10.53667,5.63 -17.79,5.63z"/>
      <path d="M1323.52,274.05v0c-9.47333,0 -17.17667,-3.15667 -23.11,-9.47c-5.92667,-6.32 -8.89,-14.3 -8.89,-23.94v0c0,-9.13333 2.88,-16.98333 8.64,-23.55c5.76,-6.57333 13.12,-9.86 22.08,-9.86v0c9.3,0 16.74333,3.03 22.33,9.09c5.59333,6.06 8.39,14.16667 8.39,24.32v0l-0.13,2.18h-49.54c0.34,6.31333 2.45333,11.30333 6.34,14.97c3.88,3.67333 8.42333,5.51 13.63,5.51v0c8.44667,0 14.16333,-3.58667 17.15,-10.76v0l10.5,4.36c-2.04667,4.86 -5.41667,8.93333 -10.11,12.22c-4.69333,3.28667 -10.45333,4.93 -17.28,4.93zM1304.06,233.09h36.35c-0.25333,-3.58667 -1.89667,-7 -4.93,-10.24c-3.02667,-3.24667 -7.52667,-4.87 -13.5,-4.87v0c-4.35333,0 -8.13,1.36667 -11.33,4.1c-3.2,2.73333 -5.39667,6.40333 -6.59,11.01z"/>
    </g>
  </g>
</svg>
