<svg version="1.1" xmlns="http://www.w3.org/2000/svg" xmlns:xlink="http://www.w3.org/1999/xlink" width="192" height="192" viewBox="0 0 192 192">
  <g fill="none" stroke="none" stroke-width="1" stroke-linecap="butt" stroke-linejoin="miter" stroke-dasharray="" stroke-dashoffset="0">
    <rect x="0" y="0" width="192" height="192" fill="none" fill-rule="nonzero"/>
    <circle cx="96" cy="96" r="96" fill="#ffca28" fill-rule="nonzero"/>
    <g fill="#3c4043" fill-rule="evenodd">
      <path d="M54,110h84v18.676c0.00248,2.47121 -0.97715,4.84212 -2.72325,6.59085c-1.7461,1.74872 -4.11554,2.73192 -6.58675,2.73315h-65.38c-5.14297,-0.01029 -9.30744,-4.18102 -9.31,-9.324zM54,63.296c0,-5.13333 4.16733,-9.296 9.31,-9.296h65.38c5.14267,0 9.31,4.2 9.31,9.296v32.74133c0,5.13333 -4.16733,9.296 -9.31,9.296h-65.38c-5.14267,0 -9.31,-4.2 -9.31,-9.296zM63.33333,63.33333h65.33333v14h-65.33333zM63.33333,89.02333c0,-1.30667 0.99867,-2.35667 2.35667,-2.35667h4.62c1.30667,0 2.35667,0.99867 2.35667,2.35667v4.62c0,1.30667 -0.99867,2.35667 -2.35667,2.35667h-4.62c-0.6281,0.01019 -1.23347,-0.23482 -1.67766,-0.67901c-0.44419,-0.44419 -0.68921,-1.04956 -0.67901,-1.67766zM63.33333,121.69c0,-1.30667 0.99867,-2.35667 2.35667,-2.35667h4.62c1.30667,0 2.35667,0.99867 2.35667,2.35667v4.62c0,1.30667 -0.99867,2.35667 -2.35667,2.35667h-4.62c-0.6281,0.01019 -1.23347,-0.23482 -1.67766,-0.67901c-0.44419,-0.44419 -0.68921,-1.04956 -0.67901,-1.67766z"/>
    </g>
  </g>
</svg>
