<svg version="1.1" xmlns="http://www.w3.org/2000/svg" xmlns:xlink="http://www.w3.org/1999/xlink" width="530.987" height="464" viewBox="0 0 530.987 464">
  <g fill="none" stroke="none" stroke-width="1" stroke-linecap="butt" stroke-linejoin="miter" stroke-dasharray="" stroke-dashoffset="0">
    <rect x="0" y="0" width="530.987" height="464" fill="none" fill-rule="nonzero"/>
    <circle cx="265.493" cy="192" r="96" fill="#ffca28" fill-rule="nonzero"/>
    <g fill="#3c4043" fill-rule="evenodd">
      <path d="M223.49333,206h84v18.676c0.00248,2.47121 -0.97715,4.84212 -2.72325,6.59085c-1.7461,1.74872 -4.11554,2.73192 -6.58675,2.73315h-65.38c-5.14297,-0.01029 -9.30744,-4.18102 -9.31,-9.324zM223.49333,159.296c0,-5.13333 4.16733,-9.296 9.31,-9.296h65.38c5.14267,0 9.31,4.2 9.31,9.296v32.74133c0,5.13333 -4.16733,9.296 -9.31,9.296h-65.38c-5.14267,0 -9.31,-4.2 -9.31,-9.296zM232.82667,159.33333h65.33333v14h-65.33333zM232.82667,185.02333c0,-1.30667 0.99867,-2.35667 2.35667,-2.35667h4.62c1.30667,0 2.35667,0.99867 2.35667,2.35667v4.62c0,1.30667 -0.99867,2.35667 -2.35667,2.35667h-4.62c-0.6281,0.01019 -1.23347,-0.23482 -1.67766,-0.67901c-0.44419,-0.44419 -0.68921,-1.04956 -0.67901,-1.67766zM232.82667,217.69c0,-1.30667 0.99867,-2.35667 2.35667,-2.35667h4.62c1.30667,0 2.35667,0.99867 2.35667,2.35667v4.62c0,1.30667 -0.99867,2.35667 -2.35667,2.35667h-4.62c-0.6281,0.01019 -1.23347,-0.23482 -1.67766,-0.67901c-0.44419,-0.44419 -0.68921,-1.04956 -0.67901,-1.67766z"/>
    </g>
    <g fill="#5f6368" fill-rule="nonzero">
      <path d="M99.92333,352h-3.92333v-30.55h10.41c2.58889,0 4.82889,0.86111 6.72,2.58333c1.89111,1.72 2.83667,3.88889 2.83667,6.50667v0c0,2.13333 -0.69667,4.01778 -2.09,5.65333c-1.39333,1.63556 -3.12889,2.66667 -5.20667,3.09333v0l-0.08333,0.12667l8.57333,12.41667v0.17h-4.65l-8.23333,-12.37333h-4.35333zM99.92333,325.20667v10.75h6.31667c1.56444,0 2.90778,-0.51222 4.03,-1.53667c1.12444,-1.02222 1.68667,-2.31556 1.68667,-3.88v0c0,-1.33778 -0.49778,-2.56111 -1.49333,-3.67c-0.99556,-1.10889 -2.31889,-1.66333 -3.97,-1.66333v0z"/>
      <path d="M128.81,352.68333v0c-3.15778,0 -5.72556,-1.05222 -7.70333,-3.15667c-1.97556,-2.10667 -2.96333,-4.76667 -2.96333,-7.98v0c0,-3.04444 0.96,-5.66111 2.88,-7.85c1.92,-2.19111 4.37333,-3.28667 7.36,-3.28667v0c3.1,0 5.58111,1.01 7.44333,3.03c1.86444,2.02 2.79667,4.72222 2.79667,8.10667v0l-0.04333,0.72667h-16.51333c0.11556,2.10444 0.82,3.76778 2.11333,4.99c1.29333,1.22444 2.80778,1.83667 4.54333,1.83667v0c2.81556,0 4.72111,-1.19556 5.71667,-3.58667v0l3.5,1.45333c-0.68222,1.62 -1.80556,2.97778 -3.37,4.07333c-1.56444,1.09556 -3.48444,1.64333 -5.76,1.64333zM122.32333,339.03h12.11667c-0.08444,-1.19556 -0.63111,-2.33333 -1.64,-3.41333c-1.01111,-1.08222 -2.51222,-1.62333 -4.50333,-1.62333v0c-1.45111,0 -2.71,0.45556 -3.77667,1.36667c-1.06667,0.91111 -1.79889,2.13444 -2.19667,3.67z"/>
      <path d="M148.39333,352.68333v0c-2.21778,0 -4.07333,-0.64 -5.56667,-1.92c-1.49333,-1.28 -2.24,-2.97222 -2.24,-5.07667v0c0,-2.27556 0.88111,-4.06111 2.64333,-5.35667c1.76444,-1.29333 3.94111,-1.94 6.53,-1.94v0c2.30222,0 4.19333,0.42667 5.67333,1.28v0v-0.59667c0,-1.53778 -0.52667,-2.76889 -1.58,-3.69333c-1.05111,-0.92444 -2.34444,-1.38667 -3.88,-1.38667v0c-1.13778,0 -2.16889,0.27111 -3.09333,0.81333c-0.92444,0.54 -1.55778,1.27889 -1.9,2.21667v0l-3.58333,-1.53667c0.48222,-1.25111 1.43444,-2.41 2.85667,-3.47667c1.42222,-1.06667 3.3,-1.6 5.63333,-1.6v0c2.67333,0 4.89222,0.78222 6.65667,2.34667c1.76222,1.56444 2.64333,3.76889 2.64333,6.61333v0v12.63h-3.75333v-2.9h-0.17c-1.56444,2.38889 -3.85444,3.58333 -6.87,3.58333zM149.03333,349.1v0c1.62222,0 3.09444,-0.60444 4.41667,-1.81333c1.32222,-1.20889 1.98333,-2.63889 1.98333,-4.29v0c-1.10889,-0.90889 -2.77333,-1.36333 -4.99333,-1.36333v0c-1.90444,0 -3.34,0.41222 -4.30667,1.23667c-0.96889,0.82444 -1.45333,1.79111 -1.45333,2.9v0c0,1.02444 0.44111,1.83556 1.32333,2.43333c0.88222,0.59778 1.89222,0.89667 3.03,0.89667z"/>
      <path d="M167.33667,321.45v30.55h-3.92333v-30.55z"/>
      <path d="M181.37333,352.34v0c-2.18889,0 -3.86,-0.58222 -5.01333,-1.74667c-1.15111,-1.16667 -1.72667,-2.81667 -1.72667,-4.95v0v-10.96667h-3.67v-3.58333h3.67v-6.4h3.92667v6.4h5.12v3.58333h-5.12v10.66667c0,2.27556 0.93778,3.41333 2.81333,3.41333v0c0.71111,0 1.30889,-0.11333 1.79333,-0.34v0l1.36667,3.37c-0.85333,0.36889 -1.90667,0.55333 -3.16,0.55333z"/>
      <path d="M191.27333,325.84667c-0.54,0.54 -1.19444,0.81 -1.96333,0.81c-0.76667,0 -1.42111,-0.27 -1.96333,-0.81c-0.54,-0.54222 -0.81,-1.19667 -0.81,-1.96333c0,-0.76889 0.27,-1.42333 0.81,-1.96333c0.54222,-0.54 1.19667,-0.81 1.96333,-0.81c0.76889,0 1.42333,0.27 1.96333,0.81c0.54,0.54 0.81,1.19444 0.81,1.96333c0,0.76667 -0.27,1.42111 -0.81,1.96333zM191.27333,331.09333v20.90667h-3.92667v-20.90667z"/>
      <path d="M199.89333,352h-3.92667v-20.90667h3.75333v2.9h0.17333c0.59556,-0.99556 1.51222,-1.84111 2.75,-2.53667c1.23778,-0.69778 2.46778,-1.04667 3.69,-1.04667v0c3.24444,0 5.44889,1.33667 6.61333,4.01v0c1.70667,-2.67333 4.13889,-4.01 7.29667,-4.01v0c2.47556,0 4.33889,0.79 5.59,2.37c1.25111,1.57778 1.87667,3.71778 1.87667,6.42v0v12.8h-3.92333v-12.20333c0,-2.10444 -0.38444,-3.59778 -1.15333,-4.48c-0.76889,-0.88222 -1.93556,-1.32333 -3.5,-1.32333v0c-1.53556,0 -2.80778,0.65444 -3.81667,1.96333c-1.01111,1.30889 -1.51667,2.80222 -1.51667,4.48v0v11.56333h-3.92333v-12.20333c0,-2.10444 -0.38444,-3.59778 -1.15333,-4.48c-0.76667,-0.88222 -1.93222,-1.32333 -3.49667,-1.32333v0c-1.53778,0 -2.81111,0.65444 -3.82,1.96333c-1.00889,1.30889 -1.51333,2.80222 -1.51333,4.48v0z"/>
      <path d="M241.36333,352.68333v0c-3.15778,0 -5.72444,-1.05222 -7.7,-3.15667c-1.97778,-2.10667 -2.96667,-4.76667 -2.96667,-7.98v0c0,-3.04444 0.96,-5.66111 2.88,-7.85c1.92,-2.19111 4.37333,-3.28667 7.36,-3.28667v0c3.1,0 5.58222,1.01 7.44667,3.03c1.86222,2.02 2.79333,4.72222 2.79333,8.10667v0l-0.04333,0.72667h-16.51c0.11333,2.10444 0.81667,3.76778 2.11,4.99c1.29556,1.22444 2.81111,1.83667 4.54667,1.83667v0c2.81556,0 4.72111,-1.19556 5.71667,-3.58667v0l3.49667,1.45333c-0.68222,1.62 -1.80556,2.97778 -3.37,4.07333c-1.56444,1.09556 -3.48444,1.64333 -5.76,1.64333zM234.88,339.03h12.11667c-0.08667,-1.19556 -0.63444,-2.33333 -1.64333,-3.41333c-1.00889,-1.08222 -2.50889,-1.62333 -4.5,-1.62333v0c-1.45111,0 -2.71,0.45556 -3.77667,1.36667c-1.06667,0.91111 -1.79889,2.13444 -2.19667,3.67z"/>
      <path d=""/>
      <path d="M274.17333,352h-9.34333v-30.55h9.34333c4.69333,0 8.44889,1.41556 11.26667,4.24667c2.81556,2.82889 4.22333,6.50556 4.22333,11.03c0,4.52222 -1.40778,8.19778 -4.22333,11.02667c-2.81778,2.83111 -6.57333,4.24667 -11.26667,4.24667zM268.75667,325.20667v23.04h5.41667c3.52889,0 6.32444,-1.01 8.38667,-3.03c2.06222,-2.02 3.09333,-4.85 3.09333,-8.49v0c0,-3.61333 -1.03111,-6.43667 -3.09333,-8.47c-2.06222,-2.03333 -4.85778,-3.05 -8.38667,-3.05v0z"/>
      <path d="M300.24333,352.68333v0c-2.21778,0 -4.07333,-0.64 -5.56667,-1.92c-1.49333,-1.28 -2.24,-2.97222 -2.24,-5.07667v0c0,-2.27556 0.88111,-4.06111 2.64333,-5.35667c1.76444,-1.29333 3.94111,-1.94 6.53,-1.94v0c2.30444,0 4.19556,0.42667 5.67333,1.28v0v-0.59667c0,-1.53778 -0.52556,-2.76889 -1.57667,-3.69333c-1.05333,-0.92444 -2.34778,-1.38667 -3.88333,-1.38667v0c-1.13778,0 -2.16889,0.27111 -3.09333,0.81333c-0.92444,0.54 -1.55778,1.27889 -1.9,2.21667v0l-3.58333,-1.53667c0.48444,-1.25111 1.43778,-2.41 2.86,-3.47667c1.42222,-1.06667 3.29889,-1.6 5.63,-1.6v0c2.67333,0 4.89222,0.78222 6.65667,2.34667c1.76444,1.56444 2.64667,3.76889 2.64667,6.61333v0v12.63h-3.75667v-2.9h-0.17c-1.56444,2.38889 -3.85444,3.58333 -6.87,3.58333zM300.88333,349.1v0c1.62222,0 3.09444,-0.60444 4.41667,-1.81333c1.32222,-1.20889 1.98333,-2.63889 1.98333,-4.29v0c-1.10889,-0.90889 -2.77222,-1.36333 -4.99,-1.36333v0c-1.90667,0 -3.34333,0.41222 -4.31,1.23667c-0.96667,0.82444 -1.45,1.79111 -1.45,2.9v0c0,1.02444 0.44,1.83556 1.32,2.43333c0.88222,0.59778 1.89222,0.89667 3.03,0.89667z"/>
      <path d="M323.45333,352.34v0c-2.18889,0 -3.86,-0.58222 -5.01333,-1.74667c-1.15111,-1.16667 -1.72667,-2.81667 -1.72667,-4.95v0v-10.96667h-3.67v-3.58333h3.67v-6.4h3.92667v6.4h5.12v3.58333h-5.12v10.66667c0,2.27556 0.93778,3.41333 2.81333,3.41333v0c0.71111,0 1.30889,-0.11333 1.79333,-0.34v0l1.36667,3.37c-0.85333,0.36889 -1.90667,0.55333 -3.16,0.55333z"/>
      <path d="M335.7,352.68333v0c-2.21778,0 -4.07333,-0.64 -5.56667,-1.92c-1.49333,-1.28 -2.24,-2.97222 -2.24,-5.07667v0c0,-2.27556 0.88111,-4.06111 2.64333,-5.35667c1.76444,-1.29333 3.94111,-1.94 6.53,-1.94v0c2.30222,0 4.19333,0.42667 5.67333,1.28v0v-0.59667c0,-1.53778 -0.52667,-2.76889 -1.58,-3.69333c-1.05111,-0.92444 -2.34444,-1.38667 -3.88,-1.38667v0c-1.13778,0 -2.16889,0.27111 -3.09333,0.81333c-0.92444,0.54 -1.55778,1.27889 -1.9,2.21667v0l-3.58333,-1.53667c0.48222,-1.25111 1.43444,-2.41 2.85667,-3.47667c1.42222,-1.06667 3.3,-1.6 5.63333,-1.6v0c2.67333,0 4.89222,0.78222 6.65667,2.34667c1.76222,1.56444 2.64333,3.76889 2.64333,6.61333v0v12.63h-3.75333v-2.9h-0.17c-1.56444,2.38889 -3.85444,3.58333 -6.87,3.58333zM336.34,349.1v0c1.62222,0 3.09444,-0.60444 4.41667,-1.81333c1.32222,-1.20889 1.98333,-2.63889 1.98333,-4.29v0c-1.10889,-0.90889 -2.77333,-1.36333 -4.99333,-1.36333v0c-1.90444,0 -3.34,0.41222 -4.30667,1.23667c-0.96889,0.82444 -1.45333,1.79111 -1.45333,2.9v0c0,1.02444 0.44111,1.83556 1.32333,2.43333c0.88222,0.59778 1.89222,0.89667 3.03,0.89667z"/>
      <path d="M361.55667,352.68333v0c-1.59333,0 -3.02333,-0.34111 -4.29,-1.02333c-1.26444,-0.68444 -2.21,-1.53778 -2.83667,-2.56v0h-0.17v2.9h-3.75333v-30.55h3.92333v9.64333l-0.17,2.9h0.17c0.62667,-1.02222 1.57222,-1.87556 2.83667,-2.56c1.26667,-0.68222 2.69667,-1.02333 4.29,-1.02333v0c2.70222,0 5.03444,1.06667 6.99667,3.2c1.96222,2.13333 2.94333,4.77889 2.94333,7.93667c0,3.15778 -0.98111,5.80333 -2.94333,7.93667c-1.96222,2.13333 -4.29444,3.2 -6.99667,3.2zM360.91667,349.1v0c1.82,0 3.38444,-0.69 4.69333,-2.07c1.30889,-1.38 1.96333,-3.20778 1.96333,-5.48333c0,-2.27556 -0.65444,-4.10333 -1.96333,-5.48333c-1.30889,-1.38 -2.87333,-2.07 -4.69333,-2.07v0c-1.84889,0 -3.42111,0.68333 -4.71667,2.05c-1.29333,1.36444 -1.94,3.19889 -1.94,5.50333c0,2.30444 0.64667,4.13889 1.94,5.50333c1.29556,1.36667 2.86778,2.05 4.71667,2.05z"/>
      <path d="M381.48,352.68333v0c-2.21778,0 -4.07333,-0.64 -5.56667,-1.92c-1.49333,-1.28 -2.24,-2.97222 -2.24,-5.07667v0c0,-2.27556 0.88222,-4.06111 2.64667,-5.35667c1.76222,-1.29333 3.93778,-1.94 6.52667,-1.94v0c2.30444,0 4.19556,0.42667 5.67333,1.28v0v-0.59667c0,-1.53778 -0.52556,-2.76889 -1.57667,-3.69333c-1.05333,-0.92444 -2.34778,-1.38667 -3.88333,-1.38667v0c-1.13778,0 -2.16889,0.27111 -3.09333,0.81333c-0.92444,0.54 -1.55778,1.27889 -1.9,2.21667v0l-3.58333,-1.53667c0.48444,-1.25111 1.43778,-2.41 2.86,-3.47667c1.42222,-1.06667 3.29889,-1.6 5.63,-1.6v0c2.67556,0 4.89444,0.78222 6.65667,2.34667c1.76444,1.56444 2.64667,3.76889 2.64667,6.61333v0v12.63h-3.75667v-2.9h-0.17c-1.56444,2.38889 -3.85444,3.58333 -6.87,3.58333zM382.12,349.1v0c1.62222,0 3.09444,-0.60444 4.41667,-1.81333c1.32222,-1.20889 1.98333,-2.63889 1.98333,-4.29v0c-1.10889,-0.90889 -2.77222,-1.36333 -4.99,-1.36333v0c-1.90667,0 -3.34333,0.41222 -4.31,1.23667c-0.96667,0.82444 -1.45,1.79111 -1.45,2.9v0c0,1.02444 0.44111,1.83556 1.32333,2.43333c0.88,0.59778 1.88889,0.89667 3.02667,0.89667z"/>
      <path d="M403.84,352.68333v0c-2.33333,0 -4.26111,-0.56889 -5.78333,-1.70667c-1.52222,-1.13778 -2.63889,-2.56 -3.35,-4.26667v0l3.5,-1.45c1.10889,2.61556 3,3.92333 5.67333,3.92333v0c1.22444,0 2.22778,-0.27 3.01,-0.81c0.78222,-0.54 1.17333,-1.25111 1.17333,-2.13333v0c0,-1.36444 -0.95333,-2.28889 -2.86,-2.77333v0l-4.22333,-1.02333c-1.33778,-0.34222 -2.60333,-0.99 -3.79667,-1.94333c-1.19556,-0.95111 -1.79333,-2.23778 -1.79333,-3.86v0c0,-1.84889 0.81778,-3.34889 2.45333,-4.5c1.63556,-1.15333 3.57667,-1.73 5.82333,-1.73v0c1.84889,0 3.49889,0.42 4.95,1.26c1.45111,0.83778 2.49,2.03889 3.11667,3.60333v0l-3.41333,1.41c-0.76889,-1.84889 -2.36222,-2.77333 -4.78,-2.77333v0c-1.16667,0 -2.14778,0.24111 -2.94333,0.72333c-0.79778,0.48444 -1.19667,1.13889 -1.19667,1.96333v0c0,1.19556 0.92444,2.00667 2.77333,2.43333v0l4.14,0.98c1.96222,0.45556 3.41333,1.23778 4.35333,2.34667c0.93778,1.10889 1.40667,2.36111 1.40667,3.75667v0c0,1.87556 -0.76778,3.44 -2.30333,4.69333c-1.53556,1.25111 -3.51222,1.87667 -5.93,1.87667z"/>
      <path d="M425.17333,352.68333v0c-3.15778,0 -5.72556,-1.05222 -7.70333,-3.15667c-1.97556,-2.10667 -2.96333,-4.76667 -2.96333,-7.98v0c0,-3.04444 0.96,-5.66111 2.88,-7.85c1.92,-2.19111 4.37333,-3.28667 7.36,-3.28667v0c3.1,0 5.58111,1.01 7.44333,3.03c1.86444,2.02 2.79667,4.72222 2.79667,8.10667v0l-0.04333,0.72667h-16.51333c0.11333,2.10444 0.81778,3.76778 2.11333,4.99c1.29333,1.22444 2.80778,1.83667 4.54333,1.83667v0c2.81556,0 4.72111,-1.19556 5.71667,-3.58667v0l3.5,1.45333c-0.68222,1.62 -1.80556,2.97778 -3.37,4.07333c-1.56444,1.09556 -3.48444,1.64333 -5.76,1.64333zM418.68667,339.03h12.11667c-0.08444,-1.19556 -0.63222,-2.33333 -1.64333,-3.41333c-1.00889,-1.08222 -2.50889,-1.62333 -4.5,-1.62333v0c-1.45111,0 -2.71,0.45556 -3.77667,1.36667c-1.06667,0.91111 -1.79889,2.13444 -2.19667,3.67z"/>
    </g>
  </g>
</svg>
