<svg version="1.1" xmlns="http://www.w3.org/2000/svg" xmlns:xlink="http://www.w3.org/1999/xlink" width="1448.44" height="448" viewBox="0 0 1448.44 448">
  <g fill="none" stroke="none" stroke-width="1" stroke-linecap="butt" stroke-linejoin="miter" stroke-dasharray="" stroke-dashoffset="0">
    <rect x="0" y="0" width="1448.44" height="448" fill="none" fill-rule="nonzero"/>
    <circle cx="192" cy="224" r="96" fill="#ffca28" fill-rule="nonzero"/>
    <g fill="#3c4043" fill-rule="evenodd">
      <path d="M164,251.71067l9.33333,-3.85v13.47267h46.66667v-74.66667h-46.66667v13.61267l-9.33333,-3.892v-9.72067c0,-7.73199 6.26801,-14 14,-14h37.33333c7.73199,0 14,6.26801 14,14v74.66667c0,7.73199 -6.26801,14 -14,14h-37.33333c-7.73199,0 -14,-6.26801 -14,-14zM140.66667,230.20667l42,-6.20667l-42,-6.25333v-17.08l56,23.57133l-56,23.09533z"/>
    </g>
    <g fill="#5f6368" fill-rule="nonzero">
      <path d="M347.77,272h-11.77v-91.65h11.77z"/>
      <path d="M361.6,209.28h11.26v8.7h0.51c1.70667,-2.98667 4.39667,-5.52333 8.07,-7.61c3.66667,-2.09333 7.59,-3.14 11.77,-3.14v0c7.76667,0 13.69667,2.39 17.79,7.17c4.1,4.78 6.15,11.18 6.15,19.2v0v38.4h-11.78v-36.61c0,-11.60667 -5.16333,-17.41 -15.49,-17.41v0c-4.86,0 -8.82667,1.94333 -11.9,5.83c-3.07333,3.88 -4.61,8.38 -4.61,13.5v0v34.69h-11.77z"/>
      <path d="M471.93,237.18h-40.96v-9.72h40.96z"/>
      <path d="M493.69,272h-13.05l34.56,-91.65h13.31l34.56,91.65h-13.06l-8.83,-24.83h-38.53zM521.6,194.82l-14.98,41.34h30.46l-14.97,-41.34z"/>
      <path d="M602.49,274.05v0c-4.78,0 -9.06667,-1.02333 -12.86,-3.07c-3.8,-2.05333 -6.63667,-4.61333 -8.51,-7.68v0h-0.52l0.52,8.7v27.65h-11.78v-90.37h11.26v8.7h0.52c1.87333,-3.06667 4.71,-5.62667 8.51,-7.68c3.79333,-2.04667 8.08,-3.07 12.86,-3.07v0c8.10667,0 15.10333,3.2 20.99,9.6c5.89333,6.4 8.84,14.33667 8.84,23.81c0,9.47333 -2.94667,17.41 -8.84,23.81c-5.88667,6.4 -12.88333,9.6 -20.99,9.6zM600.57,263.3v0c5.46,0 10.15333,-2.07 14.08,-6.21c3.92667,-4.14 5.89,-9.62333 5.89,-16.45c0,-6.82667 -1.96333,-12.31 -5.89,-16.45c-3.92667,-4.14 -8.62,-6.21 -14.08,-6.21v0c-5.54667,0 -10.26,2.05 -14.14,6.15c-3.88667,4.09333 -5.83,9.59667 -5.83,16.51c0,6.91333 1.94333,12.41667 5.83,16.51c3.88,4.1 8.59333,6.15 14.14,6.15z"/>
      <path d="M672.51,274.05v0c-4.78,0 -9.07,-1.02333 -12.87,-3.07c-3.79333,-2.05333 -6.63,-4.61333 -8.51,-7.68v0h-0.51l0.51,8.7v27.65h-11.77v-90.37h11.26v8.7h0.51c1.88,-3.06667 4.71667,-5.62667 8.51,-7.68c3.8,-2.04667 8.09,-3.07 12.87,-3.07v0c8.10667,0 15.10333,3.2 20.99,9.6c5.88667,6.4 8.83,14.33667 8.83,23.81c0,9.47333 -2.94333,17.41 -8.83,23.81c-5.88667,6.4 -12.88333,9.6 -20.99,9.6zM670.59,263.3v0c5.46,0 10.15333,-2.07 14.08,-6.21c3.92667,-4.14 5.89,-9.62333 5.89,-16.45c0,-6.82667 -1.96333,-12.31 -5.89,-16.45c-3.92667,-4.14 -8.62,-6.21 -14.08,-6.21v0c-5.54667,0 -10.26333,2.05 -14.15,6.15c-3.88,4.09333 -5.82,9.59667 -5.82,16.51c0,6.91333 1.94,12.41667 5.82,16.51c3.88667,4.1 8.60333,6.15 14.15,6.15z"/>
      <path d=""/>
      <path d="M755.07,272h-11.78v-91.65h11.78l31.87,55.81h0.51l31.87,-55.81h11.78v91.65h-11.78v-54.4l0.52,-15.36h-0.52l-28.67,50.3h-6.91l-28.67,-50.3h-0.51l0.51,15.36z"/>
      <path d="M874.62,274.05v0c-9.47333,0 -17.17333,-3.15667 -23.1,-9.47c-5.93333,-6.32 -8.9,-14.3 -8.9,-23.94v0c0,-9.13333 2.88,-16.98333 8.64,-23.55c5.76,-6.57333 13.12,-9.86 22.08,-9.86v0c9.3,0 16.74667,3.03 22.34,9.09c5.58667,6.06 8.38,14.16667 8.38,24.32v0l-0.13,2.18h-49.53c0.34,6.31333 2.45,11.30333 6.33,14.97c3.88667,3.67333 8.43,5.51 13.63,5.51v0c8.45333,0 14.17333,-3.58667 17.16,-10.76v0l10.49,4.36c-2.04667,4.86 -5.41667,8.93333 -10.11,12.22c-4.69333,3.28667 -10.45333,4.93 -17.28,4.93zM855.16,233.09h36.36c-0.26,-3.58667 -1.90333,-7 -4.93,-10.24c-3.03333,-3.24667 -7.53667,-4.87 -13.51,-4.87v0c-4.34667,0 -8.12,1.36667 -11.32,4.1c-3.2,2.73333 -5.4,6.40333 -6.6,11.01z"/>
      <path d="M936.83,274.05v0c-7,0 -12.78333,-1.70667 -17.35,-5.12c-4.56,-3.41333 -7.90667,-7.68 -10.04,-12.8v0l10.49,-4.35c3.32667,7.84667 9.00333,11.77 17.03,11.77v0c3.66667,0 6.67333,-0.81 9.02,-2.43c2.34667,-1.62 3.52,-3.75333 3.52,-6.4v0c0,-4.09333 -2.86,-6.86667 -8.58,-8.32v0l-12.67,-3.07c-4.00667,-1.02667 -7.80333,-2.97 -11.39,-5.83c-3.58667,-2.85333 -5.38,-6.71333 -5.38,-11.58v0c0,-5.54667 2.45333,-10.04667 7.36,-13.5c4.90667,-3.46 10.73333,-5.19 17.48,-5.19v0c5.54667,0 10.49333,1.26 14.84,3.78c4.35333,2.51333 7.47,6.11667 9.35,10.81v0l-10.24,4.23c-2.30667,-5.54667 -7.08667,-8.32 -14.34,-8.32v0c-3.5,0 -6.44333,0.72333 -8.83,2.17c-2.38667,1.45333 -3.58,3.41667 -3.58,5.89v0c0,3.58667 2.77333,6.02 8.32,7.3v0l12.41,2.94c5.88667,1.36667 10.24,3.71333 13.06,7.04c2.81333,3.32667 4.22,7.08333 4.22,11.27v0c0,5.62667 -2.30333,10.32 -6.91,14.08c-4.60667,3.75333 -10.53667,5.63 -17.79,5.63z"/>
      <path d="M993.79,274.05v0c-7,0 -12.78333,-1.70667 -17.35,-5.12c-4.56,-3.41333 -7.90667,-7.68 -10.04,-12.8v0l10.49,-4.35c3.32667,7.84667 9.00333,11.77 17.03,11.77v0c3.66667,0 6.67333,-0.81 9.02,-2.43c2.34667,-1.62 3.52,-3.75333 3.52,-6.4v0c0,-4.09333 -2.86,-6.86667 -8.58,-8.32v0l-12.67,-3.07c-4.00667,-1.02667 -7.80333,-2.97 -11.39,-5.83c-3.58667,-2.85333 -5.38,-6.71333 -5.38,-11.58v0c0,-5.54667 2.45333,-10.04667 7.36,-13.5c4.90667,-3.46 10.73333,-5.19 17.48,-5.19v0c5.54667,0 10.49333,1.26 14.84,3.78c4.35333,2.51333 7.47,6.11667 9.35,10.81v0l-10.24,4.23c-2.30667,-5.54667 -7.08667,-8.32 -14.34,-8.32v0c-3.5,0 -6.44333,0.72333 -8.83,2.17c-2.38667,1.45333 -3.58,3.41667 -3.58,5.89v0c0,3.58667 2.77333,6.02 8.32,7.3v0l12.41,2.94c5.88667,1.36667 10.24,3.71333 13.06,7.04c2.81333,3.32667 4.22,7.08333 4.22,11.27v0c0,5.62667 -2.30333,10.32 -6.91,14.08c-4.60667,3.75333 -10.53667,5.63 -17.79,5.63z"/>
      <path d="M1049.21,274.05v0c-6.65333,0 -12.22,-1.92 -16.7,-5.76c-4.48,-3.84 -6.72,-8.91667 -6.72,-15.23v0c0,-6.82667 2.64333,-12.18333 7.93,-16.07c5.29333,-3.88 11.82333,-5.82 19.59,-5.82v0c6.91333,0 12.58667,1.28 17.02,3.84v0v-1.79c0,-4.61333 -1.57667,-8.30667 -4.73,-11.08c-3.16,-2.77333 -7.04333,-4.16 -11.65,-4.16v0c-3.41333,0 -6.50667,0.81333 -9.28,2.44c-2.77333,1.62 -4.67333,3.83667 -5.7,6.65v0l-10.75,-4.61c1.45333,-3.75333 4.31333,-7.23 8.58,-10.43c4.26667,-3.2 9.89667,-4.8 16.89,-4.8v0c8.02,0 14.67667,2.34667 19.97,7.04c5.29333,4.69333 7.94,11.30667 7.94,19.84v0v37.89h-11.27v-8.7h-0.51c-4.69333,7.16667 -11.56333,10.75 -20.61,10.75zM1051.13,263.3v0c4.86667,0 9.28333,-1.81333 13.25,-5.44c3.96667,-3.62667 5.95,-7.91667 5.95,-12.87v0c-3.32667,-2.72667 -8.31667,-4.09 -14.97,-4.09v0c-5.72,0 -10.03,1.23667 -12.93,3.71c-2.9,2.47333 -4.35,5.37333 -4.35,8.7v0c0,3.07333 1.32,5.50667 3.96,7.3c2.64667,1.79333 5.67667,2.69 9.09,2.69z"/>
      <path d="M1121.53,301.7v0c-7.42,0 -13.47667,-1.85667 -18.17,-5.57c-4.69333,-3.71333 -8.06667,-7.96 -10.12,-12.74v0l10.76,-4.48c1.19333,3.41333 3.39,6.27333 6.59,8.58c3.2,2.3 6.84667,3.45 10.94,3.45v0c6.48667,0 11.58667,-1.94 15.3,-5.82c3.71333,-3.88 5.57,-9.15 5.57,-15.81v0v-6.01h-0.52c-2.04667,3.06667 -4.94667,5.62667 -8.7,7.68c-3.75333,2.04667 -7.97667,3.07 -12.67,3.07v0c-8.10667,0 -15.10333,-3.2 -20.99,-9.6c-5.89333,-6.4 -8.84,-14.33667 -8.84,-23.81c0,-9.47333 2.94667,-17.41 8.84,-23.81c5.88667,-6.4 12.88333,-9.6 20.99,-9.6v0c4.69333,0 8.91667,1.02333 12.67,3.07c3.75333,2.05333 6.65333,4.61333 8.7,7.68v0h0.52v-8.7h11.26v59.52c0,10.75333 -3.11333,18.92333 -9.34,24.51c-6.23333,5.59333 -13.83,8.39 -22.79,8.39zM1122.43,263.3v0c5.54667,0 10.26,-2.05 14.14,-6.15c3.88667,-4.09333 5.83,-9.59667 5.83,-16.51c0,-6.91333 -1.94333,-12.41667 -5.83,-16.51c-3.88,-4.1 -8.59333,-6.15 -14.14,-6.15v0c-5.46,0 -10.15333,2.07 -14.08,6.21c-3.92667,4.14 -5.89,9.62333 -5.89,16.45c0,6.82667 1.96333,12.31 5.89,16.45c3.92667,4.14 8.62,6.21 14.08,6.21z"/>
      <path d="M1178.88,193.54c-1.62667,1.62 -3.59,2.43 -5.89,2.43c-2.30667,0 -4.27,-0.81 -5.89,-2.43c-1.62,-1.62667 -2.43,-3.59 -2.43,-5.89c0,-2.30667 0.81,-4.27 2.43,-5.89c1.62,-1.62 3.58333,-2.43 5.89,-2.43c2.3,0 4.26333,0.81 5.89,2.43c1.62,1.62 2.43,3.58333 2.43,5.89c0,2.3 -0.81,4.26333 -2.43,5.89zM1178.88,209.28v62.72h-11.78v-62.72z"/>
      <path d="M1192.96,209.28h11.26v8.7h0.51c1.70667,-2.98667 4.39667,-5.52333 8.07,-7.61c3.66667,-2.09333 7.59,-3.14 11.77,-3.14v0c7.76667,0 13.69667,2.39 17.79,7.17c4.1,4.78 6.15,11.18 6.15,19.2v0v38.4h-11.78v-36.61c0,-11.60667 -5.16333,-17.41 -15.49,-17.41v0c-4.86,0 -8.82667,1.94333 -11.9,5.83c-3.07333,3.88 -4.61,8.38 -4.61,13.5v0v34.69h-11.77z"/>
      <path d="M1288.32,301.7v0c-7.42667,0 -13.48667,-1.85667 -18.18,-5.57c-4.69333,-3.71333 -8.06333,-7.96 -10.11,-12.74v0l10.75,-4.48c1.19333,3.41333 3.39,6.27333 6.59,8.58c3.2,2.3 6.85,3.45 10.95,3.45v0c6.48,0 11.57667,-1.94 15.29,-5.82c3.71333,-3.88 5.57,-9.15 5.57,-15.81v0v-6.01h-0.51c-2.04667,3.06667 -4.95,5.62667 -8.71,7.68c-3.75333,2.04667 -7.97667,3.07 -12.67,3.07v0c-8.10667,0 -15.10333,-3.2 -20.99,-9.6c-5.88667,-6.4 -8.83,-14.33667 -8.83,-23.81c0,-9.47333 2.94333,-17.41 8.83,-23.81c5.88667,-6.4 12.88333,-9.6 20.99,-9.6v0c4.69333,0 8.91667,1.02333 12.67,3.07c3.76,2.05333 6.66333,4.61333 8.71,7.68v0h0.51v-8.7h11.26v59.52c0,10.75333 -3.11333,18.92333 -9.34,24.51c-6.22667,5.59333 -13.82,8.39 -22.78,8.39zM1289.21,263.3v0c5.54667,0 10.26333,-2.05 14.15,-6.15c3.88,-4.09333 5.82,-9.59667 5.82,-16.51c0,-6.91333 -1.94,-12.41667 -5.82,-16.51c-3.88667,-4.1 -8.60333,-6.15 -14.15,-6.15v0c-5.46,0 -10.15333,2.07 -14.08,6.21c-3.92667,4.14 -5.89,9.62333 -5.89,16.45c0,6.82667 1.96333,12.31 5.89,16.45c3.92667,4.14 8.62,6.21 14.08,6.21z"/>
    </g>
  </g>
</svg>
