<svg version="1.1" xmlns="http://www.w3.org/2000/svg" xmlns:xlink="http://www.w3.org/1999/xlink" width="520.147" height="464" viewBox="0 0 520.147 464">
  <g fill="none" stroke="none" stroke-width="1" stroke-linecap="butt" stroke-linejoin="miter" stroke-dasharray="" stroke-dashoffset="0">
    <rect x="0" y="0" width="520.147" height="464" fill="none" fill-rule="nonzero"/>
    <circle cx="260.073" cy="192" r="96" fill="#ffca28" fill-rule="nonzero"/>
    <g fill="#3c4043" fill-rule="evenodd">
      <path d="M232.07333,219.71067l9.33333,-3.85v13.47267h46.66667v-74.66667h-46.66667v13.61267l-9.33333,-3.892v-9.72067c0,-7.73199 6.26801,-14 14,-14h37.33333c7.73199,0 14,6.26801 14,14v74.66667c0,7.73199 -6.26801,14 -14,14h-37.33333c-7.73199,0 -14,-6.26801 -14,-14zM208.74,198.20667l42,-6.20667l-42,-6.25333v-17.08l56,23.57133l-56,23.09533z"/>
    </g>
    <g fill="#5f6368" fill-rule="nonzero">
      <path d="M99.92333,352h-3.92333v-30.55h3.92333z"/>
      <path d="M104.53333,331.09333h3.75333v2.9h0.17c0.56889,-0.99556 1.46556,-1.84111 2.69,-2.53667c1.22222,-0.69778 2.53,-1.04667 3.92333,-1.04667v0c2.58889,0 4.56556,0.79667 5.93,2.39c1.36667,1.59333 2.05,3.72667 2.05,6.4v0v12.8h-3.92667v-12.20333c0,-3.86889 -1.72111,-5.80333 -5.16333,-5.80333v0c-1.62,0 -2.94222,0.64778 -3.96667,1.94333c-1.02444,1.29333 -1.53667,2.79333 -1.53667,4.5v0v11.56333h-3.92333z"/>
      <path d="M141.31,340.39333h-13.65333v-3.24h13.65333z"/>
      <path d="M148.56333,352h-4.35l11.52,-30.55h4.43667l11.52,30.55h-4.35333l-2.94333,-8.27667h-12.84333zM157.86667,326.27333l-4.99333,13.78h10.15333l-4.99,-13.78z"/>
      <path d="M184.83,352.68333v0c-1.59333,0 -3.02222,-0.34111 -4.28667,-1.02333c-1.26667,-0.68444 -2.21222,-1.53778 -2.83667,-2.56v0h-0.17333l0.17333,2.9v9.21667h-3.92667v-30.12333h3.75333v2.9h0.17333c0.62444,-1.02222 1.57,-1.87556 2.83667,-2.56c1.26444,-0.68222 2.69333,-1.02333 4.28667,-1.02333v0c2.70222,0 5.03444,1.06667 6.99667,3.2c1.96444,2.13333 2.94667,4.77889 2.94667,7.93667c0,3.15778 -0.98222,5.80333 -2.94667,7.93667c-1.96222,2.13333 -4.29444,3.2 -6.99667,3.2zM184.19,349.1v0c1.82,0 3.38444,-0.69 4.69333,-2.07c1.30889,-1.38 1.96333,-3.20778 1.96333,-5.48333c0,-2.27556 -0.65444,-4.10333 -1.96333,-5.48333c-1.30889,-1.38 -2.87333,-2.07 -4.69333,-2.07v0c-1.84889,0 -3.42,0.68333 -4.71333,2.05c-1.29556,1.36444 -1.94333,3.19889 -1.94333,5.50333c0,2.30444 0.64778,4.13889 1.94333,5.50333c1.29333,1.36667 2.86444,2.05 4.71333,2.05z"/>
      <path d="M208.17,352.68333v0c-1.59333,0 -3.02333,-0.34111 -4.29,-1.02333c-1.26444,-0.68444 -2.21,-1.53778 -2.83667,-2.56v0h-0.17l0.17,2.9v9.21667h-3.92333v-30.12333h3.75333v2.9h0.17c0.62667,-1.02222 1.57222,-1.87556 2.83667,-2.56c1.26667,-0.68222 2.69667,-1.02333 4.29,-1.02333v0c2.70222,0 5.03444,1.06667 6.99667,3.2c1.96222,2.13333 2.94333,4.77889 2.94333,7.93667c0,3.15778 -0.98111,5.80333 -2.94333,7.93667c-1.96222,2.13333 -4.29444,3.2 -6.99667,3.2zM207.53,349.1v0c1.82,0 3.38444,-0.69 4.69333,-2.07c1.30889,-1.38 1.96333,-3.20778 1.96333,-5.48333c0,-2.27556 -0.65444,-4.10333 -1.96333,-5.48333c-1.30889,-1.38 -2.87333,-2.07 -4.69333,-2.07v0c-1.84889,0 -3.42111,0.68333 -4.71667,2.05c-1.29333,1.36444 -1.94,3.19889 -1.94,5.50333c0,2.30444 0.64667,4.13889 1.94,5.50333c1.29556,1.36667 2.86778,2.05 4.71667,2.05z"/>
      <path d=""/>
      <path d="M235.69,352h-3.92667v-30.55h3.92667l10.62333,18.60333h0.17l10.62333,-18.60333h3.92667v30.55h-3.92667v-18.13333l0.17333,-5.12h-0.17333l-9.55667,16.76667h-2.30333l-9.55667,-16.76667h-0.17l0.17,5.12z"/>
      <path d="M275.54,352.68333v0c-3.15778,0 -5.72444,-1.05222 -7.7,-3.15667c-1.97778,-2.10667 -2.96667,-4.76667 -2.96667,-7.98v0c0,-3.04444 0.96,-5.66111 2.88,-7.85c1.92,-2.19111 4.37333,-3.28667 7.36,-3.28667v0c3.1,0 5.58222,1.01 7.44667,3.03c1.86222,2.02 2.79333,4.72222 2.79333,8.10667v0l-0.04333,0.72667h-16.51c0.11333,2.10444 0.81667,3.76778 2.11,4.99c1.29556,1.22444 2.81,1.83667 4.54333,1.83667v0c2.81778,0 4.72444,-1.19556 5.72,-3.58667v0l3.49667,1.45333c-0.68222,1.62 -1.80556,2.97778 -3.37,4.07333c-1.56444,1.09556 -3.48444,1.64333 -5.76,1.64333zM269.05333,339.03h12.12c-0.08667,-1.19556 -0.63444,-2.33333 -1.64333,-3.41333c-1.01111,-1.08222 -2.51222,-1.62333 -4.50333,-1.62333v0c-1.44889,0 -2.70667,0.45556 -3.77333,1.36667c-1.06667,0.91111 -1.8,2.13444 -2.2,3.67z"/>
      <path d="M296.27667,352.68333v0c-2.33333,0 -4.26111,-0.56889 -5.78333,-1.70667c-1.52,-1.13778 -2.63556,-2.56 -3.34667,-4.26667v0l3.49667,-1.45c1.10889,2.61556 3.00111,3.92333 5.67667,3.92333v0c1.22222,0 2.22444,-0.27 3.00667,-0.81c0.78222,-0.54 1.17333,-1.25111 1.17333,-2.13333v0c0,-1.36444 -0.95333,-2.28889 -2.86,-2.77333v0l-4.22333,-1.02333c-1.33556,-0.34222 -2.60111,-0.99 -3.79667,-1.94333c-1.19556,-0.95111 -1.79333,-2.23778 -1.79333,-3.86v0c0,-1.84889 0.81778,-3.34889 2.45333,-4.5c1.63556,-1.15333 3.57778,-1.73 5.82667,-1.73v0c1.84889,0 3.49778,0.42 4.94667,1.26c1.45111,0.83778 2.49,2.03889 3.11667,3.60333v0l-3.41333,1.41c-0.76889,-1.84889 -2.36222,-2.77333 -4.78,-2.77333v0c-1.16667,0 -2.14778,0.24111 -2.94333,0.72333c-0.79556,0.48444 -1.19333,1.13889 -1.19333,1.96333v0c0,1.19556 0.92444,2.00667 2.77333,2.43333v0l4.13667,0.98c1.96222,0.45556 3.41333,1.23778 4.35333,2.34667c0.93778,1.10889 1.40667,2.36111 1.40667,3.75667v0c0,1.87556 -0.76778,3.44 -2.30333,4.69333c-1.53556,1.25111 -3.51222,1.87667 -5.93,1.87667z"/>
      <path d="M315.26333,352.68333v0c-2.33333,0 -4.26111,-0.56889 -5.78333,-1.70667c-1.52,-1.13778 -2.63556,-2.56 -3.34667,-4.26667v0l3.49667,-1.45c1.10889,2.61556 3.00111,3.92333 5.67667,3.92333v0c1.22222,0 2.22444,-0.27 3.00667,-0.81c0.78222,-0.54 1.17333,-1.25111 1.17333,-2.13333v0c0,-1.36444 -0.95333,-2.28889 -2.86,-2.77333v0l-4.22333,-1.02333c-1.33556,-0.34222 -2.60111,-0.99 -3.79667,-1.94333c-1.19556,-0.95111 -1.79333,-2.23778 -1.79333,-3.86v0c0,-1.84889 0.81778,-3.34889 2.45333,-4.5c1.63556,-1.15333 3.57778,-1.73 5.82667,-1.73v0c1.84889,0 3.49778,0.42 4.94667,1.26c1.45111,0.83778 2.49,2.03889 3.11667,3.60333v0l-3.41333,1.41c-0.76889,-1.84889 -2.36222,-2.77333 -4.78,-2.77333v0c-1.16667,0 -2.14778,0.24111 -2.94333,0.72333c-0.79556,0.48444 -1.19333,1.13889 -1.19333,1.96333v0c0,1.19556 0.92444,2.00667 2.77333,2.43333v0l4.13667,0.98c1.96222,0.45556 3.41333,1.23778 4.35333,2.34667c0.93778,1.10889 1.40667,2.36111 1.40667,3.75667v0c0,1.87556 -0.76778,3.44 -2.30333,4.69333c-1.53556,1.25111 -3.51222,1.87667 -5.93,1.87667z"/>
      <path d="M333.73667,352.68333v0c-2.21778,0 -4.07333,-0.64 -5.56667,-1.92c-1.49333,-1.28 -2.24,-2.97222 -2.24,-5.07667v0c0,-2.27556 0.88111,-4.06111 2.64333,-5.35667c1.76444,-1.29333 3.94111,-1.94 6.53,-1.94v0c2.30444,0 4.19556,0.42667 5.67333,1.28v0v-0.59667c0,-1.53778 -0.52556,-2.76889 -1.57667,-3.69333c-1.05333,-0.92444 -2.34778,-1.38667 -3.88333,-1.38667v0c-1.13778,0 -2.16889,0.27111 -3.09333,0.81333c-0.92444,0.54 -1.55778,1.27889 -1.9,2.21667v0l-3.58333,-1.53667c0.48444,-1.25111 1.43778,-2.41 2.86,-3.47667c1.42222,-1.06667 3.29889,-1.6 5.63,-1.6v0c2.67333,0 4.89222,0.78222 6.65667,2.34667c1.76444,1.56444 2.64667,3.76889 2.64667,6.61333v0v12.63h-3.75667v-2.9h-0.17c-1.56444,2.38889 -3.85444,3.58333 -6.87,3.58333zM334.37667,349.1v0c1.62222,0 3.09444,-0.60444 4.41667,-1.81333c1.32222,-1.20889 1.98333,-2.63889 1.98333,-4.29v0c-1.10889,-0.90889 -2.77222,-1.36333 -4.99,-1.36333v0c-1.90667,0 -3.34333,0.41222 -4.31,1.23667c-0.96667,0.82444 -1.45,1.79111 -1.45,2.9v0c0,1.02444 0.44,1.83556 1.32,2.43333c0.88222,0.59778 1.89222,0.89667 3.03,0.89667z"/>
      <path d="M357.84333,361.9v0c-2.47333,0 -4.49222,-0.61889 -6.05667,-1.85667c-1.56444,-1.23778 -2.68889,-2.65333 -3.37333,-4.24667v0l3.58667,-1.49333c0.39778,1.13778 1.13,2.09111 2.19667,2.86c1.06667,0.76667 2.28222,1.15 3.64667,1.15v0c2.16222,0 3.86222,-0.64667 5.1,-1.94c1.23778,-1.29333 1.85667,-3.05 1.85667,-5.27v0v-2.00333h-0.17333c-0.68222,1.02222 -1.64889,1.87556 -2.9,2.56c-1.25111,0.68222 -2.65889,1.02333 -4.22333,1.02333v0c-2.70222,0 -5.03444,-1.06667 -6.99667,-3.2c-1.96444,-2.13333 -2.94667,-4.77889 -2.94667,-7.93667c0,-3.15778 0.98222,-5.80333 2.94667,-7.93667c1.96222,-2.13333 4.29444,-3.2 6.99667,-3.2v0c1.56444,0 2.97222,0.34111 4.22333,1.02333c1.25111,0.68444 2.21778,1.53778 2.9,2.56v0h0.17333v-2.9h3.75333v19.84c0,3.58444 -1.03778,6.30778 -3.11333,8.17c-2.07778,1.86444 -4.61,2.79667 -7.59667,2.79667zM358.14333,349.1v0c1.84889,0 3.42,-0.68333 4.71333,-2.05c1.29556,-1.36444 1.94333,-3.19889 1.94333,-5.50333c0,-2.30444 -0.64778,-4.13889 -1.94333,-5.50333c-1.29333,-1.36667 -2.86444,-2.05 -4.71333,-2.05v0c-1.82,0 -3.38444,0.69 -4.69333,2.07c-1.30889,1.38 -1.96333,3.20778 -1.96333,5.48333c0,2.27556 0.65444,4.10333 1.96333,5.48333c1.30889,1.38 2.87333,2.07 4.69333,2.07z"/>
      <path d="M376.96,325.84667c-0.54222,0.54 -1.19667,0.81 -1.96333,0.81c-0.76889,0 -1.42333,-0.27 -1.96333,-0.81c-0.54,-0.54222 -0.81,-1.19667 -0.81,-1.96333c0,-0.76889 0.27,-1.42333 0.81,-1.96333c0.54,-0.54 1.19444,-0.81 1.96333,-0.81c0.76667,0 1.42111,0.27 1.96333,0.81c0.54,0.54 0.81,1.19444 0.81,1.96333c0,0.76667 -0.27,1.42111 -0.81,1.96333zM376.96,331.09333v20.90667h-3.92667v-20.90667z"/>
      <path d="M381.65333,331.09333h3.75333v2.9h0.17c0.56889,-0.99556 1.46556,-1.84111 2.69,-2.53667c1.22222,-0.69778 2.53,-1.04667 3.92333,-1.04667v0c2.58889,0 4.56556,0.79667 5.93,2.39c1.36667,1.59333 2.05,3.72667 2.05,6.4v0v12.8h-3.92667v-12.20333c0,-3.86889 -1.72111,-5.80333 -5.16333,-5.80333v0c-1.62,0 -2.94222,0.64778 -3.96667,1.94333c-1.02444,1.29333 -1.53667,2.79333 -1.53667,4.5v0v11.56333h-3.92333z"/>
      <path d="M413.44,361.9v0c-2.47556,0 -4.49556,-0.61889 -6.06,-1.85667c-1.56444,-1.23778 -2.68778,-2.65333 -3.37,-4.24667v0l3.58333,-1.49333c0.39778,1.13778 1.13,2.09111 2.19667,2.86c1.06667,0.76667 2.28333,1.15 3.65,1.15v0c2.16,0 3.85889,-0.64667 5.09667,-1.94c1.23778,-1.29333 1.85667,-3.05 1.85667,-5.27v0v-2.00333h-0.17c-0.68222,1.02222 -1.65,1.87556 -2.90333,2.56c-1.25111,0.68222 -2.65889,1.02333 -4.22333,1.02333v0c-2.70222,0 -5.03444,-1.06667 -6.99667,-3.2c-1.96222,-2.13333 -2.94333,-4.77889 -2.94333,-7.93667c0,-3.15778 0.98111,-5.80333 2.94333,-7.93667c1.96222,-2.13333 4.29444,-3.2 6.99667,-3.2v0c1.56444,0 2.97222,0.34111 4.22333,1.02333c1.25333,0.68444 2.22111,1.53778 2.90333,2.56v0h0.17v-2.9h3.75333v19.84c0,3.58444 -1.03778,6.30778 -3.11333,8.17c-2.07556,1.86444 -4.60667,2.79667 -7.59333,2.79667zM413.73667,349.1v0c1.84889,0 3.42111,-0.68333 4.71667,-2.05c1.29333,-1.36444 1.94,-3.19889 1.94,-5.50333c0,-2.30444 -0.64667,-4.13889 -1.94,-5.50333c-1.29556,-1.36667 -2.86778,-2.05 -4.71667,-2.05v0c-1.82,0 -3.38444,0.69 -4.69333,2.07c-1.30889,1.38 -1.96333,3.20778 -1.96333,5.48333c0,2.27556 0.65444,4.10333 1.96333,5.48333c1.30889,1.38 2.87333,2.07 4.69333,2.07z"/>
    </g>
  </g>
</svg>
