<svg version="1.1" xmlns="http://www.w3.org/2000/svg" xmlns:xlink="http://www.w3.org/1999/xlink" width="1416.61" height="448" viewBox="0 0 1416.61 448">
  <g fill="none" stroke="none" stroke-width="1" stroke-linecap="butt" stroke-linejoin="miter" stroke-dasharray="" stroke-dashoffset="0">
    <rect x="0" y="0" width="1416.61" height="448" fill="none" fill-rule="nonzero"/>
    <circle cx="192" cy="224" r="96" fill="#ffca28" fill-rule="nonzero"/>
    <g fill="#3c4043" fill-rule="evenodd">
      <path d="M161.66667,270.66667c-6.44332,0 -11.66667,-5.22334 -11.66667,-11.66667c0,-6.44332 5.22334,-11.66667 11.66667,-11.66667c6.44332,0 11.66667,5.22334 11.66667,11.66667c0,6.44332 -5.22334,11.66667 -11.66667,11.66667zM192,214.66667c6.44332,0 11.66667,5.22334 11.66667,11.66667v32.66667c0,6.44332 -5.22334,11.66667 -11.66667,11.66667c-6.44332,0 -11.66667,-5.22334 -11.66667,-11.66667v-32.66667c0,-6.44332 5.22334,-11.66667 11.66667,-11.66667zM222.33333,177.33333c6.44332,0 11.66667,5.22334 11.66667,11.66667v70c0,6.44332 -5.22334,11.66667 -11.66667,11.66667c-6.44332,0 -11.66667,-5.22334 -11.66667,-11.66667v-70c0,-6.44332 5.22334,-11.66667 11.66667,-11.66667z"/>
    </g>
    <g fill="#5f6368" fill-rule="nonzero">
      <g>
        <path d="M622.468,206.295c8.052,0 14.443,3.575 17.77,7.538h0.508v-5.434h14.066v60.478c0,24.905 -14.7,35.123 -32.082,35.123c-16.36,0 -26.204,-10.982 -29.913,-19.922l12.908,-5.365c2.3,5.49 7.926,12.002 17,12.002c11.122,0 18.02,-6.9 18.02,-19.796v-4.853h-0.507c-3.321,4.088 -9.718,7.663 -17.77,7.663c-16.874,0 -32.34,-14.687 -32.34,-33.588c0,-19.033 15.466,-33.846 32.34,-33.846zM389.173,169c15.979,0 27.358,6.26 35.917,14.431l-10.1,10.092c-6.135,-5.747 -14.443,-10.217 -25.822,-10.217c-21.092,0 -37.583,16.985 -37.583,38.059c0,21.073 16.491,38.059 37.583,38.059c13.678,0 21.473,-5.49 26.46,-10.474c4.092,-4.088 6.775,-9.961 7.796,-18.006h-34.25v-14.306h48.191c0.514,2.554 0.765,5.622 0.765,8.94c0,10.731 -2.94,24.01 -12.4,33.464c-9.2,9.579 -20.96,14.687 -36.557,14.687c-28.886,0.001 -53.173,-23.502 -53.173,-52.364c0,-28.862 24.287,-52.365 53.173,-52.365zM717.578,206.295c17.514,0 26.08,13.924 28.887,21.456l1.535,3.831l-45.122,18.645c3.453,6.768 8.823,10.217 16.361,10.217c7.538,0 12.783,-3.7 16.618,-9.322l11.504,7.663c-3.71,5.491 -12.657,14.944 -28.122,14.944c-19.174,0 -33.098,-14.813 -33.098,-33.714c0,-20.053 14.05,-33.72 31.437,-33.72zM476.648,206.289c18.667,0.006 33.875,14.18 33.875,33.72c0,19.415 -15.208,33.715 -33.874,33.715c-18.66,0 -33.874,-14.306 -33.874,-33.715c0,-19.54 15.213,-33.72 33.874,-33.72zM550.263,206.289c18.666,0.006 33.874,14.18 33.874,33.72c0,19.415 -15.208,33.715 -33.874,33.715c-18.66,0 -33.874,-14.306 -33.874,-33.715c0,-19.54 15.214,-33.72 33.874,-33.72zM679.51,172.575v99.113h-14.825v-99.113zM623.752,219.58c-10.226,0 -18.792,8.684 -18.792,20.56c0,11.752 8.566,20.31 18.792,20.31c10.095,-0.006 18.021,-8.558 18.021,-20.31c0,-11.876 -7.926,-20.56 -18.021,-20.56zM476.649,219.574c-10.226,0 -19.049,8.302 -19.049,20.435c0,12.003 8.823,20.435 19.049,20.435c10.226,0 19.048,-8.427 19.048,-20.435c0,-12.133 -8.822,-20.435 -19.048,-20.435zM550.263,219.574c-10.226,0 -19.048,8.302 -19.048,20.435c0,12.003 8.822,20.435 19.048,20.435c10.226,0 19.048,-8.427 19.048,-20.435c0,-12.133 -8.822,-20.435 -19.048,-20.435zM718.086,219.324c-7.544,0 -18.02,6.636 -17.639,19.665l30.165,-12.516c-1.66,-4.213 -6.648,-7.15 -12.526,-7.15z"/>
        <path d="M802.59,272h-13.05l34.56,-91.65h13.31l34.56,91.65h-13.06l-8.83,-24.83h-38.53zM830.5,194.82l-14.98,41.34h30.46l-14.97,-41.34z"/>
        <path d="M880.67,209.28h11.27v8.7h0.51c1.70667,-2.98667 4.39333,-5.52333 8.06,-7.61c3.67333,-2.09333 7.6,-3.14 11.78,-3.14v0c7.76667,0 13.69667,2.39 17.79,7.17c4.09333,4.78 6.14,11.18 6.14,19.2v0v38.4h-11.77v-36.61c0,-11.60667 -5.16333,-17.41 -15.49,-17.41v0c-4.86667,0 -8.83333,1.94333 -11.9,5.83c-3.07333,3.88 -4.61,8.38 -4.61,13.5v0v34.69h-11.78z"/>
        <path d="M969.25,274.05v0c-6.66,0 -12.23,-1.92 -16.71,-5.76c-4.48,-3.84 -6.72,-8.91667 -6.72,-15.23v0c0,-6.82667 2.64667,-12.18333 7.94,-16.07c5.29333,-3.88 11.82,-5.82 19.58,-5.82v0c6.91333,0 12.59,1.28 17.03,3.84v0v-1.79c0,-4.61333 -1.58,-8.30667 -4.74,-11.08c-3.15333,-2.77333 -7.03667,-4.16 -11.65,-4.16v0c-3.41333,0 -6.50667,0.81333 -9.28,2.44c-2.77333,1.62 -4.67,3.83667 -5.69,6.65v0l-10.75,-4.61c1.44667,-3.75333 4.30333,-7.23 8.57,-10.43c4.26667,-3.2 9.9,-4.8 16.9,-4.8v0c8.02,0 14.67667,2.34667 19.97,7.04c5.28667,4.69333 7.93,11.30667 7.93,19.84v0v37.89h-11.26v-8.7h-0.51c-4.69333,7.16667 -11.56333,10.75 -20.61,10.75zM971.17,263.3v0c4.86,0 9.27667,-1.81333 13.25,-5.44c3.96667,-3.62667 5.95,-7.91667 5.95,-12.87v0c-3.32667,-2.72667 -8.32,-4.09 -14.98,-4.09v0c-5.71333,0 -10.02333,1.23667 -12.93,3.71c-2.9,2.47333 -4.35,5.37333 -4.35,8.7v0c0,3.07333 1.32333,5.50667 3.97,7.3c2.64667,1.79333 5.67667,2.69 9.09,2.69z"/>
        <path d="M1026.08,180.35v91.65h-11.78v-91.65z"/>
        <path d="M1096.48,209.28l-39.3,90.37h-12.16l14.6,-31.62l-25.86,-58.75h12.8l18.69,45.06h0.25l18.18,-45.06z"/>
        <path d="M1131.3,273.02v0c-6.57333,0 -11.58667,-1.74667 -15.04,-5.24c-3.46,-3.5 -5.19,-8.45 -5.19,-14.85v0v-32.9h-11.01v-10.75h11.01v-19.2h11.78v19.2h15.36v10.75h-15.36v32c0,6.82667 2.81667,10.24 8.45,10.24v0c2.13333,0 3.92333,-0.34 5.37,-1.02v0l4.1,10.11c-2.56,1.10667 -5.71667,1.66 -9.47,1.66z"/>
        <path d="M1160.99,193.54c-1.62,1.62 -3.58333,2.43 -5.89,2.43c-2.3,0 -4.26,-0.81 -5.88,-2.43c-1.62667,-1.62667 -2.44,-3.59 -2.44,-5.89c0,-2.30667 0.81333,-4.27 2.44,-5.89c1.62,-1.62 3.58,-2.43 5.88,-2.43c2.30667,0 4.27,0.81 5.89,2.43c1.62,1.62 2.43,3.58333 2.43,5.89c0,2.3 -0.81,4.26333 -2.43,5.89zM1160.99,209.28v62.72h-11.77v-62.72z"/>
        <path d="M1203.1,274.05v0c-9.38667,0 -17.10667,-3.18 -23.16,-9.54c-6.06,-6.35333 -9.09,-14.31 -9.09,-23.87c0,-9.56 3.03,-17.51667 9.09,-23.87c6.05333,-6.36 13.77333,-9.54 23.16,-9.54v0c7,0 12.80333,1.70667 17.41,5.12c4.60667,3.41333 7.97667,7.72333 10.11,12.93v0l-10.75,4.48c-3.24,-7.85333 -9.08333,-11.78 -17.53,-11.78v0c-5.20667,0 -9.79333,2.13333 -13.76,6.4c-3.97333,4.26667 -5.96,9.68667 -5.96,16.26c0,6.57333 1.98667,11.99333 5.96,16.26c3.96667,4.26667 8.55333,6.4 13.76,6.4v0c8.78667,0 14.84333,-3.92667 18.17,-11.78v0l10.5,4.48c-2.13333,5.12 -5.57,9.40667 -10.31,12.86c-4.73333,3.46 -10.6,5.19 -17.6,5.19z"/>
        <path d="M1263.9,274.05v0c-6.99333,0 -12.77333,-1.70667 -17.34,-5.12c-4.56667,-3.41333 -7.91667,-7.68 -10.05,-12.8v0l10.5,-4.35c3.32667,7.84667 9,11.77 17.02,11.77v0c3.67333,0 6.68333,-0.81 9.03,-2.43c2.34667,-1.62 3.52,-3.75333 3.52,-6.4v0c0,-4.09333 -2.86,-6.86667 -8.58,-8.32v0l-12.67,-3.07c-4.01333,-1.02667 -7.81,-2.97 -11.39,-5.83c-3.58667,-2.85333 -5.38,-6.71333 -5.38,-11.58v0c0,-5.54667 2.45333,-10.04667 7.36,-13.5c4.90667,-3.46 10.73,-5.19 17.47,-5.19v0c5.54667,0 10.49667,1.26 14.85,3.78c4.35333,2.51333 7.46667,6.11667 9.34,10.81v0l-10.24,4.23c-2.3,-5.54667 -7.07667,-8.32 -14.33,-8.32v0c-3.5,0 -6.44333,0.72333 -8.83,2.17c-2.39333,1.45333 -3.59,3.41667 -3.59,5.89v0c0,3.58667 2.77333,6.02 8.32,7.3v0l12.42,2.94c5.88667,1.36667 10.23667,3.71333 13.05,7.04c2.82,3.32667 4.23,7.08333 4.23,11.27v0c0,5.62667 -2.30333,10.32 -6.91,14.08c-4.61333,3.75333 -10.54667,5.63 -17.8,5.63z"/>
      </g>
    </g>
  </g>
</svg>
