<svg version="1.1" xmlns="http://www.w3.org/2000/svg" xmlns:xlink="http://www.w3.org/1999/xlink" width="509.537" height="464" viewBox="0 0 509.537 464">
  <g fill="none" stroke="none" stroke-width="1" stroke-linecap="butt" stroke-linejoin="miter" stroke-dasharray="" stroke-dashoffset="0">
    <rect x="0" y="0" width="509.537" height="464" fill="none" fill-rule="nonzero"/>
    <circle cx="254.768" cy="192" r="96" fill="#ffca28" fill-rule="nonzero"/>
    <g fill="#3c4043" fill-rule="evenodd">
      <path d="M224.435,238.66667c-6.44332,0 -11.66667,-5.22334 -11.66667,-11.66667c0,-6.44332 5.22334,-11.66667 11.66667,-11.66667c6.44332,0 11.66667,5.22334 11.66667,11.66667c0,6.44332 -5.22334,11.66667 -11.66667,11.66667zM254.76833,182.66667c6.44332,0 11.66667,5.22334 11.66667,11.66667v32.66667c0,6.44332 -5.22334,11.66667 -11.66667,11.66667c-6.44332,0 -11.66667,-5.22334 -11.66667,-11.66667v-32.66667c0,-6.44332 5.22334,-11.66667 11.66667,-11.66667zM285.10167,145.33333c6.44332,0 11.66667,5.22334 11.66667,11.66667v70c0,6.44332 -5.22334,11.66667 -11.66667,11.66667c-6.44332,0 -11.66667,-5.22334 -11.66667,-11.66667v-70c0,-6.44332 5.22334,-11.66667 11.66667,-11.66667z"/>
    </g>
    <g fill="#5f6368" fill-rule="nonzero">
      <g>
        <path d="M191.48933,330.09833c2.684,0 4.81433,1.19167 5.92333,2.51267h0.16933v-1.81133h4.68867v20.15933c0,8.30167 -4.9,11.70767 -10.694,11.70767c-5.45333,0 -8.73467,-3.66067 -9.971,-6.64067l4.30267,-1.78833c0.76667,1.83 2.642,4.00067 5.66667,4.00067c3.70733,0 6.00667,-2.3 6.00667,-6.59867v-1.61767h-0.169c-1.107,1.36267 -3.23933,2.55433 -5.92333,2.55433c-5.62467,0 -10.78,-4.89567 -10.78,-11.196c0,-6.34433 5.15533,-11.282 10.78,-11.282zM113.72433,317.66667c5.32633,0 9.11933,2.08667 11.97233,4.81033l-3.36667,3.364c-2.045,-1.91567 -4.81433,-3.40567 -8.60733,-3.40567c-7.03067,0 -12.52767,5.66167 -12.52767,12.68633c0,7.02433 5.497,12.68633 12.52767,12.68633c4.55933,0 7.15767,-1.83 8.82,-3.49133c1.364,-1.36267 2.25833,-3.32033 2.59867,-6.002h-11.41667v-4.76867h16.06367c0.17133,0.85133 0.255,1.874 0.255,2.98c0,3.577 -0.98,8.00333 -4.13333,11.15467c-3.06667,3.193 -6.98667,4.89567 -12.18567,4.89567c-9.62867,0.00033 -17.72433,-7.834 -17.72433,-17.45467c0,-9.62067 8.09567,-17.455 17.72433,-17.455zM223.19267,330.09833c5.838,0 8.69333,4.64133 9.629,7.152l0.51167,1.277l-15.04067,6.215c1.151,2.256 2.941,3.40567 5.45367,3.40567c2.51267,0 4.261,-1.23333 5.53933,-3.10733l3.83467,2.55433c-1.23667,1.83033 -4.219,4.98133 -9.374,4.98133c-6.39133,0 -11.03267,-4.93767 -11.03267,-11.238c0,-6.68433 4.68333,-11.24 10.479,-11.24zM142.88267,330.09633c6.22233,0.002 11.29167,4.72667 11.29167,11.24c0,6.47167 -5.06933,11.23833 -11.29133,11.23833c-6.22,0 -11.29133,-4.76867 -11.29133,-11.23833c0,-6.51333 5.071,-11.24 11.29133,-11.24zM167.421,330.09633c6.222,0.002 11.29133,4.72667 11.29133,11.24c0,6.47167 -5.06933,11.23833 -11.29133,11.23833c-6.22,0 -11.29133,-4.76867 -11.29133,-11.23833c0,-6.51333 5.07133,-11.24 11.29133,-11.24zM210.50333,318.85833v33.03767h-4.94167v-33.03767zM191.91733,334.52667c-3.40867,0 -6.264,2.89467 -6.264,6.85333c0,3.91733 2.85533,6.77 6.264,6.77c3.365,-0.002 6.007,-2.85267 6.007,-6.77c0,-3.95867 -2.642,-6.85333 -6.007,-6.85333zM142.883,334.52467c-3.40867,0 -6.34967,2.76733 -6.34967,6.81167c0,4.001 2.941,6.81167 6.34967,6.81167c3.40867,0 6.34933,-2.809 6.34933,-6.81167c0,-4.04433 -2.94067,-6.81167 -6.34933,-6.81167zM167.421,334.52467c-3.40867,0 -6.34933,2.76733 -6.34933,6.81167c0,4.001 2.94067,6.81167 6.34933,6.81167c3.40867,0 6.34933,-2.809 6.34933,-6.81167c0,-4.04433 -2.94067,-6.81167 -6.34933,-6.81167zM223.362,334.44133c-2.51467,0 -6.00667,2.212 -5.87967,6.555l10.055,-4.172c-0.55333,-1.40433 -2.216,-2.38333 -4.17533,-2.38333z"/>
        <path d="M251.53,352h-4.35l11.52,-30.55h4.43667l11.52,30.55h-4.35333l-2.94333,-8.27667h-12.84333zM260.83333,326.27333l-4.99333,13.78h10.15333l-4.99,-13.78z"/>
        <path d="M277.55667,331.09333h3.75667v2.9h0.17c0.56889,-0.99556 1.46444,-1.84111 2.68667,-2.53667c1.22444,-0.69778 2.53333,-1.04667 3.92667,-1.04667v0c2.58889,0 4.56556,0.79667 5.93,2.39c1.36444,1.59333 2.04667,3.72667 2.04667,6.4v0v12.8h-3.92333v-12.20333c0,-3.86889 -1.72111,-5.80333 -5.16333,-5.80333v0c-1.62222,0 -2.94444,0.64778 -3.96667,1.94333c-1.02444,1.29333 -1.53667,2.79333 -1.53667,4.5v0v11.56333h-3.92667z"/>
        <path d="M307.08333,352.68333v0c-2.22,0 -4.07667,-0.64 -5.57,-1.92c-1.49333,-1.28 -2.24,-2.97222 -2.24,-5.07667v0c0,-2.27556 0.88222,-4.06111 2.64667,-5.35667c1.76444,-1.29333 3.94,-1.94 6.52667,-1.94v0c2.30444,0 4.19667,0.42667 5.67667,1.28v0v-0.59667c0,-1.53778 -0.52667,-2.76889 -1.58,-3.69333c-1.05111,-0.92444 -2.34556,-1.38667 -3.88333,-1.38667v0c-1.13778,0 -2.16889,0.27111 -3.09333,0.81333c-0.92444,0.54 -1.55667,1.27889 -1.89667,2.21667v0l-3.58333,-1.53667c0.48222,-1.25111 1.43444,-2.41 2.85667,-3.47667c1.42222,-1.06667 3.3,-1.6 5.63333,-1.6v0c2.67333,0 4.89222,0.78222 6.65667,2.34667c1.76222,1.56444 2.64333,3.76889 2.64333,6.61333v0v12.63h-3.75333v-2.9h-0.17c-1.56444,2.38889 -3.85444,3.58333 -6.87,3.58333zM307.72333,349.1v0c1.62,0 3.09222,-0.60444 4.41667,-1.81333c1.32222,-1.20889 1.98333,-2.63889 1.98333,-4.29v0c-1.10889,-0.90889 -2.77333,-1.36333 -4.99333,-1.36333v0c-1.90444,0 -3.34111,0.41222 -4.31,1.23667c-0.96667,0.82444 -1.45,1.79111 -1.45,2.9v0c0,1.02444 0.44111,1.83556 1.32333,2.43333c0.88222,0.59778 1.89222,0.89667 3.03,0.89667z"/>
        <path d="M326.02667,321.45v30.55h-3.92667v-30.55z"/>
        <path d="M349.49333,331.09333l-13.1,30.12333h-4.05333l4.86667,-10.54l-8.62,-19.58333h4.26667l6.23,15.02h0.08333l6.06,-15.02z"/>
        <path d="M361.1,352.34v0c-2.19111,0 -3.86222,-0.58222 -5.01333,-1.74667c-1.15333,-1.16667 -1.73,-2.81667 -1.73,-4.95v0v-10.96667h-3.67v-3.58333h3.67v-6.4h3.92667v6.4h5.12v3.58333h-5.12v10.66667c0,2.27556 0.93889,3.41333 2.81667,3.41333v0c0.71111,0 1.30778,-0.11333 1.79,-0.34v0l1.36667,3.37c-0.85333,0.36889 -1.90556,0.55333 -3.15667,0.55333z"/>
        <path d="M370.99667,325.84667c-0.54,0.54 -1.19444,0.81 -1.96333,0.81c-0.76667,0 -1.42,-0.27 -1.96,-0.81c-0.54222,-0.54222 -0.81333,-1.19667 -0.81333,-1.96333c0,-0.76889 0.27111,-1.42333 0.81333,-1.96333c0.54,-0.54 1.19333,-0.81 1.96,-0.81c0.76889,0 1.42333,0.27 1.96333,0.81c0.54,0.54 0.81,1.19444 0.81,1.96333c0,0.76667 -0.27,1.42111 -0.81,1.96333zM370.99667,331.09333v20.90667h-3.92333v-20.90667z"/>
        <path d="M385.03333,352.68333v0c-3.12889,0 -5.70222,-1.06 -7.72,-3.18c-2.02,-2.11778 -3.03,-4.77 -3.03,-7.95667c0,-3.18667 1.01,-5.83889 3.03,-7.95667c2.01778,-2.12 4.59111,-3.18 7.72,-3.18v0c2.33333,0 4.26778,0.56889 5.80333,1.70667c1.53556,1.13778 2.65889,2.57444 3.37,4.31v0l-3.58333,1.49333c-1.08,-2.61778 -3.02778,-3.92667 -5.84333,-3.92667v0c-1.73556,0 -3.26444,0.71111 -4.58667,2.13333c-1.32444,1.42222 -1.98667,3.22889 -1.98667,5.42c0,2.19111 0.66222,3.99778 1.98667,5.42c1.32222,1.42222 2.85111,2.13333 4.58667,2.13333v0c2.92889,0 4.94778,-1.30889 6.05667,-3.92667v0l3.5,1.49333c-0.71111,1.70667 -1.85667,3.13556 -3.43667,4.28667c-1.57778,1.15333 -3.53333,1.73 -5.86667,1.73z"/>
        <path d="M405.3,352.68333v0c-2.33111,0 -4.25778,-0.56889 -5.78,-1.70667c-1.52222,-1.13778 -2.63889,-2.56 -3.35,-4.26667v0l3.5,-1.45c1.10889,2.61556 3,3.92333 5.67333,3.92333v0c1.22444,0 2.22778,-0.27 3.01,-0.81c0.78222,-0.54 1.17333,-1.25111 1.17333,-2.13333v0c0,-1.36444 -0.95333,-2.28889 -2.86,-2.77333v0l-4.22333,-1.02333c-1.33778,-0.34222 -2.60333,-0.99 -3.79667,-1.94333c-1.19556,-0.95111 -1.79333,-2.23778 -1.79333,-3.86v0c0,-1.84889 0.81778,-3.34889 2.45333,-4.5c1.63556,-1.15333 3.57667,-1.73 5.82333,-1.73v0c1.84889,0 3.49889,0.42 4.95,1.26c1.45111,0.83778 2.48889,2.03889 3.11333,3.60333v0l-3.41333,1.41c-0.76667,-1.84889 -2.35889,-2.77333 -4.77667,-2.77333v0c-1.16667,0 -2.14778,0.24111 -2.94333,0.72333c-0.79778,0.48444 -1.19667,1.13889 -1.19667,1.96333v0c0,1.19556 0.92444,2.00667 2.77333,2.43333v0l4.14,0.98c1.96222,0.45556 3.41222,1.23778 4.35,2.34667c0.94,1.10889 1.41,2.36111 1.41,3.75667v0c0,1.87556 -0.76778,3.44 -2.30333,4.69333c-1.53778,1.25111 -3.51556,1.87667 -5.93333,1.87667z"/>
      </g>
    </g>
  </g>
</svg>
